<svg xmlns="http://www.w3.org/2000/svg" viewBox="0 0 15 15">
  <path d="M14 0L14 11.65C13.86 11.96 13.7 12.27 13.53 12.57C12.86 13.7 11.77 15 10.24 15C9.1 15 8.25 14.33 7.71 13.75C7.64 13.67 7.57 13.59 7.5 13.51C7.43 13.59 7.36 13.67 7.29 13.75C6.75 14.33 5.9 15 4.76 15C3.23 15 2.14 13.7 1.47 12.57C1.3 12.27 1.14 11.96 1 11.65L1 0L2.05 1.22L5.82 5.35C6.21 5.09 6.79 4.8 7.5 4.8C8.21 4.8 8.79 5.09 9.18 5.35L12.95 1.22L14 0ZM7.5 9.47C6.94 9.47 6.48 9.95 6.48 10.54C6.48 11.12 6.94 11.6 7.5 11.6C8.06 11.6 8.52 11.12 8.52 10.54C8.52 9.95 8.06 9.47 7.5 9.47Z"/>
</svg>