<svg xmlns="http://www.w3.org/2000/svg" viewBox="0 0 15 15">
  <path d="M13.88 6.46L10.78 8.67C10.4 8.94 10.07 9.29 9.82 9.69L8.91 11.15C8.88 11.19 8.85 11.23 8.82 11.27C8.6 11.59 7.58 12.99 6.65 13.58C5.55 14.28 3.19 14.68 2.74 14.75C2.69 14.76 2.64 14.77 2.58 14.77C2.17 14.81 0.26 15 0 15L0 10.97L1.54 10.97C1.77 10.97 1.98 10.88 2.15 10.71L3.99 8.84C4.69 8.1 6.74 7.29 7.93 6.96C7.96 6.96 7.99 6.93 7.99 6.89L8.39 4.52C8.41 4.41 8.46 4.29 8.52 4.19L10.31 1.13C10.48 0.84 10.86 0.79 11.09 1.04C11.63 1.61 11.82 2.47 11.58 3.24L11.09 4.11L13.26 0.44C13.52 -0.01 14.1 -0.14 14.52 0.16L14.62 0.23C14.9 0.43 15.04 0.77 14.99 1.12L14.25 5.86C14.21 6.1 14.08 6.32 13.88 6.46Z"/>
</svg>