<svg xmlns="http://www.w3.org/2000/svg" viewBox="0 0 15 15">
  <path d="M1.67 0L1.67 0.03C1.67 0.05 1.67 0.09 1.67 0.14C1.68 0.23 1.69 0.37 1.71 0.55C1.75 0.9 1.83 1.36 1.99 1.82C2.3 2.73 2.83 3.45 3.74 3.64C3.93 3.55 4.13 3.48 4.34 3.44L4.44 3.42C6.46 3.02 8.54 3.02 10.56 3.42L10.66 3.44C10.88 3.48 11.09 3.55 11.29 3.65C12.15 3.63 12.68 3 13.01 1.98C13.17 1.5 13.25 1 13.29 0.61C13.31 0.42 13.32 0.26 13.33 0.16C13.33 0.1 13.33 0.06 13.33 0.03L13.33 0L14.99 0L15 0L15 0.02L15 0.07C15 0.11 15 0.16 14.99 0.23C14.99 0.36 14.97 0.56 14.95 0.78C14.9 1.23 14.8 1.85 14.6 2.48C14.3 3.39 13.69 4.54 12.51 5.03C12.57 5.19 12.61 5.36 12.63 5.53L12.69 6.1C12.86 7.58 12.14 9.03 10.84 9.82L10.43 10.07C9.84 10.43 9.42 11.02 9.28 11.69L8.82 13.95C8.69 14.56 8.14 15 7.5 15C6.86 15 6.31 14.56 6.18 13.95L5.72 11.69C5.58 11.02 5.16 10.43 4.57 10.07L4.16 9.82C2.86 9.03 2.14 7.58 2.31 6.1L2.37 5.53C2.4 5.32 2.45 5.12 2.52 4.93C1.34 4.37 0.72 3.26 0.41 2.33C0.2 1.73 0.1 1.16 0.05 0.73C0.03 0.52 0.01 0.34 0.01 0.22C0 0.15 0 0.1 0 0.06L0 0L0.01 0C0.02 0 0.02 0 0.03 0L1.67 0ZM10.23 5.01C8.43 4.66 6.57 4.66 4.77 5.01L4.67 5.03C4.33 5.09 4.07 5.37 4.03 5.71L3.96 6.28C3.96 6.35 3.95 6.42 3.95 6.49L11.05 6.49C11.05 6.42 11.04 6.35 11.04 6.28L10.97 5.71C10.93 5.37 10.67 5.09 10.33 5.03Z"/>
</svg>