<svg xmlns="http://www.w3.org/2000/svg" viewBox="0 0 15 15">
  <path d="M13.71 0L12.75 0L9.86 3.11C10.29 3.21 10.61 3.43 10.82 3.75C11.25 4.18 11.68 4.71 11.89 5.36L15 1.93L15 1.29C15 0.64 14.36 0 13.71 0ZM3.96 9.32L0 13.61L0 13.71C0 14.36 0.64 15 1.29 15L2.79 15L6.21 11.36C5.25 11.04 4.39 10.29 3.96 9.32ZM11.46 7.5C11.46 5.36 9.75 3.54 7.5 3.54C5.25 3.54 3.54 5.36 3.54 7.5L4.5 7.5C4.5 5.89 5.89 4.5 7.5 4.5C9.11 4.5 10.5 5.89 10.5 7.5C10.5 7.82 10.39 8.14 10.39 8.36C9.64 9.11 8.57 10.71 8.57 12C8.57 12.54 8.36 13.5 7.61 13.5C7.29 13.5 7.07 13.71 7.07 14.04C7.07 14.36 7.29 14.57 7.61 14.57C8.89 14.57 9.64 13.29 9.64 12.11C9.64 11.25 10.5 9.86 11.25 9.11C11.36 9 11.36 9 11.36 8.89L11.36 8.89C11.46 8.46 11.46 8.04 11.46 7.5Z"/>
</svg>