<svg xmlns="http://www.w3.org/2000/svg" viewBox="0 0 15 15">
  <path d="M7.51 3C10.37 3 12.87 4.5 15 7.5C12.87 10.5 10.37 12 7.51 12C4.66 12 2.15 10.5 0 7.5C2.15 4.5 4.66 3 7.51 3ZM7.5 4.5C5.84 4.5 4.5 5.84 4.5 7.5C4.5 9.16 5.84 10.5 7.5 10.5C9.16 10.5 10.5 9.16 10.5 7.5C10.5 5.84 9.16 4.5 7.5 4.5ZM7.5 5.5C8.6 5.5 9.5 6.4 9.5 7.5C9.5 8.6 8.6 9.5 7.5 9.5C6.4 9.5 5.5 8.6 5.5 7.5C5.5 6.4 6.4 5.5 7.5 5.5ZM6.75 6C6.34 6 6 6.34 6 6.75C6 7.16 6.34 7.5 6.75 7.5C7.16 7.5 7.5 7.16 7.5 6.75C7.5 6.34 7.16 6 6.75 6Z"/>
</svg>