<svg xmlns="http://www.w3.org/2000/svg" viewBox="0 0 15 15">
  <path d="M7.51 3C10.37 3 12.87 4.5 15 7.5C12.87 10.5 10.37 12 7.51 12C4.66 12 2.15 10.5 0 7.5C2.15 4.5 4.66 3 7.51 3ZM7.51 4C5.28 4 3.27 5.06 1.46 7.25L1.25 7.5L1.46 7.75C3.2 9.85 5.11 10.91 7.25 10.99L7.51 11C9.75 11 11.75 9.94 13.55 7.76L13.75 7.5L13.55 7.24C11.82 5.14 9.91 4.09 7.78 4.01L7.51 4ZM7.5 5C8.88 5 10 6.12 10 7.5C10 8.88 8.88 10 7.5 10C6.12 10 5 8.88 5 7.5C5 6.12 6.12 5 7.5 5ZM6.75 6C6.34 6 6 6.34 6 6.75C6 7.16 6.34 7.5 6.75 7.5C7.16 7.5 7.5 7.16 7.5 6.75C7.5 6.34 7.16 6 6.75 6Z"/>
</svg>