<svg xmlns="http://www.w3.org/2000/svg" viewBox="0 0 15 15">
  <path d="M5.36 1.07C4.29 1.07 3.21 1.57 2.14 2.65C1.07 3.72 0 4.79 0 5.86C0.71 5.86 1.43 6.26 2.14 6.26C3.78 6.26 4.22 4.86 5.36 3.72C5.93 3.34 6.42 2.96 8 3.15C9.67 3.5 12.86 4.78 15 6.29C13.28 4.53 11.26 2.58 8.57 1.57C7.5 1.04 6.43 1.07 5.36 1.07ZM13.23 6.6L8.91 8.47C5.33 9.06 1.22 7.68 1.34 7.83C1.39 7.89 1.43 7.94 1.47 8L1.47 8.04L0 11.79L2.78 9.64L3.21 13.93L5.32 10.51C5.52 10.55 5.71 10.59 5.93 10.61L7.5 13.93L8.67 10.61C9.03 10.55 9.35 10.43 9.68 10.31L11.79 12.86L11.82 8.94C11.88 8.88 11.93 8.8 11.99 8.74L15 10.71L12.99 7.2C13.08 7 13.16 6.79 13.23 6.6Z"/>
</svg>