<svg xmlns="http://www.w3.org/2000/svg" viewBox="0 0 15 15">
  <path d="M14.26 2.41C14.82 2.81 15.07 3.46 14.98 4.16C14.94 4.55 14.79 4.95 14.56 5.36C14.48 5.2 14.38 5.04 14.23 4.9C13.97 4.64 13.67 4.5 13.38 4.44C13.46 4.26 13.51 4.11 13.52 3.99C13.55 3.75 13.48 3.66 13.4 3.6C13.28 3.52 13.01 3.43 12.54 3.49C12.11 3.55 11.57 3.74 10.96 4.1C11.04 4.54 10.99 5 10.9 5.39C10.75 6.12 10.41 6.86 10.15 7.43L10.12 7.49C10 7.77 9.9 7.99 9.82 8.18C9.75 8.37 9.73 8.46 9.73 8.48L9.73 8.84C9.72 9.43 9.72 10.28 9.68 11.06C9.66 11.54 9.62 12.01 9.56 12.4C9.53 12.59 9.5 12.78 9.45 12.95C9.41 13.08 9.33 13.33 9.15 13.51C8.9 13.77 8.56 13.89 8.21 13.82C7.93 13.77 7.72 13.61 7.62 13.54C7.59 13.51 7.55 13.48 7.52 13.45C7.49 13.48 7.45 13.51 7.41 13.54C7.32 13.61 7.1 13.77 6.83 13.82C6.47 13.89 6.14 13.77 5.89 13.51C5.71 13.33 5.63 13.08 5.59 12.95C5.54 12.78 5.5 12.59 5.47 12.4C5.42 12.01 5.38 11.54 5.36 11.06C5.32 10.28 5.31 9.43 5.31 8.84L5.31 8.48C5.31 8.46 5.29 8.37 5.21 8.18C5.14 7.99 5.04 7.77 4.91 7.49L4.88 7.43C4.62 6.86 4.29 6.12 4.13 5.39C4.05 5 4 4.56 4.08 4.12C3.45 3.74 2.9 3.55 2.46 3.49C1.99 3.43 1.72 3.52 1.6 3.6C1.52 3.66 1.45 3.75 1.48 3.99C1.49 4.11 1.54 4.26 1.62 4.44C1.33 4.5 1.03 4.64 0.77 4.9C0.62 5.04 0.52 5.2 0.44 5.36C0.21 4.95 0.06 4.55 0.02 4.16C-0.07 3.46 0.18 2.81 0.74 2.41C1.27 2.03 1.97 1.94 2.66 2.04C3.33 2.13 4.06 2.39 4.81 2.84C5.42 2.32 6.34 2.1 7.52 2.1C8.69 2.1 9.61 2.32 10.22 2.82C10.96 2.39 11.68 2.13 12.34 2.04C13.03 1.94 13.73 2.03 14.26 2.41ZM3.37 6.2C4.01 6.85 4.25 7.66 3.89 8.02C3.53 8.38 2.71 8.15 2.07 7.5C1.56 6.99 1.31 6.38 1.4 5.97C1.42 5.85 1.47 5.76 1.55 5.68C1.64 5.58 1.77 5.53 1.92 5.51C2.33 5.48 2.9 5.73 3.37 6.2ZM13.08 5.51C13.23 5.53 13.36 5.58 13.45 5.68C13.53 5.76 13.58 5.85 13.6 5.97C13.69 6.38 13.44 6.99 12.93 7.5C12.29 8.15 11.47 8.38 11.11 8.02C10.75 7.66 10.99 6.85 11.63 6.2C12.1 5.73 12.67 5.48 13.08 5.51Z"/>
</svg>