<svg xmlns="http://www.w3.org/2000/svg" viewBox="0 0 15 15">
  <path d="M9.58 0C8.75 0 8.75 0 8.75 0L8.75 4.43C8.67 4.39 8.58 4.35 8.5 4.32C8.08 4.16 7.64 4.12 7.19 4.23C6.94 4.29 6.7 4.4 6.49 4.54C6.2 4.37 5.86 4.25 5.51 4.2C4.46 4.04 3.21 4.43 2.09 5.45C1.08 6.37 0.55 7.3 0.27 8.08C0 8.86 0 9.47 0 9.73L0 11.35C0 12.91 1.26 14.17 2.81 14.17C4.37 14.17 5.63 12.91 5.63 11.35L5.63 9.75C5.63 9.66 5.66 9.43 5.77 9.19C5.89 8.95 6.05 8.76 6.25 8.64C7.45 7.95 7.5 6.7 7.5 6.25C7.5 6.13 7.49 6.01 7.47 5.9C7.52 5.87 7.56 5.85 7.59 5.84C7.66 5.83 7.77 5.83 7.91 5.88C8.13 5.96 8.44 6.19 8.75 6.6L8.75 15L10.42 15L10.42 10.08C10.42 8.46 11.1 7.23 12.14 6.52C12.31 6.4 12.48 6.3 12.65 6.22L12.66 6.23C12.67 6.22 12.68 6.21 12.69 6.2C13.31 5.9 13.93 5.83 15 5.83L15 4.17C14.59 4.17 14.21 4.18 13.86 4.21C13.96 3.76 13.97 3.32 13.89 2.89C13.78 2.32 13.49 1.8 13.02 1.41C12.54 1.03 11.93 0.83 11.25 0.83L11.25 2.5C11.61 2.5 11.83 2.6 11.97 2.71C12.11 2.82 12.21 2.99 12.26 3.21C12.34 3.63 12.21 4.26 11.68 4.84C11.52 4.93 11.36 5.03 11.2 5.15C10.91 5.34 10.65 5.55 10.42 5.79L10.42 0C10.42 0 10.42 0 9.58 0Z"/>
</svg>