<svg xmlns="http://www.w3.org/2000/svg" viewBox="0 0 15 15">
  <path d="M3.43 1.11C4.18 1.96 5.14 2.82 6.64 3.46L7.14 3.65C8.65 4.18 9.96 4.48 10.7 4.63L11.36 4.75L13.93 5.18C14.36 5.29 14.68 5.61 14.57 6.04C14.47 6.33 14.29 6.53 13.94 6.56L13.82 6.57C13.82 6.57 13.71 6.57 13.71 6.57L11.14 6.14L11.14 6.25L11.78 6.56C13.25 7.27 14.46 7.91 14.65 8.05L14.68 8.07C15 8.29 15.11 8.71 14.89 9.04C14.79 9.25 14.46 9.36 14.25 9.36C14.16 9.36 14.08 9.36 13.99 9.3L13.93 9.25C13.93 9.25 12.33 8.36 10.39 7.52L10.18 7.43L10.16 7.43C10.14 7.44 10.11 7.45 10.14 7.5L10.18 7.54C11.25 8.18 12.54 9.25 13.39 10.64C13.61 10.96 13.5 11.5 13.18 11.71C13.07 11.71 12.96 11.82 12.86 11.82C12.64 11.82 12.43 11.71 12.21 11.5C11.73 10.74 11.09 10.06 10.42 9.54L10.18 9.36C10.18 9.36 8.38 7.76 6.51 8.03L6.32 8.07C4.39 8.39 5.14 9.89 5.25 10.75C5.36 11.61 4.93 12.04 4.61 12.14C4.5 12.14 4.5 12.14 4.39 12.25C4.18 12.25 4.07 12.04 4.07 12.04L4.07 11.93C3 7.96 1.5 5.29 0 3.36L3.43 1.11Z"/>
</svg>