<svg xmlns="http://www.w3.org/2000/svg" viewBox="0 0 15 15">
  <path d="M11.88 4.63C12.3 4.78 12.64 5.04 12.89 5.41C13.26 5.95 13.39 6.63 13.4 7.27C13.42 8.56 13.02 10.07 12.6 11.15C12.12 12.39 11.16 13.34 10.22 13.97C9.3 14.6 8.26 15 7.5 15C6.74 15 5.9 14.63 5.2 14.18C4.47 13.72 3.76 13.11 3.25 12.47C2.72 11.82 1.99 10.39 1.71 9.01C1.6 8.43 1.55 7.81 1.67 7.22C1.81 6.69 2.16 6.34 2.63 6.08C3.12 5.81 3.72 5.66 4.3 5.54C6.08 5.14 7.16 5.76 8.04 6.3C7.78 6.87 7.63 7.45 7.56 7.99C7.16 7.94 6.63 7.98 6.11 8.26C6.08 8.24 6.04 8.23 6.01 8.22L4.67 7.76L4.31 8.82L5.18 9.12L4.8 10.17L5.83 10.57L6.19 9.61L6.31 9.49C6.74 9.08 7.25 9.07 7.5 9.11C7.5 9.3 7.52 9.47 7.54 9.62C7.58 9.9 7.64 10.17 7.74 10.38L7.83 10.56L7.63 12.49L8.73 12.61L8.89 11.12L10.35 11.28L10.47 10.16L8.78 9.98L8.73 9.87C8.71 9.83 8.67 9.69 8.64 9.47C8.6 9.25 8.59 8.98 8.6 8.67C8.61 8.39 8.65 8.09 8.71 7.79L8.73 7.75C8.84 7.54 8.93 7.27 9.02 7.01L9.04 6.96C9.13 6.71 9.22 6.45 9.33 6.2L9.33 6.18L9.34 6.16C9.57 5.62 9.83 5.2 10.17 4.97C10.34 4.85 10.65 4.75 11.08 4.69C11.33 4.65 11.6 4.63 11.88 4.63ZM13.4 2.06L13.4 3.6C13.11 3.56 12.8 3.53 12.49 3.52C11.97 3.49 11.43 3.5 10.93 3.57C10.44 3.64 9.93 3.77 9.55 4.03C9.09 4.35 8.76 4.82 8.52 5.29C8.15 5.06 7.7 4.8 7.17 4.6C8.04 2.61 9.93 2.06 11.56 2.06L13.4 2.06ZM7.69 0C7.73 0 7.76 0.03 7.76 0.08L7.76 1.54C7.76 1.58 7.79 1.61 7.83 1.62L8.33 1.71C7.41 2.23 6.58 3.06 6.08 4.33C5.49 4.26 4.83 4.27 4.07 4.44C3.54 4.55 2.85 4.71 2.23 5.03C1.92 4.93 1.51 4.88 0.97 4.88C0.92 4.88 0.89 4.82 0.91 4.77L1.59 3.03C1.6 3.01 1.61 3 1.63 2.99C2.05 2.8 2.94 2.97 3.68 3.47L3.89 3.01C3.9 2.99 3.89 2.96 3.88 2.94L3.04 1.72C3.02 1.69 3.02 1.64 3.06 1.61L4.44 0.63C4.47 0.6 4.52 0.61 4.54 0.65L5.38 1.86C5.4 1.88 5.43 1.9 5.46 1.89L5.92 1.75L5.93 1.61L5.93 0.08C5.93 0.03 5.96 0 6 0L7.69 0Z"/>
</svg>