<svg xmlns="http://www.w3.org/2000/svg" viewBox="0 0 15 15">
  <path d="M2.65 9.96L2.65 15L9.63 15L9.63 12.65C9.54 12.64 9.45 12.63 9.36 12.62C8.5 12.55 7.54 12.38 6.8 12.02C6.49 11.86 6.37 11.49 6.52 11.18C6.68 10.87 7.05 10.74 7.36 10.9C7.88 11.16 8.64 11.3 9.48 11.38C10.28 11.45 11.07 11.45 11.64 11.45L11.68 11.45L11.68 11.46L12.27 11.46C12.74 11.46 13.11 11.09 13.11 10.63L13.11 8.64L13.66 8.64C14.28 8.64 14.68 7.99 14.42 7.44C13.79 6.13 12.81 4.04 12.27 2.61C12.12 2.22 11.84 1.97 11.48 1.64C11.44 1.6 11.4 1.57 11.36 1.53C10.37 0.62 9.24 0 6.7 0C1.76 0 0.5 3.27 0.5 4.97C0.5 7.36 1.93 9.22 2.65 9.96Z"/>
</svg>