<svg xmlns="http://www.w3.org/2000/svg" viewBox="0 0 15 15">
  <path d="M8.68 0C9.34 0 9.88 0.51 9.88 1.13L9.88 2.21C9.88 2.93 9.35 3.31 9.03 3.46C8.73 3.6 8.4 3.66 8.18 3.7C7.94 3.73 7.67 3.75 7.43 3.78C7.42 3.78 7.41 3.78 7.4 3.78C7.14 3.8 6.89 3.83 6.65 3.86C6.13 3.93 5.79 4.03 5.6 4.14C5.53 4.19 5.49 4.21 5.47 4.3C5.48 4.3 5.48 4.3 5.49 4.3C5.55 4.34 5.65 4.37 5.78 4.4C6.3 4.55 7.02 4.61 7.93 4.68C8 4.69 8.07 4.69 8.14 4.7C9.05 4.77 10.16 4.87 11.04 5.18C11.5 5.34 11.99 5.59 12.37 6C12.78 6.43 13 6.98 13 7.6C13 8.27 12.72 8.84 12.23 9.26C11.77 9.64 11.22 9.82 10.72 9.93C9.79 10.13 8.6 10.13 7.59 10.13C7.56 10.13 7.53 10.13 7.5 10.13C6.37 10.13 5.45 10.13 4.81 10.28C4.57 10.33 4.44 10.38 4.39 10.42C4.39 10.56 4.43 10.61 4.44 10.62C4.45 10.64 4.5 10.7 4.65 10.76C4.98 10.91 5.52 11 6.26 11.03C6.6 11.04 6.94 11.04 7.29 11.04L7.32 11.04C7.67 11.05 8.03 11.05 8.36 11.07C8.65 11.09 9.05 11.12 9.39 11.25C9.58 11.32 9.83 11.44 10.04 11.66C10.28 11.92 10.42 12.24 10.42 12.59L10.42 13.87C10.42 14.49 9.88 15 9.22 15C8.56 15 8.03 14.49 8.03 13.87L8.03 13.32C7.82 13.32 7.59 13.31 7.31 13.31L7.26 13.31C6.92 13.31 6.54 13.31 6.16 13.29C5.39 13.26 4.42 13.17 3.62 12.81C3.21 12.63 2.78 12.34 2.47 11.91C2.15 11.47 2 10.96 2 10.41C2 9.74 2.27 9.16 2.77 8.74C3.22 8.36 3.78 8.17 4.27 8.06C5.22 7.86 6.41 7.86 7.42 7.86C7.45 7.86 7.47 7.86 7.5 7.86C8.63 7.86 9.55 7.86 10.2 7.72C10.43 7.67 10.55 7.61 10.61 7.58C10.61 7.52 10.6 7.51 10.59 7.51L10.59 7.51C10.56 7.47 10.46 7.4 10.21 7.31C9.69 7.12 8.91 7.04 7.93 6.96C7.85 6.95 7.76 6.94 7.67 6.94C6.84 6.87 5.88 6.79 5.12 6.59C4.69 6.47 4.2 6.28 3.79 5.94C3.35 5.55 3.08 5.03 3.08 4.4C3.08 3.39 3.59 2.67 4.32 2.23C4.96 1.84 5.73 1.69 6.31 1.61C6.62 1.57 6.92 1.54 7.17 1.52C7.29 1.51 7.39 1.5 7.49 1.49L7.49 1.13C7.49 0.51 8.02 0 8.68 0Z"/>
</svg>