<svg xmlns="http://www.w3.org/2000/svg" viewBox="0 0 15 15">
  <path d="M6.45 0L6.45 4.01L5.94 4.18C5.51 4.32 5.25 4.69 5.25 5.06C5.25 5.54 5.67 6 6.3 6C6.58 6 6.83 5.9 7.02 5.75L7.5 5.34L7.98 5.75C8.17 5.9 8.42 6 8.7 6C9.33 6 9.75 5.54 9.75 5.06C9.75 4.69 9.49 4.32 9.06 4.18L8.55 4.01L8.55 0L10.05 0L10.05 2.07C12.09 3.03 13.5 5.1 13.5 7.5C13.5 9.9 12.09 11.97 10.05 12.93L10.05 15L8.55 15L8.55 10.99L9.06 10.82C9.49 10.68 9.75 10.31 9.75 9.94C9.75 9.46 9.33 9 8.7 9C8.42 9 8.17 9.1 7.98 9.25L7.5 9.66L7.02 9.25C6.83 9.1 6.58 9 6.3 9C5.67 9 5.25 9.46 5.25 9.94C5.25 10.31 5.51 10.68 5.94 10.82L6.45 10.99L6.45 15L4.95 15L4.95 12.93C2.91 11.97 1.5 9.9 1.5 7.5C1.5 5.1 2.91 3.03 4.95 2.07L4.95 0L6.45 0Z"/>
</svg>