<svg xmlns="http://www.w3.org/2000/svg" viewBox="0 0 15 15">
  <path d="M8.92 0L3 0L3.12 0.48C3.4 1.65 3.65 2.46 4.15 3.39C4.62 4.26 5.3 5.23 6.39 6.7L6.18 7.06C5.99 7.4 5.76 7.84 5.63 8.22C5.35 9.06 5.35 9.71 5.42 10.37L5.45 10.65L5.49 10.92C5.55 11.36 5.61 11.81 5.61 12.38L5.47 12.55L5.14 12.92C5.04 13.03 4.94 13.15 4.87 13.27C4.79 13.4 4.72 13.57 4.72 13.76C4.73 13.96 4.79 14.19 4.89 14.39C5 14.59 5.16 14.8 5.4 14.93C5.52 14.99 5.65 15 5.74 15C5.84 15 5.93 14.98 6.02 14.96C6.13 14.94 6.25 14.9 6.37 14.86L6.67 14.75C6.8 14.7 6.91 14.66 7.02 14.62L7.18 14.58C7.24 14.56 7.28 14.56 7.3 14.56C7.58 14.56 7.99 14.65 8.4 14.75L8.96 14.9C9.11 14.93 9.29 14.97 9.43 14.97L10.74 14.97C11.26 14.97 11.57 14.62 11.73 14.38C11.79 14.29 11.84 14.21 11.87 14.13L11.95 13.96L11.98 13.86C12.02 13.74 12 13.61 11.92 13.51C11.84 13.41 11.72 13.35 11.6 13.35L10.48 13.35L8.22 12.3L9.81 7.63C9.9 7.33 9.97 7.07 9.97 6.76C9.98 6.46 9.93 6.15 9.82 5.76L8.92 0Z"/>
</svg>