<svg xmlns="http://www.w3.org/2000/svg" viewBox="0 0 15 15">
  <path d="M8.92 0L9.82 5.76C9.93 6.15 9.98 6.46 9.97 6.76C9.97 7.07 9.9 7.33 9.81 7.63L8.22 12.29L10.48 13.35L11.6 13.35C11.72 13.35 11.84 13.41 11.92 13.51C11.98 13.59 12.01 13.69 12 13.79L11.98 13.88L11.92 14.03C11.88 14.12 11.82 14.25 11.73 14.38C11.57 14.62 11.26 14.97 10.74 14.97L9.43 14.97C9.29 14.97 9.11 14.93 8.96 14.9L8.4 14.75L7.99 14.65C7.73 14.6 7.49 14.56 7.3 14.56C7.26 14.56 7.18 14.57 7.02 14.62L6.85 14.68L6.54 14.8C6.37 14.86 6.18 14.92 6.02 14.96C5.93 14.98 5.84 15 5.74 15C5.65 15 5.52 14.99 5.4 14.93C5.16 14.8 5 14.58 4.89 14.39C4.79 14.19 4.73 13.96 4.72 13.76C4.72 13.57 4.79 13.4 4.87 13.27C4.92 13.19 4.98 13.11 5.04 13.03L5.22 12.82L5.31 12.73C5.42 12.61 5.52 12.49 5.61 12.38C5.61 12.04 5.58 11.74 5.55 11.46L5.49 10.92C5.46 10.74 5.44 10.56 5.42 10.37C5.35 9.71 5.35 9.06 5.63 8.22C5.74 7.91 5.9 7.57 6.06 7.27L6.18 7.06C6.25 6.92 6.33 6.8 6.39 6.7L5.97 6.14C5.12 4.97 4.56 4.15 4.15 3.39C3.65 2.46 3.4 1.65 3.12 0.48L3 0L8.92 0ZM7.7 7.67L7.62 7.74L7.51 7.87L7.46 7.92C7.37 8.02 7.24 8.18 7.15 8.33C7.1 8.43 7.05 8.55 7.01 8.65L6.98 8.73L6.96 8.81C6.96 8.85 6.93 8.95 6.96 9.06C7.02 9.28 7.24 9.4 7.46 9.34C7.64 9.3 7.76 9.13 7.76 8.95L7.77 8.91C7.8 8.85 7.83 8.77 7.87 8.7C7.9 8.65 7.95 8.58 8.01 8.51L8.15 8.35L8.22 8.28C8.38 8.12 8.37 7.87 8.21 7.72C8.07 7.59 7.86 7.57 7.7 7.67ZM7.3 5.06C7.16 5.19 7.14 5.4 7.24 5.56L7.31 5.64L7.44 5.78C7.53 5.88 7.6 5.98 7.64 6.04C7.68 6.11 7.71 6.19 7.74 6.25L7.75 6.3C7.75 6.48 7.87 6.64 8.05 6.69C8.27 6.74 8.49 6.62 8.55 6.41C8.58 6.3 8.55 6.19 8.55 6.15C8.53 6.1 8.52 6.04 8.5 5.99C8.46 5.89 8.41 5.78 8.35 5.67C8.29 5.56 8.21 5.45 8.13 5.35L7.87 5.07C7.71 4.91 7.46 4.91 7.3 5.06ZM7.2 0.79C6.89 0.79 6.61 0.87 6.42 1.07C6.23 1.27 6.19 1.52 6.2 1.7L6.2 1.72C6.1 1.73 6.01 1.75 5.94 1.76L5.84 1.79L5.75 1.83C5.59 1.91 5.5 2.1 5.56 2.29C5.63 2.49 5.85 2.61 6.06 2.55C6.14 2.53 6.25 2.5 6.37 2.5C6.48 2.5 6.58 2.53 6.66 2.61C6.76 2.71 6.81 2.85 6.81 2.99C6.81 3.05 6.8 3.12 6.79 3.17C6.78 3.21 6.76 3.23 6.76 3.24L6.72 3.3C6.63 3.47 6.67 3.67 6.82 3.79C6.99 3.93 7.25 3.9 7.39 3.73C7.56 3.53 7.63 3.23 7.62 2.96C7.61 2.67 7.51 2.34 7.25 2.07C7.19 2.01 7.13 1.96 7.06 1.91L7.03 1.82C7.02 1.77 7.01 1.72 7.01 1.67L7.01 1.64L7.01 1.61C7.03 1.6 7.08 1.58 7.2 1.58C7.42 1.58 7.6 1.4 7.6 1.18C7.6 0.96 7.42 0.79 7.2 0.79Z"/>
</svg>