<svg xmlns="http://www.w3.org/2000/svg" viewBox="0 0 15 15">
  <path d="M8.99 8.39L8.99 11.07C8.99 11.9 9.55 12.63 10.37 12.84L12.67 13.44C14.11 13.81 15.38 12.45 14.89 11.06L12.56 4.48C12.34 3.85 11.78 3.39 11.1 3.28C9.99 3.12 8.99 3.97 8.99 5.08L8.99 6.32L8.24 5.59L8.24 1.5L6.76 1.5L6.76 5.59L6.01 6.32L6.01 5.08C6.01 3.97 5.01 3.12 3.9 3.28C3.22 3.39 2.66 3.85 2.44 4.48L0.11 11.06C-0.38 12.45 0.89 13.81 2.33 13.44L4.63 12.84C5.45 12.63 6.01 11.9 6.01 11.07L6.01 8.39L7.5 6.93L8.99 8.39Z"/>
</svg>