<svg xmlns="http://www.w3.org/2000/svg" viewBox="0 0 15 15">
  <path d="M6.75 0L8.25 0L8.25 6.39C8.25 6.78 8.26 7.31 8.4 7.73C8.47 7.94 8.55 8.06 8.63 8.13C8.7 8.19 8.8 8.25 9 8.25L9 8.63C9 6.83 9.33 5.78 9.85 5.17C10.41 4.51 11.07 4.5 11.3 4.5C11.64 4.5 11.95 4.64 12.18 4.79C12.42 4.95 12.63 5.16 12.8 5.39C13.37 6.11 13.72 6.99 13.98 7.81C14.09 8.15 14.18 8.5 14.26 8.83L14.57 10.07C14.74 10.72 14.88 11.39 14.95 11.99C15.02 12.56 15.04 13.16 14.88 13.61C14.72 14.08 14.46 14.46 14.08 14.7C13.7 14.95 13.28 15.02 12.89 15C12.14 14.96 11.33 14.61 10.68 14.29C9.99 13.96 9.58 13.32 9.34 12.76C9.1 12.18 9 11.58 9 11.18L9 9.75C8.45 9.75 7.99 9.57 7.63 9.26C7.59 9.21 7.54 9.17 7.5 9.12C7.46 9.17 7.41 9.21 7.37 9.26C7.01 9.57 6.55 9.75 6 9.75L6 11.18C6 11.58 5.9 12.18 5.66 12.76C5.42 13.32 5.01 13.96 4.32 14.29C3.67 14.61 2.86 14.96 2.11 15C1.72 15.02 1.3 14.95 0.92 14.7C0.54 14.46 0.28 14.08 0.12 13.61C-0.04 13.16 -0.02 12.56 0.05 11.99C0.11 11.51 0.21 10.99 0.34 10.46L0.53 9.68L0.74 8.83C0.82 8.5 0.91 8.15 1.02 7.81C1.28 6.99 1.63 6.11 2.2 5.39C2.37 5.16 2.58 4.95 2.82 4.79C3.05 4.64 3.36 4.5 3.7 4.5L3.81 4.5C4.1 4.51 4.66 4.6 5.15 5.17C5.67 5.78 6 6.83 6 8.63L6 8.25C6.2 8.25 6.3 8.19 6.37 8.13C6.45 8.06 6.53 7.94 6.6 7.73C6.74 7.31 6.75 6.78 6.75 6.39L6.75 0ZM11.63 10.69C11.21 10.69 10.88 11.02 10.88 11.44C10.88 11.85 11.21 12.19 11.63 12.19C12.04 12.19 12.38 11.85 12.38 11.44C12.38 11.02 12.04 10.69 11.63 10.69ZM12.94 9.56C12.63 9.56 12.38 9.81 12.38 10.13C12.38 10.44 12.63 10.69 12.94 10.69C13.25 10.69 13.5 10.44 13.5 10.13C13.5 9.81 13.25 9.56 12.94 9.56ZM11.25 7.88C10.73 7.88 10.31 8.29 10.31 8.81C10.31 9.33 10.73 9.75 11.25 9.75C11.77 9.75 12.19 9.33 12.19 8.81C12.19 8.29 11.77 7.88 11.25 7.88ZM12 6.38C11.69 6.38 11.44 6.63 11.44 6.94C11.44 7.25 11.69 7.5 12 7.5C12.31 7.5 12.56 7.25 12.56 6.94C12.56 6.63 12.31 6.38 12 6.38Z"/>
</svg>