<svg xmlns="http://www.w3.org/2000/svg" viewBox="0 0 15 15">
  <path d="M14.06 3.04L14.06 9.79L14.72 10.14C14.85 10.21 15 10.3 15 10.44C15 12.05 14.57 13.9 13.13 14.7L12.89 14.86C12.77 14.93 12.55 14.97 12.29 15L12.29 3.76C12.29 2.49 11.27 1.46 10 1.46L2.92 1.46L2.92 2.71L10 2.71C10.58 2.71 11.04 3.18 11.04 3.76L11.04 14.99C10.83 14.96 10.65 14.92 10.55 14.86L10.31 14.7C8.87 13.9 8.44 12.05 8.44 10.44C8.44 10.32 8.54 10.24 8.65 10.18L9.37 9.79L9.37 6.17C9.37 4.93 7.86 3.91 6.56 3.91L6.56 7.98C6.56 9.73 5.09 11.15 3.28 11.15C1.47 11.15 0 9.73 0 7.98L0 0.49C0 0.22 0.22 0 0.49 0L11.03 0C11.48 0 11.93 0.1 12.34 0.3C13.39 0.81 14.06 1.87 14.06 3.04Z"/>
</svg>