<svg xmlns="http://www.w3.org/2000/svg" viewBox="0 0 15 15">
  <path d="M1.67 0C-0.39 5.86 -0.72 9.14 1.67 15L6.67 15L6.67 12.93C6.05 12.62 5.62 11.99 5.62 11.25L5.62 10.54C4.66 10.27 3.96 9.38 3.96 8.33L3.96 7.5L5.21 7.5L5.21 8.33C5.21 8.67 5.37 8.98 5.62 9.17L5.62 6.67L6.87 6.67L6.87 11.25C6.87 11.6 7.15 11.87 7.5 11.87C7.85 11.87 8.12 11.6 8.12 11.25L8.12 6.67L9.37 6.67L9.37 9.17C9.63 8.98 9.79 8.67 9.79 8.33L9.79 7.5L11.04 7.5L11.04 8.33C11.04 9.38 10.34 10.27 9.37 10.54L9.37 11.25C9.37 11.99 8.95 12.62 8.33 12.93L8.33 15L13.42 15C15.68 9.14 15.37 5.86 13.42 0L1.67 0Z"/>
</svg>