<svg xmlns="http://www.w3.org/2000/svg" viewBox="0 0 15 15">
  <path d="M3.54 0L11.03 0C11.48 0 11.93 0.1 12.34 0.3C13.39 0.81 14.06 1.87 14.06 3.04L14.06 9.77L14.72 10.12C14.85 10.19 15 10.28 15 10.42C15 12.03 14.57 13.88 13.13 14.67L12.89 14.83C12.49 15.06 10.95 15.06 10.55 14.83L10.31 14.67C8.87 13.88 8.44 12.03 8.44 10.42C8.44 10.3 8.54 10.22 8.65 10.16L9.37 9.77L9.37 6.16C9.37 4.92 7.86 3.91 6.56 3.91L6.56 7.97C6.56 9.71 5.09 11.13 3.28 11.13C1.47 11.13 0 9.71 0 7.97L0 0.49C0 0.22 0.22 0 0.49 0L2.29 0L2.29 4.12C1.91 4.42 1.67 4.89 1.67 5.42L1.67 7.92C1.67 8.84 2.41 9.58 3.33 9.58C4.25 9.58 5 8.84 5 7.92L5 5.42C5 4.57 4.36 3.87 3.54 3.76L3.54 0Z"/>
</svg>