<svg xmlns="http://www.w3.org/2000/svg" viewBox="0 0 15 15">
  <path d="M6.06 0.39L8.31 4.54C8.93 5.69 9.88 6.88 10.88 7.67C11.41 8.09 12.1 8.71 12.54 9.45C12.99 10.21 13.25 11.21 12.64 12.22C12.18 12.98 11.41 13.52 10.53 13.7L9.91 13.82C9.49 13.9 8.99 14.09 8.61 14.35C8.21 14.63 8.11 14.86 8.11 15L6.6 15C6.6 14.45 6.84 14.01 7.15 13.65L7.13 13.65C6.3 13.43 5.4 12.8 4.92 12.1C6.06 11.32 7.17 10.81 8.59 11.21C9.31 11.41 9.84 11.69 10.34 12.2C10.76 12.09 11.12 11.82 11.35 11.44C11.56 11.09 11.53 10.71 11.24 10.22C10.94 9.71 10.43 9.23 9.94 8.84C8.76 7.91 7.68 6.55 6.98 5.25L4.73 1.11C4.54 0.74 4.67 0.29 5.04 0.09C5.41 -0.11 5.87 0.03 6.06 0.39ZM2.94 9.25L4.08 10.25C3.72 10.64 3.51 11.16 3.51 11.73C3.51 12.57 3.96 13.29 4.64 13.68L3.89 14.98C2.76 14.33 2 13.12 2 11.73C2 10.78 2.36 9.91 2.94 9.25Z"/>
</svg>