<svg xmlns="http://www.w3.org/2000/svg" viewBox="0 0 15 15">
  <path d="M7.09 0L7.09 1.66C6.49 1.66 5.06 1.78 4.5 2.01C3.94 2.24 3.43 2.58 3.01 3C2.58 3.43 2.24 3.93 2.01 4.49C1.78 5.05 1.66 5.65 1.66 6.25C1.66 6.85 1.78 7.45 2.01 8.01C2.24 8.57 2.58 9.07 3.01 9.5C3.43 9.92 3.94 10.26 4.5 10.49C4.87 10.65 5.62 10.75 6.26 10.8C6.35 10.81 6.43 10.83 6.51 10.86C7.08 10.97 7.51 11.48 7.51 12.08L7.51 15L5.84 15L5.84 12.43C5.11 12.35 4.32 12.21 3.86 12.02C3.1 11.71 2.41 11.25 1.83 10.67C1.25 10.09 0.79 9.4 0.48 8.64C0.16 7.88 0 7.07 0 6.25C0 5.43 0.16 4.62 0.48 3.86C0.79 3.1 1.25 2.41 1.83 1.83C2.41 1.25 3.1 0.79 3.86 0.48C4.62 0.16 6.27 0 7.09 0ZM13.53 1.93C13.91 1.9 14.34 2.02 14.64 2.41C14.9 2.74 14.98 3.18 15 3.54C15.01 3.93 14.96 4.36 14.84 4.81C14.58 5.69 14.01 6.68 12.98 7.36C12.35 7.78 11.64 7.98 11 8.1C10.6 8.17 10.16 8.22 9.79 8.26C9.64 8.28 9.51 8.3 9.39 8.31C9.25 8.54 9.09 8.75 8.91 8.93C8.94 8.94 8.98 8.95 9.01 8.96C9.62 9.11 10.02 9.81 10.02 10.42L10.02 15L8.35 15L8.35 11.25C8.35 10.49 7.51 10 6.37 10C6.34 10 6.32 10 6.29 10C5.38 10.01 4.49 9.68 3.8 9.08C3.11 8.48 2.66 7.66 2.54 6.75C2.42 5.85 2.63 4.93 3.14 4.17C3.64 3.41 4.41 2.86 5.29 2.63C5.96 2.45 6.66 2.46 7.32 2.65L7.59 2.72C8.31 2.93 8.84 3.08 9.28 3.13C10.21 3.24 10.81 3.11 11.31 2.99C11.37 2.97 11.41 2.95 11.44 2.94C11.6 2.85 11.76 2.75 11.95 2.63L12.02 2.58C12.22 2.45 12.46 2.31 12.69 2.19C12.91 2.08 13.21 1.95 13.53 1.93Z"/>
</svg>