<svg xmlns="http://www.w3.org/2000/svg" viewBox="0 0 15 15">
  <path d="M0.5 0C0.5 1.62 1.4 2.96 2.7 3.89C3.18 4.23 3.73 4.52 4.31 4.74C3.87 4.77 3.45 4.85 3.11 5.04C1.59 5.89 1.3 7.38 1.3 9.12C1.3 11.83 3.56 15 4.92 15C5.8 15 6.28 14.55 6.73 13.64C7.11 12.89 6.86 7.81 6.77 5.82L6.76 5.63C6.75 5.51 6.72 5.39 6.66 5.29C6.94 5.32 7.22 5.33 7.5 5.33C7.76 5.33 8.01 5.32 8.26 5.3C8.21 5.4 8.18 5.51 8.17 5.63L8.16 5.82C8.06 7.81 7.82 12.89 8.2 13.64C8.66 14.55 9.14 15 10.03 15C11.41 15 13.7 11.83 13.7 9.12C13.7 7.38 13.41 5.89 11.87 5.04C11.53 4.86 11.11 4.77 10.68 4.75C11.27 4.52 11.82 4.23 12.3 3.89C13.6 2.96 14.5 1.62 14.5 0L13.3 0C13.3 1.15 12.67 2.17 11.6 2.92C10.53 3.68 9.06 4.14 7.5 4.14C5.94 4.14 4.47 3.68 3.4 2.92C2.33 2.17 1.7 1.15 1.7 0L0.5 0Z"/>
</svg>