<svg xmlns="http://www.w3.org/2000/svg" viewBox="0 0 15 15">
  <path d="M8.37 0.31C10.01 0.87 11.61 2.27 12.63 5.01C13.87 8.36 13.63 10.65 12.86 12.18C12.1 13.71 10.88 14.34 10.51 14.54C10.3 14.65 9.96 14.75 9.61 14.82C9.24 14.9 8.78 14.98 8.29 14.99C7.81 15.01 7.27 14.98 6.78 14.84C6.27 14.7 5.76 14.44 5.4 13.94C4.18 12.23 4.98 10.61 5.34 9.89C5.37 9.84 5.4 9.79 5.42 9.74C5.59 9.39 5.74 9.04 5.69 8.61C5.83 8.65 5.98 8.7 6.12 8.75C6.4 8.86 6.65 8.99 6.82 9.09C6.91 9.14 6.98 9.18 7.02 9.21C7.05 9.22 7.06 9.23 7.07 9.24L7.08 9.25C7.42 9.49 7.89 9.41 8.13 9.08C8.37 8.74 8.3 8.27 7.96 8.03L7.95 8.02L7.93 8.01C7.91 8 7.88 7.98 7.85 7.96C7.79 7.92 7.69 7.86 7.58 7.79C7.45 7.72 7.3 7.63 7.12 7.55C7.19 7.53 7.26 7.51 7.33 7.49C7.73 7.39 7.98 6.99 7.87 6.58C7.77 6.18 7.36 5.94 6.96 6.04C5.97 6.29 5.19 6.54 4.48 6.88C4.48 6.89 4.49 6.89 4.49 6.9C4.42 6.84 4.36 6.79 4.28 6.74C3 5.77 2.23 4.62 2.25 3.39C2.28 2.14 3.13 1.14 4.38 0.48C5.24 0.03 6.78 -0.24 8.37 0.31ZM8.74 2.81C8.42 2.56 7.94 2.61 7.68 2.93C7.43 3.26 7.48 3.73 7.8 3.99C8.18 4.28 8.58 4.77 8.94 5.34C9.29 5.9 9.58 6.5 9.73 6.99C10.28 8.78 10.26 10.07 9.87 10.96C9.7 11.34 9.88 11.78 10.26 11.95C10.64 12.11 11.08 11.94 11.25 11.56C11.84 10.2 11.78 8.5 11.17 6.55C10.97 5.91 10.63 5.2 10.22 4.54C9.81 3.89 9.3 3.25 8.74 2.81ZM4.47 6.89C5.3 7.53 5.64 8.08 5.69 8.61C5.24 8.5 4.8 8.49 4.44 8.65C4.42 8.66 4.4 8.67 4.38 8.67C3.89 9.03 3.42 9.51 2.84 10.23C2.58 10.55 2.11 10.61 1.78 10.35C1.46 10.09 1.41 9.62 1.66 9.3C2.45 8.33 3.13 7.65 3.97 7.15C4.13 7.05 4.3 6.97 4.47 6.89Z"/>
</svg>