<svg xmlns="http://www.w3.org/2000/svg" viewBox="0 0 15 15">
  <path d="M6.08 4.6L6.98 4.6C7.36 2.85 8.99 1.54 10.95 1.54C13.19 1.54 15 3.26 15 5.38L15 10.77C15 12.89 13.19 14.62 10.95 14.62C10.01 14.62 9.16 14.32 8.47 13.82C7.87 13.39 7.44 12.96 7.07 12.59C6.46 11.98 6.02 11.54 5.27 11.54L3.65 11.54C2.88 11.54 2.42 11.8 2.13 12.2C1.81 12.64 1.62 13.32 1.62 14.23L1.62 15L0 15L0 14.23C0 13.16 0.22 12.11 0.81 11.32C1.42 10.49 2.37 10.01 3.59 10C3.67 9.99 3.75 9.99 3.8 9.99C3.9 9.98 4.02 9.98 4.15 9.98C4.41 9.98 4.74 9.98 5.06 9.98C5.19 9.98 5.32 9.99 5.44 9.99C6.56 9.81 7.28 7.98 6.89 6.15C6.76 6.15 6.63 6.15 6.51 6.15C6.4 6.15 6.29 6.15 6.21 6.15C6.16 6.15 6.1 6.14 6.03 6.14C5.23 6.13 4.56 5.96 4.02 5.59C3.48 5.21 3.18 4.68 3.02 4.14C2.86 3.61 2.83 3.03 2.82 2.47C2.82 2.18 2.82 1.84 2.83 1.5C2.83 1.24 2.84 0.99 2.84 0.77L2.84 0L4.46 0L4.46 0.77C4.46 1.07 4.45 1.33 4.45 1.58C4.44 1.87 4.44 2.15 4.44 2.45C4.45 2.97 4.48 3.4 4.58 3.73C4.68 4.04 4.81 4.23 4.98 4.35C5.16 4.48 5.48 4.6 6.08 4.6ZM8.53 8.18C9.24 8.39 10.12 8.41 10.78 7.62C11.55 6.67 12.64 6.87 13.38 7.18L13.38 5.38C13.38 4.11 12.29 3.08 10.95 3.08C9.6 3.08 8.51 4.11 8.51 5.38C8.51 5.45 8.52 5.52 8.52 5.59L8.63 6.82L8.61 6.83C8.63 7.29 8.61 7.75 8.53 8.18Z"/>
</svg>