<svg xmlns="http://www.w3.org/2000/svg" viewBox="0 0 15 15">
  <path d="M6.91 11.45L6.91 15L5.78 15L5.78 12.53L6.91 11.45ZM7.83 11.53L8.96 12.6L8.96 15L7.83 15L7.83 11.53ZM15 5.4L15 9.87C15 10.55 14.73 13.01 12.29 13.01C11.24 13.01 10.71 12.52 10.24 11.95L10.04 11.71C9.47 11.02 8.89 10.31 7.5 10.31C6.11 10.31 5.53 11.02 4.96 11.71L4.76 11.95C4.29 12.52 3.76 13.01 2.71 13.01C0.35 13.01 0.02 10.7 0 9.94L0 5.4C0 1.81 2.03 0.93 3.02 3.39C3.08 3.53 3.14 3.7 3.21 3.88C3.73 5.32 4.57 7.62 7.5 7.62C10.43 7.62 11.27 5.32 11.79 3.88C11.86 3.7 11.92 3.53 11.98 3.39C12.97 0.93 15 1.81 15 5.4ZM2.25 9.44C1.94 9.44 1.68 9.69 1.68 10C1.68 10.31 1.94 10.56 2.25 10.56C2.56 10.56 2.81 10.31 2.81 10C2.81 9.69 2.56 9.44 2.25 9.44ZM12.72 9.44C12.41 9.44 12.15 9.69 12.15 10C12.15 10.31 12.41 10.56 12.72 10.56C13.03 10.56 13.28 10.31 13.28 10C13.28 9.69 13.03 9.44 12.72 9.44ZM5.05 8.58C4.74 8.58 4.48 8.83 4.48 9.14C4.48 9.45 4.74 9.7 5.05 9.7C5.36 9.7 5.61 9.45 5.61 9.14C5.61 8.83 5.36 8.58 5.05 8.58ZM9.95 8.58C9.64 8.58 9.39 8.83 9.39 9.14C9.39 9.45 9.64 9.7 9.95 9.7C10.26 9.7 10.52 9.45 10.52 9.14C10.52 8.83 10.26 8.58 9.95 8.58ZM3.17 7.19C2.86 7.19 2.6 7.44 2.6 7.75C2.6 8.06 2.86 8.31 3.17 8.31C3.48 8.31 3.73 8.06 3.73 7.75C3.73 7.44 3.48 7.19 3.17 7.19ZM11.8 7.19C11.49 7.19 11.24 7.44 11.24 7.75C11.24 8.06 11.49 8.31 11.8 8.31C12.11 8.31 12.37 8.06 12.37 7.75C12.37 7.44 12.11 7.19 11.8 7.19ZM5.91 0.13C6.17 0.26 6.35 0.47 6.46 0.68C6.66 1.07 6.68 1.55 6.7 1.85C6.87 1.74 7.05 1.69 7.2 1.67C7.24 1.66 7.28 1.65 7.33 1.65C7.34 1.65 7.35 1.65 7.36 1.65L7.48 1.65L7.54 1.65C7.57 1.65 7.58 1.65 7.6 1.65C7.67 1.65 7.74 1.66 7.8 1.69C7.92 1.72 8.04 1.77 8.16 1.85C8.17 1.55 8.2 1.07 8.4 0.69C8.51 0.47 8.68 0.27 8.95 0.14C9.21 0.01 9.5 -0.02 9.81 0.02C10.09 0.06 10.34 0.17 10.54 0.37C10.73 0.56 10.84 0.8 10.89 1.03C10.99 1.48 10.92 2.01 10.79 2.5C10.52 3.5 9.91 4.65 9.26 5.43C9.16 5.56 9.08 5.73 9.03 5.9C8.98 6.08 8.96 6.23 8.96 6.31L8.96 6.34L7.83 6.59L7.83 6.31C7.83 5.98 7.94 5.26 8.39 4.71C8.94 4.05 9.47 3.05 9.7 2.21C9.81 1.78 9.83 1.47 9.79 1.28C9.77 1.2 9.74 1.17 9.74 1.16C9.73 1.16 9.72 1.14 9.65 1.14C9.51 1.12 9.46 1.14 9.45 1.14C9.44 1.15 9.43 1.15 9.4 1.2C9.33 1.34 9.3 1.57 9.28 1.92L9.28 1.99C9.27 2.12 9.27 2.28 9.25 2.41C9.23 2.54 9.19 2.78 9.04 2.98C8.95 3.1 8.82 3.2 8.64 3.24C8.47 3.29 8.31 3.26 8.19 3.22C7.97 3.15 7.76 2.99 7.56 2.81C7.53 2.79 7.52 2.78 7.51 2.78L7.4 2.78C7.38 2.78 7.36 2.78 7.35 2.78C7.34 2.78 7.33 2.79 7.33 2.79C7.32 2.79 7.31 2.8 7.3 2.81C7.1 2.99 6.89 3.14 6.67 3.22C6.55 3.26 6.39 3.28 6.22 3.24C6.04 3.2 5.9 3.09 5.81 2.98C5.66 2.78 5.62 2.54 5.61 2.41C5.59 2.27 5.58 2.12 5.57 1.99L5.57 1.92C5.55 1.57 5.52 1.34 5.45 1.2C5.43 1.15 5.41 1.14 5.41 1.14C5.4 1.14 5.35 1.11 5.2 1.13C5.13 1.14 5.11 1.16 5.11 1.17C5.09 1.18 5.07 1.21 5.04 1.3C5 1.48 5 1.8 5.1 2.22C5.3 3.06 5.8 4.06 6.35 4.71C6.8 5.26 6.91 5.98 6.91 6.31L6.91 6.61L5.78 6.36L5.78 6.31C5.78 6.23 5.76 6.08 5.71 5.9C5.66 5.72 5.58 5.56 5.47 5.43C4.82 4.64 4.24 3.49 4 2.48C3.88 1.99 3.83 1.46 3.95 1.01C4.01 0.78 4.13 0.55 4.32 0.36C4.52 0.17 4.77 0.06 5.05 0.02C5.35 -0.02 5.65 0 5.91 0.13ZM2.25 4.94C1.94 4.94 1.68 5.19 1.68 5.5C1.68 5.81 1.94 6.06 2.25 6.06C2.56 6.06 2.81 5.81 2.81 5.5C2.81 5.19 2.56 4.94 2.25 4.94ZM12.72 4.94C12.41 4.94 12.15 5.19 12.15 5.5C12.15 5.81 12.41 6.06 12.72 6.06C13.03 6.06 13.28 5.81 13.28 5.5C13.28 5.19 13.03 4.94 12.72 4.94Z"/>
</svg>