<svg xmlns="http://www.w3.org/2000/svg" viewBox="0 0 15 15">
  <path d="M10.71 10.71C9.54 10.71 8.57 11.68 8.57 12.86C8.57 14.04 9.54 15 10.71 15C11.89 15 12.86 14.04 12.86 12.86C12.86 11.68 11.89 10.71 10.71 10.71ZM10.71 13.93C10.07 13.93 9.64 13.5 9.64 12.86C9.64 12.21 10.07 11.79 10.71 11.79C11.36 11.79 11.79 12.21 11.79 12.86C11.79 13.5 11.36 13.93 10.71 13.93ZM15 6.43L11.79 1.07L11.14 0L8.57 0L7.5 0L0 0L0 1.07L7.5 1.07L7.5 6.43L7.5 7.5L7.5 10.71L6.43 10.71L6.43 8.57L6.64 8.57C6.96 8.57 7.18 8.36 7.18 8.04C7.18 7.71 6.86 7.5 6.64 7.5L5.14 7.5L4.5 4.82C4.5 4.5 4.18 4.29 3.86 4.39C3.64 4.39 3.43 4.71 3.54 5.04L4.29 8.14L4.29 8.14C4.29 8.36 4.5 8.57 4.71 8.57L5.36 8.57L5.36 10.71L3.21 10.71L3.21 8.57L3.11 8.57C3.43 8.57 3.64 8.36 3.64 8.04C3.64 7.71 3.43 7.5 3.11 7.5L1.71 7.5L1.07 4.82C0.96 4.5 0.75 4.29 0.43 4.39C0.11 4.39 0 4.71 0 5.04L0.75 8.14L0.75 8.14C0.75 8.36 0.96 8.57 1.29 8.57L1.93 8.57L2.14 8.57L2.14 10.71L0 10.71L0 11.79L2.14 11.79L3.21 11.79L5.36 11.79L6.43 11.79L7.5 11.79L7.71 11.79C8.14 10.5 9.32 9.64 10.71 9.64C12.11 9.64 13.29 10.5 13.71 11.79L15 11.79L15 10.71L15 6.43L15 6.43L15 6.43ZM12.86 6.43L9.64 6.43C9.11 6.43 8.57 5.89 8.57 5.36L8.57 2.14C8.57 1.61 9.11 1.07 9.64 1.07L10.5 1.07L13.61 6.11C13.39 6.32 13.18 6.43 12.86 6.43Z"/>
</svg>