<svg xmlns="http://www.w3.org/2000/svg" viewBox="0 0 15 15">
  <path d="M8.69 0C7.45 -0.02 6.21 0.29 5.11 0.94C2.88 2.23 1.47 4.63 1.34 7.3L1.7 7.34C1.7 7.34 2.15 9.02 2.32 9.08L2.32 9.08L2.32 9.08L2.33 9.08L2.33 9.08L2.33 9.08L2.34 9.08L2.34 9.08L2.34 9.08L2.34 9.08L2.34 9.08C2.38 9.06 2.39 8.97 2.39 8.79C2.39 7.64 3.14 3.64 5.8 2.05C7.65 0.95 10.45 1.23 12.28 2.35C12.28 2.35 11.89 1.61 11.98 1.47L12.23 1.04C11.13 0.37 9.91 0.01 8.69 0ZM8.16 2.87C7.3 2.87 6.45 3.33 5.76 4.17C6.13 3.86 6.82 3.38 7.45 3.74C8.1 4.13 8.17 5.25 7.6 6.24C7.04 7.25 6.06 7.74 5.41 7.36C4.91 7.06 4.74 6.32 4.98 5.49C4.54 6.51 4.3 7.71 4.3 8.93C4.3 12.29 6.03 15 8.16 15C10.3 15 12.02 12.29 12.02 8.93C12.02 5.59 10.3 2.87 8.16 2.87ZM5.8 8.82C5.8 9.93 6.15 10.82 6.72 11.6C7.07 12.08 7.57 12.62 8.14 12.62C8.72 12.63 9.23 12.11 9.57 11.65C10.16 10.88 10.5 10 10.52 8.89C10.52 8.89 11.18 11.42 10.59 12.32C10.02 13.21 9.15 13.86 8.12 13.85C7.11 13.83 6.25 13.17 5.67 12.25C5.11 11.34 5.8 8.82 5.8 8.82Z"/>
</svg>