<svg xmlns="http://www.w3.org/2000/svg" viewBox="0 0 15 15">
  <path d="M12.5 3h-10.01c-0.27 0 -0.52 0.11 -0.71 0.3c-0.19 0.19 -0.29 0.45 -0.29 0.71v5.58c0 0.19 0.05 0.37 0.15 0.53c0.1 0.16 0.24 0.29 0.4 0.38l4.78 2.84c0.21 0.11 0.44 0.16 0.67 0.16c0.23 0 0.46 -0.05 0.67 -0.16l4.78 -2.84c0.17 -0.09 0.31 -0.22 0.4 -0.38c0.1 -0.16 0.15 -0.34 0.15 -0.53v-5.58c0 -0.13 -0.02 -0.26 -0.07 -0.39c-0.05 -0.12 -0.12 -0.23 -0.21 -0.33c-0.09 -0.09 -0.2 -0.17 -0.32 -0.22c-0.12 -0.05 -0.25 -0.08 -0.38 -0.08zm-2 5.5h-2v2h-2v-2h-2v-2h2v-2h2v2h2z"/>
</svg>