<svg xmlns="http://www.w3.org/2000/svg" viewBox="0 0 15 15">
  <path d="M6.68 5.76c-0.5 -0.72 -0.78 -1.12 -0.63 -2.38c0.14 -1.16 0.68 -1.62 1.2 -2.06c0.4 -0.34 0.8 -0.68 0.98 -1.32c0.3 0.72 -0.04 1.47 -0.35 2.16c-0.31 0.69 -0.6 1.33 -0.21 1.84c0.97 1.27 1.96 2.88 0.97 4.59c-0.21 0.39 -0.54 0.68 -0.86 0.97c-0.42 0.38 -0.84 0.75 -1 1.35c-0.27 -0.68 0.01 -1.37 0.28 -2.05c0.31 -0.76 0.61 -1.52 0.17 -2.25c-0.2 -0.34 -0.39 -0.61 -0.55 -0.84Zm3.37 -1.17c-0.1 -0.63 0.03 -1.28 0.37 -1.81c0.37 -0.45 0.7 -0.64 0.99 -0.81c0.35 -0.2 0.63 -0.36 0.83 -0.88c0.29 0.68 0 1.19 -0.3 1.72c-0.12 0.21 -0.24 0.42 -0.33 0.65c-0.19 0.61 0.1 0.89 0.47 1.25c0.36 0.35 0.79 0.76 0.9 1.62c0.08 0.64 -0.04 1.16 -0.37 1.68c-0.36 0.44 -0.68 0.66 -0.96 0.85c-0.36 0.24 -0.65 0.44 -0.86 0.97c-0.29 -0.69 0.03 -1.26 0.35 -1.83c0.12 -0.22 0.25 -0.43 0.33 -0.66c0.07 -0.56 -0.23 -0.87 -0.58 -1.22c-0.36 -0.36 -0.76 -0.76 -0.83 -1.52Zm-8.02 0c-0.1 -0.63 0.01 -1.3 0.37 -1.81c0.38 -0.53 0.73 -0.72 1.03 -0.88c0.32 -0.17 0.59 -0.32 0.79 -0.81c0.29 0.68 -0.01 1.21 -0.32 1.75c-0.12 0.21 -0.25 0.43 -0.34 0.66c-0.15 0.39 0.13 1.01 0.5 1.24c1 0.8 1.23 2.29 0.55 3.35c-0.37 0.45 -0.7 0.65 -1 0.82c-0.35 0.21 -0.64 0.38 -0.85 0.9c-0.28 -0.66 0.01 -1.18 0.3 -1.71c0.13 -0.24 0.26 -0.48 0.35 -0.74c0.18 -0.56 -0.13 -0.88 -0.51 -1.28c-0.35 -0.36 -0.75 -0.78 -0.86 -1.5Zm10.97 4.41c0.7 2.62 -3.47 3 -5.5 3s-6.2 -0.48 -5.5 -3c-0.63 0.32 -1 0.96 -1 1.5c0 1.52 2.91 2.9 6.5 2.9s6.5 -1.38 6.5 -2.9c0 -0.54 -0.37 -1.18 -1 -1.5Z"/>
</svg>