<svg xmlns="http://www.w3.org/2000/svg" viewBox="0 0 15 15">
  <path d="M9.5 4c0 0.4 -0.12 0.78 -0.34 1.11s-0.53 0.59 -0.9 0.74c-0.37 0.15 -0.77 0.19 -1.16 0.11s-0.74 -0.27 -1.02 -0.55c-0.28 -0.28 -0.47 -0.64 -0.55 -1.02s-0.04 -0.79 0.11 -1.16c0.15 -0.37 0.41 -0.68 0.74 -0.9s0.72 -0.34 1.11 -0.34c0.53 0 1.04 0.21 1.41 0.59c0.38 0.38 0.59 0.88 0.59 1.41zm-6 4c-0.4 0 -0.78 0.12 -1.11 0.34s-0.59 0.53 -0.74 0.9c-0.15 0.37 -0.19 0.77 -0.11 1.16c0.08 0.39 0.27 0.74 0.55 1.02c0.28 0.28 0.64 0.47 1.02 0.55c0.39 0.08 0.79 0.04 1.16 -0.11c0.37 -0.15 0.68 -0.41 0.9 -0.74s0.34 -0.72 0.34 -1.11c0 -0.53 -0.21 -1.04 -0.59 -1.41c-0.38 -0.38 -0.88 -0.59 -1.41 -0.59zm8 0c-0.4 0 -0.78 0.12 -1.11 0.34s-0.59 0.53 -0.74 0.9c-0.15 0.37 -0.19 0.77 -0.11 1.16c0.08 0.39 0.27 0.74 0.55 1.02c0.28 0.28 0.64 0.47 1.02 0.55c0.39 0.08 0.79 0.04 1.16 -0.11c0.37 -0.15 0.68 -0.41 0.9 -0.74c0.22 -0.33 0.34 -0.72 0.34 -1.11c0 -0.53 -0.21 -1.04 -0.59 -1.41c-0.38 -0.38 -0.88 -0.59 -1.41 -0.59z"/>
</svg>