<svg xmlns="http://www.w3.org/2000/svg" viewBox="0 0 15 15">
  <path d="M1.5 4c0 -0.27 0.11 -0.52 0.29 -0.71c0.19 -0.19 0.44 -0.29 0.71 -0.29h10c0.27 0 0.52 0.11 0.71 0.29c0.19 0.19 0.29 0.44 0.29 0.71s-0.11 0.52 -0.29 0.71c-0.19 0.19 -0.44 0.29 -0.71 0.29h-10c-0.27 0 -0.52 -0.11 -0.71 -0.29c-0.19 -0.19 -0.29 -0.44 -0.29 -0.71zm11 2.5h-10c-0.27 0 -0.52 0.11 -0.71 0.29c-0.19 0.19 -0.29 0.44 -0.29 0.71s0.11 0.52 0.29 0.71c0.19 0.19 0.44 0.29 0.71 0.29h4v4.5c0 0.27 0.11 0.52 0.29 0.71c0.19 0.19 0.44 0.29 0.71 0.29s0.52 -0.11 0.71 -0.29c0.19 -0.19 0.29 -0.44 0.29 -0.71v-4.5h4c0.27 0 0.52 -0.11 0.71 -0.29c0.19 -0.19 0.29 -0.44 0.29 -0.71s-0.11 -0.52 -0.29 -0.71c-0.19 -0.19 -0.44 -0.29 -0.71 -0.29z"/>
</svg>