<svg xmlns="http://www.w3.org/2000/svg" viewBox="0 0 15 15">
  <path d="M12.5 3h-4v-1a1 1 0 0 0 -2 0v1h-4a1 1 0 0 0 0 2h0.67A10.82 10.82 0 0 0 5.15 8.81c0.33 0.43 0.66 0.82 0.98 1.19a14.38 14.38 0 0 1 -2.61 2.12a1 1 0 1 0 0.96 1.76h0A15.65 15.65 0 0 0 7.5 11.46a15.65 15.65 0 0 0 3.02 2.42a1 1 0 1 0 0.96 -1.76a14.38 14.38 0 0 1 -2.61 -2.12c0.32 -0.37 0.65 -0.76 0.98 -1.19a10.82 10.82 0 0 0 1.98 -3.81h0.67a1 1 0 0 0 0 -2ZM8.27 7.59c-0.26 0.34 -0.52 0.64 -0.77 0.94c-0.25 -0.3 -0.51 -0.6 -0.77 -0.94A9.59 9.59 0 0 1 5.27 5H9.73A9.58 9.58 0 0 1 8.27 7.59Z"/>
</svg>