<svg xmlns="http://www.w3.org/2000/svg" viewBox="0 0 15 15">
  <path d="M6.97 3.26L11.75 12L12.5 12C12.78 12 13 12.22 13 12.5L13 13.5C13 13.78 12.78 14 12.5 14L0.5 14C0.22 14 0 13.78 0 13.5L0 12.5C0 12.22 0.22 12 0.5 12L1.25 12L6.03 3.26C6.25 2.91 6.75 2.91 6.97 3.26ZM6.5 7L4 12L9 12L6.5 7ZM12.75 0C13 0.76 13.26 1.36 13.52 1.78C13.64 1.97 13.84 2.24 14.12 2.6L14.51 3.1C14.83 3.5 15 3.99 15 4.5C15 5.74 13.99 6.75 12.75 6.75L12.56 6.74C12.12 6.7 11.7 6.54 11.35 6.26C10.38 5.49 10.22 4.08 10.99 3.11L11.42 2.55C11.59 2.33 11.73 2.14 11.84 1.99L11.98 1.78C12.25 1.34 12.51 0.75 12.75 0Z"/>
</svg>