<svg xmlns="http://www.w3.org/2000/svg" viewBox="0 0 15 15">
  <path d="M6.5 3C6.68 3 6.86 3.09 6.97 3.26L11.75 12L12.5 12C12.78 12 13 12.22 13 12.5L13 13.5C13 13.78 12.78 14 12.5 14L0.5 14C0.22 14 0 13.78 0 13.5L0 12.5C0 12.22 0.22 12 0.5 12L1.25 12L6.03 3.26C6.14 3.09 6.32 3 6.5 3ZM6.5 7L4 12L9 12L6.5 7ZM15 0L14.5 1L13.5 1C13.72 1.29 13.87 1.63 13.95 2L15 2L14.5 3L13.95 3C13.74 4.06 12.85 4.87 11.77 4.99L15 7.5L13.25 7.5L10 5L10 4L11.5 4C12.15 4 12.71 3.58 12.91 3L10 3L10.5 2L12.91 2C12.71 1.42 12.15 1 11.5 1L10 1L10.5 0L15 0Z"/>
</svg>