<svg xmlns="http://www.w3.org/2000/svg" viewBox="0 0 15 15">
  <path d="M7.5 0.5L9 0.5L7.15 3.54L11.75 12L12.5 12C12.78 12 13 12.22 13 12.5L13 13.5C13 13.78 12.78 14 12.5 14L0.5 14C0.22 14 0 13.78 0 13.5L0 12.5C0 12.22 0.22 12 0.5 12L1.25 12L5.85 3.54L4 0.5L5.5 0.5L6.5 2.34L7.5 0.5ZM6.5 7L4 12L9 12L6.5 7ZM13.23 1C14.11 1 14.86 1.63 15 2.5L14 2.75C14 2.34 13.66 2 13.25 2L13 2C12.45 2 12 2.45 12 3L14.25 3L13.75 4L12 4L12 4.5L13.75 4.5L13.25 5.5L12 5.5C12 6.05 12.45 6.5 13 6.5L13.25 6.5C13.63 6.5 13.94 6.22 13.99 5.85L14 5.75L15 6C14.86 6.87 14.11 7.5 13.23 7.5L12.88 7.5C11.84 7.5 11 6.66 11 5.63L11 5.5L9.75 5.5L10.25 4.5L11 4.5L11 4L9.75 4L10.25 3L11 3L11 2.88C11 1.84 11.84 1 12.88 1L13.23 1Z"/>
</svg>