<svg xmlns="http://www.w3.org/2000/svg" viewBox="0 0 15 15">
  <path d="M4.5 0C5.05 0 5.5 0.45 5.5 1L5.5 1.5C6.68 1.79 7.5 2.85 7.5 4.06L7.5 13L8 13C8.55 13 9 13.45 9 14C9 14.55 8.55 15 8 15L1 15C0.45 15 0 14.55 0 14C0 13.45 0.45 13 1 13L1.5 13L1.5 4.06C1.5 2.91 2.25 1.89 3.33 1.55L3.5 1.5L3.5 1C3.5 0.45 3.95 0 4.5 0ZM3 13L6 13L6 4.06C6 3.58 5.7 3.15 5.25 2.99L5.14 2.96C4.91 2.9 4.71 2.8 4.54 2.66L4.5 2.62L4.46 2.66C4.33 2.76 4.18 2.85 4.03 2.9L3.86 2.96C3.36 3.08 3 3.54 3 4.06L3 13ZM15.04 0L15.04 2.62C15.04 2.9 14.81 3.12 14.54 3.12C14.26 3.12 14.04 2.9 14.04 2.62L14.04 1.71L13.09 2.66C13.73 3.63 13.62 4.95 12.77 5.8C11.79 6.78 10.21 6.78 9.23 5.8C8.26 4.83 8.26 3.24 9.23 2.27C10.09 1.41 11.41 1.31 12.38 1.95L13.33 1L12.41 1C12.17 1 11.96 0.82 11.92 0.59L11.91 0.5C11.91 0.22 12.14 0 12.41 0L15.04 0ZM10.08 3.12C9.57 3.62 9.57 4.45 10.08 4.95C10.59 5.46 11.41 5.46 11.92 4.95C12.43 4.45 12.43 3.62 11.92 3.12C11.41 2.61 10.59 2.61 10.08 3.12Z"/>
</svg>