<svg xmlns="http://www.w3.org/2000/svg" viewBox="0 0 15 15">
  <path d="M4.5 0C5.05 0 5.5 0.45 5.5 1L5.5 1.5C6.68 1.79 7.5 2.85 7.5 4.06L7.5 13L8 13C8.55 13 9 13.45 9 14C9 14.55 8.55 15 8 15L1 15C0.45 15 0 14.55 0 14C0 13.45 0.45 13 1 13L1.5 13L1.5 4.06C1.5 2.91 2.25 1.89 3.33 1.55L3.5 1.5L3.5 1C3.5 0.45 3.95 0 4.5 0ZM4.5 2.62L4.46 2.66C4.33 2.76 4.18 2.85 4.03 2.9L3.86 2.96C3.36 3.08 3 3.54 3 4.06L3 13L6 13L6 4.06C6 3.58 5.7 3.15 5.25 2.99L5.14 2.96C4.91 2.9 4.71 2.8 4.54 2.66L4.5 2.62ZM11.5 0C12.88 0 14 1.12 14 2.5C14 3.71 13.14 4.72 12 4.95L12 6L13 6C13.28 6 13.5 6.22 13.5 6.5C13.5 6.78 13.28 7 13 7L12 7L12 8C12 8.28 11.78 8.5 11.5 8.5C11.22 8.5 11 8.28 11 8L11 7L10 7C9.72 7 9.5 6.78 9.5 6.5C9.5 6.22 9.72 6 10 6L11 6L11 4.95C9.86 4.72 9 3.71 9 2.5C9 1.12 10.12 0 11.5 0ZM11.5 1.2C10.78 1.2 10.2 1.78 10.2 2.5C10.2 3.22 10.78 3.8 11.5 3.8C12.22 3.8 12.8 3.22 12.8 2.5C12.8 1.78 12.22 1.2 11.5 1.2Z"/>
</svg>