<svg xmlns="http://www.w3.org/2000/svg" viewBox="0 0 15 15">
  <path d="M7.5 0C8.05 0 8.5 0.45 8.5 1L8.5 1.5C9.68 1.79 10.5 2.85 10.5 4.06L10.5 13L11 13C11.55 13 12 13.45 12 14C12 14.55 11.55 15 11 15L4 15C3.45 15 3 14.55 3 14C3 13.45 3.45 13 4 13L4.5 13L4.5 4.06C4.5 2.91 5.25 1.89 6.33 1.55L6.5 1.5L6.5 1C6.5 0.45 6.95 0 7.5 0ZM7.5 2.62L7.46 2.66C7.33 2.76 7.18 2.85 7.03 2.9L6.86 2.96C6.36 3.08 6 3.54 6 4.06L6 13L9 13L9 4.06C9 3.58 8.7 3.15 8.25 2.99L8.14 2.96C7.91 2.9 7.71 2.8 7.54 2.66L7.5 2.62Z"/>
</svg>