<svg xmlns="http://www.w3.org/2000/svg" viewBox="0 0 15 15">
  <path d="M14.04 2C14.57 2 15 2.43 15 2.96L15 4.28L12.78 4.28C12.36 4.28 12.02 4.61 12.02 5.02C12.02 5.44 12.36 5.77 12.78 5.77L15 5.77L15 6.54C15 6.92 14.97 7.29 14.92 7.65L14.35 7.65C11.01 7.65 8.31 10.34 8.31 13.65L8.31 13.96C8.05 13.99 7.77 14 7.5 14C7.23 14 6.95 13.99 6.69 13.96L6.69 13.65C6.69 10.34 3.99 7.65 0.65 7.65L0.08 7.65C0.03 7.29 0 6.92 0 6.54L0 5.77L2.22 5.77C2.64 5.77 2.98 5.44 2.98 5.02C2.98 4.61 2.64 4.28 2.22 4.28L0 4.28L0 2.96C0 2.43 0.43 2 0.96 2L14.04 2ZM14.53 9.15C13.74 11.27 12 12.93 9.82 13.64C9.83 11.16 11.85 9.15 14.35 9.15L14.53 9.15ZM0.65 9.15C3.15 9.15 5.17 11.16 5.18 13.64C3 12.93 1.26 11.27 0.47 9.15L0.65 9.15Z"/>
</svg>