<svg xmlns="http://www.w3.org/2000/svg" viewBox="0 0 15 15">
  <path d="M1.78 3.81C2.03 3.31 2.54 3 3.1 3C3.49 3 3.86 3.15 4.14 3.43L4.85 4.15C5.05 4.34 5.05 4.66 4.85 4.85C4.66 5.05 4.34 5.05 4.15 4.85L3.43 4.14C3.34 4.05 3.22 4 3.1 4C2.92 4 2.76 4.1 2.68 4.26L1.31 7H5.25C6.07 7 6.75 7.57 6.94 8.32C7.11 8.28 7.3 8.25 7.5 8.25C7.7 8.25 7.89 8.28 8.06 8.32C8.25 7.57 8.93 7 9.75 7H13.69L12.32 4.26C12.24 4.1 12.08 4 11.9 4C11.78 4 11.66 4.05 11.57 4.14L10.85 4.85C10.66 5.05 10.34 5.05 10.15 4.85C9.95 4.66 9.95 4.34 10.15 4.15L10.86 3.43C11.14 3.15 11.51 3 11.9 3C12.46 3 12.97 3.31 13.22 3.81L14.94 7.26L14.94 7.26C14.98 7.33 15 7.41 15 7.5V8.5C15 8.78 14.78 9 14.5 9H14V9.5C14 11.09 13 12 11.25 12H10.75C9 12 8 11.09 8 9.5V9.34C7.85 9.29 7.67 9.25 7.5 9.25C7.33 9.25 7.15 9.29 7 9.34V9.5C7 11.09 6 12 4.25 12H3.75C2 12 1 11.09 1 9.5V9H0.5C0.22 9 0 8.78 0 8.5V7.5C0 7.41 0.02 7.33 0.06 7.26L0.06 7.26L1.78 3.81ZM9.75 8C9.34 8 9 8.34 9 8.75V9.5C9 10.2 9.2 11 10.75 11H11.25C12.8 11 13 10.2 13 9.5V8.75C13 8.34 12.66 8 12.25 8H9.75ZM2.75 8C2.34 8 2 8.34 2 8.75V9.5C2 10.2 2.2 11 3.75 11H4.25C5.8 11 6 10.2 6 9.5V8.75C6 8.34 5.66 8 5.25 8H2.75Z"/>
</svg>