<svg xmlns="http://www.w3.org/2000/svg" viewBox="0 0 15 15">
  <path d="M7.5 2.75L12.75 4.26C13.99 4.26 15 5.28 15 6.53L15 8.04C15 9.29 13.99 10.31 12.75 10.31L12.72 10.31C12.61 10.81 12.25 11.24 11.75 11.42L11.28 11.59C8.84 12.47 6.16 12.47 3.72 11.59L3.25 11.42C2.75 11.24 2.39 10.81 2.28 10.31L2.25 10.31C1.01 10.31 0 9.29 0 8.04L0 6.53C0 5.28 1.01 4.26 2.25 4.26L7.5 2.75ZM9.75 8.42L5.25 8.42L5.25 9.55L9.75 9.55L9.75 8.42ZM12.75 5.77L12.75 8.8C13.16 8.8 13.5 8.46 13.5 8.04L13.5 6.53C13.5 6.11 13.16 5.77 12.75 5.77ZM2.25 5.77C1.84 5.77 1.5 6.11 1.5 6.53L1.5 8.04C1.5 8.46 1.84 8.8 2.25 8.8L2.25 5.77ZM9.75 5.77L5.25 5.77L5.25 6.91L9.75 6.91L9.75 5.77Z"/>
</svg>