<svg xmlns="http://www.w3.org/2000/svg" viewBox="0 0 15 15">
  <path d="M12.73 10.04C12.94 9.68 13.41 9.55 13.77 9.76L14.62 10.25C14.98 10.46 15.11 10.92 14.9 11.29L12.97 14.62C12.76 14.98 12.29 15.11 11.93 14.9L11.08 14.41C10.8 14.25 10.66 13.93 10.71 13.62C10.73 13.54 10.76 13.45 10.8 13.37ZM1.23 9.76C1.59 9.55 2.06 9.68 2.27 10.04L4.2 13.37C4.24 13.45 4.27 13.54 4.29 13.62C4.34 13.93 4.2 14.25 3.92 14.41L3.07 14.9C2.71 15.11 2.24 14.98 2.03 14.62L0.1 11.29C-0.11 10.92 0.02 10.46 0.38 10.25ZM8.66 0C11.58 0 13.75 2.7 13.12 5.54L12.37 8.91C12.14 9.06 11.95 9.26 11.81 9.51L9.88 12.84C9.73 13.1 9.65 13.39 9.64 13.67L5.36 13.67C5.35 13.39 5.27 13.1 5.12 12.84L3.19 9.51C3.05 9.26 2.86 9.06 2.63 8.91L1.88 5.54C1.25 2.7 3.42 0 6.34 0ZM7.5 7.97C6.63 7.97 5.9 8.62 5.81 9.48L5.71 10.38C5.65 10.92 6.07 11.39 6.62 11.39L8.38 11.39C8.93 11.39 9.35 10.92 9.29 10.38L9.19 9.48C9.1 8.62 8.37 7.97 7.5 7.97ZM8.66 1.52L6.34 1.52C4.39 1.52 2.95 3.32 3.37 5.21L3.59 6.18C3.8 7.13 5.01 7.4 5.61 6.63L6.29 5.74C6.9 4.95 8.1 4.95 8.71 5.74L9.39 6.63C9.99 7.4 11.2 7.13 11.41 6.18L11.63 5.21C12.05 3.32 10.61 1.52 8.66 1.52Z"/>
</svg>