<svg xmlns="http://www.w3.org/2000/svg" viewBox="0 0 15 15">
  <path d="M8.06 0L8.06 2.25L6.94 2.25L6.94 5.25L6.56 5.25L6.56 6C6.56 6.21 6.73 6.38 6.94 6.38L6.94 7.5L8.06 7.5L8.06 6.38C8.27 6.38 8.44 6.21 8.44 6L8.44 5.25L8.06 5.25L8.06 2.25L9.19 2.25L9.19 3.75L10.13 3.75L10.13 4.88L11.25 4.88C12.08 4.88 12.75 5.55 12.75 6.38L12.75 13.5C12.75 14.33 12.08 15 11.25 15L3.75 15C2.92 15 2.25 14.33 2.25 13.5L2.25 6.38C2.25 5.55 2.92 4.88 3.75 4.88L4.88 4.88L4.88 3.75L5.81 3.75L5.81 2.25L6.94 2.25L6.94 0.75L8.06 0ZM8.06 12.75L6.94 12.75L6.94 13.88L8.06 13.88L8.06 12.75ZM7.5 8.25C6.46 8.25 5.63 9.09 5.63 10.13C5.63 11.16 6.46 12 7.5 12C8.54 12 9.38 11.16 9.38 10.13C9.38 9.09 8.54 8.25 7.5 8.25Z"/>
</svg>