<svg xmlns="http://www.w3.org/2000/svg" viewBox="0 0 15 15">
  <path d="M5.5 7C4.12 7 3 5.88 3 4.5l0 0v-2C3 2.22 3.22 2 3.5 2H4c0.28 0 0.5 -0.22 0.5 -0.5S4.28 1 4 1H3.5C2.67 1 2 1.67 2 2.5v2c0 1.15 0.57 2.22 1.51 2.87l0 0C4.41 8.17 4.95 9.3 5 10.5C5 12.43 6.57 14 8.5 14s3.5 -1.57 3.5 -3.5V9.93c1.07 -0.28 1.71 -1.37 1.44 -2.44C13.16 6.42 12.07 5.78 11 6.06C9.93 6.33 9.29 7.42 9.56 8.49C9.75 9.2 10.3 9.75 11 9.93v0.57c0 1.38 -1.12 2.5 -2.5 2.5S6 11.88 6 10.5c0.05 -1.2 0.59 -2.34 1.5 -3.13l0 0C8.44 6.72 9 5.64 9 4.5v-2C9 1.67 8.33 1 7.5 1H7C6.72 1 6.5 1.22 6.5 1.5S6.72 2 7 2h0.5C7.78 2 8 2.22 8 2.5v2l0 0C8 5.88 6.88 7 5.5 7M11.5 9c-0.55 0 -1 -0.45 -1 -1s0.45 -1 1 -1s1 0.45 1 1S12.05 9 11.5 9z"/>
</svg>