<svg xmlns="http://www.w3.org/2000/svg" viewBox="0 0 15 15">
  <path d="M7.5 0C9.99 0 12 2.01 12 4.5C12 5.91 11.35 7.18 10.33 8L11 8L11 15L4 15L4 8L4.67 8C3.65 7.18 3 5.91 3 4.5C3 3.26 3.5 2.14 4.31 1.32L4.32 1.31C5.14 0.5 6.26 0 7.5 0ZM7 5.71L5.4 7.3C5.86 7.65 6.41 7.88 7 7.96L7 5.71ZM8 5.71L8 7.96C8.59 7.88 9.14 7.65 9.6 7.3L8 5.71ZM10.96 5L8.71 5L10.3 6.6C10.65 6.14 10.88 5.59 10.96 5ZM4.7 6.6L6.29 5L4.04 5C4.12 5.59 4.35 6.14 4.7 6.6ZM10.3 2.4L8.71 4L10.96 4C10.88 3.41 10.65 2.86 10.3 2.4ZM4.04 4L6.29 4L4.7 2.4C4.35 2.86 4.12 3.41 4.04 4ZM7 1.04C6.41 1.12 5.86 1.35 5.4 1.7L7 3.29L7 1.04ZM8 1.04L8 3.29L9.6 1.7C9.14 1.35 8.59 1.12 8 1.04Z"/>
</svg>