<svg xmlns="http://www.w3.org/2000/svg" viewBox="0 0 15 15">
  <path d="M4 8L11 8L11 15L4 15L4 8ZM5.45 4.55C5.45 5.45 5.91 5.97 6.36 6.09C3.63 6.09 3.98 5.5 2 5C2 5.96 2.73 6.64 2.73 6.64C3.29 7.07 3.94 6.99 4.99 7L7 7L7 8L8 8L8 7L9.92 7L10.35 6.98C11.13 6.95 11.5 6.89 12 6.54C12.45 6.24 13 5.6 13 5L12.6 5.15C11.72 5.45 9.62 6.12 8.55 6.09C9 5.83 9.45 5.45 9.45 4.55C9.45 2.73 8 3.27 8 0C7.55 0.91 5.45 2.73 5.45 4.55ZM7.5 2.36C7.49 3.84 8.23 4.18 8.23 4.79C8.23 5.39 7.65 5.88 7.5 6C7.34 5.87 6.77 5.39 6.77 4.79C6.77 3.58 7.14 2.88 7.5 2.36Z"/>
</svg>