<svg xmlns="http://www.w3.org/2000/svg" viewBox="0 0 15 15">
  <path d="M4 8L11 8L11 15L4 15L4 8ZM7.49 0L6.91 0.57C6.95 0.82 6.95 1.01 6.98 1.23C6.27 1.45 5.73 2.09 5.73 2.86C5.73 3.63 6.27 4.27 7 4.48L6.91 5.14L7.2 5.43L7.2 5.66C6.66 5.31 6.09 4.91 5.73 4.57C4.55 3.43 4.86 1.43 6.32 0.57C5.16 0.86 4 1.89 4 3.43C4 5.14 5.73 5.71 5.73 6.29L6.32 5.71L7.07 6.12L6.32 6.57L6.61 6.86L7.24 6.52L7.24 6.93C7.05 7.02 6.91 7.21 6.91 7.43C6.91 7.74 7.17 8 7.49 8C7.81 8 8.08 7.74 8.08 7.43C8.08 7.21 7.96 7.02 7.76 6.93L7.76 6.52L8.37 6.86L8.66 6.57L7.93 6.12L8.66 5.71L9.24 6.29C9.24 5.71 11 5.14 11 3.43C11 1.89 9.83 0.86 8.66 0.57C10.12 1.43 10.43 3.43 9.24 4.57C8.88 4.92 8.33 5.32 7.79 5.68L7.79 5.43L8.08 5.14C8.03 4.91 8.01 4.7 7.98 4.48C8.71 4.27 9.24 3.63 9.24 2.86C9.24 2.08 8.71 1.45 7.98 1.23C8.01 1.01 8.03 0.81 8.08 0.57L7.49 0ZM7.91 1.79C8.35 1.95 8.66 2.37 8.66 2.86C8.66 3.34 8.35 3.77 7.91 3.93C7.84 3.19 7.84 2.52 7.91 1.79ZM7.03 1.8C7.04 1.8 7.05 1.81 7.05 1.8C7.13 2.6 7.14 3.22 7.07 3.93C6.63 3.77 6.32 3.34 6.32 2.86C6.32 2.38 6.62 1.98 7.03 1.8ZM6.03 6.86C5.87 6.86 5.73 6.99 5.73 7.14C5.73 7.3 5.87 7.43 6.03 7.43C6.19 7.43 6.32 7.3 6.32 7.14C6.32 6.99 6.19 6.86 6.03 6.86ZM8.95 6.86C8.79 6.86 8.66 6.99 8.66 7.14C8.66 7.3 8.79 7.43 8.95 7.43C9.12 7.43 9.24 7.3 9.24 7.14C9.24 6.99 9.12 6.86 8.95 6.86Z"/>
</svg>