<svg xmlns="http://www.w3.org/2000/svg" viewBox="0 0 15 15">
  <path d="M6.85 0.66L6.93 0.78C7.19 1.17 8.12 2.31 9.42 1L10.06 2L9.94 2.08C9.47 2.35 7.71 3.16 6.85 0.66ZM3.64 2C3.83 2.41 4.07 2.9 4.28 3.34C4.61 2.66 5.57 2.66 5.57 2.66C6.21 2.66 6.68 2.93 6.68 3.35C6.68 3.77 6.21 4 5.57 4L5.57 5C6.41 4.84 6.85 5.53 6.65 6.01C6.26 6.91 3.97 7.02 3 5.34C3 7.99 5.21 8 5.57 8C6.85 8 7.49 6.66 7.49 5.34C7.83 5.7 8.36 5.7 8.78 5.34C9.36 4.82 9.59 3.99 10.39 4C11.36 4.01 11.35 6 10.7 6.66C10.06 7.34 8.53 7.1 8.14 6L8.14 6.23C8.16 6.94 8.34 8 10.06 8C11.99 8 12.38 5.74 11.67 4C11.23 2.92 10.4 2.63 9.52 2.92C8.83 3.14 8.86 3.46 8.46 4C8.24 4.26 8.14 4.66 7.49 4.66C7.27 4.66 7 4.49 6.85 4.33C7.65 3.74 7.53 2.61 6.85 2C5.96 1.2 4.39 1.37 3.64 2ZM11 8L11 15L4 15L4 8L11 8ZM8.14 0L8.78 0.66L8.14 1.34L7.49 0.66L8.14 0Z"/>
</svg>