<svg xmlns="http://www.w3.org/2000/svg" viewBox="0 0 15 15">
  <path d="M11 8L11 15L4 15L4 8L11 8ZM13.75 0C13.75 0.89 13.23 1.44 12.86 1.76C12.04 2.17 11.28 1.97 10 2C10 2.3 10 2.52 10 2.72L10 3.49C10 3.63 10 3.8 10 4L11.5 4C11.78 4 12 4.22 12 4.5C12 4.78 11.78 5 11.5 5L10 5L10 5.56C10 5.64 10 5.73 10 5.81L10 6.42C10 6.48 10 6.53 10 6.58L10 7.32C10 7.31 10 7.3 10 7.29L10 7.1C10 7.08 10 7.06 10 7.03L10 6.82C10 6.79 10 6.77 10 6.74L10 6.49C10 6.46 10 6.44 10 6.41L10 6.09C10 6.07 10 6.04 10 6.02L10 5.78C10 5.76 10 5.75 10 5.73L10 6.13C10 6.17 10 6.22 10 6.26L10 6.76C10 6.83 10 6.89 10 6.97L10 7.44C10 7.61 10 7.8 10 8C10 8 9.97 8 9.93 8L9.5 8C9.25 8 9 8 9 8L9 5L6 5L6 8L5.99 8C5.98 8 5.97 8 5.96 8L5.65 8C5.5 8 5.29 8 5 8C5.01 6.97 5.01 6.66 5.01 6.45L5.01 6.3C5.01 6.11 5.01 5.88 5 5L3.5 5C3.22 5 3 4.78 3 4.5C3 4.22 3.22 4 3.5 4L5 4C4.98 3.12 5.01 2.86 5 2C3.77 2 3.12 2.34 2.14 1.76C1.83 1.46 1.25 0.89 1.25 0C5.71 0.89 8.39 0.89 13.75 0ZM7 2L6 2C6 2.39 5.99 2.66 5.99 2.91L5.99 3.29C5.99 3.49 6 3.71 6 4L7 4L7 2ZM9 2L8 2L8 4L9 4C9 3.8 9 3.64 9 3.49L9 2.91C9 2.66 9 2.39 9 2Z"/>
</svg>