<svg xmlns="http://www.w3.org/2000/svg" viewBox="0 0 15 15">
  <path d="M10.33 6.83C11.89 5.27 11.88 2.72 10.33 1.17C8.78 -0.37 6.24 -0.39 4.67 1.17C3.11 2.74 3.11 5.27 4.67 6.83C6.23 8.39 8.77 8.39 10.33 6.83ZM9.84 6.5L9.92 6.42C8.58 7.77 6.42 7.77 5.08 6.42C3.73 5.08 3.73 2.92 5.08 1.58C6.26 0.39 8.79 2.09 7.59 3.88L7.5 4C6.12 5.79 8.63 7.52 9.84 6.5L9.84 6.5ZM9.12 5.62C8.9 5.84 8.53 5.84 8.31 5.61C8.08 5.39 8.08 5.03 8.31 4.81C8.53 4.58 8.89 4.58 9.11 4.81C9.34 5.03 9.34 5.4 9.12 5.62ZM4 8L11 8L11 15L4 15L4 8ZM5.88 2.38C6.1 2.16 6.47 2.16 6.69 2.39C6.92 2.61 6.92 2.97 6.69 3.19C6.47 3.42 6.11 3.42 5.89 3.19C5.66 2.97 5.66 2.6 5.88 2.38Z"/>
</svg>