<svg xmlns="http://www.w3.org/2000/svg" viewBox="0 0 15 15">
<path d="M1.5 0.5C1.36 0.5 1.25 0.63 1.25 0.8V1C0.97 1 0.75 1.22 0.75 1.5V2.5C0.75 2.78 0.97 3 1.25 3V10.7C1.41 10.63 1.58 10.57 1.75 10.54V6.08C2.24 3.98 4.11 2.95 5.2 2.67 5.26 2.9 5.51 3.1 5.81 3.03L6.78 2.77C7.04 2.69 7.2 2.42 7.13 2.15L7.32 2.1C7.48 2.06 7.58 1.92 7.55 1.78 7.51 1.65 7.35 1.58 7.19 1.62L7 1.67C6.93 1.4 6.66 1.24 6.39 1.32L5.42 1.58C5.15 1.65 5 1.92 5.07 2.19 4.34 2.36 2.67 2.93 1.75 4.63V3C2.03 3 2.25 2.78 2.25 2.5V1.5C2.25 1.22 2.03 1 1.75 1V0.8C1.75 0.63 1.64 0.5 1.5 0.5ZM3.75 4.5C3.61 4.5 3.5 4.63 3.5 4.8V5C3.22 5 3 5.22 3 5.5V6.5C3 6.78 3.22 7 3.5 7V11.09C3.5 11.09 3.51 11.09 3.51 11.1 3.7 11.24 3.86 11.34 4 11.41V7C4.28 7 4.5 6.78 4.5 6.5V5.5C4.5 5.22 4.28 5 4 5V4.8C4 4.63 3.89 4.5 3.75 4.5ZM12.58 6.4C12.38 6.42 12.2 6.5 12.07 6.63L10.47 8.23 11.64 9.42 13.12 7.93H14.44C14.88 7.93 15 7.38 15 7.38H13.51C13.56 7.13 13.48 6.88 13.29 6.69 13.11 6.51 12.89 6.42 12.67 6.4ZM5 7.38V9.6C5.03 9.91 5.22 10.34 5.6 10.73 5.83 10.6 6.11 10.5 6.43 10.5 7.04 10.5 7.46 10.85 7.8 11.1 8.13 11.35 8.39 11.5 8.57 11.5 8.75 11.5 9.01 11.35 9.35 11.1 9.69 10.85 10.11 10.5 10.71 10.5 10.83 10.5 10.94 10.51 11.04 10.54 11.18 10.33 11.3 10.1 11.39 9.85L10.04 8.49H6.67ZM2.14 11C1.35 11 0 12 0 12V13C0 13 1.35 12 2.14 12 2.93 12 3.5 13 4.29 13 5.07 13 5.64 12 6.43 12 7.22 12 7.78 13 8.57 13 9.36 13 9.93 12 10.71 12 11.5 12 12.07 13 12.86 13 13.65 13 15 12 15 12V11C15 11 13.65 12 12.86 12 12.07 12 11.5 11 10.71 11 9.93 11 9.36 12 8.57 12 7.78 12 7.22 11 6.43 11 5.64 11 5.07 12 4.29 12 3.5 12 2.93 11 2.14 11Z" />
</svg>