<svg xmlns="http://www.w3.org/2000/svg" viewBox="0 0 15 15">
  <path d="M11.25 2.5L4.39 2.53C4.04 2.53 3.76 2.25 3.76 1.9C3.76 1.55 4.05 1.25 4.41 1.25L11.12 1.25C11.02 0.55 10.43 0 9.7 0L4.36 0C3.33 0 2.5 0.83 2.5 1.86L2.52 13.75C2.52 14.44 3.08 15 3.77 15L11.25 15C11.94 15 12.5 14.44 12.5 13.75L12.5 3.76C12.5 3.06 11.94 2.5 11.25 2.5L11.25 2.5ZM10.01 12.92L5.01 12.92L5.01 12.08L10.01 12.08L10.01 12.92ZM10.23 8.59L8.88 7.25L8.38 7.75L9.79 9.17L9.2 9.76L7.92 8.47L7.92 10.43L7.08 10.43L7.08 8.44L5.76 9.76L5.18 9.17L6.59 7.75L6.08 7.25L4.74 8.59L4.15 8L5.5 6.66L5 6.16L5 6.14L4.96 6.14L4.96 5.41L6.04 5.41L6.04 6.03L7.08 7.07L7.08 5.43L6.26 5.43L6.26 4.59L7.92 4.59L7.92 7.04L8.91 6.05L8.91 5.42L9.99 5.42L9.99 6.15L9.96 6.15L9.98 6.16L9.48 6.66L10.82 8.01L10.23 8.6L10.23 8.59Z"/>
</svg>