<svg xmlns="http://www.w3.org/2000/svg" viewBox="0 0 15 15">
  <path d="M11.25 2.5L4.39 2.53C4.04 2.53 3.76 2.25 3.76 1.9C3.76 1.54 4.05 1.25 4.41 1.25L11.12 1.25C11.02 0.55 10.43 0 9.7 0L4.36 0C3.33 0 2.5 0.83 2.5 1.86L2.52 13.75C2.52 14.44 3.08 15 3.77 15L11.25 15C11.94 15 12.5 14.44 12.5 13.75L12.5 3.76C12.5 3.06 11.94 2.5 11.25 2.5L11.25 2.5ZM10.01 12.92L5.01 12.92L5.01 12.08L10.01 12.08L10.01 12.92ZM10.01 7.08L9.6 7.92L8.35 8.04L8.35 8.41L8.76 8.97L8.76 9.69L8.35 10L8.35 10.2L8.76 10.41L8.55 10.83L7.93 10.83L7.93 10.38L8.14 9.71L7.51 9.49L7.3 9.16L6.47 9.16L5.85 9.71L5.01 9.04L5.22 8.6L5.85 8.82L6.26 8.38L5.85 8.13L5.85 7.71L6.68 5.63L7.3 5.84C7.3 5.84 7.25 6.14 7.27 6.17C7.28 6.2 7.48 6.57 7.48 6.57L7.22 7L7.91 6.66L8.1 5.86L7.6 5.77L7.68 5.1L8.06 4.72L9.38 4.58L9.59 5L10.01 5L9.8 6.25L9.6 6.25L9.6 6.67L10.01 6.67L10.01 7.08Z"/>
</svg>