<svg xmlns="http://www.w3.org/2000/svg" viewBox="0 0 15 15">
  <path d="M6.67 7.92L8.32 7.92C8.23 8.5 7.96 9.07 7.49 9.6C7.03 9.07 6.76 8.5 6.67 7.92L6.67 7.92ZM5.04 7.08L5.83 7.08C5.9 6.42 6.17 5.77 6.62 5.16C5.79 5.48 5.19 6.21 5.04 7.08L5.04 7.08ZM5.04 7.92C5.19 8.79 5.79 9.52 6.62 9.84C6.17 9.23 5.9 8.58 5.83 7.92L5.04 7.92ZM12.49 3.76L12.49 13.75C12.49 14.44 11.93 15 11.24 15L3.77 15C3.08 15 2.52 14.44 2.52 13.75L2.5 1.86C2.5 0.83 3.33 0 4.36 0L9.7 0C10.42 0 11.01 0.55 11.11 1.25L4.41 1.25C4.05 1.25 3.76 1.54 3.76 1.9C3.76 2.26 4.04 2.53 4.39 2.53L11.24 2.5C11.94 2.5 12.5 3.06 12.5 3.76L12.49 3.76ZM9.99 12.08L5 12.08L5 12.92L9.99 12.92L9.99 12.08ZM10.83 7.5C10.83 5.66 9.33 4.17 7.5 4.17C5.66 4.17 4.17 5.66 4.17 7.5C4.17 9.34 5.66 10.83 7.5 10.83C9.33 10.83 10.83 9.34 10.83 7.5ZM6.67 7.08L8.32 7.08C8.23 6.5 7.96 5.93 7.49 5.4C7.03 5.93 6.76 6.5 6.67 7.08L6.67 7.08ZM8.38 5.16C8.83 5.77 9.09 6.42 9.17 7.08L9.95 7.08C9.8 6.21 9.2 5.48 8.38 5.16ZM8.38 9.83C9.2 9.52 9.8 8.79 9.95 7.91L9.17 7.91C9.09 8.57 8.83 9.23 8.38 9.83L8.38 9.83Z"/>
</svg>