<svg xmlns="http://www.w3.org/2000/svg" viewBox="0 0 15 15">
  <path d="M11.25 2.5L4.39 2.53C4.04 2.53 3.76 2.25 3.76 1.9C3.76 1.55 4.05 1.25 4.41 1.25L11.12 1.25C11.02 0.55 10.43 0 9.7 0L4.36 0C3.33 0 2.5 0.83 2.5 1.86L2.52 13.75C2.52 14.44 3.08 15 3.77 15L11.25 15C11.94 15 12.5 14.44 12.5 13.75L12.5 3.76C12.5 3.06 11.94 2.5 11.25 2.5L11.25 2.5ZM10.01 12.92L5.01 12.92L5.01 12.08L10.01 12.08L10.01 12.92ZM10.46 8.51L10.23 8.42L9.78 9.43L9.93 9.67L9.96 10.11L9.29 10.29L9.1 9.93L8.19 9.43L8.16 8.5L7.79 8.95L6.68 8.97L6.68 8.18L6.7 7.94L6.13 8.05L5.98 7.58L5.57 7.54L5.18 6.78L5 6.75L4.77 6.94L4.25 6.6L4.13 5.91L5.59 5.16L5.83 5.35L6.53 5.57L7.13 5.11L7.51 5.17L7.51 5.06L8.76 5.06L8.76 5.38L8.81 5.43L9.29 5.33L9.89 5.74L9.57 6.65L10.65 7.15L10.51 7.4L10.8 7.59L10.47 8.51L10.46 8.51Z"/>
</svg>