<svg xmlns="http://www.w3.org/2000/svg" viewBox="0 0 15 15">
<path d="M 1.35 1.5C1.21 1.5 1.1 1.63 1.1 1.8L1.1 2C0.82 2 0.6 2.22 0.6 2.5L0.6 3.5C0.6 3.78 0.82 4 1.1 4L1.1 10.76C1.26 10.69 1.42 10.62 1.6 10.58L1.6 7.08C2.09 4.98 3.96 3.95 5.05 3.67C5.11 3.9 5.36 4.1 5.66 4.03L6.63 3.77C6.89 3.69 7.05 3.42 6.98 3.15L7.17 3.1C7.33 3.06 7.43 2.92 7.4 2.78C7.36 2.65 7.2 2.58 7.04 2.62L6.85 2.67C6.78 2.4 6.51 2.24 6.24 2.32L5.27 2.58C5 2.65 4.85 2.92 4.92 3.19C4.19 3.36 2.52 3.93 1.6 5.63L1.6 4C1.88 4 2.1 3.78 2.1 3.5L2.1 2.5C2.1 2.22 1.88 2 1.6 2L1.6 1.8C1.6 1.63 1.49 1.5 1.35 1.5ZM11.35 1.5C11.21 1.5 11.1 1.63 11.1 1.8L11.1 2C10.82 2 10.6 2.22 10.6 2.5L10.6 3.5C10.6 3.78 10.82 4 11.1 4L11.1 6.54C10.69 6.35 10.33 6.25 10.08 6.19C10.15 5.92 10 5.65 9.73 5.58L8.76 5.32C8.49 5.24 8.22 5.4 8.15 5.67L7.96 5.62C7.8 5.58 7.64 5.65 7.6 5.78C7.57 5.92 7.67 6.06 7.83 6.1L8.02 6.15C7.95 6.42 8.11 6.69 8.37 6.77L9.34 7.03C9.64 7.1 9.89 6.9 9.95 6.67C10.28 6.75 10.68 6.91 11.1 7.14L11.1 8.09C11.1 8.09 11.1 9.21 11.1 10.55C11.28 10.6 11.45 10.67 11.6 10.76L11.6 7.46C12.38 8.02 13.12 8.87 13.4 10.08L13.4 11.34C13.56 11.28 13.74 11.2 13.9 11.11L13.9 7C14.18 7 14.4 6.78 14.4 6.5L14.4 5.5C14.4 5.22 14.18 5 13.9 5L13.9 4.8C13.9 4.63 13.79 4.5 13.65 4.5C13.51 4.5 13.4 4.63 13.4 4.8L13.4 5C13.12 5 12.9 5.22 12.9 5.5L12.9 6.5C12.9 6.78 13.12 7 13.4 7L13.4 8.63C12.92 7.75 12.24 7.17 11.6 6.79L11.6 4C11.88 4 12.1 3.78 12.1 3.5L12.1 2.5C12.1 2.22 11.88 2 11.6 2L11.6 1.8C11.6 1.63 11.49 1.5 11.35 1.5ZM4.35 5.5C4.21 5.5 4.1 5.63 4.1 5.8L4.1 6C3.82 6 3.6 6.22 3.6 6.5L3.6 7.5C3.6 7.78 3.82 8 4.1 8L4.1 11.46C4.17 11.48 4.23 11.5 4.29 11.5C4.37 11.5 4.48 11.46 4.6 11.4L4.6 8C4.88 8 5.1 7.78 5.1 7.5L5.1 6.5C5.1 6.22 4.88 6 4.6 6L4.6 5.8C4.6 5.63 4.49 5.5 4.35 5.5ZM7.35 7.5C7.21 7.5 7.1 7.63 7.1 7.8L7.1 8C6.82 8 6.6 8.22 6.6 8.5L6.6 9.5C6.6 9.78 6.82 10 7.1 10L7.1 10.65C7.28 10.73 7.45 10.84 7.6 10.95L7.6 10C7.88 10 8.1 9.78 8.1 9.5L8.1 8.5C8.1 8.22 7.88 8 7.6 8L7.6 7.8C7.6 7.63 7.49 7.5 7.35 7.5ZM2.14 11C1.35 11 -0 12 0 12L0 13.5C0 13.5 1.35 12.5 2.14 12.5C2.93 12.5 3.5 13.5 4.29 13.5C5.07 13.5 5.64 12.5 6.43 12.5C7.22 12.5 7.78 13.5 8.57 13.5C9.36 13.5 9.93 12.5 10.71 12.5C11.5 12.5 12.07 13.5 12.86 13.5C13.65 13.5 15 12.5 15 12.5L15 11C15 11 13.65 12 12.86 12C12.07 12 11.5 11 10.71 11C9.93 11 9.36 12 8.57 12C7.78 12 7.22 11 6.43 11C5.64 11 5.07 12 4.29 12C3.5 12 2.93 11 2.14 11Z" />
</svg>