<svg xmlns="http://www.w3.org/2000/svg" viewBox="0 0 15 15">
  <path d="M12.44 2.3C12.69 2.42 12.92 2.56 13.14 2.72C15.16 4.18 15.6 7 14.14 9.02C14.03 9.17 13.91 9.31 13.78 9.45L9.33 14.2C8.38 15.21 6.8 15.26 5.75 14.28L5.67 14.2L1.22 9.45C-0.48 7.63 -0.39 4.78 1.46 3.04L1.67 2.86L1.82 2.74L1.86 2.72C3.6 1.45 5.99 1.68 7.46 3.17L7.5 3.21L7.53 3.17C8.78 1.91 10.74 1.5 12.44 2.3ZM11.8 3.66C10.39 3 8.72 3.6 8.05 5.01L7.5 6.19L6.95 5.01C6.87 4.85 6.78 4.7 6.68 4.55C5.76 3.29 4 3.01 2.74 3.93L2.59 4.04L2.45 4.17C1.24 5.3 1.18 7.21 2.31 8.42L6.77 13.17L6.81 13.22C7.22 13.6 7.85 13.58 8.23 13.17L12.69 8.42C12.77 8.33 12.85 8.23 12.92 8.13C13.9 6.79 13.6 4.91 12.26 3.93C12.12 3.83 11.96 3.73 11.8 3.66Z"/>
</svg>