<svg xmlns="http://www.w3.org/2000/svg" viewBox="0 0 15 15">
  <path d="M12.44 2.29C12.69 2.41 12.92 2.55 13.14 2.71C15.16 4.17 15.6 6.99 14.14 9C14.03 9.16 13.91 9.3 13.78 9.44L9.33 14.19C8.38 15.2 6.8 15.25 5.75 14.27L5.67 14.19L1.22 9.44C-0.48 7.62 -0.39 4.77 1.46 3.03L1.67 2.85L1.82 2.73L1.86 2.71C3.6 1.44 5.99 1.67 7.46 3.16L7.5 3.2L7.53 3.16C8.78 1.9 10.74 1.49 12.44 2.29ZM8.05 5L7.5 6.17L7.5 9L12.13 9L12.69 8.41C12.77 8.32 12.85 8.22 12.92 8.12C13.9 6.78 13.6 4.9 12.26 3.92C12.12 3.82 11.96 3.72 11.8 3.65C10.39 2.99 8.72 3.59 8.05 5Z"/>
</svg>