<svg xmlns="http://www.w3.org/2000/svg" viewBox="0 0 15 15">
  <path d="M5.31 7.91L6.91 12.7L6.95 12.79C7.16 13.2 7.75 13.25 8.02 12.85L9.83 10.13L12.62 10.13L8.41 14.61C7.94 15.11 7.15 15.14 6.64 14.67L6.59 14.61L2.38 10.13L3.5 10.13L3.6 10.12C3.77 10.09 3.92 9.99 4.02 9.85L5.31 7.91ZM12.88 2.72C13.08 2.81 13.27 2.92 13.45 3.05C15.13 4.28 15.5 6.63 14.28 8.31C14.19 8.43 14.09 8.55 13.98 8.67L13.79 8.88L9.5 8.88L9.4 8.88C9.23 8.91 9.08 9.01 8.98 9.15L7.69 11.09L6.09 6.3C5.93 5.81 5.27 5.72 4.98 6.15L3.16 8.88L1.21 8.88L1.02 8.67C-0.4 7.15 -0.33 4.77 1.19 3.35L1.36 3.2L1.55 3.05C3.12 1.91 5.33 2.26 6.47 3.83C6.6 4.01 6.71 4.2 6.81 4.4L7.5 5.87L8.19 4.4C9.02 2.64 11.12 1.89 12.88 2.72Z"/>
</svg>