<svg xmlns="http://www.w3.org/2000/svg" viewBox="0 0 15 15">
  <path d="M12.88 2.72C13.08 2.81 13.27 2.92 13.45 3.05C15.13 4.28 15.5 6.63 14.28 8.31C14.19 8.43 14.09 8.55 13.98 8.67L8.41 14.61C8.17 14.87 7.84 15 7.51 15C7.49 15 8.06 14.02 9.23 12.04L7.5 10.6L9.52 9.15L7.21 7.42L9.23 5.98L8.19 4.4C9.02 2.64 11.12 1.89 12.88 2.72ZM6.47 3.83C6.6 4.01 6.71 4.2 6.81 4.4L7.5 5.87L5.19 7.13L7.79 9.15L6.35 10.6L8.08 12.33C7.71 14.11 7.52 15 7.49 15C7.19 15 6.88 14.89 6.64 14.67L6.59 14.61L1.02 8.67C-0.4 7.15 -0.33 4.77 1.19 3.35L1.36 3.2L1.55 3.05C3.12 1.91 5.33 2.26 6.47 3.83Z"/>
</svg>