<svg xmlns="http://www.w3.org/2000/svg" viewBox="0 0 15 15">
<path d="M 1 0 C 0.45 0 0 0.45 0 1 L 0 2 L 0 4 L 0 5 C 0 5.55 0.45 6 1 6 L 2.5 6 L 2.5 4 A 0.5 0.5 0 0 1 2 3.5 L 2 2.5 A 0.5 0.5 0 0 1 2.5 2 L 12.5 2 A 0.5 0.5 0 0 1 13 2.5 L 13 3.5 A 0.5 0.5 0 0 1 12.5 4 L 12.5 6 L 14 6 C 14.55 6 15 5.55 15 5 L 15 4 L 15 2 L 15 1 C 15 0.45 14.55 0 14 0 L 1 0 z M 3 3 L 3 7 C 3 7.55 3.45 8 4 8 L 11 8 C 11.55 8 12 7.55 12 7 L 12 3 L 9.6 3 C 9.01 3.31 8.29 3.5 7.5 3.5 C 6.71 3.5 5.99 3.31 5.4 3 L 3 3 z M 4.5 5 C 4.78 5 5 5.22 5 5.5 C 5 5.78 4.78 6 4.5 6 L 5 6.5 C 5 6.22 5.22 6 5.5 6 C 5.78 6 6 6.22 6 6.5 C 6 6.78 5.78 7 5.5 7 L 4 7 L 4 5.5 C 4 5.22 4.22 5 4.5 5 z M 10.5 5 C 10.78 5 11 5.22 11 5.5 L 11 7 L 9.5 7 C 9.22 7 9 6.78 9 6.5 C 9 6.22 9.22 6 9.5 6 C 9.78 6 10 6.22 10 6.5 L 10.5 6 C 10.22 6 10 5.78 10 5.5 C 10 5.22 10.22 5 10.5 5 z M 7.5 8.64 C 7.38 8.64 7.27 8.68 7.18 8.77 L 5.13 10.82 C 4.96 10.99 4.96 11.28 5.13 11.46 C 5.31 11.64 5.6 11.64 5.78 11.46 L 7.04 10.23 L 7.04 14.54 C 7.04 14.79 7.25 15 7.5 15 C 7.75 15 7.96 14.79 7.96 14.54 L 7.96 10.23 L 9.22 11.46 C 9.4 11.64 9.69 11.64 9.87 11.46 C 10.04 11.28 10.04 10.99 9.87 10.82 L 7.82 8.77 C 7.73 8.68 7.62 8.64 7.5 8.64 z" />
</svg>
