<svg xmlns="http://www.w3.org/2000/svg" viewBox="0 0 15 15">
<path d="M 1 0 C 0.45 0 0 0.45 0 1 L 0 2 L 0 4 L 0 5 C 0 5.55 0.45 6 1 6 L 2.5 6 L 2.5 4 A 0.5 0.5 0 0 1 2 3.5 L 2 2.5 A 0.5 0.5 0 0 1 2.5 2 L 12.5 2 A 0.5 0.5 0 0 1 13 2.5 L 13 3.5 A 0.5 0.5 0 0 1 12.5 4 L 12.5 6 L 14 6 C 14.55 6 15 5.55 15 5 L 15 4 L 15 2 L 15 1 C 15 0.45 14.55 0 14 0 L 1 0 z M 3 3 L 3 7 C 3 7.55 3.45 8 4 8 L 11 8 C 11.55 8 12 7.55 12 7 L 12 3 L 9.6 3 C 9.01 3.31 8.29 3.5 7.5 3.5 C 6.71 3.5 5.99 3.31 5.4 3 L 3 3 z M 4.5 5 C 4.78 5 5 5.22 5 5.5 C 5 5.78 4.78 6 4.5 6 L 5 6.5 C 5 6.22 5.22 6 5.5 6 C 5.78 6 6 6.22 6 6.5 C 6 6.78 5.78 7 5.5 7 L 4 7 L 4 5.5 C 4 5.22 4.22 5 4.5 5 z M 10.5 5 C 10.78 5 11 5.22 11 5.5 L 11 7 L 9.5 7 C 9.22 7 9 6.78 9 6.5 C 9 6.22 9.22 6 9.5 6 C 9.78 6 10 6.22 10 6.5 L 10.5 6 C 10.22 6 10 5.78 10 5.5 C 10 5.22 10.22 5 10.5 5 z M 7.5 8.64 C 7.25 8.64 7.04 8.85 7.04 9.1 L 7.04 13.41 L 5.78 12.18 C 5.6 12 5.31 12 5.13 12.18 C 4.96 12.36 4.96 12.65 5.13 12.82 L 7.18 14.87 C 7.27 14.96 7.38 15 7.5 15 C 7.62 15 7.73 14.96 7.82 14.87 L 9.87 12.82 C 10.04 12.65 10.04 12.36 9.87 12.18 C 9.69 12 9.4 12 9.22 12.18 L 7.96 13.41 L 7.96 9.1 C 7.96 8.85 7.75 8.64 7.5 8.64 z" />
</svg>
