<svg xmlns="http://www.w3.org/2000/svg" viewBox="0 0 15 15">
<path d="M 1 0 C 0.45 0 0 0.45 0 1 L 0 2 L 0 4 L 0 5 C 0 5.55 0.45 6 1 6 L 2.5 6 L 2.5 4 A 0.5 0.5 0 0 1 2 3.5 L 2 2.5 A 0.5 0.5 0 0 1 2.5 2 L 12.5 2 A 0.5 0.5 0 0 1 13 2.5 L 13 3.5 A 0.5 0.5 0 0 1 12.5 4 L 12.5 6 L 14 6 C 14.55 6 15 5.55 15 5 L 15 4 L 15 2 L 15 1 C 15 0.45 14.55 0 14 0 L 1 0 z M 3 3 L 3 14 C 3 14.55 3.45 15 4 15 L 11 15 C 11.55 15 12 14.55 12 14 L 12 3 L 10.5 3 L 4.5 3 L 3 3 z M 7.5 5 C 9.43 5 11 6.12 11 7.5 C 11 8.88 9.43 10 7.5 10 C 5.57 10 4 8.88 4 7.5 C 4 6.12 5.57 5 7.5 5 z M 6.5 6 L 6.25 6.1 L 6.25 8.38 L 6.5 8 L 6.5 6 z M 6 6.24 C 5.91 6.28 5.84 6.31 5.75 6.38 L 5.75 8.65 C 5.89 8.71 6 8.75 6 8.75 L 6 6.24 z M 6.75 6.25 L 6.75 8.25 L 7 8.5 L 7 6.5 L 6.75 6.25 z M 7.25 6.5 L 7.25 8.5 L 7.5 8.5 L 7.5 6.5 L 7.25 6.5 z M 7.75 6.5 L 7.75 8.5 L 8 8.5 L 8 6.5 L 7.75 6.5 z M 8.25 6.5 L 8.25 8.5 L 8.5 8.5 L 8.5 6.5 L 8.25 6.5 z M 8.75 6.54 L 8.75 8.45 C 8.83 8.44 8.91 8.42 9 8.38 L 9 6.63 C 8.91 6.58 8.83 6.56 8.75 6.54 z M 5.5 6.57 C 5.41 6.65 5.32 6.73 5.25 6.83 L 5.25 8.25 C 5.33 8.35 5.41 8.43 5.5 8.5 L 5.5 6.57 z M 9.25 6.82 L 9.25 8.18 C 9.39 8.03 9.5 7.82 9.5 7.5 C 9.5 7.18 9.39 6.97 9.25 6.82 z M 4.5 12 C 4.78 12 5 12.22 5 12.5 C 5 12.78 4.78 13 4.5 13 L 5 13.5 C 5 13.22 5.22 13 5.5 13 C 5.78 13 6 13.22 6 13.5 C 6 13.78 5.78 14 5.5 14 L 4 14 L 4 12.5 C 4 12.22 4.22 12 4.5 12 z M 10.5 12 C 10.78 12 11 12.22 11 12.5 L 11 14 L 9.5 14 C 9.22 14 9 13.78 9 13.5 C 9 13.22 9.22 13 9.5 13 C 9.78 13 10 13.22 10 13.5 L 10.5 13 C 10.22 13 10 12.78 10 12.5 C 10 12.22 10.22 12 10.5 12 z" />
</svg>
