<svg xmlns="http://www.w3.org/2000/svg" viewBox="0 0 15 15" >
  <path d="m3.625 3.5a0.875 0.875 0 0 0-0.875 0.875v2.625h-0.25v-1.25a0.75 0.75 0 0 0-0.75-0.75 0.75 0.75 0 0 0-0.75 0.75v1.25h-0.5a0.5 0.5 0 0 0-0.5 0.5 0.5 0.5 0 0 0 0.5 0.5h0.5v1.25a0.75 0.75 0 0 0 0.75 0.75 0.75 0.75 0 0 0 0.75-0.75v-1.25h0.25v2.625a0.875 0.875 0 0 0 0.875 0.875 0.875 0.875 0 0 0 0.875-0.875v-2.625h6v2.625a0.875 0.875 0 0 0 0.875 0.875 0.875 0.875 0 0 0 0.875-0.875v-2.625h0.25v1.25a0.75 0.75 0 0 0 0.75 0.75 0.75 0.75 0 0 0 0.75-0.75v-1.25h0.5a0.5 0.5 0 0 0 0.5-0.5 0.5 0.5 0 0 0-0.5-0.5h-0.5v-1.25a0.75 0.75 0 0 0-0.75-0.75 0.75 0.75 0 0 0-0.75 0.75v1.25h-0.25v-2.625a0.875 0.875 0 0 0-0.875-0.875 0.875 0.875 0 0 0-0.875 0.875v2.625h-6v-2.625a0.875 0.875 0 0 0-0.875-0.875z"/>
</svg>
