<svg xmlns="http://www.w3.org/2000/svg" viewBox="0 0 15 15">
  <path d="M5.5 0c-0.83 0 -1.5 0.67 -1.5 1.5c0 0.83 0.5 1.5 0.5 1.5h6s0.5 -0.67 0.5 -1.5c0 -0.83 -0.67 -1.5 -1.5 -1.5zm-2.5 4c-0.83 0 -1.5 0.67 -1.5 1.5s0.5 1.5 0.5 1.5h11s0.5 -0.67 0.5 -1.5s-0.67 -1.5 -1.5 -1.5zm-1 4c-0.83 0 -1.5 0.67 -1.5 1.5c0 0.83 0.67 1.5 1.5 1.5h3.54c0.11 -0.96 0.51 -2 1.96 -2s1.85 1.04 1.96 2h3.54c0.83 0 1.5 -0.67 1.5 -1.5c0 -0.83 -0.67 -1.5 -1.5 -1.5zm0.5 4s-0.5 0.67 -0.5 1.5s0.67 1.5 1.5 1.5h8c0.83 0 1.5 -0.67 1.5 -1.5s-0.5 -1.5 -0.5 -1.5z"/>
</svg>