<svg xmlns="http://www.w3.org/2000/svg" viewBox="0 0 15 15">
  <path d="M7.5 0.06C9.49 0.06 11.4 0.85 12.8 2.26C14.21 3.66 15 5.57 15 7.56C15 11.7 11.64 15.06 7.5 15.06C3.36 15.06 0 11.7 0 7.56C0 5.57 0.79 3.66 2.2 2.26C3.6 0.85 5.51 0.06 7.5 0.06ZM5.75 7C5.06 7 4.5 7.56 4.5 8.25C4.5 8.94 5.06 9.5 5.75 9.5C6.44 9.5 7 8.94 7 8.25C7 7.56 6.44 7 5.75 7ZM11.25 5C10.56 5 10 5.56 10 6.25C10 6.94 10.56 7.5 11.25 7.5C11.94 7.5 12.5 6.94 12.5 6.25C12.5 5.56 11.94 5 11.25 5ZM8.25 2C7.56 2 7 2.56 7 3.25C7 3.94 7.56 4.5 8.25 4.5C8.94 4.5 9.5 3.94 9.5 3.25C9.5 2.56 8.94 2 8.25 2Z"/>
</svg>