<svg xmlns="http://www.w3.org/2000/svg" viewBox="0 0 15 15">
  <path d="M6.5 0C2.99 0 0.13 2.78 0 6.27L0 6.5L0 6.73C0.12 9.98 2.62 12.63 5.81 12.96L6 12.98L6 11.98L5.84 11.96C3.12 11.64 1 9.32 1 6.5C1 3.46 3.46 1 6.5 1L7.5 1C11.09 1 14 3.91 14 7.5L14 8.5C14 11.54 11.54 14 8.5 14L8 14L8 11.08L8.42 11.01C9.91 10.76 11 9.47 11 7.96L11 7.25C11 5.46 9.54 4 7.75 4L6.5 4C5.12 4 4 5.12 4 6.5C4 7.88 5.12 9 6.5 9L7.5 9C8.33 9 9 8.33 9 7.5C9 6.67 8.33 6 7.5 6L6.5 6C6.22 6 6 6.22 6 6.5C6 6.78 6.22 7 6.5 7L7.5 7L7.59 7.01C7.82 7.05 8 7.25 8 7.5C8 7.78 7.78 8 7.5 8L6.5 8C5.67 8 5 7.33 5 6.5C5 5.67 5.67 5 6.5 5L7.5 5C8.88 5 10 6.12 10 7.5C10 8.88 8.88 10 7.5 10L6.5 10C4.57 10 3 8.43 3 6.5C3 4.57 4.57 3 6.5 3L7.75 3C10.1 3 12 4.9 12 7.25L12 7.96L11.99 8.16C11.91 9.87 10.77 11.33 9.18 11.85L9 11.9L9 12.97L9.13 12.96C11.32 12.65 13 10.25 13 8.5L13 7.5C13 4.46 10.54 2 7.5 2L6.5 2C4.01 2 2 4.01 2 6.5C2 8.99 4.01 11 6.5 11L7 11L7 14L6.5 14C4.43 14 2.55 13.16 1.19 11.8L0 10.5L0 12L0.39 12.41C1.88 13.95 3.95 14.93 6.24 15L6.5 15L8.5 15C12.09 15 15 12.09 15 8.5L15 7.5C15 3.36 11.64 0 7.5 0L6.5 0Z"/>
</svg>