<svg xmlns="http://www.w3.org/2000/svg" viewBox="0 0 15 15">
  <path d="M12.69 10.39C13.33 10.39 13.85 10.9 13.85 11.54C13.85 12.18 13.33 12.69 12.69 12.69L13.85 12.69C14.48 12.69 15 13.21 15 13.85C15 14.48 14.48 15 13.85 15L1.15 15C0.52 15 0 14.48 0 13.85C0 13.21 0.52 12.69 1.15 12.69L2.31 12.69C1.67 12.69 1.15 12.18 1.15 11.54C1.15 10.9 1.67 10.39 2.31 10.39L3.61 10.39C4.67 11.24 6.03 11.75 7.5 11.75C8.97 11.75 10.33 11.24 11.39 10.39L12.69 10.39ZM7.5 0C10.54 0 13 2.46 13 5.5C13 8.54 10.54 11 7.5 11C4.46 11 2 8.54 2 5.5C2 2.46 4.46 0 7.5 0ZM4.5 3L4.07 4.04L3 4.04L3.86 4.76L3.44 6L4.5 5.28L5.57 6L5.15 4.76L6 4.04L4.93 4.04L4.5 3ZM7.5 3.75L7.29 4.28L6.75 4.28L7.19 4.64L6.96 5.25L7.5 4.89L8.04 5.25L7.82 4.64L8.25 4.28L7.71 4.28L7.5 3.75ZM6.5 1.75L6.29 2.28L5.75 2.28L6.19 2.64L5.96 3.25L6.5 2.89L7.04 3.25L6.82 2.64L7.25 2.28L6.71 2.28L6.5 1.75Z"/>
</svg>