<svg xmlns="http://www.w3.org/2000/svg" viewBox="0 0 15 15">
  <path d="M 7.49,0 C 4.62,0 2.31,2.32 2.31,5.19 c 0,2.87 2.32,5.19 5.19,5.19 2.87,0 5.19,-2.32 5.19,-5.19 C 12.68,2.32 10.37,0 7.49,0 Z m 0,0.92 A 0.58,0.58 0 0 1 8.07,1.5 0.58,0.58 0 0 1 7.49,2.08 c -1.73,0 -3.11,1.38 -3.11,3.11 A 0.58,0.58 0 0 1 3.8,5.76 0.58,0.58 0 0 1 3.23,5.19 c 0,-2.35 1.91,-4.27 4.27,-4.27 z M 11.16,6.39 a 0.29,0.29 0 0 1 0.12,0.01 0.29,0.29 0 0 1 0.15,0.38 C 11.05,7.72 10.33,8.51 9.42,8.97 A 0.29,0.29 0 0 1 9.04,8.84 0.29,0.29 0 0 1 9.17,8.45 C 9.95,8.06 10.56,7.38 10.9,6.56 A 0.29,0.29 0 0 1 11.16,6.39 Z M 2.31,10.39 c -0.63,0 -1.15,0.52 -1.15,1.15 0,0.63 0.52,1.15 1.15,1.15 H 1.15 C 0.52,12.69 0,13.21 0,13.85 0,14.48 0.52,15 1.15,15 H 13.84 c 0.63,0 1.15,-0.52 1.15,-1.15 0,-0.63 -0.52,-1.15 -1.15,-1.15 h -1.15 c 0.63,0 1.15,-0.52 1.15,-1.15 0,-0.63 -0.52,-1.15 -1.15,-1.15 h -1.57 c -1.06,0.74 -2.33,1.14 -3.62,1.14 -1.29,0 -2.56,-0.4 -3.62,-1.14 z" />
</svg>
