<svg xmlns="http://www.w3.org/2000/svg" viewBox="0 0 15 15">
<path d="M11.66 0C11.65 0 11.63 0 11.62 0 10.31 0.23 10.4 2.42 11.45 2.24 11.75 2.2 11.98 1.93 12.01 1.6 12.05 1.27 12.12 0 11.66 0ZM12.95 0C12.5 0 12.58 1.27 12.61 1.6 12.65 1.93 12.86 2.2 13.17 2.24 14.21 2.42 14.3 0.23 13 0 12.98 0 12.97 0 12.95 0ZM9.96 2.28C9.95 2.28 9.94 2.29 9.93 2.3 9.67 2.53 9.68 3.11 9.83 3.53 9.91 3.76 10.11 3.92 10.35 3.92 10.66 3.92 10.92 3.64 10.92 3.29 10.92 3.11 10.85 2.95 10.75 2.84 10.6 2.64 10.14 2.25 9.96 2.28ZM14.62 2.28C14.43 2.29 14.02 2.65 13.87 2.84 13.77 2.95 13.7 3.11 13.7 3.29 13.7 3.64 13.96 3.92 14.26 3.92 14.5 3.92 14.7 3.76 14.79 3.53 14.95 3.11 14.96 2.53 14.69 2.3 14.67 2.28 14.65 2.28 14.62 2.28ZM12.31 2.58C11.96 2.58 11.65 2.82 11.55 3.14 11.44 3.55 11.51 4.01 11 4.27 10.57 4.41 10.4 4.61 10.4 5.09 10.4 5.47 10.74 5.88 11.17 5.94 11.63 6.01 12.01 5.92 12.31 5.74 12.62 5.92 12.98 6.01 13.46 5.94 13.89 5.88 14.21 5.47 14.21 5.09 14.21 4.6 14.06 4.42 13.64 4.28 13.15 4.04 13.17 3.59 13.06 3.17 12.98 2.83 12.67 2.58 12.31 2.58ZM0 4.97V8.94C0.01 11.14 1.8 12.9 3.99 12.89 5.39 12.88 6.7 12.14 7.4 10.93H9.93C11.03 10.93 11.92 10.03 11.92 8.94 11.92 7.85 11.03 6.95 9.93 6.95H7.95V4.97ZM7.95 7.95H9.93C10.48 7.95 10.93 8.39 10.93 8.94 10.93 9.49 10.48 9.93 9.93 9.93H7.81C7.9 9.61 7.95 9.28 7.95 8.94ZM0.5 13.91C0.22 13.91 0 14.13 0 14.4 0 14.68 0.22 14.9 0.5 14.9H7.45C7.73 14.9 7.95 14.68 7.95 14.4 7.95 14.13 7.73 13.91 7.45 13.91Z"/>
</svg>