<svg xmlns="http://www.w3.org/2000/svg" viewBox="0 0 15 15">
  <path d="M11 0C11.55 0 12 0.45 12 1L12 15L3 15L3 1C3 0.45 3.45 0 4 0L11 0ZM7.5 1C5.83 1 4.67 1.33 4 2L4 10C4.67 10.67 5.83 11 7.5 11C9.17 11 10.33 10.67 11 10L11 2C10.33 1.33 9.17 1 7.5 1ZM7.55 6.71L7.59 6.71C8 6.74 8.31 7.1 8.29 7.51C8.28 7.65 8.23 7.79 8.15 7.91L8.1 7.96C7.81 8.29 7.3 8.33 6.97 8.03C6.95 8.01 6.92 7.99 6.9 7.96C6.63 7.65 6.66 7.18 6.97 6.9C7.08 6.8 7.23 6.73 7.39 6.72L7.45 6.71L7.55 6.71ZM9.83 5.88L8.98 6.73C8.16 5.91 6.84 5.91 6.02 6.73L5.17 5.88C6.46 4.58 8.54 4.58 9.83 5.88ZM7.5 3.1C8.81 3.11 9.95 3.55 10.92 4.43C11.02 4.52 11.03 4.67 10.94 4.76L10.25 5.45C8.73 3.92 6.27 3.92 4.75 5.45L4.07 4.77C3.99 4.69 3.98 4.56 4.04 4.47L4.07 4.43C5.04 3.54 6.19 3.09 7.5 3.1Z"/>
</svg>