<svg xmlns="http://www.w3.org/2000/svg" viewBox="0 0 15 15">
<path d="M 1 0 C 0.45 0 0 0.45 0 1 L 0 2 L 0 4 L 0 5 C 0 5.55 0.45 6 1 6 L 2.5 6 L 2.5 4 A 0.5 0.5 0 0 1 2 3.5 L 2 2.5 A 0.5 0.5 0 0 1 2.5 2 L 12.5 2 A 0.5 0.5 0 0 1 13 2.5 L 13 3.5 A 0.5 0.5 0 0 1 12.5 4 L 12.5 6 L 14 6 C 14.55 6 15 5.55 15 5 L 15 4 L 15 2 L 15 1 C 15 0.45 14.55 0 14 0 L 1 0 z M 3 3 C 3 3.03 3 3.06 3 3.08 L 3 13.92 C 3 14.51 3.45 15 4 15 L 9.03 15 C 9.23 15 9.35 14.76 9.24 14.58 L 5.5 8.5 L 8.88 3 L 3 3 z M 10.39 3 L 7 8.5 L 10.81 14.69 C 10.93 14.88 11.13 15 11.35 15 C 11.71 15 12 14.68 12 14.29 L 12 3 L 10.39 3 z" />
</svg>
