<svg xmlns="http://www.w3.org/2000/svg" viewBox="0 0 15 15">
  <path d="M14.66 5.17C14.44 5.39 14.16 5.5 13.84 5.5L12.02 5.5C11.87 5.5 11.72 5.52 11.58 5.58C11.44 5.64 11.31 5.71 11.2 5.83L4.95 12.17C4.73 12.38 4.44 12.5 4.14 12.5L1.14 12.5C0.83 12.5 0.54 12.38 0.32 12.17C0.1 11.96 0 10.93 0 10.63C0 10.32 0.13 10.04 0.34 9.83C0.56 9.61 0.84 9.5 1.16 9.5L3 9.5C3.3 9.5 3.59 9.38 3.8 9.17L10.06 2.83C10.17 2.73 10.29 2.64 10.44 2.58C10.58 2.52 10.73 2.5 10.88 2.5L13.87 2.5C14.18 2.5 14.47 2.62 14.69 2.83C14.91 3.04 15 4.07 15 4.37C15 4.68 14.87 4.96 14.66 5.17Z"/>
</svg>