<svg xmlns="http://www.w3.org/2000/svg" viewBox="0 0 15 15">
  <path d="M6.65 2C5.43 2 4.48 3.38 4.11 3.82C4.04 3.91 4 4.02 4 4.14v4.4C3.99 8.78 4.18 8.99 4.42 9C4.53 9.01 4.64 8.97 4.72 8.9c0.47 -0.63 1.16 -1.05 1.93 -1.17C8.06 7.73 8.6 9 10.07 9c0.99 -0.1 1.94 -0.48 2.73 -1.09c0.13 -0.09 0.2 -0.24 0.2 -0.4V2.45c0.03 -0.24 -0.15 -0.46 -0.39 -0.49C12.53 1.95 12.45 1.97 12.38 2c-0.68 0.52 -1.47 0.88 -2.31 1.06C8.6 3.08 8.12 2 6.65 2zM2.5 3c-0.55 0 -1 -0.45 -1 -1s0.45 -1 1 -1s1 0.45 1 1S3.05 3 2.5 3zM3 4v9.48c0 0.28 -0.22 0.5 -0.5 0.5S2 13.76 2 13.48V4c0 -0.28 0.22 -0.5 0.5 -0.5S3 3.72 3 4z"/>
</svg>