<svg xmlns="http://www.w3.org/2000/svg" viewBox="0 0 15 15">
  <path d="M0 2.53L0 0L0.53 0.04L3.07 0.18C3.14 0.18 3.31 0.2 3.43 0.22L6.46 0.78C7.02 0.88 7.69 1 7.96 1.04L8.07 1.06C8.19 1.07 8.56 1.17 8.66 1.24L8.89 1.41C9.25 1.65 9.91 2.1 10.2 2.29C10.5 2.49 10.49 2.98 10.38 3.15C10.26 3.31 9.91 3.52 9.51 3.3C9.1 3.08 8.32 2.45 8.15 2.37C7.97 2.3 5.56 1.93 5.48 1.91L5.35 1.9C5.26 1.89 5.15 1.88 5.06 1.89L4.25 1.95C4.18 1.96 4.13 1.97 4.11 1.97L4.04 1.99C3.98 2.02 3.92 2.07 3.93 2.22C3.95 2.42 4.11 3.22 4.24 3.47L4.37 3.69C4.54 3.96 4.83 4.38 5.29 4.87C5.44 5.04 5.47 5.45 5.3 5.62L5.23 5.68C5.05 5.82 4.78 5.91 4.32 5.49C3.86 5.06 3.5 4.63 3.08 4.31L2.15 3.65L1.76 3.36C1.63 3.26 1.46 3.14 1.3 3.05C1.06 2.91 0 2.53 0 2.53ZM4.11 0.15C4.33 0.13 4.99 0.2 5.24 0.23L5.51 0.27C5.77 0.31 6.11 0.37 6.36 0.48C6.4 0.5 6.45 0.55 6.52 0.64L5.67 0.49L5.22 0.4C4.98 0.35 4.67 0.29 4.38 0.24L4.13 0.2C4.09 0.19 4.05 0.18 4.01 0.17L4.11 0.15ZM5.07 2.03L5.2 2.03L5.63 2.35C5.7 2.4 5.77 2.45 5.84 2.5C5.76 2.56 5.6 2.59 5.42 2.46L5.27 2.34C5.18 2.27 5.06 2.16 4.92 2.04L5.02 2.04L5.07 2.03ZM5.4 2.04L5.49 2.04C5.5 2.04 5.51 2.05 5.52 2.05L6.01 2.12L6.3 2.32C6.46 2.42 6.64 2.54 6.81 2.65C6.8 2.68 6.78 2.7 6.77 2.72C6.72 2.78 6.57 2.83 6.41 2.76L6.34 2.72C6.24 2.66 5.82 2.35 5.4 2.04ZM6.28 2.17L6.79 2.25C7.63 2.39 7.94 2.45 8.06 2.48C8.15 2.57 8.26 2.65 8.36 2.74C8.55 2.89 8.51 3.13 8.45 3.21C8.38 3.3 8.18 3.38 7.95 3.25L7.47 2.94C7.11 2.71 6.64 2.4 6.28 2.17ZM9.21 5.12C10.1 5.12 10.82 5.84 10.82 6.74C10.82 7.63 10.1 8.36 9.21 8.36C8.32 8.36 7.59 7.63 7.59 6.74C7.59 5.84 8.32 5.12 9.21 5.12ZM12.63 8.55C13.53 8.55 14.25 9.28 14.25 10.17C14.25 11.07 13.53 11.79 12.63 11.79C11.74 11.79 11.02 11.07 11.02 10.17C11.02 9.28 11.74 8.55 12.63 8.55ZM7.52 10.86C8.42 10.86 9.14 11.59 9.14 12.48C9.14 13.38 8.42 14.1 7.52 14.1C6.63 14.1 5.9 13.38 5.9 12.48C5.9 11.59 6.63 10.86 7.52 10.86Z"/>
</svg>