<svg xmlns="http://www.w3.org/2000/svg" viewBox="0 0 15 15">
  <path d="M15 0C14.59 0.04 13.48 0.09 13.34 0.1C13.2 0.11 12.01 0.18 11.93 0.18C11.84 0.18 11.6 0.21 11.49 0.23C11.39 0.25 9.66 0.57 9.45 0.61C9.24 0.66 7.05 1.05 6.93 1.06C6.81 1.07 6.44 1.17 6.34 1.24C6.28 1.29 5.19 2.03 4.8 2.29C4.5 2.49 4.51 2.98 4.62 3.15C4.74 3.31 5.09 3.52 5.49 3.3C5.9 3.08 6.68 2.45 6.85 2.37C7.03 2.3 9.44 1.93 9.52 1.91C9.59 1.9 9.79 1.88 9.94 1.89C10.08 1.9 10.81 1.95 10.89 1.97C10.96 1.99 11.09 2.01 11.07 2.22C11.05 2.42 10.89 3.22 10.76 3.47C10.63 3.7 10.33 4.21 9.71 4.87C9.56 5.04 9.53 5.45 9.7 5.62C9.87 5.78 10.15 5.98 10.68 5.49C11.22 4.99 11.62 4.49 12.13 4.16C12.44 3.95 12.96 3.58 13.08 3.48C13.2 3.39 13.46 3.19 13.7 3.05C13.94 2.91 15 2.53 15 2.53L15 0zM10.89 0.15C10.67 0.13 10.01 0.2 9.76 0.23C9.51 0.27 8.99 0.33 8.64 0.48C8.6 0.5 8.55 0.55 8.48 0.64C8.92 0.56 9.29 0.5 9.37 0.48C9.49 0.45 10.09 0.34 10.62 0.24C10.75 0.22 10.88 0.2 10.99 0.17C10.96 0.16 10.92 0.16 10.89 0.15zM9.8 2.03C9.58 2.19 9.36 2.36 9.16 2.5C9.24 2.56 9.4 2.59 9.58 2.46C9.64 2.42 9.84 2.25 10.08 2.04C10.04 2.04 10.01 2.04 9.98 2.04C9.93 2.03 9.89 2.03 9.87 2.03C9.85 2.03 9.82 2.03 9.8 2.03zM9.6 2.04C9.55 2.04 9.51 2.04 9.48 2.05C9.46 2.05 9.27 2.08 8.99 2.12C8.78 2.27 8.48 2.46 8.19 2.65C8.2 2.68 8.22 2.7 8.23 2.72C8.29 2.79 8.47 2.85 8.66 2.72C8.76 2.66 9.18 2.35 9.6 2.04zM8.72 2.17C8.56 2.2 8.39 2.22 8.21 2.25C7.37 2.39 7.06 2.45 6.94 2.48C6.85 2.57 6.74 2.65 6.64 2.74C6.45 2.89 6.49 3.13 6.55 3.21C6.62 3.3 6.82 3.38 7.05 3.25C7.21 3.16 8.12 2.56 8.72 2.17zM5.79 5.12C4.9 5.12 4.18 5.84 4.18 6.74C4.18 7.63 4.9 8.36 5.79 8.36C6.68 8.36 7.41 7.63 7.41 6.74C7.41 5.84 6.68 5.12 5.79 5.12zM2.37 8.55C1.47 8.55 0.75 9.28 0.75 10.17C0.75 11.07 1.47 11.79 2.37 11.79C3.26 11.79 3.98 11.07 3.98 10.17C3.98 9.28 3.26 8.55 2.37 8.55zM7.48 10.86C6.58 10.86 5.86 11.59 5.86 12.48C5.86 13.38 6.58 14.1 7.48 14.1C8.37 14.1 9.1 13.38 9.1 12.48C9.1 11.59 8.37 10.86 7.48 10.86z"/>
</svg>