<svg xmlns="http://www.w3.org/2000/svg" viewBox="0 0 15 15">
  <path d="M0 2.53L0 0L0.53 0.04L3.07 0.18C3.16 0.18 3.4 0.21 3.5 0.23L6.46 0.78C7.02 0.88 7.69 1 7.96 1.04L8.07 1.06C8.19 1.07 8.56 1.17 8.66 1.24L10.19 2.29C10.5 2.49 10.49 2.98 10.38 3.15C10.26 3.31 9.91 3.52 9.51 3.3C9.1 3.08 8.32 2.45 8.15 2.37C7.97 2.3 5.56 1.93 5.48 1.91L5.34 1.9C5.28 1.89 5.21 1.89 5.15 1.89L5.06 1.89C4.92 1.9 4.19 1.95 4.11 1.97L4.04 1.99C3.97 2.02 3.92 2.07 3.93 2.21C3.95 2.42 4.11 3.21 4.24 3.46L4.32 3.6C4.48 3.88 4.77 4.31 5.29 4.87C5.44 5.04 5.47 5.45 5.3 5.62L5.23 5.68C5.05 5.81 4.78 5.91 4.32 5.49C3.86 5.06 3.5 4.63 3.08 4.31L2.15 3.65L1.76 3.36C1.63 3.26 1.46 3.14 1.3 3.05C1.06 2.91 0 2.53 0 2.53ZM5.52 2.04L5.52 2.05C5.54 2.05 5.74 2.08 6.01 2.13L6.63 2.54C6.69 2.57 6.75 2.61 6.81 2.65L6.77 2.72C6.71 2.79 6.54 2.85 6.34 2.72L6.18 2.6C5.99 2.47 5.69 2.25 5.4 2.03L5.52 2.04ZM4.92 2.02L4.97 2.03L5.14 2.01L5.21 2.01L5.64 2.33C5.71 2.38 5.78 2.43 5.84 2.48C5.77 2.54 5.6 2.57 5.42 2.44L5.27 2.32C5.18 2.25 5.06 2.14 4.92 2.02ZM6.52 0.64L5.72 0.5L5.34 0.42L4.38 0.24C4.25 0.22 4.12 0.19 4.01 0.17C4.04 0.16 4.08 0.15 4.11 0.15C4.33 0.13 4.99 0.2 5.24 0.23L5.51 0.27C5.77 0.31 6.11 0.37 6.36 0.48C6.4 0.5 6.45 0.55 6.52 0.64ZM6.28 2.17L6.44 2.19L7.94 2.45C7.99 2.46 8.03 2.47 8.06 2.48C8.15 2.57 8.26 2.65 8.36 2.74C8.55 2.89 8.51 3.13 8.45 3.21C8.38 3.3 8.18 3.38 7.95 3.25L7.47 2.94C7.11 2.71 6.64 2.4 6.28 2.17ZM5.91 12.41C5.94 11.55 6.65 10.86 7.52 10.86C8.39 10.86 9.1 11.55 9.14 12.41L5.91 12.41ZM15 12.6L15 15L4.83 15L3.27 12.6L15 12.6ZM11.02 10.18C11.02 11.07 11.74 11.8 12.64 11.8C13.53 11.8 14.26 11.08 14.26 10.18C14.26 9.28 13.54 8.56 12.64 8.56C11.75 8.56 11.02 9.29 11.02 10.18ZM7.59 6.74C7.59 7.64 8.31 8.36 9.21 8.36C10.1 8.36 10.83 7.64 10.83 6.74C10.83 5.85 10.11 5.12 9.21 5.12C8.37 5.12 7.67 5.77 7.6 6.59L7.59 6.74Z"/>
</svg>