<svg xmlns="http://www.w3.org/2000/svg" viewBox="0 0 15 15">
  <path d="M15 7.5a7.5 7.5 0 0 0 -7.5 -7.5a7.5 7.5 0 0 0 -7.5 7.5a7.5 7.5 0 0 0 7.5 7.5a7.5 7.5 0 0 0 7.5 -7.5zm-1.33 -2.05l-1.9 0.63a4.5 4.5 0 0 0 -2.85 -2.85l0.63 -1.9a6.5 6.5 0 0 1 4.11 4.11zm0 4.11a6.5 6.5 0 0 1 -4.11 4.11l-0.63 -1.9a4.5 4.5 0 0 0 2.85 -2.85l1.9 0.63zm-2.67 -2.05a3.5 3.5 0 0 1 -3.5 3.5a3.5 3.5 0 0 1 -3.5 -3.5a3.5 3.5 0 0 1 3.5 -3.5a3.5 3.5 0 0 1 3.5 3.5zm-4.92 -4.27a4.5 4.5 0 0 0 -2.85 2.85l-1.9 -0.63a6.5 6.5 0 0 1 4.11 -4.11l0.63 1.9zm0 8.54l-0.63 1.9a6.5 6.5 0 0 1 -4.11 -4.11l1.9 -0.63a4.5 4.5 0 0 0 2.85 2.85z"/>
</svg>