<svg xmlns="http://www.w3.org/2000/svg" viewBox="0 0 15 15">
  <path d="M13 0.5C14 1 13 12.5 12.5 12.5C11.54 12.82 10.18 12.93 9.32 12.98L8.5 13L8.5 14.5C8.5 15 6.5 15 6.5 14.5L6.5 13L6 12.99C5.19 12.96 3.58 12.86 2.5 12.5C2 12.5 1 1 2 0.5C3 0 12 0 13 0.5ZM4.7 5.43L4.58 5.51C4.22 5.75 4 6.16 4 6.6L4 6.72C4 7.09 4.15 7.45 4.41 7.71L4.86 8.16C4.91 8.21 4.93 8.27 4.93 8.33L4.93 10.47C4.93 10.53 4.96 10.59 5 10.64L5.33 10.96C5.38 11.01 5.43 11.03 5.5 11.03L6.1 11.03C6.23 11.03 6.33 10.93 6.33 10.8L6.33 10.66C6.33 10.6 6.31 10.54 6.26 10.5L5.99 10.22C5.91 10.15 5.9 10.04 5.94 9.95L6.27 9.3C6.31 9.22 6.39 9.17 6.48 9.17L7.97 9.17C8.1 9.17 8.2 9.27 8.2 9.4L8.2 10.47C8.2 10.53 8.22 10.59 8.27 10.64L8.6 10.96C8.64 11.01 8.7 11.03 8.76 11.03L9.37 11.03C9.5 11.03 9.6 10.93 9.6 10.8L9.6 10.66C9.6 10.6 9.58 10.54 9.53 10.5L9.2 10.17C9.16 10.12 9.13 10.07 9.13 10L9.13 8.73L7.24 6.83L6.16 6.83C5.81 6.83 5.47 6.91 5.17 7.07C4.88 6.92 4.7 6.63 4.7 6.31L4.7 5.43ZM8.9 4.5L8.81 4.5C8.72 4.5 8.64 4.55 8.6 4.63L7.74 6.35L9.3 7.9L9.6 7.3L10.53 7.3L10.86 6.97C10.95 6.88 11 6.76 11 6.64L11 6.6C11 6.46 10.92 6.33 10.79 6.26L9.26 5.5C9.18 5.46 9.13 5.38 9.13 5.29L9.13 4.73C9.13 4.6 9.03 4.5 8.9 4.5ZM10 1.5L5 1.5C4.39 1.5 4 3.5 4.5 3.5L10.5 3.5C11 3.5 10.5 1.5 10 1.5Z"/>
</svg>