<svg xmlns="http://www.w3.org/2000/svg" viewBox="0 0 15 15">
  <path d="M6 0c-0.58 0 -1.11 0.15 -1.48 0.52c-0.37 0.37 -0.52 0.9 -0.52 1.48v8.5c0 1.13 0.41 2.23 1.12 3.07c0.7 0.84 1.72 1.43 2.88 1.43s2.18 -0.59 2.88 -1.43c0.7 -0.84 1.12 -1.95 1.12 -3.07v-6.5h-1v6.5c0 0.88 -0.34 1.77 -0.88 2.43c-0.55 0.66 -1.28 1.07 -2.12 1.07s-1.57 -0.41 -2.12 -1.07c-0.55 -0.66 -0.88 -1.55 -0.88 -2.43v-8.5c0 -0.42 0.1 -0.64 0.23 -0.77c0.13 -0.13 0.35 -0.23 0.77 -0.23h2c0.42 0 0.64 0.1 0.77 0.23c0.13 0.13 0.23 0.35 0.23 0.77v7.5c0 0.42 -0.11 0.83 -0.29 1.1s-0.38 0.4 -0.71 0.4s-0.53 -0.13 -0.71 -0.4s-0.29 -0.68 -0.29 -1.1v-5.5h-1v5.5c0 0.58 0.14 1.17 0.46 1.65s0.87 0.85 1.54 0.85s1.22 -0.37 1.54 -0.85s0.46 -1.07 0.46 -1.65v-7.5c0 -0.58 -0.15 -1.11 -0.52 -1.48c-0.37 -0.37 -0.9 -0.52 -1.48 -0.52z"/>
</svg>