<svg xmlns="http://www.w3.org/2000/svg" viewBox="0 0 15 15">
<path d="M 1 0 C 0.45 0 0 0.45 0 1 L 0 2 L 0 4 L 0 5 C 0 5.55 0.45 6 1 6 L 2.5 6 L 2.5 4 A 0.5 0.5 0 0 1 2 3.5 L 2 2.5 A 0.5 0.5 0 0 1 2.5 2 L 12.5 2 A 0.5 0.5 0 0 1 13 2.5 L 13 3.5 A 0.5 0.5 0 0 1 12.5 4 L 12.5 6 L 14 6 C 14.55 6 15 5.55 15 5 L 15 4 L 15 2 L 15 1 C 15 0.45 14.55 0 14 0 L 1 0 z M 3 3 L 3 14 C 3 14.55 3.45 15 4 15 L 8 15 L 8 3 L 5.96 3 L 5.96 3.54 C 5.96 3.82 5.74 4.04 5.46 4.04 L 4.57 4.04 C 4.3 4.04 4.07 3.82 4.07 3.54 L 4.07 3 L 3 3 z M 10 3 L 10 15 L 11 15 C 11.55 15 12 14.55 12 14 L 12 3 L 10 3 z" />
</svg>
