<svg xmlns="http://www.w3.org/2000/svg" viewBox="0 0 15 15">
  <path d="M 2 1 A 1 0.98 0 0 0 1 1.98 L 1 3.34 L 0.99 3.34 L 0.99 12.8 C 0.99 13.46 1.56 14 2.25 14 L 12.75 14 C 13.44 14 14.01 13.46 14.01 12.8 L 14.01 3.34 L 14 3.34 L 14 1.98 A 1 0.98 0 0 0 13 1 L 2 1 z M 1.5 4 L 3.25 4 L 3.25 9 L 3.75 9 L 3.75 13.52 L 2.25 13.52 C 1.83 13.52 1.5 13.2 1.5 12.8 L 1.5 4 z M 4.75 4 L 6.75 4 L 6.75 9 L 7.25 9 L 7.25 13.52 L 4.25 13.52 L 4.25 9 L 4.75 9 L 4.75 4 z M 8.25 4 L 10.25 4 L 10.25 9 L 10.75 9 L 10.75 13.52 L 7.75 13.52 L 7.75 9 L 8.25 9 L 8.25 4 z M 11.75 4 L 13.5 4 L 13.5 12.8 C 13.5 13.2 13.17 13.52 12.75 13.52 L 11.25 13.52 L 11.25 9 L 11.75 9 L 11.75 4 z" />
</svg>