<svg xmlns="http://www.w3.org/2000/svg" viewBox="0 0 15 15">
  <path d="M13 1C13.55 1 14 1.44 14 1.98L14 3.34L14.01 3.34L14.01 12.8C14.01 13.42 13.51 13.93 12.88 13.99L12.75 14L2.25 14C1.56 14 0.99 13.46 0.99 12.8L0.99 3.34L1 1.98C1 1.44 1.45 1 2 1L13 1ZM3 4L1.75 4L1.75 4.09L1.74 4.09L1.74 12.8C1.74 13.01 1.92 13.2 2.16 13.24L2.25 13.25L3.75 13.25L3.75 9L3 9L3 4ZM6.5 4L5 4L5 9L4.25 9L4.25 13.25L7.25 13.25L7.25 9L6.5 9L6.5 4ZM10 4L8.5 4L8.5 9L7.75 9L7.75 13.25L10.75 13.25L10.75 9L10 9L10 4ZM13.25 4L12 4L12 9L11.25 9L11.25 13.25L12.75 13.25C13.04 13.25 13.26 13.04 13.26 12.8L13.26 4.09L13.25 4.09L13.25 4Z"/>
</svg>