<svg xmlns="http://www.w3.org/2000/svg" viewBox="0 0 15 15">
  <path d="M5 0C5.55 0 6 0.45 6 1L6 7L13.5 7C13.78 7 14 7.22 14 7.5L14 8.5C14 9.38 13.4 10.15 12.54 10.36L10.73 10.82C10.67 10.83 10.61 10.86 10.55 10.9C10.33 11.07 10.29 11.38 10.45 11.6L13 15L3 15L3.72 12.22C3.95 11.32 3.53 10.38 2.7 9.95L1.54 9.35C1.21 9.18 1 8.83 1 8.46L1 1C1 0.45 1.45 0 2 0ZM10 0C10.34 0.94 10.6 1.61 10.8 2C11.39 3.17 12 3.49 12 4.4C12 5.31 11 6 10 6C9 6 8 5.31 8 4.4C8 3.49 8.61 3.17 9.2 2C9.4 1.61 9.66 0.94 10 0Z"/>
</svg>