<svg xmlns="http://www.w3.org/2000/svg" viewBox="0 0 15 15">
  <path d="M6.05 1C6.32 1 6.57 1.1 6.76 1.29L10.47 5L6.5 5L6 6L7.5 6C8.15 6 8.71 6.42 8.91 7L6.5 7L6 8L8.91 8C8.71 8.58 8.15 9 7.5 9L6 9L6 10L9.25 12.5L11 12.5L7.77 9.99C8.85 9.87 9.74 9.06 9.95 8L10.5 8L11 7L9.95 7C9.87 6.63 9.72 6.29 9.5 6L10.5 6L10.82 5.35L14.71 9.24C15.1 9.63 15.1 10.26 14.71 10.65L10.65 14.71C10.26 15.1 9.63 15.1 9.24 14.71L1.29 6.76C1.1 6.57 1 6.32 1 6.05L1 1.99C1 1.44 1.44 1 1.99 1L6.05 1ZM3.98 2.49C3.16 2.49 2.49 3.16 2.49 3.98C2.49 4.8 3.16 5.47 3.98 5.47C4.8 5.47 5.47 4.8 5.47 3.98C5.47 3.16 4.8 2.49 3.98 2.49Z"/>
</svg>