<svg xmlns="http://www.w3.org/2000/svg" viewBox="0 0 15 15">
  <path d="M2 0.25L3.75 2L3.75 3L6 5.25L6.75 5L8 8L5 6.75L5.25 6L3 3.75L2 3.75L0.25 2L2 2L2 0.25ZM7.5 0.5C11.35 0.5 14.5 3.65 14.5 7.5C14.5 11.35 11.35 14.5 7.5 14.5C3.65 14.5 0.5 11.35 0.5 7.5C0.5 6.39 0.76 5.33 1.23 4.39L1.59 4.75L2.59 4.75L3.05 5.21C2.7 5.9 2.5 6.67 2.5 7.5C2.5 10.27 4.73 12.5 7.5 12.5C10.27 12.5 12.5 10.27 12.5 7.5C12.5 4.73 10.27 2.5 7.5 2.5C6.67 2.5 5.9 2.7 5.21 3.05L4.75 2.59L4.75 1.59L4.39 1.23C5.24 0.81 6.18 0.55 7.17 0.51L7.5 0.5ZM7.49 4C9.42 4 11 5.58 11 7.5C11 9.42 9.42 11 7.5 11C5.64 11 4.11 9.53 4.01 7.69L4 7.49L5.55 7.96C5.76 8.85 6.55 9.5 7.5 9.5C8.62 9.5 9.5 8.62 9.5 7.5C9.5 6.55 8.85 5.76 7.96 5.55L7.49 4Z"/>
</svg>