<svg xmlns="http://www.w3.org/2000/svg" viewBox="0 0 15 15">
  <path d="M7.5 0.5C11.37 0.5 14.5 3.63 14.5 7.5C14.5 11.37 11.37 14.5 7.5 14.5C3.63 14.5 0.5 11.37 0.5 7.5C0.5 3.63 3.63 0.5 7.5 0.5ZM7.5 2.5C4.74 2.5 2.5 4.74 2.5 7.5C2.5 10.26 4.74 12.5 7.5 12.5C10.26 12.5 12.5 10.26 12.5 7.5C12.5 4.74 10.26 2.5 7.5 2.5ZM7.5 4C9.43 4 11 5.57 11 7.5C11 9.43 9.43 11 7.5 11C5.57 11 4 9.43 4 7.5C4 5.57 5.57 4 7.5 4ZM7.5 5.5C6.4 5.5 5.5 6.4 5.5 7.5C5.5 8.6 6.4 9.5 7.5 9.5C8.6 9.5 9.5 8.6 9.5 7.5C9.5 6.4 8.6 5.5 7.5 5.5Z"/>
</svg>