<svg xmlns="http://www.w3.org/2000/svg" viewBox="0 0 15 15">
<path d="M 1 0 C 0.45 0 0 0.45 0 1 L 0 2 L 0 4 L 0 5 C 0 5.55 0.45 6 1 6 L 2.5 6 L 2.5 4 A 0.5 0.5 0 0 1 2 3.5 L 2 2.5 A 0.5 0.5 0 0 1 2.5 2 L 12.5 2 A 0.5 0.5 0 0 1 13 2.5 L 13 3.5 A 0.5 0.5 0 0 1 12.5 4 L 12.5 6 L 14 6 C 14.55 6 15 5.55 15 5 L 15 4 L 15 2 L 15 1 C 15 0.45 14.55 0 14 0 L 1 0 z M 3 3 L 3 8 L 6 8 C 6 6 9 6 9 8 L 12 8 L 12 3 L 10 3 L 10 5 L 5 5 L 5 3 L 3 3 z M 6 3 L 6 4 L 9 4 L 9 3 L 6 3 z M 7.5 8.64 C 7.38 8.64 7.27 8.68 7.18 8.77 L 5.13 10.82 C 4.96 10.99 4.96 11.28 5.13 11.46 C 5.31 11.64 5.6 11.64 5.78 11.46 L 7.04 10.23 L 7.04 14.54 C 7.04 14.79 7.25 15 7.5 15 C 7.75 15 7.96 14.79 7.96 14.54 L 7.96 10.23 L 9.22 11.46 C 9.4 11.64 9.69 11.64 9.87 11.46 C 10.04 11.28 10.04 10.99 9.87 10.82 L 7.82 8.77 C 7.73 8.68 7.62 8.64 7.5 8.64 z" />
</svg>
