<svg xmlns="http://www.w3.org/2000/svg" viewBox="0 0 15 15">
  <path d="M 3.23 0 L 3.23 4.17 C 3.26 4.84 2.91 5.48 2.34 5.83 C 1.11 6.65 0.31 7.75 0.14 9.21 C 0.5 9.66 1.16 9.72 1.6 9.35 C 1.66 9.3 1.72 9.24 1.77 9.17 C 1.83 9.09 1.9 9.02 1.98 8.96 C 2.44 8.62 3.09 8.71 3.44 9.17 C 3.78 9.63 4.43 9.73 4.89 9.38 C 4.97 9.32 5.04 9.25 5.1 9.17 C 5.16 9.09 5.23 9.02 5.31 8.96 C 5.78 8.62 6.43 8.71 6.77 9.17 C 7.12 9.64 7.77 9.73 8.23 9.38 C 8.31 9.32 8.38 9.25 8.44 9.17 C 8.48 9.12 8.53 9.06 8.58 9.02 C 9.01 8.64 9.67 8.78 10.05 9.21 L 10.05 9.11 C 9.84 7.58 8.94 6.44 7.6 5.67 C 7.11 5.29 6.75 4.76 6.56 4.17 L 6.56 0 L 3.23 0 z M 7.59 4.79 C 7.82 5.08 8.11 5.31 8.43 5.47 C 8.87 5.79 9.26 6.18 9.59 6.61 C 11.46 9.09 10.97 12.62 8.49 14.49 C 10.74 15.38 13.28 14.27 14.17 12.03 C 14.68 10.73 14.54 9.26 13.8 8.09 C 14.58 7.88 15.05 7.09 14.85 6.31 C 14.65 5.52 13.85 5.05 13.07 5.25 C 12.81 5.32 12.58 5.46 12.39 5.64 L 12.39 4.79 L 7.59 4.79 z M 13.46 6.02 C 13.61 6.02 13.76 6.07 13.88 6.18 C 14.12 6.41 14.13 6.78 13.91 7.02 L 13.38 7.55 C 13.12 7.25 12.82 6.99 12.49 6.77 L 13.01 6.25 C 13.02 6.23 13.03 6.22 13.04 6.21 C 13.15 6.09 13.31 6.03 13.46 6.02 z M 2.58 9.57 C 2.46 9.58 2.34 9.62 2.23 9.7 C 2.18 9.74 2.14 9.78 2.1 9.83 C 1.63 10.45 0.75 10.6 0.1 10.14 C 0.07 12.91 2.28 14.97 5.04 15 C 7.8 15.03 10.06 13.02 10.09 10.26 L 10.09 10.15 L 10.1 10.14 C 9.99 10.04 9.88 9.94 9.77 9.83 C 9.57 9.55 9.17 9.49 8.9 9.7 C 8.85 9.73 8.81 9.78 8.77 9.82 C 8.69 9.93 8.59 10.03 8.48 10.12 C 7.84 10.6 6.92 10.47 6.44 9.83 C 6.23 9.55 5.84 9.49 5.56 9.7 C 5.52 9.73 5.47 9.78 5.44 9.83 C 5.35 9.94 5.26 10.03 5.15 10.12 C 4.5 10.6 3.59 10.47 3.1 9.83 C 2.97 9.66 2.78 9.57 2.58 9.57 z" />
</svg>
