<svg xmlns="http://www.w3.org/2000/svg" viewBox="0 0 15 15">
  <path d="M14 0L13.99 3.73L13.43 4.85A6.5 6.5 0 0 1 13.88 6.24L15 4L14.96 3.98L14.99 3.98L14.99 0L14 0M13.88 6.24L12.42 9.14L12.64 9.26L11.64 11L10.34 10.26L11.33 8.52L11.54 8.64L13.43 4.85A6.5 6.5 0 0 0 7.5 1A6.5 6.5 0 0 0 1 7.5A6.5 6.5 0 0 0 7.5 14A6.5 6.5 0 0 0 14 7.5A6.5 6.5 0 0 0 13.88 6.24M7.5 4.54A2.95 2.95 0 0 1 10.46 7.5A2.95 2.95 0 0 1 7.5 10.46A2.95 2.95 0 0 1 4.54 7.5A2.95 2.95 0 0 1 7.5 4.54M7.5 6.43A1.07 1.07 0 0 0 6.43 7.5A1.07 1.07 0 0 0 7.5 8.57A1.07 1.07 0 0 0 8.57 7.5A1.07 1.07 0 0 0 7.5 6.43Z"/>
</svg>