<svg xmlns="http://www.w3.org/2000/svg" viewBox="0 0 15 15">
  <path d="M7.5 0C6.72 0 6.25 0.62 6.11 1.28C5.96 1.13 5.75 1 5.5 1C4.59 1 4 1.8 4 2.58L4 3.18C3.92 3.04 3.71 2.96 3.5 2.96C2.6 2.96 2 3.75 2 4.54C2.01 6.72 1.99 8.81 2.01 11.01C2.01 11.1 2.02 11.18 2.04 11.27C2.68 13.59 5.04 15 7.5 15C10.21 15 12.37 13.41 12.96 11.27C12.99 11.18 13 11.09 13 11C12.99 9.19 13.06 7.36 13.1 5.52C13.12 4.68 12.41 4 11.6 4C11.31 4 11.11 4.08 11 4.27L11 2.58C11 1.8 10.41 1 9.5 1C9.29 1 9 1.08 8.88 1.28C8.75 0.62 8.28 0 7.5 0ZM7.5 1C7.77 1 8 1.26 8 1.58L8 6.12C8 6.29 8.13 6.44 8.29 6.44C8.43 6.45 8.57 6.45 8.71 6.47C8.87 6.49 9 6.39 9 6.23L9 2.58C9 2.26 9.22 2 9.5 2C9.77 2 10 2.26 10 2.58L10 6.37C10 6.54 10.12 6.73 10.24 6.85C10.31 6.91 10.35 6.97 10.41 7.05C10.51 7.19 10.64 7.16 10.68 7L11.1 5.5C11.17 5.23 11.32 5 11.6 5C11.87 5 12.1 5.22 12.1 5.5C12.06 7.33 11.99 9.17 12 11C11.54 12.66 9.83 14 7.5 14C5.43 14 3.5 12.79 3.01 11C2.99 8.81 3.01 6.73 3 4.54C3 4.22 3.23 3.96 3.5 3.96C3.78 3.96 4 4.22 4 4.54L4 7.08C4 7.25 4.09 7.28 4.22 7.18C4.38 7.04 4.55 6.94 4.74 6.83C4.88 6.74 5 6.54 5 6.37L5 2.58C5 2.26 5.22 2 5.5 2C5.77 2 6 2.26 6 2.58L6 6.23C6 6.39 6.12 6.49 6.29 6.47C6.42 6.45 6.56 6.45 6.7 6.44C6.86 6.44 7 6.29 7 6.12L7 1.58C7 1.26 7.22 1 7.5 1ZM7.5 8A2.5 2.5 0 0 0 5 10.5A2.5 2.5 0 0 0 7.5 13A2.5 2.5 0 0 0 10 10.5A2.5 2.5 0 0 0 7.5 8Z"/>
</svg>