<svg xmlns="http://www.w3.org/2000/svg" viewBox="0 0 15 15">
  <path d="M11.94 0L14.5 2.71L12.75 2.77C11.94 3.42 11.24 3.98 10.44 4.64C10.44 4.64 10.41 4.9 10.41 4.96C11.17 6.55 12.91 8.06 12.94 9.9C12.91 9.97 12.89 10.02 12.88 10.09C12.24 10.53 11.61 10.98 10.98 11.43C10.94 11.65 10.92 11.84 10.88 12.01C9.84 13.87 7.96 15 5.94 15C3.51 15 1.33 13.37 0.5 10.94C1.33 10.19 2.37 9.77 2.37 9.77C2.37 9.77 2.57 9.56 2.47 9.47C2.37 9.37 1.61 8.92 1.49 8.67C1.35 8.42 1.06 7.85 1.49 6.42C1.64 5.9 1.96 5.54 2.35 5.28C3.28 4.66 4.54 4.65 4.59 4.65C4.92 5.03 5.17 5.83 5.39 5.87C6.04 6.01 6.17 6 6.23 6.03C6.41 6.13 6.32 6.24 6.34 6.39L6.38 6.54C6.38 6.54 6.6 6.39 6.64 6.34C7.07 5.98 7.5 5.61 7.92 5.23C8 4.52 8.5 3.92 9.08 3.6C9.26 3.49 9.3 3.68 9.54 3.72C10.28 3.07 10.98 2.32 11.71 1.67L11.94 0ZM9.52 6.07C9.05 6.31 8.73 6.27 8.64 6.24C7.92 6.79 7.25 7.29 6.94 7.53C7.04 7.67 7.01 7.72 7.01 7.8C7.01 7.94 6.56 8.62 5.89 9.1L6.49 9.1C6.49 9.1 9.18 9.06 10.19 9.05C10.28 8.95 10.3 8.82 10.19 8.61C9.7 7.68 9.63 6.18 9.63 6.18L9.52 6.07Z"/>
</svg>