<svg xmlns="http://www.w3.org/2000/svg" viewBox="0 0 15 15">
  <path d="M4.75 6.25C4.75 7.5 5.38 8.58 6 8.75C2.25 8.75 2.73 8.19 0 7.5C0 8.82 1 9.51 1 9.51C1.78 10.1 2.67 9.99 4.11 10L7 10L7 13.5L4.84 13.86C4.35 13.94 4 14.36 4 14.85L4 15L4 15L11 15L11 14.85C11 14.36 10.65 13.94 10.16 13.86L8 13.5L8 13.5L8 10L10.89 10C12.39 9.95 12.94 9.92 13.75 9.37C14.37 8.95 15 8.32 15 7.5C15.12 7.47 10.92 8.81 9 8.75C9.62 8.39 10.25 7.5 10.25 6.25C10.25 3.75 8.12 4.49 8.12 0C7.5 1.25 4.75 3.75 4.75 6.25ZM7.5 3.75C7.49 5.78 8.5 6.25 8.5 7.08C8.5 7.92 7.7 8.58 7.5 8.75C7.28 8.57 6.5 7.92 6.5 7.08C6.5 5.42 7.01 4.46 7.5 3.75Z"/>
</svg>