<svg xmlns="http://www.w3.org/2000/svg" viewBox="0 0 15 15">
  <path d="M5 7.5C5 8.05 4.55 8.5 4 8.5C3.45 8.5 3 8.05 3 7.5L3 7L2.5 7C1.99 7 1.56 6.61 1.51 6.12L1.5 6C1.5 5.45 1.95 5 2.5 5L3 5L3 4.5C3 3.95 3.45 3.5 4 3.5C4.55 3.5 5 3.95 5 4.5L5 5L6.5 5L6.5 3.5L6 3.5C5.45 3.5 5 3.05 5 2.5C5 1.95 5.45 1.5 6 1.5L6.5 1.5L6.5 1C6.5 0.49 6.89 0.06 7.38 0.01L7.5 0C8.05 0 8.5 0.45 8.5 1L8.5 1.5L9 1.5C9.55 1.5 10 1.95 10 2.5C10 3.05 9.55 3.5 9 3.5L8.5 3.5L8.5 5L10 5L10 4.5C10 3.95 10.45 3.5 11 3.5C11.55 3.5 12 3.95 12 4.5L12 5L12.5 5C13.01 5 13.44 5.39 13.49 5.88L13.5 6C13.5 6.55 13.05 7 12.5 7L12 7L12 7.5C12 8.05 11.55 8.5 11 8.5C10.45 8.5 10 8.05 10 7.5L10 7L8.5 7L8.5 11.5L9 11.5C9.55 11.5 10 11.95 10 12.5C10 13.05 9.55 13.5 9 13.5L8.5 13.5L8.5 14C8.5 14.51 8.11 14.94 7.62 14.99L7.5 15C6.95 15 6.5 14.55 6.5 14L6.5 13.5L6 13.5C5.45 13.5 5 13.05 5 12.5C5 11.95 5.45 11.5 6 11.5L6.5 11.5L6.5 7L5 7L5 7.5Z"/>
</svg>