<svg xmlns="http://www.w3.org/2000/svg" viewBox="0 0 15 15">
  <path d="M7.64 5C7.85 5 8.04 5.14 8.11 5.34L9 8C9.55 8 10 8.45 10 9L10 12L9 12L9 13C9 13.55 8.55 14 8 14C7.45 14 7 13.55 7 13L7 12L4 12L4 13C4 13.55 3.55 14 3 14C2.45 14 2 13.55 2 13L2 12L1 12L1 9C1 8.45 1.45 8 2 8L2.89 5.34C2.96 5.14 3.15 5 3.36 5L7.64 5ZM3 9C2.45 9 2 9.45 2 10C2 10.55 2.45 11 3 11C3.55 11 4 10.55 4 10C4 9.45 3.55 9 3 9ZM8 9C7.45 9 7 9.45 7 10C7 10.55 7.45 11 8 11C8.55 11 9 10.55 9 10C9 9.45 8.55 9 8 9ZM7.38 6L3.62 6L3 8L8 8L7.38 6ZM12.23 1C13.06 1 13.77 1.56 13.97 2.35L14 2.5L13 2.75C13 2.34 12.66 2 12.25 2L12 2C11.45 2 11 2.45 11 3L13.25 3L12.75 4L11 4L11 4.5L12.75 4.5L12.25 5.5L11 5.5C11 6.05 11.45 6.5 12 6.5L12.25 6.5C12.63 6.5 12.94 6.22 12.99 5.85L13 5.75L14 6C13.86 6.87 13.11 7.5 12.23 7.5L11.88 7.5C10.84 7.5 10 6.66 10 5.63L10 5.5L8.75 5.5L9.25 4.5L10 4.5L10 4L8.75 4L9.25 3L10 3L10 2.88C10 1.84 10.84 1 11.88 1L12.23 1Z"/>
</svg>