<svg xmlns="http://www.w3.org/2000/svg" viewBox="0 0 15 15">
  <path d="M5.5 3.01C5.22 3.01 5 3.23 5 3.51C5 3.79 5.22 4.01 5.5 4.01L6.14 4.01L7.81 9.01L6.81 9.01L5.77 5.93C5.91 5.84 6 5.68 6 5.51C6 5.23 5.78 5.01 5.5 5.01L5 5.01L4 5.01C3.72 5.01 3.5 5.23 3.5 5.51C3.5 5.79 3.72 6.01 4 6.01L4.69 6.01L6.05 9.73C6.14 9.9 6.31 10.01 6.5 10.01L8.5 10.01L9.5 10.01L10.5 10.01C10.69 10.01 10.86 9.9 10.95 9.74L12.97 6.74C13.12 6.44 12.94 6.08 12.62 6.02L7.52 5L6.97 3.35C6.91 3.15 6.72 3.01 6.5 3.01L5.5 3.01zM2.5 6C1.12 6 0 7.13 0 8.51C0 9.89 1.12 11.02 2.5 11.02C3.88 11.02 5 9.89 5 8.51C5 7.13 3.88 6 2.5 6zM2.5 6.93C3.37 6.93 4.07 7.63 4.07 8.51C4.07 9.39 3.37 10.09 2.5 10.09C1.63 10.09 0.93 9.39 0.93 8.51C0.93 7.63 1.63 6.93 2.5 6.93zM13.5 8.01C12.68 8.01 12 8.69 12 9.52C12 10.35 12.68 11.02 13.5 11.02C14.32 11.02 15 10.34 15 9.52C15 8.69 14.32 8.01 13.5 8.01zM13.5 8.82C13.89 8.82 14.19 9.13 14.19 9.52C14.19 9.91 13.88 10.22 13.5 10.22C13.11 10.22 12.81 9.91 12.81 9.52C12.81 9.13 13.12 8.82 13.5 8.82zM2 12L1 14L14 14L13 12L11 12L11.5 13L3.5 13L4 12L2 12zZ"/>
</svg>