<svg xmlns="http://www.w3.org/2000/svg" viewBox="0 0 15 15">
  <path d="M7.5 0C8.33 0 9 0.67 9 1.5C9 2.33 8.33 3 7.5 3L7.5 4L11 4C12 4 13 5 13 6L13 8L13.5 8C13.75 8 14 8.25 14 8.5L14 9L10 9L10 8.5C10 8.25 10.25 8 10.5 8L11 8L11 6L8 6L8 15L6 15L6 3L5.89 3.01C5.47 3.06 4 3.43 4 6C4 9 1 10 1 10L1 8.5L1.08 8.47C1.46 8.34 3 7.64 3 5C3 0.29 6.11 0.02 7.3 0L7.5 0ZM12 9.5C12.16 10 12.33 10.38 12.5 10.65L12.62 10.83C12.74 11 12.92 11.23 13.14 11.51C13.35 11.77 13.46 12.09 13.46 12.42C13.46 13.22 12.8 13.88 12 13.88L11.84 13.87C11.57 13.84 11.31 13.73 11.09 13.56C10.46 13.06 10.36 12.14 10.86 11.51L10.99 11.35C11.23 11.04 11.4 10.81 11.5 10.65C11.68 10.37 11.85 9.98 12 9.5Z"/>
</svg>