<svg xmlns="http://www.w3.org/2000/svg" viewBox="0 0 15 15">
  <path d="M11.5 1C11.75 1 12 1.25 12 1.5C12 1.75 11.75 2 11.5 2L10 2L10 3L11 3C12 3 13 4 13 5L13 7L13.5 7C13.75 7 14 7.25 14 7.5L14 8L10 8L10 7.5C10 7.25 10.25 7 10.5 7L11 7L11 5L8 5L8 9C9.33 9.67 10 10.67 10 12C10 13.33 9.33 14.33 8 15L2 15C1.5 15 1 14.5 1 14L4.5 14C4.75 14 5 13.75 5 13.5C5 13.25 4.75 13 4.5 13L1 13L1 12L4.5 12C4.75 12 5 11.75 5 11.5C5 11.25 4.75 11 4.5 11L1 11L1 10.8C1 10.33 1.34 9.9 1.8 9.8L6 9L6 5C6 3.9 6.9 3 8 3L9 3L9 2L7.5 2C7.25 2 7 1.75 7 1.5C7 1.25 7.25 1 7.5 1L11.5 1ZM12 8.5C12.16 9 12.33 9.38 12.5 9.65L12.62 9.83C12.74 10 12.92 10.23 13.14 10.51C13.35 10.77 13.46 11.09 13.46 11.42C13.46 12.22 12.8 12.88 12 12.88L11.84 12.87C11.57 12.84 11.31 12.73 11.09 12.56C10.46 12.06 10.36 11.14 10.86 10.51L10.99 10.35C11.23 10.04 11.4 9.81 11.5 9.65C11.68 9.37 11.85 8.98 12 8.5Z"/>
</svg>