<svg xmlns="http://www.w3.org/2000/svg" viewBox="0 0 15 15">
  <path d="M14.5 14L14 14L14 5C14 3.9 13.1 3 12 3L10 3L10 2L11.5 2C11.78 2 12 1.78 12 1.5C12 1.22 11.78 1 11.5 1L7.5 1C7.22 1 7 1.22 7 1.5C7 1.78 7.22 2 7.5 2L9 2L9 3L7 3C5.9 3 5 3.9 5 5L5 9L0.8 9.84C0.34 9.93 0 10.34 0 10.82L0 11L3.5 11C3.78 11 4 11.22 4 11.5C4 11.78 3.78 12 3.5 12L0 12L0 13L3.5 13C3.78 13 4 13.22 4 13.5C4 13.78 3.78 14 3.5 14L0 14C0 14.55 0.45 15 1 15L8 15C9.33 14.33 10 13.33 10 12C10 10.67 9.33 9.67 8 9L8 6L11 6L11 14L10.5 14C10.22 14 10 14.22 10 14.5L10 15L15 15L15 14.5C15 14.22 14.78 14 14.5 14Z"/>
</svg>