<svg xmlns="http://www.w3.org/2000/svg" viewBox="0 0 15 15">
  <path d="M11.5 1C11.75 1 12 1.25 12 1.5C12 1.75 11.75 2 11.5 2L10 2L10 3L11 3C12 3 13 4 13 5L13 7L13.5 7C13.75 7 14 7.25 14 7.5L14 8L10 8L10 7.5C10 7.25 10.25 7 10.5 7L11 7L11 5L8 5L8 9C8.09 9.05 8.18 9.09 8.26 9.14L9.1 13.35C9.15 13.57 9.23 13.77 9.35 13.95C9.02 14.36 8.57 14.71 8 15L2 15C1.5 15 1 14.5 1 14L4.5 14C4.75 14 5 13.75 5 13.5C5 13.25 4.75 13 4.5 13L1 13L1 12L4.5 12C4.75 12 5 11.75 5 11.5C5 11.25 4.75 11 4.5 11L1 11L1 10.8C1 10.33 1.34 9.9 1.8 9.8L6 9L6 5C6 3.9 6.9 3 8 3L9 3L9 2L7.5 2C7.25 2 7 1.75 7 1.5C7 1.25 7.25 1 7.5 1L11.5 1ZM15 9L14.16 13.2C14.07 13.66 13.66 14 13.18 14L10.82 14C10.34 14 9.93 13.66 9.84 13.2L9 9L15 9ZM13.78 10L10.22 10L10.55 11.63C11 12 11.45 11.98 11.9 11.6L12 11.5C12.54 10.96 13.07 10.75 13.61 10.86L13.78 10Z"/>
</svg>