<svg xmlns="http://www.w3.org/2000/svg" viewBox="0 0 15 15">
  <path d="M10 2L11.5 2C11.75 2 12 1.75 12 1.5C12 1.25 11.75 1 11.5 1L7.5 1C7.25 1 7 1.25 7 1.5C7 1.75 7.25 2 7.5 2L9 2L9 3L8 3C6.9 3 6 3.9 6 5L6 9L1.8 9.8C1.34 9.9 1 10.33 1 10.8L1 11L4.5 11C4.75 11 5 11.25 5 11.5C5 11.75 4.75 12 4.5 12L1 12L1 13L4.5 13C4.75 13 5 13.25 5 13.5C5 13.75 4.75 14 4.5 14L1 14C1 14.5 1.5 15 2 15L8 15C9.33 14.33 10 13.33 10 12C10 10.67 9.33 9.67 8 9L8 5L11 5L11 7L10.5 7C10.25 7 10 7.25 10 7.5L10 8L14 8L14 7.5C14 7.25 13.75 7 13.5 7L13 7L13 5C13 4 12 3 11 3L10 3L10 2Z"/>
</svg>