<svg xmlns="http://www.w3.org/2000/svg" viewBox="0 0 15 15">
  <path d="M10.5 9C10.32 9.55 10.13 9.99 9.93 10.32L9.81 10.49C9.69 10.66 9.53 10.88 9.33 11.14L9.2 11.3C8.62 12.02 8.74 13.07 9.46 13.64C9.72 13.84 10.02 13.96 10.34 13.99L10.5 14C11.42 14 12.17 13.25 12.17 12.33C12.17 11.96 12.04 11.59 11.8 11.3L11.56 10.98C11.33 10.69 11.17 10.47 11.07 10.32C10.87 10 10.68 9.57 10.5 9ZM12 5L12 7C12.28 7 12.5 7.22 12.5 7.5C12.5 7.75 12.32 7.95 12.09 7.99L12 8L9 8C8.72 8 8.5 7.78 8.5 7.5C8.5 7.25 8.68 7.05 8.91 7.01L9 7L9 5L0 5L0 2L9 2C10.66 2 12 3.34 12 5Z"/>
</svg>