<svg xmlns="http://www.w3.org/2000/svg" viewBox="0 0 15 15">
  <path d="M8.39 10.86L8.22 10L11.78 10L11.45 11.63C11 12 10.55 11.98 10.1 11.6L10 11.5C9.51 11.01 9.02 10.79 8.52 10.84L8.39 10.86ZM7 2L7 3L6 3C4.9 3 4 3.9 4 5L4 15L6 15L6 5L9 5L9 7L8.5 7C8.22 7 8 7.22 8 7.5L8 8L12 8L12 7.5C12 7.22 11.78 7 11.5 7L11 7L11 5C11 4 10 3 9 3L8 3L8 2L9.5 2C9.78 2 10 1.78 10 1.5C10 1.22 9.78 1 9.5 1L5.5 1C5.22 1 5 1.22 5 1.5C5 1.78 5.22 2 5.5 2L7 2ZM13 9L7 9L7.84 13.2C7.93 13.66 8.34 14 8.82 14L11.18 14C11.66 14 12.07 13.66 12.16 13.2L13 9Z"/>
</svg>