<svg xmlns="http://www.w3.org/2000/svg" viewBox="0 0 15 15">
  <path d="M9.5 1C9.78 1 10 1.22 10 1.5C10 1.78 9.78 2 9.5 2L8 2L8 3L9 3C10 3 11 4 11 5L11 7L11.5 7C11.78 7 12 7.22 12 7.5L12 8L8 8L8 7.5C8 7.22 8.22 7 8.5 7L9 7L9 5L6 5L6 15L4 15L4 5C4 3.9 4.9 3 6 3L7 3L7 2L5.5 2C5.22 2 5 1.78 5 1.5C5 1.22 5.22 1 5.5 1L9.5 1ZM10 8.5C10.16 9 10.33 9.38 10.5 9.65L10.62 9.83C10.74 10 10.92 10.23 11.14 10.51C11.35 10.77 11.46 11.09 11.46 11.42C11.46 12.22 10.8 12.88 10 12.88L9.84 12.87C9.57 12.84 9.31 12.73 9.09 12.56C8.46 12.06 8.36 11.14 8.86 10.51L8.99 10.35C9.23 10.04 9.4 9.81 9.5 9.65C9.68 9.37 9.85 8.98 10 8.5Z"/>
</svg>