<svg xmlns="http://www.w3.org/2000/svg" viewBox="0 0 15 15">
  <path d="M6.5 2C6.93 2 7.3 2.27 7.44 2.66L9.52 2.21C9.96 2.12 10.39 2.39 10.48 2.83C10.49 2.89 10.5 2.94 10.5 3C10.5 3.45 10.14 3.81 9.69 3.81C9.63 3.81 9.58 3.8 9.52 3.79L7.44 3.34C7.36 3.57 7.2 3.75 7 3.87L7 4.5L7.5 4.5L7.59 4.51C7.82 4.55 8 4.75 8 5L8 6L10 6C11.66 6 13 7.34 13 9L13 11C13.28 11 13.5 11.22 13.5 11.5C13.5 11.75 13.32 11.95 13.09 11.99L13 12L10 12C9.72 12 9.5 11.78 9.5 11.5C9.5 11.25 9.68 11.05 9.91 11.01L10 11L10 9L0 9L0 6L5 6L5 5C5 4.72 5.22 4.5 5.5 4.5L6 4.5L6 3.87C5.8 3.75 5.64 3.57 5.56 3.34L3.48 3.79C3.04 3.88 2.61 3.61 2.52 3.17C2.51 3.11 2.5 3.06 2.5 3C2.5 2.55 2.86 2.19 3.31 2.19C3.37 2.19 3.42 2.2 3.48 2.21L5.56 2.66C5.7 2.27 6.07 2 6.5 2Z"/>
</svg>