<svg xmlns="http://www.w3.org/2000/svg" viewBox="0 0 15 15">
  <path d="M5.5 0C5.93 0 6.3 0.27 6.44 0.66L8.52 0.21C8.96 0.12 9.39 0.39 9.48 0.83C9.49 0.89 9.5 0.94 9.5 1C9.5 1.45 9.14 1.81 8.69 1.81C8.63 1.81 8.58 1.8 8.52 1.79L6.44 1.34C6.36 1.57 6.2 1.75 6 1.87L6 3L9 3C10.66 3 12 4.34 12 6L12 7C12.28 7 12.5 7.22 12.5 7.5C12.5 7.75 12.32 7.95 12.09 7.99L12 8L9 8C8.72 8 8.5 7.78 8.5 7.5C8.5 7.25 8.68 7.05 8.91 7.01L9 7L9 6L0 6L0 3L5 3L5 1.87C4.8 1.75 4.64 1.57 4.56 1.34L2.48 1.79C2.04 1.88 1.61 1.61 1.52 1.17C1.51 1.11 1.5 1.06 1.5 1C1.5 0.55 1.86 0.19 2.31 0.19C2.37 0.19 2.42 0.2 2.48 0.21L4.56 0.66C4.7 0.27 5.07 0 5.5 0ZM10.5 9C10.32 9.55 10.13 9.99 9.93 10.32L9.81 10.49C9.69 10.66 9.53 10.88 9.33 11.14L9.2 11.3C8.62 12.02 8.74 13.07 9.46 13.64C9.72 13.84 10.02 13.96 10.34 13.99L10.5 14C11.42 14 12.17 13.25 12.17 12.33C12.17 11.96 12.04 11.59 11.8 11.3L11.56 10.98C11.33 10.69 11.17 10.47 11.07 10.32C10.87 10 10.68 9.57 10.5 9Z"/>
</svg>