<svg xmlns="http://www.w3.org/2000/svg" viewBox="0 0 15 15">
  <path d="M12.72 7.86C12.47 8.13 12.33 8.35 12.29 8.82C12.92 8.74 13.53 8.89 14.01 9.24C14.67 9.73 15.03 10.57 14.98 11.53C14.9 13.04 14.22 14.32 13.23 14.8C12.7 15.05 12.15 15.04 11.66 14.77C11.38 14.92 11.09 15 10.79 15C10.53 15 10.27 14.94 10.03 14.82C9.06 14.36 8.41 13.1 8.33 11.54L8.34 11.53C8.29 10.57 8.64 9.73 9.31 9.24C9.8 8.88 10.41 8.74 11.06 8.82C11.11 8.13 11.3 7.64 11.7 7.16C11.73 7.12 12.07 7.36 12.72 7.86ZM7.66 2.52L9.17 4.89L9.17 7.97C8.94 8.07 8.72 8.19 8.52 8.34C7.54 9.04 7.02 10.21 7.09 11.54C7.17 12.97 7.64 14.18 8.4 14.99L4.59 14.99L0 14.97L0 5.84L4.59 5.84L4.58 5.85L4.58 14.16L5.83 14.16L5.83 5.41L7.65 2.52L7.66 2.52ZM15 0L14.5 1L13.5 1C13.72 1.29 13.87 1.63 13.95 2L15 2L14.5 3L13.95 3C13.74 4.06 12.85 4.87 11.77 4.99L15 7.5L13.25 7.5L10 5L10 4L11.5 4C12.15 4 12.71 3.58 12.91 3L10 3L10.5 2L12.91 2C12.71 1.42 12.15 1 11.5 1L10 1L10.5 0L15 0ZM6.19 2.52L4.87 4.6L0.18 4.6L1.51 2.52L6.19 2.52ZM1.66 0L7.52 0.02L7.5 1.27L1.66 1.27L1.66 0Z"/>
</svg>