<svg xmlns="http://www.w3.org/2000/svg" viewBox="0 0 15 15">
<path d="M4.35 2C2.36 1.98 0.49 3.52 0.11 5.22 -0.56 8.19 2.03 12.18 5.15 13.04 5.93 13.29 6.68 13.42 7.5 13.43V13.44C8.32 13.43 9.07 13.3 9.85 13.05 12.97 12.19 15.56 8.2 14.89 5.23 14.46 3.29 12.07 1.55 9.79 2.12 8.97 2.32 8.15 2.66 7.5 3.09V3.08C6.85 2.65 6.03 2.31 5.21 2.11 4.92 2.04 4.64 2 4.35 2ZM10.92 2.48C11 2.48 11.08 2.53 11.1 2.61L11.28 3.25V3.27C11.3 3.36 11.25 3.45 11.15 3.48 11.06 3.5 10.96 3.44 10.94 3.35L10.76 2.71C10.74 2.61 10.79 2.52 10.88 2.49 10.89 2.49 10.91 2.49 10.92 2.48 10.92 2.48 10.92 2.48 10.92 2.48ZM5.86 2.89H5.87C5.96 2.89 6.04 2.96 6.05 3.06 6.05 3.16 5.98 3.24 5.88 3.24L5.22 3.29C5.12 3.3 5.04 3.23 5.03 3.13 5.02 3.03 5.09 2.95 5.19 2.94ZM2.61 3.22C2.61 3.22 2.61 3.22 2.62 3.22H2.63 2.67L3.32 3.37H3.33C3.43 3.39 3.48 3.49 3.46 3.58 3.43 3.68 3.34 3.73 3.24 3.71L2.59 3.56C2.5 3.54 2.44 3.45 2.46 3.35 2.48 3.28 2.54 3.23 2.61 3.22ZM8.78 3.41C8.78 3.41 8.79 3.41 8.79 3.41H8.8C8.85 3.41 8.91 3.44 8.94 3.49 9 3.57 8.97 3.67 8.89 3.73L8.35 4.12C8.27 4.17 8.16 4.16 8.11 4.08 8.05 4 8.07 3.89 8.15 3.83L8.69 3.45V3.44H8.7C8.73 3.42 8.75 3.41 8.78 3.41ZM13.58 3.81H13.59C13.69 3.81 13.77 3.88 13.78 3.98 13.78 4.07 13.71 4.16 13.61 4.16L12.94 4.21C12.85 4.22 12.76 4.15 12.76 4.05 12.75 3.95 12.82 3.87 12.92 3.86ZM4.36 4.17C4.86 4.15 5.45 4.42 5.74 4.57 4.82 5.59 3.77 7.01 3.37 8.48 3.29 8.78 3.15 8.99 3.55 9.43 3.96 9.86 4.28 9.94 4.58 9.88 4.96 9.8 5.26 9.53 5.38 9.17 5.75 8.1 6.71 6.74 7.5 5.9V5.91C8.29 6.75 9.25 8.11 9.62 9.18 9.74 9.54 10.04 9.81 10.42 9.89 10.72 9.95 11.04 9.87 11.44 9.44 11.85 9 11.71 8.79 11.63 8.49 11.23 7.02 10.19 5.6 9.26 4.58 9.55 4.43 10.14 4.16 10.64 4.18 10.71 4.18 10.78 4.19 10.85 4.2 11.72 4.4 12.67 5.02 12.91 5.91 13.26 7.21 12.47 9.12 11.56 10.11 10.86 10.88 9.75 11.27 8.72 11.4 8.3 11.45 7.93 11.48 7.5 11.48V11.47C7.07 11.47 6.7 11.44 6.28 11.39 5.25 11.26 4.14 10.87 3.44 10.1 2.53 9.11 1.74 7.2 2.09 5.9 2.33 5.01 3.28 4.39 4.15 4.19 4.22 4.18 4.29 4.17 4.36 4.17ZM1.53 5.17H1.55C1.61 5.18 1.66 5.2 1.69 5.25 1.74 5.33 1.72 5.44 1.64 5.49L1.1 5.88C1.02 5.94 0.92 5.92 0.86 5.84 0.8 5.76 0.82 5.66 0.9 5.6L1.44 5.21C1.44 5.21 1.44 5.21 1.44 5.21 1.44 5.21 1.44 5.21 1.44 5.21 1.44 5.21 1.44 5.21 1.44 5.21 1.44 5.21 1.45 5.21 1.45 5.21 1.45 5.21 1.45 5.21 1.45 5.21 1.45 5.21 1.45 5.21 1.45 5.21 1.45 5.21 1.45 5.2 1.45 5.2 1.45 5.2 1.45 5.2 1.45 5.2 1.45 5.2 1.45 5.2 1.45 5.2 1.48 5.19 1.5 5.18 1.53 5.17ZM6.38 5.61H6.39C6.49 5.61 6.57 5.68 6.58 5.78 6.58 5.88 6.51 5.96 6.41 5.96L5.74 6.01C5.65 6.02 5.56 5.95 5.56 5.85 5.55 5.76 5.62 5.67 5.72 5.66ZM9.54 5.72C9.54 5.72 9.55 5.72 9.55 5.72H9.57C9.64 5.72 9.71 5.77 9.73 5.84 9.76 5.94 9.71 6.03 9.62 6.06L8.98 6.28C8.89 6.31 8.79 6.26 8.76 6.17 8.73 6.07 8.78 5.98 8.87 5.95L9.5 5.73H9.52C9.52 5.73 9.53 5.72 9.54 5.72ZM13.68 5.89C13.69 5.89 13.69 5.89 13.7 5.89 13.73 5.89 13.77 5.9 13.8 5.92L14.36 6.28C14.36 6.28 14.36 6.28 14.36 6.28 14.36 6.28 14.36 6.28 14.36 6.28 14.36 6.28 14.37 6.28 14.37 6.28 14.37 6.28 14.37 6.28 14.37 6.28 14.37 6.28 14.37 6.29 14.37 6.29 14.37 6.29 14.37 6.29 14.37 6.29 14.37 6.29 14.37 6.29 14.37 6.29 14.45 6.34 14.47 6.45 14.42 6.53 14.36 6.61 14.25 6.63 14.17 6.57L13.61 6.21C13.53 6.16 13.51 6.05 13.56 5.97 13.59 5.93 13.64 5.9 13.68 5.89ZM10.03 7.68H10.04C10.04 7.68 10.04 7.68 10.04 7.68 10.05 7.68 10.07 7.69 10.08 7.69 10.08 7.69 10.08 7.69 10.08 7.69L10.73 7.84H10.74C10.83 7.86 10.89 7.96 10.87 8.05 10.84 8.14 10.75 8.2 10.65 8.18L10 8.03C9.91 8.01 9.85 7.91 9.87 7.82 9.89 7.74 9.95 7.69 10.03 7.68ZM4.5 7.84C4.53 7.84 4.57 7.85 4.6 7.87L5.16 8.22C5.16 8.22 5.16 8.23 5.16 8.23 5.16 8.23 5.16 8.23 5.16 8.23 5.16 8.23 5.16 8.23 5.16 8.23 5.16 8.23 5.16 8.23 5.16 8.23 5.17 8.23 5.17 8.23 5.17 8.23 5.25 8.29 5.27 8.4 5.21 8.47 5.16 8.55 5.05 8.57 4.97 8.52L4.41 8.16C4.33 8.11 4.3 8 4.36 7.92 4.39 7.87 4.44 7.84 4.5 7.84ZM1.59 7.88C1.68 7.88 1.75 7.95 1.75 8.04 1.76 8.14 1.68 8.22 1.58 8.23L0.92 8.28C0.82 8.28 0.74 8.21 0.73 8.12 0.73 8.02 0.8 7.94 0.89 7.93L1.56 7.88H1.57C1.58 7.88 1.58 7.88 1.59 7.88ZM13.63 8.31C13.63 8.31 13.64 8.31 13.64 8.31H13.65C13.7 8.31 13.76 8.34 13.79 8.39 13.85 8.47 13.82 8.58 13.74 8.63L13.2 9.02C13.12 9.07 13.02 9.06 12.96 8.98 12.9 8.9 12.92 8.79 13 8.73L13.54 8.35 13.55 8.34C13.58 8.32 13.6 8.31 13.63 8.31ZM2.23 9.48C2.23 9.48 2.23 9.48 2.23 9.48 2.23 9.48 2.23 9.48 2.23 9.48 2.24 9.48 2.24 9.48 2.24 9.48H2.27C2.34 9.48 2.41 9.53 2.43 9.61L2.61 10.25C2.61 10.25 2.61 10.25 2.61 10.25 2.61 10.25 2.61 10.25 2.61 10.25 2.61 10.25 2.61 10.26 2.61 10.26 2.61 10.26 2.61 10.26 2.61 10.26 2.61 10.26 2.62 10.26 2.62 10.26 2.62 10.26 2.62 10.26 2.62 10.26 2.62 10.26 2.62 10.26 2.62 10.26 2.64 10.36 2.58 10.45 2.49 10.47 2.39 10.5 2.3 10.44 2.28 10.34L2.1 9.7C2.07 9.61 2.12 9.51 2.22 9.49 2.22 9.49 2.23 9.48 2.23 9.48ZM11.91 10.28C12.01 10.27 12.09 10.35 12.09 10.45L12.12 11.11V11.12C12.12 11.22 12.05 11.3 11.95 11.3 11.85 11.3 11.77 11.22 11.77 11.13L11.74 10.46C11.74 10.36 11.82 10.28 11.91 10.28ZM3.99 11.61H4.01 4.04L4.69 11.76H4.7C4.8 11.78 4.85 11.88 4.83 11.97 4.8 12.07 4.71 12.12 4.62 12.1L3.96 11.95C3.87 11.93 3.81 11.84 3.83 11.74 3.85 11.67 3.92 11.61 3.99 11.61ZM10.08 11.9H10.09C10.19 11.9 10.27 11.97 10.27 12.07 10.28 12.17 10.2 12.25 10.11 12.25L9.44 12.3C9.35 12.31 9.26 12.24 9.25 12.14 9.25 12.04 9.32 11.96 9.42 11.96L10.08 11.91ZM6.59 12.07C6.62 12.07 6.66 12.08 6.69 12.1L7.25 12.46H7.26C7.34 12.52 7.36 12.63 7.3 12.71 7.25 12.79 7.14 12.81 7.06 12.75L6.5 12.39C6.42 12.34 6.4 12.23 6.45 12.15 6.48 12.1 6.53 12.07 6.59 12.07Z"/>
</svg>