<svg xmlns="http://www.w3.org/2000/svg" viewBox="0 0 15 15">
  <path d="M0.5 10L2.5 10C2.78 10 3 10.22 3 10.5C3 10.78 2.78 11 2.5 11L0.5 11C0.22 11 0 10.78 0 10.5C0 10.22 0.22 10 0.5 10ZM4.5 10L5.5 10C5.78 10 6 10.22 6 10.5C6 10.78 5.78 11 5.5 11L4.5 11C4.22 11 4 10.78 4 10.5C4 10.22 4.22 10 4.5 10ZM12.5 10L14.5 10C14.78 10 15 10.22 15 10.5C15 10.78 14.78 11 14.5 11L12.5 11C12.22 11 12 10.78 12 10.5C12 10.22 12.22 10 12.5 10ZM7.5 10L10.5 10C10.78 10 11 10.22 11 10.5C11 10.78 10.78 11 10.5 11L7.5 11C7.22 11 7 10.78 7 10.5C7 10.22 7.22 10 7.5 10ZM15 12L15 13C15 13.55 14.55 14 14 14L10 14L12 12L15 12ZM10 14L1 14C0.45 14 0 13.55 0 13L0 12L8 12L10 14ZM4.29 6L3.15 7.15C2.97 7.32 2.95 7.59 3.09 7.78L3.15 7.85C3.34 8.05 3.66 8.05 3.85 7.85L5.71 6L7.29 6L6.15 7.15C5.97 7.32 5.95 7.59 6.09 7.78L6.15 7.85C6.34 8.05 6.66 8.05 6.85 7.85L8.71 6L10.29 6L9.15 7.15C8.97 7.32 8.95 7.59 9.09 7.78L9.15 7.85C9.34 8.05 9.66 8.05 9.85 7.85L11.71 6L13 6C14.1 6 15 6.9 15 8L15 9L0 9L0 8C0 6.9 0.9 6 2 6L4.29 6ZM4.5 0L4.08 0.74C3.82 1.19 3.96 1.78 4.4 2.07C4.8 2.33 5 2.72 5 3.25C5 4.08 4.5 4.67 3.5 5L3.92 4.26C4.18 3.81 4.04 3.22 3.6 2.93C3.2 2.67 3 2.28 3 1.75C3 0.92 3.5 0.33 4.5 0ZM7.5 0L7.08 0.74C6.82 1.19 6.96 1.78 7.4 2.07C7.8 2.33 8 2.72 8 3.25C8 4.08 7.5 4.67 6.5 5L6.92 4.26C7.18 3.81 7.04 3.22 6.6 2.93C6.2 2.67 6 2.28 6 1.75C6 0.92 6.5 0.33 7.5 0ZM10.5 0L10.08 0.74C9.82 1.19 9.96 1.78 10.4 2.07C10.8 2.33 11 2.72 11 3.25C11 4.08 10.5 4.67 9.5 5L9.92 4.26C10.18 3.81 10.04 3.22 9.6 2.93C9.2 2.67 9 2.28 9 1.75C9 0.92 9.5 0.33 10.5 0Z"/>
</svg>