<svg xmlns="http://www.w3.org/2000/svg" viewBox="0 0 15 15">
  <path d="M7.5 1.67C6.52 1.67 6.72 3.21 5.78 3.41C4.84 3.63 4.08 2.22 3.24 2.62C2.39 3.02 3.29 4.25 2.61 4.82C1.92 5.39 0.6 4.51 0.11 5.21C-0.35 5.88 0.79 6.4 0.69 7.12C2.26 5.19 4.74 3.95 7.5 3.95C10.26 3.95 12.74 5.19 14.31 7.12C14.21 6.4 15.35 5.88 14.89 5.21C14.4 4.51 13.08 5.39 12.39 4.82C11.71 4.25 12.61 3.02 11.76 2.62C10.92 2.22 10.16 3.63 9.22 3.41C8.28 3.21 8.48 1.67 7.5 1.67ZM7.5 5.08C3.58 5.08 0.37 7.93 0.12 12.48C0.11 12.79 0.36 13.02 0.68 13L6.36 12.57A14.78 14.78 0 0 1 8.64 12.57L14.32 13C14.64 13.02 14.89 12.79 14.88 12.48C14.63 7.89 11.42 5.08 7.5 5.08ZM5.23 7.36A0.57 0.57 0 0 1 5.79 7.93A0.57 0.57 0 0 1 5.23 8.49A0.57 0.57 0 0 1 4.66 7.93A0.57 0.57 0 0 1 5.23 7.36ZM9.77 7.36A0.57 0.57 0 0 1 10.34 7.93A0.57 0.57 0 0 1 9.77 8.49A0.57 0.57 0 0 1 9.21 7.93A0.57 0.57 0 0 1 9.77 7.36ZM2.95 9.6A0.57 0.57 0 0 1 3.52 10.17A0.57 0.57 0 0 1 2.95 10.74A0.57 0.57 0 0 1 2.38 10.17A0.57 0.57 0 0 1 2.95 9.6ZM7.5 9.63A0.57 0.57 0 0 1 8.07 10.2A0.57 0.57 0 0 1 7.5 10.77A0.57 0.57 0 0 1 6.93 10.2A0.57 0.57 0 0 1 7.5 9.63ZM12.05 9.63A0.57 0.57 0 0 1 12.62 10.2A0.57 0.57 0 0 1 12.05 10.77A0.57 0.57 0 0 1 11.48 10.2A0.57 0.57 0 0 1 12.05 9.63Z"/>
</svg>