<svg xmlns="http://www.w3.org/2000/svg" viewBox="0 0 15 15">
  <path d="m 7.51,2.08 c -2.59,0 -5.47,1.75 -6.13,5 H 0.42 C 0.19,7.08 0,7.27 0,7.5 v 5 c 0,0.23 0.19,0.42 0.42,0.42 h 14.16 c 0.23,0 0.42,-0.19 0.42,-0.42 v -5 C 15,7.27 14.81,7.08 14.58,7.08 h -0.96 c -0.6,-2.96 -3.2,-5 -6.11,-5 z M 7.92,3.33 8.39,4.58 H 9.58 L 8.64,5.26 9.17,6.67 7.92,5.77 6.67,6.67 7.19,5.26 6.25,4.58 h 1.2 z M 4.43,4.48 C 3.23,5.71 3.25,7.69 4.48,8.9 5.07,9.48 5.88,9.8 6.71,9.79 6.48,9.93 6.24,10.03 5.98,10.1 4.43,10.53 2.82,9.62 2.4,8.07 1.97,6.51 2.88,4.91 4.43,4.48 Z m 5.67,3.41 c 0.68,0.02 1.32,0.36 1.76,0.99 0.89,-0.44 1.42,-0.63 1.46,-0.55 0.05,0.08 -0.4,0.43 -1.23,0.96 0.49,1.13 0.1,2.3 -0.98,2.91 C 10.03,12.81 8.83,12.53 8.12,11.53 7.23,11.97 6.7,12.16 6.66,12.08 6.61,12 7.06,11.65 7.89,11.12 7.41,9.99 7.8,8.82 8.88,8.21 9.24,7.95 9.72,7.94 10.1,7.89 Z" />
</svg>