<svg xmlns="http://www.w3.org/2000/svg" viewBox="0 0 15 15">
  <path d="M7.51 2.08c-2.59 0 -5.47 1.75 -6.13 5H0.42C0.19 7.08 0 7.27 0 7.5v5c0 0.23 0.19 0.42 0.42 0.42h14.16c0.23 0 0.42 -0.19 0.42 -0.42v-5C15 7.27 14.81 7.08 14.58 7.08h-0.96c-0.6 -2.96 -3.2 -5 -6.11 -5zM7.92 3.33L8.39 4.58H9.58L8.64 5.26L9.17 6.67L7.92 5.77L6.67 6.67L7.19 5.26L6.25 4.58h1.2zM4.43 4.48C3.23 5.71 3.25 7.69 4.48 8.9C5.07 9.48 5.88 9.8 6.71 9.79C6.48 9.93 6.24 10.03 5.98 10.1C4.43 10.53 2.82 9.62 2.4 8.07C1.97 6.51 2.88 4.91 4.43 4.48Zm5.67 3.41c0.68 0.02 1.32 0.36 1.76 0.99c0.89 -0.44 1.42 -0.63 1.46 -0.55c0.05 0.08 -0.4 0.43 -1.23 0.96c0.49 1.13 0.1 2.3 -0.98 2.91C10.03 12.81 8.83 12.53 8.12 11.53C7.23 11.97 6.7 12.16 6.66 12.08C6.61 12 7.06 11.65 7.89 11.12C7.41 9.99 7.8 8.82 8.88 8.21C9.24 7.95 9.72 7.94 10.1 7.89Z"/>
</svg>