<svg xmlns="http://www.w3.org/2000/svg" viewBox="0 0 15 15">
  <path d="M7.5 0.5C9.15 0.5 10.8 0.61 12.46 0.82C13.36 0.93 14.07 1.65 14.18 2.55C14.39 4.2 14.5 5.85 14.5 7.5C14.5 9.15 14.39 10.8 14.18 12.46C14.07 13.36 13.35 14.07 12.45 14.18C10.8 14.39 9.15 14.5 7.5 14.5C5.85 14.5 4.2 14.39 2.54 14.18C1.64 14.07 0.93 13.35 0.82 12.45C0.61 10.8 0.5 9.15 0.5 7.5C0.5 5.85 0.61 4.2 0.82 2.54C0.93 1.64 1.65 0.93 2.55 0.82C4.2 0.61 5.85 0.5 7.5 0.5ZM13 8L8 8L8 9L13 9L13 8ZM4.5 2L3.5 2L3.33 3L2 3L2 4L3.17 4L2.83 6L2 6L2 7L2.67 7L2.5 8L3.5 8L3.67 7L4.67 7L4.5 8L5.5 8L5.67 7L7 7L7 6L5.83 6L6.17 4L7 4L7 3L6.33 3L6.5 2L5.5 2L5.33 3L4.33 3L4.5 2ZM5.17 4L4.83 6L3.83 6L4.17 4L5.17 4Z"/>
</svg>