<svg xmlns="http://www.w3.org/2000/svg" viewBox="0 0 15 15">
  <path d="M7.5 0.5C9.15 0.5 10.8 0.61 12.46 0.82C13.36 0.93 14.07 1.65 14.18 2.55C14.39 4.2 14.5 5.85 14.5 7.5C14.5 9.15 14.39 10.8 14.18 12.46C14.07 13.36 13.35 14.07 12.45 14.18C10.8 14.39 9.15 14.5 7.5 14.5C5.85 14.5 4.2 14.39 2.54 14.18C1.64 14.07 0.93 13.35 0.82 12.45C0.61 10.8 0.5 9.15 0.5 7.5C0.5 5.85 0.61 4.2 0.82 2.54C0.93 1.64 1.65 0.93 2.55 0.82C4.2 0.61 5.85 0.5 7.5 0.5ZM5 2L4 2L4 3L3.5 3C2.67 3 2 3.67 2 4.5C2 5.33 2.67 6 3.5 6L4 6L4 7L3.5 7C3.22 7 3 6.78 3 6.5L2 6.5L2.01 6.64C2.08 7.41 2.72 8 3.5 8L4 8L4 9L5 9L5 8L5.5 8C6.33 8 7 7.33 7 6.5C7 5.67 6.33 5 5.5 5L5 5L5 4L5.5 4C5.78 4 6 4.22 6 4.5L7 4.5L6.99 4.36C6.92 3.59 6.28 3 5.5 3L5 3L5 2ZM13 8L8 8L8 9L13 9L13 8ZM5.5 6C5.78 6 6 6.22 6 6.5C6 6.78 5.78 7 5.5 7L5 7L5 6ZM4 4L4 5L3.5 5C3.22 5 3 4.78 3 4.5C3 4.22 3.22 4 3.5 4L4 4Z"/>
</svg>