<svg xmlns="http://www.w3.org/2000/svg" viewBox="0 0 15 15">
  <path d="M7.5 0.5C9.15 0.5 10.8 0.61 12.46 0.82C13.36 0.93 14.07 1.65 14.18 2.55C14.39 4.2 14.5 5.85 14.5 7.5C14.5 9.15 14.39 10.8 14.18 12.46C14.07 13.36 13.35 14.07 12.45 14.18C10.8 14.39 9.15 14.5 7.5 14.5C5.85 14.5 4.2 14.39 2.54 14.18C1.64 14.07 0.93 13.35 0.82 12.45C0.61 10.8 0.5 9.15 0.5 7.5C0.5 5.85 0.61 4.2 0.82 2.54C0.93 1.64 1.65 0.93 2.55 0.82C4.2 0.61 5.85 0.5 7.5 0.5ZM13 8L8 8L8 9L13 9L13 8ZM3.5 2C2.67 2 2 2.67 2 3.5C2 4.33 2.67 5 3.5 5L3.43 5L2 6L2 7.5L4.07 6.05C4.02 6.19 4 6.34 4 6.5C4 7.33 4.67 8 5.5 8C6.33 8 7 7.33 7 6.5C7 5.67 6.33 5 5.5 5L5.57 5L7 4L7 2.5L4.93 3.95C4.98 3.81 5 3.66 5 3.5C5 2.67 4.33 2 3.5 2ZM5.5 6C5.78 6 6 6.22 6 6.5C6 6.78 5.78 7 5.5 7C5.22 7 5 6.78 5 6.5C5 6.22 5.22 6 5.5 6ZM3.5 3C3.78 3 4 3.22 4 3.5C4 3.78 3.78 4 3.5 4C3.22 4 3 3.78 3 3.5C3 3.22 3.22 3 3.5 3Z"/>
</svg>