<svg xmlns="http://www.w3.org/2000/svg" viewBox="0 0 15 15">
  <path d="M15 2L15 3C14.72 3 14.5 3.22 14.5 3.5L14.5 11.5C14.5 11.75 14.68 11.95 14.91 11.99L15 12L15 13L1.5 13L1.5 12C1.94 12 2.3 11.64 2.3 11.2C2.3 11.14 2.3 11.08 2.28 11.02L0.61 3.49C0.55 3.23 0.35 3.05 0.1 3.01L0 3L0 2L3.5 2L3.5 3C3.07 3 2.71 3.35 2.71 3.79C2.71 3.84 2.72 3.89 2.73 3.94L3.75 9L4.67 3.8C4.74 3.43 4.49 3.08 4.12 3.01C4.08 3 4.04 3 4 3L4 2L15 2ZM6.26 3.35L6.21 3.39C6.12 3.52 6.06 3.66 6.03 3.82L4.68 11.02C4.6 11.47 4.9 11.9 5.35 11.99L5.42 12L5.5 12C6.05 12 6.5 11.55 6.5 11L6.5 4C6.5 3.75 6.41 3.52 6.26 3.35ZM9 3.13L8.96 3.16C8.69 3.33 8.5 3.64 8.5 4L8.5 11C8.5 11.37 8.7 11.69 9 11.87C9.3 11.69 9.5 11.37 9.5 11L9.5 4C9.5 3.63 9.3 3.31 9 3.13ZM12 3.13L11.96 3.16C11.69 3.33 11.5 3.64 11.5 4L11.5 11C11.5 11.37 11.7 11.69 12 11.87C12.3 11.69 12.5 11.37 12.5 11L12.5 4C12.5 3.63 12.3 3.31 12 3.13Z"/>
</svg>