<svg xmlns="http://www.w3.org/2000/svg" viewBox="0 0 15 15">
  <path d="M7 2L7 3C6.65 3 6.36 3.29 6.36 3.64C6.36 3.76 6.39 3.88 6.46 3.98L7.7 5.94L7.7 5.94L8.72 4.31C8.98 3.91 8.86 3.38 8.46 3.13C8.32 3.05 8.16 3 8 3L8 3L8 3L8 2L12.5 2L12.5 3L11.67 3C11.33 3 11.01 3.18 10.82 3.47L8.49 7.19L8.49 7.19L11.23 11.53C11.41 11.82 11.73 12 12.07 12L12.5 12L12.5 12L12.5 13L8 13L8 12C8.35 12 8.64 11.71 8.64 11.36C8.64 11.24 8.6 11.12 8.54 11.02L7.3 9.06L7.3 9.06L6.28 10.69C6.02 11.09 6.14 11.61 6.54 11.87C6.68 11.95 6.84 12 7 12L7 12L7 12L7 13L2.5 13L2.5 12L3.33 12C3.67 12 3.99 11.82 4.18 11.53L6.51 7.81L6.51 7.81L3.77 3.47C3.59 3.18 3.27 3 2.92 3L2.5 3L2.5 3L2.5 2L7 2Z"/>
</svg>