<svg xmlns="http://www.w3.org/2000/svg" viewBox="0 0 15 15">
  <path d="M15 2L15 3C14.45 3 14 3.45 14 4L14 11C14 11.51 14.39 11.94 14.88 11.99L15 12L15 13L7.5 13L7.5 12C8.05 12 8.5 11.55 8.5 11L8.5 4C8.5 3.62 8.29 3.3 7.98 3.12C7.74 3.26 7.56 3.48 7.49 3.76L5.74 11.03C5.63 11.45 5.89 11.88 6.31 11.98L6.41 11.99L6.5 12L6.5 13L2.5 13L2.5 12C2.92 12 3.26 11.66 3.26 11.24C3.26 11.17 3.25 11.1 3.23 11.04L1.2 3.73C1.08 3.3 0.69 3 0.24 3L0 3L0 2L4 2L4 3C3.6 3 3.27 3.33 3.27 3.73C3.27 3.8 3.28 3.86 3.29 3.93L4.8 9.35L6.02 4.23C6.15 3.69 5.82 3.16 5.28 3.03C5.2 3.01 5.13 3 5.05 3L5 3L5 2L15 2ZM11.25 3.03L11.16 3.06C10.78 3.2 10.5 3.57 10.5 4L10.5 11C10.5 11.47 10.82 11.86 11.25 11.97C11.68 11.86 12 11.47 12 11L12 4C12 3.53 11.68 3.14 11.25 3.03Z"/>
</svg>