<svg xmlns="http://www.w3.org/2000/svg" viewBox="0 0 15 15">
  <path d="M10 2L10 3C9.75 3 9.55 3.2 9.55 3.45C9.55 3.52 9.57 3.59 9.61 3.65L10.69 5.71L11.6 3.99C11.77 3.66 11.64 3.25 11.31 3.08C11.25 3.04 11.18 3.02 11.11 3.01L11 3L11 2L15 2L15 3L14.22 3C13.85 3 13.51 3.21 13.34 3.53L11.44 7.14L13.72 11.47C13.89 11.79 14.23 12 14.6 12L15 12L15 13L11 13L11 12C11.25 12 11.45 11.8 11.45 11.55C11.45 11.48 11.43 11.41 11.39 11.35L10.31 9.29L9.4 11.01C9.23 11.34 9.36 11.75 9.69 11.92C9.75 11.96 9.82 11.98 9.89 11.99L10 12L10 13L5 13L5 12C5.25 12 5.45 11.8 5.45 11.55C5.45 11.48 5.43 11.41 5.39 11.35L4.31 9.29L3.4 11.01C3.23 11.34 3.36 11.75 3.69 11.92C3.75 11.96 3.82 11.98 3.89 11.99L4 12L4 13L0 13L0 12L0.78 12C1.15 12 1.49 11.79 1.66 11.46L3.56 7.86L1.28 3.53C1.11 3.21 0.77 3 0.4 3L0 3L0 2L4 2L4 3C3.75 3 3.55 3.2 3.55 3.45C3.55 3.52 3.57 3.59 3.61 3.65L4.69 5.71L5.6 3.99C5.77 3.66 5.64 3.25 5.31 3.08C5.25 3.04 5.18 3.02 5.11 3.01L5 3L5 2L10 2ZM7.31 3.59L5.44 7.14L7.69 11.41L9.56 7.86L7.31 3.59Z"/>
</svg>