<svg xmlns="http://www.w3.org/2000/svg" viewBox="0 0 15 15">
  <path d="M15 2L15 3C14.45 3 14 3.45 14 4L14 11C14 11.51 14.39 11.94 14.88 11.99L15 12L15 13L5 13L5 12C5.25 12 5.45 11.8 5.45 11.55C5.45 11.48 5.43 11.41 5.39 11.35L4.31 9.29L3.4 11.01C3.23 11.34 3.36 11.75 3.69 11.92C3.75 11.96 3.82 11.98 3.89 11.99L4 12L4 13L0 13L0 12L0.78 12C1.15 12 1.49 11.79 1.66 11.46L3.56 7.86L1.28 3.53C1.11 3.21 0.77 3 0.4 3L0 3L0 2L4 2L4 3C3.75 3 3.55 3.2 3.55 3.45C3.55 3.52 3.57 3.59 3.61 3.65L4.69 5.71L5.6 3.99C5.77 3.66 5.64 3.25 5.31 3.08C5.25 3.04 5.18 3.02 5.11 3.01L5 3L5 2L15 2ZM7.34 3.53L5.44 7.14L7.72 11.47C7.84 11.7 8.05 11.88 8.3 11.95C8.71 11.83 9 11.45 9 11L9 4C9 3.49 8.61 3.06 8.12 3.01L8.22 3C7.85 3 7.51 3.21 7.34 3.53ZM11.5 3.13L11.46 3.16C11.19 3.33 11 3.64 11 4L11 11C11 11.37 11.2 11.69 11.5 11.87C11.8 11.69 12 11.37 12 11L12 4C12 3.63 11.8 3.31 11.5 3.13Z"/>
</svg>