<svg xmlns="http://www.w3.org/2000/svg" viewBox="0 0 15 15">
  <path d="M1 13L1 12C1.55 12 2 11.55 2 11L2 4C2 3.49 1.61 3.06 1.12 3.01L1 3L1 2L9 2L9 3C8.65 3 8.36 3.29 8.36 3.64C8.36 3.76 8.39 3.88 8.46 3.98L9.7 5.94L10.72 4.31C10.98 3.91 10.86 3.38 10.46 3.13C10.32 3.05 10.16 3 10 3L10 2L14.5 2L14.5 3L13.67 3C13.33 3 13.01 3.18 12.82 3.47L10.49 7.19L13.23 11.53C13.41 11.82 13.73 12 14.07 12L14.5 12L14.5 13L10 13L10 12C10.35 12 10.64 11.71 10.64 11.36C10.64 11.24 10.6 11.12 10.54 11.02L9.3 9.06L8.28 10.69C8.02 11.09 8.14 11.61 8.54 11.87C8.65 11.93 8.76 11.97 8.88 11.99L9 12L9 13L1 13ZM4.97 3L5 3C4.45 3 4 3.45 4 4L4 11C4 11.51 4.39 11.94 4.88 11.99L4.99 12L5.33 12C5.67 12 5.99 11.82 6.18 11.53L8.51 7.81L5.77 3.47C5.59 3.19 5.29 3.01 4.97 3Z"/>
</svg>