<svg xmlns="http://www.w3.org/2000/svg" viewBox="0 0 15 15">
  <path d="M14 2L14 3C13.45 3 13 3.45 13 4L13 11C13 11.51 13.39 11.94 13.88 11.99L14 12L14 13L6 13L6 12C6.35 12 6.64 11.71 6.64 11.36C6.64 11.24 6.6 11.12 6.54 11.02L5.3 9.06L4.28 10.69C4.02 11.09 4.14 11.61 4.54 11.87C4.65 11.93 4.76 11.97 4.88 11.99L5 12L5 13L0.5 13L0.5 12L1.33 12C1.67 12 1.99 11.82 2.18 11.53L4.51 7.81L1.77 3.47C1.59 3.18 1.27 3 0.92 3L0.5 3L0.5 2L5 2L5 3C4.65 3 4.36 3.29 4.36 3.64C4.36 3.76 4.39 3.88 4.46 3.98L5.7 5.94L6.72 4.31C6.98 3.91 6.86 3.38 6.46 3.13C6.32 3.05 6.16 3 6 3L6 2L14 2ZM10 3L9.67 3C9.33 3 9.01 3.18 8.82 3.47L6.49 7.19L9.23 11.53C9.41 11.82 9.71 11.99 10.05 12L10 12C10.55 12 11 11.55 11 11L11 4C11 3.49 10.61 3.06 10.12 3.01L10 3Z"/>
</svg>