<svg xmlns="http://www.w3.org/2000/svg" viewBox="0 0 15 15">
  <path d="M9.5 3C8.95 3 8.5 3.45 8.5 4L8.5 11C8.5 11.51 8.89 11.94 9.38 11.99L9.5 12C10.05 12 10.5 11.55 10.5 11L10.5 4C10.5 3.49 10.11 3.06 9.62 3.01L9.5 3ZM5.5 3C4.95 3 4.5 3.45 4.5 4L4.5 11C4.5 11.51 4.89 11.94 5.38 11.99L5.5 12C6.05 12 6.5 11.55 6.5 11L6.5 4C6.5 3.45 6.05 3 5.5 3ZM1.5 13L1.5 12C2.05 12 2.5 11.55 2.5 11L2.5 4C2.5 3.49 2.11 3.06 1.62 3.01L1.5 3L1.5 2L13.5 2L13.5 3C12.95 3 12.5 3.45 12.5 4L12.5 11C12.5 11.51 12.89 11.94 13.38 11.99L13.5 12L13.5 13L1.5 13Z"/>
</svg>