<svg xmlns="http://www.w3.org/2000/svg" viewBox="0 0 15 15">
  <path d="M13 2L13 3C12.45 3 12 3.45 12 4L12 11C12 11.51 12.39 11.94 12.88 11.99L13 12L13 13L9 13L9 12C9.55 12 10 11.55 10 11L10 4C10 3.53 9.67 3.13 9.23 3.03C8.87 3.11 8.58 3.39 8.49 3.76L6.74 11.03C6.63 11.45 6.89 11.88 7.31 11.98L7.41 11.99L7.5 12L7.5 13L3.5 13L3.5 12C3.92 12 4.26 11.66 4.26 11.24C4.26 11.17 4.25 11.1 4.23 11.04L2.2 3.73C2.08 3.3 1.69 3 1.24 3L1 3L1 2L5 2L5 3C4.6 3 4.27 3.33 4.27 3.73C4.27 3.8 4.28 3.86 4.29 3.93L5.8 9.35L7.02 4.23C7.15 3.69 6.82 3.16 6.28 3.03C6.2 3.01 6.13 3 6.05 3L6 3L6 2L13 2Z"/>
</svg>