<svg xmlns="http://www.w3.org/2000/svg" viewBox="0 0 15 15">
  <path d="M7 2L7 3C6.6 3 6.27 3.33 6.27 3.73C6.27 3.8 6.28 3.86 6.29 3.93L7.8 9.35L7.8 9.35L9.02 4.23C9.15 3.69 8.82 3.16 8.28 3.03C8.2 3.01 8.13 3 8.05 3L8 3L8 3L8 2L11.5 2L11.5 3L11.47 3C11.01 3 10.6 3.32 10.49 3.76L8.74 11.03C8.63 11.45 8.89 11.88 9.31 11.98C9.38 11.99 9.44 12 9.5 12L9.5 12L9.5 12L9.5 13L5.5 13L5.5 12C5.92 12 6.26 11.66 6.26 11.24C6.26 11.17 6.25 11.1 6.23 11.04L4.2 3.73C4.08 3.3 3.69 3 3.24 3L3 3L3 3L3 2L7 2Z"/>
</svg>