<svg xmlns="http://www.w3.org/2000/svg" viewBox="0 0 15 15">
  <path d="M9 2L9 3C8.6 3 8.27 3.33 8.27 3.73C8.27 3.8 8.28 3.86 8.29 3.93L9.8 9.35L11.02 4.23C11.15 3.69 10.82 3.16 10.28 3.03C10.2 3.01 10.13 3 10.05 3L10 3L10 2L13.5 2L13.5 3L13.47 3C13.01 3 12.6 3.32 12.49 3.76L10.74 11.03C10.63 11.45 10.89 11.88 11.31 11.98L11.41 11.99L11.5 12L11.5 13L7.5 13L7.5 12C7.92 12 8.26 11.66 8.26 11.24C8.26 11.17 8.25 11.1 8.23 11.04L6.2 3.73C6.12 3.43 5.9 3.19 5.62 3.08C5.26 3.23 5 3.58 5 4L5 11C5 11.51 5.39 11.94 5.88 11.99L6 12L6 13L2 13L2 12C2.55 12 3 11.55 3 11L3 4C3 3.49 2.61 3.06 2.12 3.01L2 3L2 2L9 2Z"/>
</svg>