<svg xmlns="http://www.w3.org/2000/svg" viewBox="0 0 15 15">
  <path d="M0.52 3L8.5 3L8.25 3.5L8.68 3.5L9.25 3.22L9.55 3.5L10.34 3.5L10.65 3.81L9.99 3.81L9.4 4.23L9.4 5.01L9.5 5.5L10 5.5L9.99 4.44L10.34 4.05L10.65 4.05L10.77 4.44L10.65 4.75L10.98 4.75L10.98 5L11 5.5L11.5 5.5L11.87 5.27L11.87 5.01L12.56 5.01L12.56 4.57L13.02 4.23L13.84 4.23L14 4.25L14.25 3.5L14.75 3.5L15 4L15 4.66L14.75 5L14.21 5.51L14 6.5L13.25 7.25L13 7.75L13 9L12 9.75L12 10.25L12.63 11.44L12.5 12L12 12L11.35 11.24L11.35 10.72L10.97 10.3L10.79 10.57L10.25 10.3L9.19 10.35L9.19 10.62L7.82 10.62L7 11L7 12L6.23 11.62L6 11L5.66 10.41L5 10.55L4.78 10.82L4.4 10.55L4 10L3.9 9.86L3.37 9.8L2.62 9.43L1.93 9.43L1.58 8.91L1.11 8.91L0.35 7.02L0.12 6.45L0.12 6.09L0 5.51L0.25 4.54L0 3.22L0.35 3.22L0.52 3.46z"/>
</svg>