<svg xmlns="http://www.w3.org/2000/svg" viewBox="0 0 15 15">
  <path d="M0 8L8 8L8 9.5L9 11L11 10L11.5 10.75L14.21 10.17C14.67 10.07 15 9.66 15 9.19L15 8.12C15 7.62 14.63 7.2 14.14 7.13L13.74 7.07C13.51 7.04 13.29 7.2 13.25 7.44C13.25 7.46 13.25 7.48 13.25 7.5C13.25 7.8 13.44 8.06 13.72 8.16L14 8.25L14 8.25L14 9L13 9.25L12 9L11.75 8L11.25 7L9.75 6L10.75 4.5L11.75 4L11.75 3.5L11 3.5L11 2L9 3.5L1.25 3.5L0 8ZM11 12.25L12 11.75L13 12.25L13 12.75L11 13L11 12.25ZM13.5 14L13.5 13.5L15 12.5L15 14L13.5 14Z"/>
</svg>