<svg xmlns="http://www.w3.org/2000/svg" viewBox="0 0 15 15">
  <path d="M15 12.5L15 14L13.5 14L13.5 13.5L15 12.5ZM12 11.75L13 12.25L13 12.75L11 13L11 12.25L12 11.75ZM11 2L11 3.5L11.75 3.5L11.75 4L10.75 4.5L9.75 6L11.25 7L11.75 8L12 9L13 9.25L14 9L14 8.25L13.72 8.16C13.44 8.06 13.25 7.8 13.25 7.5C13.25 7.48 13.25 7.46 13.25 7.44C13.29 7.2 13.51 7.04 13.74 7.07L14.14 7.13C14.63 7.2 15 7.62 15 8.12L15 9.19C15 9.66 14.67 10.07 14.21 10.17L11.5 10.75L11 10L9 11L8 9.5L8 8L0 8L1.25 3.5L9 3.5L11 2ZM8.5 3.92L8.14 5.01L7 5.01L7.92 5.76L7.5 7L8.5 6.25L9.5 7L9.08 5.76L10 5.01L8.86 5.01L8.5 3.92Z"/>
</svg>