<svg xmlns="http://www.w3.org/2000/svg" viewBox="0 0 15 15">
  <path d="M7.5 6C7.75 6 7.96 6.18 8 6.41L8 8.29L8.74 9.03C10 9.15 11 10.2 11 11.5C11 12.88 9.88 14 8.51 14C7.13 14 6 12.88 6 11.5C6 10.54 6.55 9.71 7.34 9.29L7.5 9.21L7.11 8.81L4.63 10.21C4.86 10.59 5.01 11.03 5.01 11.5C5.01 12.88 3.87 14 2.5 14C1.12 14 0 12.88 0 11.5C0 10.13 1.12 9 2.5 9C2.64 9 2.77 9.02 2.91 9.04L3.09 9.08L2.66 8L2.43 8C1.79 8.01 1.75 7.11 2.31 7.01L2.43 7L4.46 7C5.09 6.99 5.13 7.89 4.57 7.99L4.46 8L3.74 8L4.26 9.28L7 7.72L7 7L6.5 7C5.87 7.01 5.83 6.11 6.39 6.01L6.5 6L7.5 6ZM2.5 10.01C1.66 10.01 1 10.67 1 11.5C1 12.34 1.66 13 2.5 13C3.33 13 4.01 12.34 4.01 11.5C4.01 10.67 3.33 10.01 2.5 10.01ZM8.51 10.01C7.67 10.01 7 10.67 7 11.5C7 12.34 7.67 13 8.51 13C9.34 13 10 12.34 10 11.5C10 10.67 9.34 10.01 8.51 10.01ZM15 0L14.5 1L13.5 1C13.72 1.29 13.87 1.63 13.95 2L15 2L14.5 3L13.95 3C13.74 4.06 12.85 4.87 11.77 4.99L15 7.5L13.25 7.5L10 5L10 4L11.5 4C12.15 4 12.71 3.58 12.91 3L10 3L10.5 2L12.91 2C12.71 1.42 12.15 1 11.5 1L10 1L10.5 0L15 0Z"/>
</svg>