<svg xmlns="http://www.w3.org/2000/svg" viewBox="0 0 15 15">
  <path d="M7.5 2c-0.68 -0.01 -0.68 1.01 0 1H9v1.27l-2.8 2.33L5.22 4H5.5c0.68 0.01 0.68 -1.01 0 -1h-2c-0.68 -0.01 -0.68 1.01 0 1h0.65L5.04 6.38C4.58 6.14 4.06 6 3.5 6C1.57 6 0 7.57 0 9.5S1.57 13 3.5 13S7 11.43 7 9.5c0 -0.67 -0.2 -1.29 -0.53 -1.82L9.29 5.33l0.46 1.16C8.71 7.09 8 8.21 8 9.5c0 1.93 1.57 3.5 3.5 3.5S15 11.43 15 9.5S13.43 6 11.5 6c-0.28 0 -0.55 0.04 -0.82 0.11L10 4.4V2.5c0 -0.28 -0.22 -0.5 -0.5 -0.5H7.5zM3.5 7c0.59 0 1.13 0.21 1.55 0.55l-1.87 1.56c-0.51 0.43 0.13 1.19 0.64 0.77l1.88 -1.56C5.88 8.67 6 9.07 6 9.5C6 10.89 4.89 12 3.5 12S1 10.89 1 9.5S2.11 7 3.5 7L3.5 7zM11.5 7C12.89 7 14 8.11 14 9.5S12.89 12 11.5 12S9 10.89 9 9.5c0 -0.88 0.45 -1.64 1.13 -2.09l0.91 2.27c0.25 0.62 1.18 0.25 0.93 -0.37l-0.91 -2.27C11.2 7.02 11.35 7 11.5 7L11.5 7z"/>
</svg>