<svg xmlns="http://www.w3.org/2000/svg" viewBox="0 0 15 15">
  <path d="M6.87 6.75C6.63 6.75 6.39 6.77 6.16 6.81L4.4 1.24C4.17 0.51 3.33 0.02 2.6 0.02C2.14 0.01 1.25 -0.14 1.25 0.58C1.25 1.34 2.2 1.11 2.67 1.14C2.92 1.15 3.27 1.41 3.35 1.66L3.79 2.73L0 2.73L0 4.09L4.15 4.09L4.2 4.35L0 8.59C0.05 9.09 0 9.64 0 10.15L4.58 5.56L5.09 7.16C3.7 7.83 2.75 9.24 2.75 10.88C2.75 13.15 4.59 15 6.87 15C9.15 15 11 13.15 11 10.88C11 8.59 9.15 6.75 6.87 6.75M6.87 13.93C5.18 13.93 3.81 12.56 3.81 10.87C3.81 9.71 4.46 8.72 5.41 8.2L6.31 11.06C6.41 11.36 6.73 11.52 7.02 11.43C7.32 11.34 7.49 11.01 7.39 10.72L6.49 7.85C6.62 7.84 6.74 7.81 6.87 7.81C8.56 7.81 9.93 9.18 9.93 10.87C9.93 12.56 8.56 13.93 6.87 13.93ZM12.14 6.12C12.91 6.12 13.53 7 13.64 7.94L13.64 15L15 15L15 7.94C15 6.19 13.72 4.78 12.14 4.78L10.36 4.78C8.78 4.78 7.5 6.19 7.5 7.94L7.5 15L8.85 15L8.85 7.94C8.97 7 9.59 6.12 10.36 6.12L12.14 6.12Z"/>
</svg>