<svg xmlns="http://www.w3.org/2000/svg" viewBox="0 0 15 15">
  <path d="M2.5 8.99C3.88 8.99 5 10.12 5 11.5C5 12.88 3.88 14.01 2.5 14.01C1.12 14.01 0 12.88 0 11.5C0 10.12 1.12 8.99 2.5 8.99ZM13.5 11C14.32 11 15 11.68 15 12.51C15 13.33 14.32 14.01 13.5 14.01C12.68 14.01 12 13.34 12 12.51C12 11.68 12.68 11 13.5 11ZM13.5 11.81C13.12 11.81 12.81 12.12 12.81 12.51C12.81 12.9 13.11 13.21 13.5 13.21C13.88 13.21 14.19 12.9 14.19 12.51C14.19 12.12 13.89 11.81 13.5 11.81ZM2.5 9.92C1.63 9.92 0.93 10.62 0.93 11.5C0.93 12.38 1.63 13.08 2.5 13.08C3.37 13.08 4.07 12.38 4.07 11.5C4.07 10.62 3.37 9.92 2.5 9.92ZM6.5 6C6.72 6 6.91 6.14 6.97 6.34L7.52 7.99L12.62 9.01C12.94 9.07 13.12 9.43 12.97 9.73L10.95 12.73C10.86 12.89 10.69 13 10.5 13L6.5 13C6.31 13 6.14 12.89 6.05 12.72L4.69 9L4 9C3.72 9 3.5 8.78 3.5 8.5C3.5 8.22 3.72 8 4 8L5.5 8C5.78 8 6 8.22 6 8.5C6 8.67 5.91 8.83 5.77 8.92L6.81 12L7.81 12L6.14 7L5.5 7C5.22 7 5 6.78 5 6.5C5 6.22 5.22 6 5.5 6L6.5 6ZM10.53 1C10.66 1 10.79 1.05 10.88 1.15L14.85 5.12C15.05 5.32 15.05 5.63 14.85 5.82L12.82 7.85C12.63 8.05 12.32 8.05 12.12 7.85L8.15 3.88C8.05 3.79 8 3.66 8 3.53L8 1.5C8 1.22 8.22 1 8.5 1L10.53 1ZM9.49 1.74C9.08 1.74 8.74 2.08 8.74 2.49C8.74 2.9 9.08 3.23 9.49 3.23C9.9 3.23 10.23 2.9 10.23 2.49C10.23 2.08 9.9 1.74 9.49 1.74Z"/>
</svg>