<svg xmlns="http://www.w3.org/2000/svg" viewBox="0 0 15 15">
  <path d="M5.5 3C5.22 3 5 3.22 5 3.5C5 3.78 5.22 4 5.5 4H6.14L7.81 9H6.81L5.77 5.92C5.91 5.83 6 5.67 6 5.5C6 5.22 5.78 5 5.5 5H5H4C3.72 5 3.5 5.22 3.5 5.5C3.5 5.78 3.72 6 4 6H4.69L6.05 9.72C6.14 9.89 6.31 10 6.5 10h2h1h1c0.19 0 0.36 -0.11 0.45 -0.27l2.02 -3C13.12 6.43 12.94 6.07 12.62 6.01L7.52 4.99L6.97 3.34C6.91 3.14 6.72 3 6.5 3Zm-3 2.99C1.12 5.99 0 7.12 0 8.5C0 9.88 1.12 11.01 2.5 11.01C3.88 11.01 5 9.88 5 8.5C5 7.12 3.88 5.99 2.5 5.99Zm0 0.93c0.87 0 1.57 0.7 1.57 1.58c0 0.88 -0.7 1.58 -1.57 1.58C1.63 10.08 0.93 9.38 0.93 8.5C0.93 7.62 1.63 6.92 2.5 6.92ZM13.5 8C12.68 8 12 8.68 12 9.51c0 0.83 0.68 1.5 1.5 1.5c0.82 0 1.5 -0.68 1.5 -1.5C15 8.68 14.32 8 13.5 8Zm0 0.81c0.39 0 0.69 0.31 0.69 0.7c0 0.39 -0.31 0.7 -0.69 0.7c-0.39 0 -0.69 -0.31 -0.69 -0.7c0 -0.39 0.31 -0.7 0.69 -0.7z"/>
</svg>