<svg xmlns="http://www.w3.org/2000/svg" viewBox="0 0 15 15">
  <path d="M5.34 4L3.69 5.65C3.59 5.76 3.49 5.87 3.42 6L2 6L2 13L9 13L9 11.59C9.13 11.51 9.24 11.41 9.35 11.31L11 9.66L11 13C11 14.1 10.1 15 9 15L2 15C0.9 15 0 14.1 0 13L0 6C0 4.9 0.9 4 2 4L5.34 4ZM7.94 9.89L4.4 10.6L5.11 7.07L11.89 0.29C12.25 -0.08 12.82 -0.1 13.21 0.21L13.3 0.29L14.71 1.7C15.1 2.09 15.1 2.73 14.71 3.12L11 6.83L7.94 9.89ZM7.4 7.6L6.15 7.6L5.99 7.77L5.68 9.33L7.23 9.01L7.4 8.85L7.4 7.6ZM12.59 0.99L9.52 4.07L11.53 2.06L12.95 3.47L14.01 2.41L12.59 0.99Z"/>
</svg>