<svg xmlns="http://www.w3.org/2000/svg" viewBox="0 0 15 15">
  <path d="M8.62 1C8.99 1.01 9.35 1.07 9.7 1.18C10.41 1.38 10.95 1.95 11.11 2.67L11.5 5L14.33 5C14.38 5 14.42 5.01 14.47 5.02C14.74 5.11 14.88 5.39 14.8 5.65L12.92 13.95C12.72 14.57 12.15 15 11.5 15L3.5 15C2.85 15 2.27 14.57 2.07 13.95L0.19 5.65C0.18 5.6 0.17 5.55 0.17 5.5C0.17 5.22 0.39 5 0.67 5L3.5 5L3.89 2.67C4.05 1.95 4.59 1.38 5.3 1.18C5.65 1.07 6.01 1.01 6.38 1ZM7.29 6.5C6.58 6.5 6.04 6.66 5.69 6.97C5.34 7.28 5.17 7.68 5.17 8.15C5.17 8.38 5.21 8.61 5.3 8.83C5.39 9.05 5.55 9.3 5.79 9.6C5.22 9.84 4.82 10.14 4.57 10.48C4.33 10.82 4.2 11.19 4.2 11.57C4.2 12.1 4.41 12.56 4.83 12.94C5.25 13.31 5.89 13.5 6.76 13.5C7.31 13.5 7.8 13.43 8.23 13.29C8.54 13.2 8.86 13.04 9.17 12.82C9.32 12.92 9.49 13.03 9.68 13.16C9.87 13.29 10.06 13.4 10.23 13.5L11.2 12.34C11.07 12.26 10.96 12.19 10.88 12.14L10.21 11.65C10.33 11.43 10.43 11.24 10.49 11.07C10.56 10.91 10.63 10.69 10.71 10.42L9.3 10.1C9.24 10.31 9.16 10.51 9.07 10.7C8.72 10.42 8.4 10.11 8.08 9.78C8.46 9.52 8.73 9.32 8.87 9.19C9.02 9.06 9.14 8.88 9.25 8.67C9.35 8.46 9.4 8.24 9.4 8.01C9.4 7.6 9.24 7.24 8.89 6.94C8.55 6.65 8.02 6.5 7.29 6.5ZM6.59 10.55C7.19 11.14 7.68 11.59 8.06 11.9C7.66 12.16 7.3 12.3 6.98 12.3C6.68 12.3 6.44 12.21 6.25 12.03C6.07 11.86 5.98 11.66 5.98 11.43C5.98 11.28 6.02 11.15 6.09 11.02C6.18 10.89 6.34 10.73 6.59 10.55ZM7.36 7.52C7.55 7.52 7.7 7.57 7.8 7.67C7.91 7.77 7.96 7.89 7.96 8.04C7.96 8.17 7.9 8.32 7.77 8.48C7.64 8.63 7.46 8.78 7.23 8.91C6.91 8.54 6.75 8.27 6.75 8.08C6.75 7.92 6.8 7.79 6.92 7.69C7.03 7.57 7.18 7.52 7.36 7.52ZM8.62 2L6.38 2C6.12 2.01 5.87 2.05 5.62 2.13C5.25 2.19 4.96 2.47 4.88 2.83L4.52 5L10.48 5L10.13 2.83C10.05 2.47 9.76 2.19 9.39 2.13C9.14 2.05 8.88 2.01 8.62 2Z"/>
</svg>