<svg xmlns="http://www.w3.org/2000/svg" viewBox="0 0 15 15">
  <path d="M8.62 1C8.99 1.01 9.35 1.07 9.7 1.18C10.41 1.38 10.95 1.95 11.11 2.67L11.5 5L14.33 5C14.38 5 14.42 5.01 14.47 5.02C14.74 5.11 14.88 5.39 14.8 5.65L12.92 13.95C12.72 14.57 12.15 15 11.5 15L3.5 15C2.85 15 2.27 14.57 2.07 13.95L0.19 5.65C0.18 5.6 0.17 5.55 0.17 5.5C0.17 5.22 0.39 5 0.67 5L3.5 5L3.89 2.67C4.05 1.95 4.59 1.38 5.3 1.18C5.65 1.07 6.01 1.01 6.38 1L8.62 1ZM6.53 6.5L4.5 6.5C4.22 6.5 4 6.72 4 7L4 9.03C4 9.16 4.05 9.29 4.15 9.38L8.12 13.35C8.32 13.55 8.63 13.55 8.82 13.35L10.85 11.32C11.05 11.13 11.05 10.82 10.85 10.62L6.88 6.65C6.79 6.55 6.66 6.5 6.53 6.5ZM5.49 7.24C5.9 7.24 6.23 7.58 6.23 7.99C6.23 8.4 5.9 8.73 5.49 8.73C5.08 8.73 4.74 8.4 4.74 7.99C4.74 7.58 5.08 7.24 5.49 7.24ZM8.62 2L6.38 2C6.12 2.01 5.87 2.05 5.62 2.13C5.25 2.19 4.96 2.47 4.88 2.83L4.52 5L10.48 5L10.13 2.83C10.05 2.47 9.76 2.19 9.39 2.13C9.14 2.05 8.88 2.01 8.62 2Z"/>
</svg>