<svg xmlns="http://www.w3.org/2000/svg" viewBox="0 0 15 15">
  <path d="M13.33 5h-1.83l-0.39 -2.33c-0.16 -0.72 -0.7 -1.29 -1.41 -1.49c-0.35 -0.11 -0.71 -0.17 -1.08 -0.18h-2.24c-0.37 0.01 -0.73 0.07 -1.08 0.18c-0.71 0.2 -1.25 0.77 -1.41 1.49l-0.39 2.33h-1.83c-0.28 0 -0.5 0.22 -0.5 0.5c0 0.05 0.01 0.1 0.02 0.15l1.88 6.3c0.2 0.62 0.78 1.05 1.43 1.05h6c0.65 0 1.22 -0.43 1.42 -1.05l1.88 -6.3c0.08 -0.26 -0.06 -0.54 -0.33 -0.63c-0.05 -0.01 -0.09 -0.02 -0.14 -0.02zm-8.81 0l0.36 -2.17c0.08 -0.36 0.37 -0.64 0.74 -0.7c0.25 -0.08 0.5 -0.12 0.76 -0.13h2.24c0.26 0.01 0.52 0.05 0.77 0.13c0.37 0.06 0.66 0.34 0.74 0.7l0.35 2.17h-6z"/>
</svg>