<svg xmlns="http://www.w3.org/2000/svg" viewBox="0 0 15 15">
  <path d="M6.62 4C6.99 4.01 7.35 4.07 7.7 4.18C8.41 4.38 8.95 4.95 9.11 5.67L9.5 8L11.33 8C11.38 8 11.42 8.01 11.47 8.02C11.74 8.11 11.88 8.39 11.8 8.65L10.21 14.27C10.08 14.7 9.69 15 9.24 15L2.75 15C2.31 15 1.92 14.7 1.79 14.27L0.19 8.65C0.18 8.6 0.17 8.55 0.17 8.5C0.17 8.22 0.39 8 0.67 8L2.5 8L2.89 5.67C3.05 4.95 3.59 4.38 4.3 4.18C4.65 4.07 5.01 4.01 5.38 4L6.62 4ZM6.62 5L5.38 5C5.12 5.01 4.87 5.05 4.62 5.13C4.25 5.19 3.96 5.47 3.88 5.83L3.52 8L8.48 8L8.13 5.83C8.05 5.47 7.76 5.19 7.39 5.13C7.14 5.05 6.88 5.01 6.62 5ZM10.53 0C10.66 0 10.79 0.05 10.88 0.15L14.85 4.12C15.05 4.32 15.05 4.63 14.85 4.82L12.82 6.85C12.63 7.05 12.32 7.05 12.12 6.85L8.15 2.88C8.05 2.79 8 2.66 8 2.53L8 0.5C8 0.22 8.22 0 8.5 0L10.53 0ZM9.49 0.74C9.08 0.74 8.74 1.08 8.74 1.49C8.74 1.9 9.08 2.23 9.49 2.23C9.9 2.23 10.23 1.9 10.23 1.49C10.23 1.08 9.9 0.74 9.49 0.74Z"/>
</svg>