<svg xmlns="http://www.w3.org/2000/svg" viewBox="0 0 15 15">
  <path d="M6.38 1C6.01 1.01 5.65 1.07 5.3 1.18C4.59 1.38 4.05 1.95 3.89 2.67L3.5 5L0.67 5C0.39 5 0.17 5.22 0.17 5.5C0.17 5.55 0.18 5.6 0.19 5.65L2.07 13.95C2.27 14.57 2.85 15 3.5 15L11.5 15C12.15 15 12.72 14.57 12.92 13.95L14.8 5.65C14.88 5.39 14.74 5.11 14.47 5.02C14.42 5.01 14.38 5 14.33 5L11.5 5L11.11 2.67C10.95 1.95 10.41 1.38 9.7 1.18C9.35 1.07 8.99 1.01 8.62 1L6.38 1ZM6.38 2L8.62 2C8.88 2.01 9.14 2.05 9.39 2.13C9.76 2.19 10.05 2.47 10.13 2.83L10.48 5L4.52 5L4.88 2.83C4.96 2.47 5.25 2.19 5.62 2.13C5.87 2.05 6.12 2.01 6.38 2ZM7.92 6C8.57 6.01 9.22 6.19 9.8 6.55L9.68 6.78C9.63 6.86 9.83 7.25 9.83 7.25C8.86 6.65 7.37 6.51 6.38 7.09C4.96 7.94 4.56 10.08 4.56 10.69C4.56 10.77 4.55 10.82 4.54 10.84L4.54 10.84L4.54 10.84L4.54 10.84L4.53 10.84L4.52 10.84L4.52 10.84C4.42 10.78 4.19 9.91 4.19 9.91L4 9.89C4.07 8.47 4.82 7.19 6.01 6.5C6.6 6.15 7.26 5.99 7.92 6ZM7.63 7.53C8.78 7.53 9.69 8.98 9.69 10.77C9.69 12.55 8.78 14 7.63 14C6.5 14 5.58 12.55 5.58 10.77C5.58 10.11 5.71 9.47 5.94 8.93C5.81 9.37 5.91 9.77 6.17 9.92C6.52 10.13 7.04 9.87 7.34 9.33C7.64 8.8 7.6 8.2 7.26 7.99C6.92 7.8 6.55 8.06 6.36 8.22C6.72 7.78 7.18 7.53 7.63 7.53ZM6.38 10.71C6.38 10.71 6.01 12.05 6.31 12.54C6.62 13.02 7.08 13.38 7.62 13.39C8.16 13.39 8.63 13.05 8.94 12.57C9.25 12.09 8.89 10.74 8.89 10.74C8.89 11.34 8.71 11.8 8.39 12.21C8.21 12.46 7.93 12.74 7.63 12.73C7.32 12.73 7.06 12.44 6.87 12.19C6.57 11.77 6.38 11.3 6.38 10.71Z"/>
</svg>