<svg xmlns="http://www.w3.org/2000/svg" viewBox="0 0 15 15">
  <path d="M6.05 1C6.32 1 6.57 1.1 6.76 1.29L14.71 9.24C15.1 9.63 15.1 10.26 14.71 10.65L10.65 14.71C10.26 15.1 9.63 15.1 9.24 14.71L1.29 6.76C1.1 6.57 1 6.32 1 6.05L1 1.99C1 1.44 1.44 1 1.99 1L6.05 1ZM9 5L8 5L8 6L7.5 6C6.67 6 6 6.67 6 7.5C6 8.33 6.67 9 7.5 9L8 9L8 10L6 10L6.01 10.12C6.06 10.61 6.49 11 7 11L8 11L8 12L9 12L9 11L9.5 11C10.33 11 11 10.33 11 9.5C11 8.67 10.33 8 9.5 8L9 8L9 7L11 7C11 6.45 10.55 6 10 6L9 6L9 5ZM9.5 9C9.78 9 10 9.22 10 9.5C10 9.78 9.78 10 9.5 10L9 10L9 9L9.5 9ZM8 7L8 8L7.5 8C7.22 8 7 7.78 7 7.5C7 7.22 7.22 7 7.5 7L8 7ZM3.98 2.49C3.16 2.49 2.49 3.16 2.49 3.98C2.49 4.8 3.16 5.47 3.98 5.47C4.8 5.47 5.47 4.8 5.47 3.98C5.47 3.16 4.8 2.49 3.98 2.49Z"/>
</svg>