<svg xmlns="http://www.w3.org/2000/svg" viewBox="0 0 15 15">
  <path d="M6.05 1C6.32 1 6.57 1.1 6.76 1.29L14.71 9.24C15.1 9.63 15.1 10.26 14.71 10.65L10.65 14.71C10.26 15.1 9.63 15.1 9.24 14.71L7.03 12.5L8 12.5L8 11L10 11L10 10L8 10L8 9L9 9C10.1 9 11 8.1 11 7C11 5.9 10.1 5 9 5L7 5L7 8L6 8L6 9L7 9L7 10L6 10L6 11L7 11L7 12.47L1.29 6.76C1.1 6.57 1 6.32 1 6.05L1 1.99C1 1.44 1.44 1 1.99 1L6.05 1ZM9 6C9.55 6 10 6.45 10 7C10 7.55 9.55 8 9 8L8 8L8 6L9 6ZM3.98 2.49C3.16 2.49 2.49 3.16 2.49 3.98C2.49 4.8 3.16 5.47 3.98 5.47C4.8 5.47 5.47 4.8 5.47 3.98C5.47 3.16 4.8 2.49 3.98 2.49Z"/>
</svg>