<svg xmlns="http://www.w3.org/2000/svg" viewBox="0 0 15 15">
  <path d="M6.05 1C6.32 1 6.57 1.1 6.76 1.29L10.47 5L10 5L8.5 7.75L7 5L6 5L6 5.5L7.43 8L6 8L6 9L8 9L8 10L6 10L6 11L8 11L8 12.5L9 12.5L9 11L11 11L11 10L9 10L9 9L11 9L11 8L9.57 8L10.99 5.52L14.71 9.24C15.1 9.63 15.1 10.26 14.71 10.65L10.65 14.71C10.26 15.1 9.63 15.1 9.24 14.71L1.29 6.76C1.1 6.57 1 6.32 1 6.05L1 1.99C1 1.44 1.44 1 1.99 1L6.05 1ZM3.98 2.49C3.16 2.49 2.49 3.16 2.49 3.98C2.49 4.8 3.16 5.47 3.98 5.47C4.8 5.47 5.47 4.8 5.47 3.98C5.47 3.16 4.8 2.49 3.98 2.49Z"/>
</svg>