<svg xmlns="http://www.w3.org/2000/svg" viewBox="0 0 15 15">
  <path d="M6.05 1C6.32 1 6.57 1.1 6.76 1.29L14.71 9.24C15.1 9.63 15.1 10.26 14.71 10.65L10.65 14.71C10.26 15.1 9.63 15.1 9.24 14.71L1.29 6.76C1.1 6.57 1 6.32 1 6.05L1 1.99C1 1.44 1.44 1 1.99 1L6.05 1ZM8.5 5C7.4 5 6.5 5.9 6.5 7L7.08 7.87L7.16 8L6.5 8L6 9L7.4 9C7.4 9.08 7.39 9.17 7.38 9.25L7.35 9.36C7.24 9.74 6.9 10 6.5 10L6.5 11L10 11L10.5 10L8 10L8.15 9.85C8.37 9.63 8.5 9.32 8.5 9L9.5 9L10 8L8.17 8L7.5 7L7.51 6.88C7.56 6.39 7.99 6 8.5 6C9.05 6 9.5 6.45 9.5 7L9.5 7.25L10.5 7L10.49 6.85C10.42 5.82 9.55 5 8.5 5ZM3.98 2.49C3.16 2.49 2.49 3.16 2.49 3.98C2.49 4.8 3.16 5.47 3.98 5.47C4.8 5.47 5.47 4.8 5.47 3.98C5.47 3.16 4.8 2.49 3.98 2.49Z"/>
</svg>