<svg xmlns="http://www.w3.org/2000/svg" viewBox="0 0 15 15">
  <path d="M6.05 1C6.32 1 6.57 1.1 6.76 1.29L14.71 9.24C15.1 9.63 15.1 10.26 14.71 10.65L10.65 14.71C10.26 15.1 9.63 15.1 9.24 14.71L1.29 6.76C1.1 6.57 1 6.32 1 6.05L1 1.99C1 1.44 1.44 1 1.99 1L6.05 1ZM8.91 4.99L8.91 5C7.91 5.02 6.93 5.65 6.39 6.79L6.3 7L5.4 7L5 8L6.05 8C6.01 8.33 6.01 8.67 6.05 9L5.4 9L5 10L6.3 10C7.12 12.04 9.3 12.64 10.76 11.22L10.25 10.3C9.38 11.39 8.06 11.13 7.41 10L9.03 10L9.43 9L7.07 9C7.02 8.67 7.02 8.33 7.07 8L9.83 8L10.23 7L7.41 7C8.16 5.69 9.57 5.75 10.35 6.71L10.74 5.74C10.19 5.22 9.55 4.98 8.91 4.99ZM3.98 2.49C3.16 2.49 2.49 3.16 2.49 3.98C2.49 4.8 3.16 5.47 3.98 5.47C4.8 5.47 5.47 4.8 5.47 3.98C5.47 3.16 4.8 2.49 3.98 2.49Z"/>
</svg>