<svg xmlns="http://www.w3.org/2000/svg" viewBox="0 0 15 15">
  <path d="M3.5 12.1C4.27 12.1 4.9 12.73 4.9 13.5C4.9 14.27 4.27 14.9 3.5 14.9C2.73 14.9 2.1 14.27 2.1 13.5C2.1 12.73 2.73 12.1 3.5 12.1ZM11.5 12.1C12.27 12.1 12.9 12.73 12.9 13.5C12.9 14.27 12.27 14.9 11.5 14.9C10.73 14.9 10.1 14.27 10.1 13.5C10.1 12.73 10.73 12.1 11.5 12.1ZM9.73 6C9.9 6 10.06 6.08 10.15 6.22L12 9L13.33 9.22C14.29 9.38 15 10.22 15 11.19L15 13C15 13.28 14.78 13.5 14.5 13.5L13.7 13.5C13.7 12.28 12.72 11.3 11.5 11.3C10.28 11.3 9.3 12.28 9.3 13.5L5.7 13.5C5.7 12.28 4.72 11.3 3.5 11.3C2.28 11.3 1.3 12.28 1.3 13.5L0 13.5L0 10.5C0 10.22 0.22 10 0.5 10L6 10L6 7C6 6.45 6.45 6 7 6L9.73 6ZM9.5 7L7 7L7 9L10.75 9L9.5 7ZM1.25 0.62C1.26 2.24 2.69 2.92 4.78 2.93L10.22 2.93C12.31 2.93 13.35 2.12 13.36 0.5L13.51 0.55C14.32 0.83 14.91 1.65 14.99 2.64C15.1 3.95 14.26 5.13 13.12 5.25L12.46 5.32C12.13 5.35 11.87 5.36 11.69 5.37L3.57 5.35L3.06 5.35L2.73 5.33L2.34 5.28L1.88 5.24C0.74 5.11 -0.1 3.94 0.01 2.61C0.06 1.95 0.48 1.29 1.25 0.62Z"/>
</svg>