<svg xmlns="http://www.w3.org/2000/svg" viewBox="0 0 15 15">
  <path d="M3.5 10.1C4.27 10.1 4.9 10.73 4.9 11.5C4.9 12.27 4.27 12.9 3.5 12.9C2.73 12.9 2.1 12.27 2.1 11.5C2.1 10.73 2.73 10.1 3.5 10.1ZM11.5 10.1C12.27 10.1 12.9 10.73 12.9 11.5C12.9 12.27 12.27 12.9 11.5 12.9C10.73 12.9 10.1 12.27 10.1 11.5C10.1 10.73 10.73 10.1 11.5 10.1ZM9.5 2C9.78 2 10 2.22 10 2.5L10 5L11.73 5C11.9 5 12.06 5.08 12.15 5.22L14 8L14.41 8.41C14.79 8.79 15 9.3 15 9.83L15 11C15 11.28 14.78 11.5 14.5 11.5L13.7 11.5C13.7 10.28 12.72 9.3 11.5 9.3C10.28 9.3 9.3 10.28 9.3 11.5L5.7 11.5C5.7 10.28 4.72 9.3 3.5 9.3C2.28 9.3 1.3 10.28 1.3 11.5L0 11.5L0 2.5C0 2.22 0.22 2 0.5 2L9.5 2ZM5.62 3.5L4.37 3.5L4.37 4.92L3.69 4.52L3.15 4.21L2.52 5.29L3.75 6L3.06 6.4L2.52 6.71L3.15 7.79L3.69 7.48L4.37 7.08L4.37 8.5L5.62 8.5L5.62 7.08L6.85 7.79L7.48 6.71L6.93 6.4L6.25 6L6.93 5.6L7.48 5.29L6.85 4.21L6.31 4.52L5.62 4.92L5.62 3.5ZM11.5 6L10 6L10 8L12.75 8L11.5 6Z"/>
</svg>