<svg xmlns="http://www.w3.org/2000/svg" viewBox="0 0 15 15">
  <path d="M3.5 9.1C4.27 9.1 4.9 9.73 4.9 10.5C4.9 11.27 4.27 11.9 3.5 11.9C2.73 11.9 2.1 11.27 2.1 10.5C2.1 9.73 2.73 9.1 3.5 9.1ZM11.5 9.1C12.27 9.1 12.9 9.73 12.9 10.5C12.9 11.27 12.27 11.9 11.5 11.9C10.73 11.9 10.1 11.27 10.1 10.5C10.1 9.73 10.73 9.1 11.5 9.1ZM10.73 3C10.9 3 11.06 3.08 11.15 3.22L13 6L13.89 6.45C14.57 6.79 15 7.48 15 8.24L15 10C15 10.28 14.78 10.5 14.5 10.5L13.7 10.5C13.7 9.28 12.72 8.3 11.5 8.3C10.28 8.3 9.3 9.28 9.3 10.5L5.7 10.5C5.7 9.28 4.72 8.3 3.5 8.3C2.28 8.3 1.3 9.28 1.3 10.5L0 10.5L0 7L8 7L8 4C8 3.45 8.45 3 9 3L10.73 3ZM8 3L7.79 3.21C7.61 3.39 7.5 3.65 7.5 3.91L7.5 6.5L0 6.5L0.38 3.86C0.45 3.37 0.87 3 1.37 3L8 3ZM10.5 4L9 4L9 6L11.75 6L10.5 4ZM3.5 4L1.5 4L1.25 5.5L3.5 5.5L3.5 4Z"/>
</svg>