<svg xmlns="http://www.w3.org/2000/svg" viewBox="0 0 15 15">
  <path d="M3.5 9.1C4.27 9.1 4.9 9.73 4.9 10.5C4.9 11.27 4.27 11.9 3.5 11.9C2.73 11.9 2.1 11.27 2.1 10.5C2.1 9.73 2.73 9.1 3.5 9.1ZM11.5 9.1C12.27 9.1 12.9 9.73 12.9 10.5C12.9 11.27 12.27 11.9 11.5 11.9C10.73 11.9 10.1 11.27 10.1 10.5C10.1 9.73 10.73 9.1 11.5 9.1ZM9.73 3C9.9 3 10.06 3.08 10.15 3.22L11.49 5.24L13.41 3.32C13.77 2.96 14.34 2.93 14.73 3.24L14.82 3.32L15 3.5L12.43 6.07L13.33 6.22C14.29 6.38 15 7.22 15 8.19L15 10C15 10.28 14.78 10.5 14.5 10.5L13.7 10.5C13.7 9.28 12.72 8.3 11.5 8.3C10.28 8.3 9.3 9.28 9.3 10.5L5.7 10.5C5.7 9.28 4.72 8.3 3.5 8.3C2.28 8.3 1.3 9.28 1.3 10.5L0 10.5L0 7.5C0 7.22 0.22 7 0.5 7L6 7L6 4C6 3.45 6.45 3 7 3L9.73 3ZM9.5 4L7 4L7 6L10.75 6L9.5 4Z"/>
</svg>