<svg xmlns="http://www.w3.org/2000/svg" viewBox="0 0 15 15">
  <path d="M3.5 12.1C4.27 12.1 4.9 12.73 4.9 13.5C4.9 14.27 4.27 14.9 3.5 14.9C2.73 14.9 2.1 14.27 2.1 13.5C2.1 12.73 2.73 12.1 3.5 12.1ZM11.5 12.1C12.27 12.1 12.9 12.73 12.9 13.5C12.9 14.27 12.27 14.9 11.5 14.9C10.73 14.9 10.1 14.27 10.1 13.5C10.1 12.73 10.73 12.1 11.5 12.1ZM9.73 6C9.9 6 10.06 6.08 10.15 6.22L12 9L13.33 9.22C14.29 9.38 15 10.22 15 11.19L15 13C15 13.28 14.78 13.5 14.5 13.5L13.7 13.5C13.7 12.28 12.72 11.3 11.5 11.3C10.28 11.3 9.3 12.28 9.3 13.5L5.7 13.5C5.7 12.28 4.72 11.3 3.5 11.3C2.28 11.3 1.3 12.28 1.3 13.5L0 13.5L0 10.5C0 10.22 0.22 10 0.5 10L6 10L6 7C6 6.45 6.45 6 7 6L9.73 6ZM9.5 7L7 7L7 9L10.75 9L9.5 7ZM10.53 0C10.66 0 10.79 0.05 10.88 0.15L14.85 4.12C15.05 4.32 15.05 4.63 14.85 4.82L12.82 6.85C12.63 7.05 12.32 7.05 12.12 6.85L8.15 2.88C8.05 2.79 8 2.66 8 2.53L8 0.5C8 0.22 8.22 0 8.5 0L10.53 0ZM9.49 0.74C9.08 0.74 8.74 1.08 8.74 1.49C8.74 1.9 9.08 2.23 9.49 2.23C9.9 2.23 10.23 1.9 10.23 1.49C10.23 1.08 9.9 0.74 9.49 0.74Z"/>
</svg>