<svg xmlns="http://www.w3.org/2000/svg" viewBox="0 0 15 15">
  <path d="M3.5 11.1C4.27 11.1 4.9 11.73 4.9 12.5C4.9 13.27 4.27 13.9 3.5 13.9C2.73 13.9 2.1 13.27 2.1 12.5C2.1 11.73 2.73 11.1 3.5 11.1ZM11.5 11.1C12.27 11.1 12.9 11.73 12.9 12.5C12.9 13.27 12.27 13.9 11.5 13.9C10.73 13.9 10.1 13.27 10.1 12.5C10.1 11.73 10.73 11.1 11.5 11.1ZM10.73 5C10.9 5 11.06 5.08 11.15 5.22L13 8L13.89 8.45C14.57 8.79 15 9.48 15 10.24L15 12C15 12.28 14.78 12.5 14.5 12.5L13.7 12.5C13.7 11.28 12.72 10.3 11.5 10.3C10.28 10.3 9.3 11.28 9.3 12.5L5.7 12.5C5.7 11.28 4.72 10.3 3.5 10.3C2.28 10.3 1.3 11.28 1.3 12.5L0 12.5L0 9L8 9L8 6C8 5.45 8.45 5 9 5L10.73 5ZM3.5 0.5C4.28 0.5 4.92 1.09 4.99 1.86L5 2L10.66 2C10.87 2 11.05 2.12 11.13 2.31L11.73 3.81C11.83 4.07 11.7 4.36 11.45 4.46C11.39 4.49 11.33 4.5 11.26 4.5L8.5 4.5C7.95 4.5 7.5 4.95 7.5 5.5L7.5 8.5L0 8.5L0 2L1 2L1 1C1 0.72 1.22 0.5 1.5 0.5L3.5 0.5ZM10.5 6L9 6L9 8L11.75 8L10.5 6ZM5.5 4.5L2.5 4.5C2.22 4.5 2 4.72 2 5L2 6C2 6.28 2.22 6.5 2.5 6.5L5.5 6.5C5.78 6.5 6 6.28 6 6L6 5C6 4.72 5.78 4.5 5.5 4.5Z"/>
</svg>