<svg xmlns="http://www.w3.org/2000/svg" viewBox="0 0 15 15">
  <path d="M3.5 10.1C4.27 10.1 4.9 10.73 4.9 11.5C4.9 12.27 4.27 12.9 3.5 12.9C2.73 12.9 2.1 12.27 2.1 11.5C2.1 10.73 2.73 10.1 3.5 10.1ZM11.5 10.1C12.27 10.1 12.9 10.73 12.9 11.5C12.9 12.27 12.27 12.9 11.5 12.9C10.73 12.9 10.1 12.27 10.1 11.5C10.1 10.73 10.73 10.1 11.5 10.1ZM10.73 4C10.9 4 11.06 4.08 11.15 4.22L13 7L13.89 7.45C14.57 7.79 15 8.48 15 9.24L15 11C15 11.28 14.78 11.5 14.5 11.5L13.7 11.5C13.7 10.28 12.72 9.3 11.5 9.3C10.28 9.3 9.3 10.28 9.3 11.5L5.7 11.5C5.7 10.28 4.72 9.3 3.5 9.3C2.28 9.3 1.3 10.28 1.3 11.5L0 11.5L0 8L8 8L8 5C8 4.45 8.45 4 9 4L10.73 4ZM4 5L4 7.5L1 7.5L1 5L4 5ZM7.5 5L7.5 7.5L4.5 7.5L4.5 5L7.5 5ZM10.5 5L9 5L9 7L11.75 7L10.5 5ZM5.75 2L5.75 4.5L2.75 4.5L2.75 2L5.75 2Z"/>
</svg>