<svg xmlns="http://www.w3.org/2000/svg" viewBox="0 0 15 15">
  <path d="M2.68 8.57C1.2 8.57 0 9.77 0 11.25C0 12.73 1.2 13.93 2.68 13.93C4.16 13.93 5.36 12.73 5.36 11.25C5.36 9.77 4.16 8.57 2.68 8.57ZM2.68 12.86C1.79 12.86 1.07 12.14 1.07 11.25C1.07 10.36 1.79 9.64 2.68 9.64C3.57 9.64 4.29 10.36 4.29 11.25C4.29 12.14 3.57 12.86 2.68 12.86ZM0 2.14L0 8.63C0.68 7.94 1.63 7.5 2.68 7.5C4.56 7.5 6.11 8.9 6.37 10.71L11.79 10.71L11.79 13.93L12.86 13.93L12.86 10.71L15 10.71L15 2.14L0 2.14ZM12.86 5.36L8.57 9.64L9.64 6.43L8.57 6.43L10.71 3.21L12.86 3.21L11.79 5.36L12.86 5.36Z"/>
</svg>