<svg xmlns="http://www.w3.org/2000/svg" viewBox="0 0 15 15">
  <path d="M10.71 10.71a1.07 1.07 0 1 0 2.14 0a1.07 1.07 0 1 0 -2.14 0zM3.21 10.71a1.07 1.07 0 1 0 2.14 0a1.07 1.07 0 1 0 -2.14 0zM13.93 7.5L13.93 4.29L8.57 4.29L8.57 7.5L7.5 7.5L3.21 2.14L2.14 2.14L1.07 2.14L1.07 5.36L0 5.36L0 6.43L1.07 6.43L2.14 6.43L2.14 3.43L5.36 7.5L0 7.5L0 10.71L2.14 10.71C2.14 9.54 3.11 8.57 4.29 8.57C5.46 8.57 6.43 9.54 6.43 10.71L9.64 10.71C9.64 9.54 10.61 8.57 11.79 8.57C12.96 8.57 13.93 9.54 13.93 10.71L15 10.71L15 8.57L13.93 7.5ZM12.86 7.5L9.64 7.5L9.64 5.36L10.71 5.36L12.86 5.36L12.86 7.5Z"/>
</svg>