<svg xmlns="http://www.w3.org/2000/svg" viewBox="0 0 15 15">
  <path d="M10.23 4.09C10.84 4.09 11.52 4.84 11.59 5.45L11.59 7.5L13.64 8.86L13.64 12.95L12.95 12.95L12.95 13.98C12.95 14.52 12.48 15 11.93 15C11.39 15 10.91 14.59 10.91 13.98L10.91 12.95L4.09 12.95L4.09 13.98C4.09 14.59 3.61 15 3.07 15C2.52 15 2.05 14.59 2.05 13.98L2.05 12.95L1.36 12.95L1.36 8.86L3.41 7.5L3.41 5.45C3.48 4.84 4.16 4.09 4.77 4.09L10.23 4.09ZM3.07 11.05C3.55 11.05 3.89 10.7 3.89 10.23C3.89 9.75 3.55 9.41 3.07 9.41C2.59 9.41 2.25 9.75 2.25 10.23C2.25 10.7 2.59 11.05 3.07 11.05ZM10.23 11.59L10.23 9.55C10.23 8.86 9.75 8.86 9.55 8.86L5.45 8.86C5.25 8.86 4.77 8.86 4.77 9.55L4.77 11.59L10.23 11.59ZM12.75 10.23C12.75 9.75 12.41 9.41 11.93 9.41C11.45 9.41 11.11 9.75 11.11 10.23C11.11 10.7 11.45 11.05 11.93 11.05C12.41 11.05 12.75 10.7 12.75 10.23ZM10.91 7.5L10.91 5.45C10.91 5.11 10.57 4.77 10.23 4.77L4.77 4.77C4.43 4.77 4.09 5.11 4.09 5.45L4.09 7.5L10.91 7.5ZM12.41 0C13.02 0 13.64 0.48 13.64 1.09L13.64 8.18L12.27 7.5L12.27 5.45C12.27 4.09 11.59 3.41 10.91 3.41L4.09 3.41C3.41 3.41 2.73 4.09 2.73 5.45L2.73 7.5L1.36 8.18L1.36 1.09C1.36 0.48 1.98 0 2.59 0L12.41 0Z"/>
</svg>