<svg xmlns="http://www.w3.org/2000/svg" viewBox="0 0 15 15">
<path d="M4.5 0C3.09 0 1.8 0.24 0.62 0.72C0.25 0.87 0 1.24 0 1.64L0 4.5C0 4.78 0.22 5 0.5 5C0.78 5 1 4.78 1 4.5L1 2L2 2L2 4.5C2 4.78 2.22 5 2.5 5C2.78 5 3 4.78 3 4.5L3 2L4 2L4 4.5C4 4.78 4.22 5 4.5 5C4.78 5 5 4.78 5 4.5L5 2L6 2L6 4.5C6 4.78 6.22 5 6.5 5C6.78 5 7 4.78 7 4.5L7 2L8 2L8 4.5C8 4.78 8.22 5 8.5 5C8.78 5 9 4.78 9 4.5L9 1.64C9 1.24 8.75 0.87 8.38 0.72L8.02 0.58C6.94 0.19 5.77 0 4.5 0ZM10.62 6.99C10.61 6.99 10.6 6.99 10.59 6.99C8.83 7.3 8.95 10.25 10.36 10.01C10.77 9.94 11.07 9.58 11.11 9.14C11.16 8.69 11.27 6.93 10.62 6.99ZM12.36 6.99C11.78 7.04 11.87 8.71 11.92 9.14C11.96 9.58 12.27 9.94 12.67 10.01C14.08 10.25 14.2 7.3 12.45 6.99C12.41 6.99 12.38 6.99 12.36 6.99ZM8.38 10.06C8.36 10.06 8.34 10.07 8.32 10.08C7.96 10.4 7.97 11.17 8.19 11.73C8.3 12.04 8.57 12.26 8.89 12.26C9.3 12.26 9.64 11.88 9.64 11.41C9.64 11.17 9.56 10.96 9.42 10.81C9.22 10.55 8.62 10.04 8.38 10.06ZM14.63 10.06C14.37 10.07 13.81 10.55 13.61 10.81C13.48 10.96 13.39 11.17 13.39 11.41C13.39 11.88 13.73 12.26 14.15 12.26C14.47 12.26 14.73 12.04 14.85 11.73C15.06 11.17 15.07 10.4 14.71 10.08C14.69 10.06 14.66 10.06 14.63 10.06ZM11.52 10.46C11.04 10.46 10.64 10.79 10.51 11.21C10.36 11.75 10.45 12.38 9.75 12.73C9.19 12.92 8.95 13.19 8.95 13.83C8.95 14.34 9.4 14.9 9.97 14.97C10.61 15.06 11.11 14.94 11.52 14.71C11.92 14.94 12.42 15.06 13.06 14.97C13.64 14.9 14.08 14.35 14.08 13.83C14.08 13.18 13.86 12.93 13.3 12.74C12.65 12.42 12.68 11.81 12.53 11.24C12.42 10.8 12.01 10.46 11.52 10.46Z" />
</svg>
