<svg xmlns="http://www.w3.org/2000/svg" viewBox="0 0 15 15">
<path d="M1.1 0.05 2.12 5.21H3.5L4.54 0.05ZM2.81 6.24C2.06 6.24 1.44 6.85 1.44 7.61 1.44 8.37 2.06 8.99 2.81 8.99 3.57 8.99 4.19 8.37 4.19 7.61 4.19 6.85 3.57 6.24 2.81 6.24ZM10.67 7.07V7.07L10.67 7.08V7.08H10.67V7.08H10.67V7.08H10.66 10.66C8.93 7.37 9.05 10.28 10.43 10.04 10.84 9.98 11.14 9.61 11.18 9.19 11.23 8.75 11.33 7.07 10.72 7.07H10.71 10.7 10.68ZM12.4 7.07C11.83 7.12 11.92 8.76 11.97 9.19 12.01 9.61 12.31 9.98 12.71 10.04 14.09 10.28 14.22 7.37 12.49 7.08 12.47 7.07 12.45 7.07 12.43 7.07ZM8.49 10.09C8.47 10.09 8.45 10.1 8.43 10.11 8.07 10.42 8.09 11.18 8.3 11.74 8.42 12.05 8.67 12.26 8.99 12.26 9.39 12.26 9.73 11.88 9.73 11.41 9.73 11.18 9.65 10.98 9.51 10.83 9.32 10.58 8.76 10.1 8.52 10.09ZM14.64 10.09C14.38 10.1 13.82 10.58 13.63 10.83 13.5 10.98 13.41 11.18 13.41 11.41 13.41 11.88 13.75 12.26 14.16 12.26 14.48 12.26 14.73 12.05 14.85 11.74 15.06 11.18 15.07 10.42 14.73 10.11 14.7 10.09 14.67 10.09 14.64 10.09ZM11.58 10.49C11.11 10.49 10.71 10.81 10.58 11.22 10.43 11.76 10.52 12.38 9.84 12.72 9.28 12.9 9.05 13.17 9.05 13.8 9.05 14.3 9.49 14.85 10.06 14.92 10.68 15.01 11.18 14.89 11.58 14.66 11.97 14.89 12.46 15.01 13.1 14.92 13.66 14.85 14.1 14.31 14.1 13.8 14.1 13.16 13.88 12.91 13.32 12.73 12.69 12.42 12.72 11.81 12.58 11.25 12.46 10.82 12.05 10.49 11.58 10.49Z"/>
</svg>
