<svg xmlns="http://www.w3.org/2000/svg" viewBox="0 0 15 15">
<path d="M7.42 0L5.73 0.01C5.13 0 5.13 0 5.13 0.56L5.12 2.04L7.99 2.04L8 0.49C7.98 0 7.98 0 7.42 0ZM7.42 0.58L7.44 1.71L5.78 1.72L5.76 0.59L7.42 0.58ZM1.13 1.13C0.57 1.14 0.57 1.71 0.6 2.01L2.3 1.99C2.28 1.71 2.28 1.14 1.72 1.13L1.13 1.13ZM1.09 2.27C0 2.28 0 2.39 0 3.41L0.01 6.86C-0 7.98 0 7.98 1.1 8L6.87 7.98C7.98 7.98 7.98 7.98 8.01 6.83L8.01 3.42C7.98 2.28 7.98 2.28 6.87 2.28L1.09 2.27ZM4.56 2.86C5.82 2.86 6.84 3.88 6.84 5.14C6.84 6.4 5.82 7.42 4.56 7.42C3.3 7.42 2.28 6.4 2.28 5.14C2.28 3.88 3.3 2.86 4.56 2.86ZM4.56 3.73C3.78 3.73 3.14 4.36 3.14 5.15C3.14 5.94 3.78 6.57 4.56 6.57C5.35 6.57 5.99 5.94 5.99 5.15C5.99 4.36 5.35 3.73 4.56 3.73ZM10.67 7.07L10.67 7.08L10.66 7.08C8.93 7.37 9.05 10.28 10.43 10.04C10.84 9.98 11.14 9.61 11.18 9.19C11.23 8.75 11.33 7.07 10.72 7.07L10.71 7.07L10.7 7.07L10.68 7.07L10.67 7.07ZM12.4 7.07C11.83 7.12 11.92 8.76 11.97 9.19C12.01 9.61 12.31 9.98 12.71 10.04C14.09 10.28 14.22 7.37 12.49 7.08C12.47 7.07 12.45 7.07 12.43 7.07L12.4 7.07ZM8.47 10.09C8.46 10.09 8.45 10.1 8.43 10.11C8.07 10.42 8.09 11.18 8.3 11.74C8.42 12.05 8.67 12.26 8.99 12.26C9.39 12.26 9.73 11.88 9.73 11.41C9.73 11.18 9.65 10.98 9.51 10.83C9.32 10.58 8.76 10.1 8.52 10.09L8.49 10.09L8.48 10.09C8.48 10.09 8.47 10.09 8.47 10.09ZM14.64 10.09C14.38 10.1 13.82 10.58 13.63 10.83C13.5 10.98 13.41 11.18 13.41 11.41C13.41 11.88 13.75 12.26 14.16 12.26C14.48 12.26 14.73 12.05 14.85 11.74C15.06 11.18 15.07 10.42 14.73 10.11C14.7 10.09 14.67 10.09 14.64 10.09ZM11.58 10.49C11.11 10.49 10.71 10.81 10.58 11.22C10.43 11.76 10.52 12.38 9.84 12.72C9.28 12.9 9.05 13.17 9.05 13.8C9.05 14.3 9.49 14.85 10.06 14.92C10.68 15.01 11.18 14.89 11.58 14.66C11.97 14.89 12.46 15.01 13.1 14.92C13.66 14.85 14.1 14.31 14.1 13.8C14.1 13.16 13.88 12.91 13.32 12.73C12.69 12.42 12.72 11.81 12.58 11.25C12.46 10.82 12.05 10.49 11.58 10.49Z"/>
</svg>