<svg xmlns="http://www.w3.org/2000/svg" viewBox="0 0 15 15">
<path d="M1.91 0.05C1.54 0.06 1.18 0.18 0.88 0.41L0.77 0.49 0.68 0.57C-0.13 1.32 -0.16 2.57 0.59 3.39L3.55 6.53 3.57 6.56C3.84 6.82 4.26 6.8 4.51 6.53L7.46 3.39C7.52 3.32 7.57 3.26 7.62 3.19 8.27 2.31 8.07 1.05 7.17 0.41 7.08 0.34 6.99 0.28 6.88 0.23 5.94 -0.21 4.83 0.19 4.39 1.12L4.03 1.9 3.66 1.12C3.61 1.01 3.55 0.91 3.48 0.82 3.1 0.3 2.51 0.03 1.91 0.05ZM10.62 7.07V7.07 7.07C10.62 7.08 10.61 7.08 10.61 7.08 8.88 7.37 9 10.28 10.38 10.04 10.79 9.98 11.09 9.62 11.13 9.19 11.18 8.75 11.28 7.07 10.67 7.07H10.66 10.65 10.63ZM12.35 7.07C11.78 7.12 11.87 8.76 11.92 9.19 11.96 9.62 12.26 9.98 12.66 10.04 14.04 10.28 14.17 7.37 12.44 7.08 12.42 7.07 12.4 7.07 12.38 7.07ZM8.44 10.09C8.42 10.09 8.4 10.1 8.38 10.11 8.02 10.42 8.04 11.19 8.25 11.74 8.37 12.05 8.62 12.26 8.94 12.26 9.34 12.26 9.68 11.88 9.68 11.41 9.68 11.19 9.6 10.98 9.46 10.83 9.27 10.58 8.71 10.1 8.47 10.09ZM14.58 10.09C14.33 10.1 13.77 10.58 13.58 10.83 13.45 10.98 13.36 11.19 13.36 11.41 13.36 11.88 13.7 12.26 14.11 12.26 14.43 12.26 14.68 12.05 14.8 11.74 15.01 11.19 15.02 10.42 14.67 10.11 14.64 10.09 14.61 10.09 14.58 10.09ZM11.52 10.49C11.06 10.49 10.66 10.81 10.53 11.23 10.38 11.76 10.47 12.38 9.79 12.73 9.23 12.9 9 13.17 9 13.8 9 14.3 9.44 14.85 10 14.92 10.63 15.01 11.13 14.89 11.52 14.66 11.92 14.89 12.41 15.01 13.04 14.92 13.61 14.85 14.05 14.31 14.05 13.8 14.05 13.16 13.83 12.91 13.27 12.74 12.64 12.42 12.67 11.81 12.53 11.26 12.41 10.82 12 10.49 11.52 10.49Z" />
</svg>
