<svg xmlns="http://www.w3.org/2000/svg" viewBox="0 0 15 15">
  <path d="M7.5 6.44C8.34 6.44 9.05 7.01 9.25 7.78C9.5 8.75 9.46 9.81 10.57 10.36C11.54 10.69 11.92 11.11 11.92 12.23C11.92 13.13 11.15 14.08 10.16 14.2C9.06 14.36 8.2 14.15 7.5 13.75C6.8 14.15 5.94 14.36 4.84 14.2C3.85 14.08 3.08 13.12 3.08 12.23C3.08 11.13 3.48 10.67 4.46 10.35C5.66 9.74 5.5 8.66 5.76 7.73C5.98 6.99 6.68 6.44 7.5 6.44L7.5 6.44ZM13.01 5.78C12.71 5.52 11.49 6.53 11.11 7.03C10.88 7.29 10.73 7.66 10.73 8.06C10.73 8.88 11.32 9.54 12.03 9.54C12.58 9.54 13.04 9.16 13.24 8.62C13.61 7.65 13.63 6.32 13.01 5.78L13.01 5.78ZM1.99 5.78C1.37 6.32 1.39 7.65 1.76 8.62C1.96 9.16 2.42 9.54 2.97 9.54C3.68 9.54 4.27 8.88 4.27 8.06C4.27 7.66 4.12 7.29 3.89 7.03C3.5 6.53 2.29 5.52 1.99 5.78ZM9.1 0.46C12.13 0.98 11.91 6.07 9.49 5.66C8.79 5.54 8.27 4.91 8.19 4.15C8.11 3.37 7.93 0.26 9.1 0.46L9.1 0.46ZM5.9 0.46C7.07 0.26 6.89 3.37 6.8 4.15C6.73 4.91 6.21 5.54 5.51 5.66C3.08 6.07 2.87 0.98 5.9 0.46Z"/>
</svg>