<svg xmlns="http://www.w3.org/2000/svg" viewBox="0 0 15 15">
<path d="M5.4 0.05C5.03 0.06 4.68 0.18 4.38 0.41L4.26 0.49 4.17 0.57C3.37 1.31 3.34 2.55 4.08 3.37L7.03 6.49 7.04 6.52C7.31 6.78 7.73 6.76 7.98 6.49L10.92 3.37C10.98 3.3 11.02 3.24 11.07 3.17 11.71 2.3 11.51 1.04 10.62 0.41 10.53 0.34 10.45 0.28 10.34 0.23 9.41 -0.21 8.31 0.19 7.87 1.11L7.5 1.89 7.13 1.11C7.08 1 7.03 0.9 6.97 0.82 6.59 0.3 5.99 0.03 5.4 0.05ZM2.55 7.12V7.12 7.12 7.13 7.13 7.13 7.13H2.54V7.13 7.13C0.83 7.42 0.95 10.31 2.32 10.07 2.72 10.01 3.02 9.66 3.06 9.23 3.11 8.79 3.21 7.12 2.6 7.12H2.59 2.58 2.56ZM4.27 7.12C3.71 7.17 3.8 8.8 3.85 9.23 3.89 9.66 4.18 10.01 4.58 10.07 5.95 10.31 6.08 7.42 4.36 7.13 4.34 7.12 4.32 7.12 4.3 7.12ZM10.65 7.12V7.12 7.12 7.13 7.13 7.13 7.13 7.13H10.64V7.13C8.92 7.42 9.04 10.31 10.41 10.07 10.82 10.01 11.12 9.66 11.16 9.23 11.21 8.79 11.31 7.12 10.7 7.12H10.69 10.68 10.66ZM12.37 7.12C11.8 7.17 11.89 8.8 11.94 9.23 11.98 9.66 12.28 10.01 12.68 10.07 14.05 10.31 14.18 7.42 12.46 7.13 12.44 7.12 12.42 7.12 12.4 7.12ZM0.38 10.12C0.36 10.12 0.35 10.13 0.33 10.14 -0.03 10.45 -0.01 11.22 0.2 11.76 0.32 12.07 0.57 12.28 0.89 12.28 1.28 12.28 1.62 11.9 1.62 11.43 1.62 11.22 1.54 11.01 1.4 10.86 1.21 10.61 0.66 10.13 0.42 10.12H0.39ZM6.49 10.12C6.24 10.13 5.68 10.61 5.5 10.86 5.37 11.01 5.28 11.22 5.28 11.43 5.28 11.9 5.61 12.28 6.02 12.28 6.34 12.28 6.59 12.07 6.71 11.76 6.92 11.22 6.93 10.45 6.58 10.14 6.55 10.12 6.52 10.12 6.49 10.12ZM8.48 10.12C8.46 10.12 8.45 10.13 8.43 10.14 8.07 10.45 8.09 11.22 8.3 11.76 8.42 12.07 8.66 12.28 8.98 12.28 9.38 12.28 9.72 11.9 9.72 11.43 9.72 11.22 9.64 11.01 9.5 10.86 9.31 10.61 8.75 10.13 8.51 10.12H8.49C8.49 10.12 8.49 10.12 8.49 10.12ZM14.58 10.12C14.34 10.13 13.78 10.61 13.59 10.86 13.46 11.01 13.37 11.22 13.37 11.43 13.37 11.9 13.71 12.28 14.12 12.28 14.44 12.28 14.68 12.07 14.8 11.76 15.01 11.22 15.02 10.45 14.67 10.14 14.64 10.12 14.61 10.12 14.58 10.12ZM3.45 10.52C2.99 10.52 2.59 10.84 2.47 11.26 2.32 11.78 2.41 12.4 1.73 12.75 1.17 12.91 0.95 13.18 0.95 13.81 0.95 14.3 1.38 14.85 1.94 14.92 2.56 15.01 3.06 14.89 3.45 14.66 3.85 14.89 4.33 15.01 4.96 14.92 5.52 14.85 5.96 14.31 5.96 13.81 5.96 13.17 5.74 12.92 5.19 12.76 4.56 12.44 4.59 11.83 4.45 11.29 4.33 10.85 3.93 10.52 3.45 10.52ZM11.54 10.52C11.09 10.52 10.69 10.84 10.56 11.26 10.41 11.78 10.5 12.4 9.83 12.75 9.27 12.91 9.04 13.18 9.04 13.81 9.04 14.3 9.48 14.85 10.03 14.92 10.66 15.01 11.16 14.89 11.54 14.66 11.94 14.89 12.43 15.01 13.05 14.92 13.62 14.85 14.06 14.31 14.06 13.81 14.06 13.17 13.84 12.92 13.28 12.76 12.66 12.44 12.69 11.83 12.55 11.29 12.43 10.85 12.02 10.52 11.54 10.52Z" />
</svg>
