<svg xmlns="http://www.w3.org/2000/svg" viewBox="0 0 15 15">
<path d="M3.89 0C3.29 0 2.67 0.52 2.09 1.2C0.88 2.61 0 7.48 0 7.78C0 8.07 0.9 8.07 0.9 7.78C1.2 6.58 1.94 4.26 2.39 3.29C2.46 3.65 2.69 3.89 2.99 3.89C3.29 3.89 5.68 0.9 5.68 0.6C5.38 0.3 4.79 0 3.89 0ZM6.04 1.6C5.9 1.62 5.74 1.89 5.85 1.97C5.98 2.08 6.1 2.16 6.21 2.24C6.33 2.32 6.61 1.98 6.48 1.88C6.36 1.78 6.27 1.73 6.11 1.62C6.09 1.6 6.06 1.59 6.04 1.6ZM7.14 2.38C7 2.4 6.82 2.69 6.94 2.76C7.08 2.88 7.17 2.93 7.3 3.03C7.44 3.13 7.68 2.74 7.57 2.66C7.46 2.58 7.36 2.5 7.2 2.4C7.18 2.39 7.16 2.38 7.14 2.38ZM5.12 2.65C4.97 2.67 4.8 2.89 4.93 3C5.09 3.16 5.14 3.22 5.25 3.31C5.37 3.41 5.66 3.09 5.56 2.99C5.46 2.89 5.37 2.8 5.24 2.68C5.21 2.65 5.17 2.64 5.12 2.65ZM8.23 3.17C8.08 3.17 7.95 3.48 8.03 3.55C8.13 3.63 8.26 3.72 8.4 3.82C8.53 3.91 8.76 3.53 8.66 3.45C8.56 3.37 8.51 3.33 8.3 3.19C8.28 3.17 8.25 3.17 8.23 3.17ZM6.15 3.59C6.02 3.6 5.82 3.85 5.9 3.94C6.06 4.09 6.12 4.14 6.23 4.24C6.33 4.34 6.67 4.05 6.54 3.92C6.4 3.79 6.32 3.71 6.21 3.61C6.2 3.59 6.18 3.59 6.15 3.59ZM4.2 3.68C4.03 3.69 3.89 3.88 4.01 4.03C4.18 4.23 4.19 4.25 4.29 4.38C4.4 4.5 4.77 4.24 4.64 4.1C4.52 3.95 4.44 3.84 4.36 3.74C4.31 3.7 4.25 3.68 4.2 3.68ZM7.09 4.5C6.94 4.51 6.77 4.77 6.88 4.86C7 4.98 7.08 5.05 7.2 5.17C7.33 5.3 7.64 4.97 7.51 4.85C7.37 4.73 7.34 4.69 7.18 4.54C7.16 4.51 7.12 4.5 7.09 4.5ZM5.09 4.74C4.94 4.74 4.76 4.95 4.86 5.08C4.99 5.23 5.04 5.31 5.14 5.43C5.25 5.54 5.63 5.33 5.49 5.14C5.39 5.01 5.35 4.96 5.21 4.8C5.18 4.76 5.14 4.74 5.09 4.74ZM8.09 5.44C7.94 5.44 7.72 5.65 7.85 5.79C8.01 5.96 8.06 6.01 8.18 6.1C8.29 6.19 8.59 5.89 8.48 5.78C8.38 5.66 8.28 5.58 8.16 5.47C8.14 5.45 8.11 5.44 8.09 5.44ZM5.95 5.8C5.8 5.81 5.6 5.98 5.71 6.12C5.84 6.3 5.85 6.3 5.99 6.47C6.12 6.65 6.43 6.31 6.33 6.19C6.24 6.07 6.15 5.96 6.05 5.84C6.03 5.81 5.99 5.8 5.95 5.8ZM6.79 6.83C6.64 6.83 6.46 7.07 6.55 7.17C6.66 7.3 6.73 7.39 6.83 7.52C6.93 7.64 7.3 7.38 7.18 7.24C7.06 7.09 7.06 7.08 6.9 6.89C6.87 6.84 6.83 6.83 6.79 6.83ZM10.64 7.07L10.64 7.07L10.64 7.07C10.64 7.08 10.63 7.08 10.63 7.08C8.89 7.37 9.01 10.3 10.4 10.06C10.81 10 11.11 9.63 11.15 9.2C11.2 8.76 11.3 7.07 10.69 7.07L10.68 7.07L10.67 7.07L10.65 7.07C10.65 7.07 10.64 7.07 10.64 7.07L10.64 7.07ZM12.38 7.07C11.81 7.12 11.9 8.77 11.95 9.2C11.99 9.63 12.29 10 12.69 10.06C14.08 10.3 14.21 7.37 12.47 7.08C12.45 7.07 12.43 7.07 12.41 7.07L12.38 7.07ZM8.44 10.11C8.42 10.11 8.4 10.12 8.38 10.13C8.02 10.44 8.04 11.21 8.25 11.77C8.37 12.08 8.63 12.29 8.95 12.29C9.35 12.29 9.69 11.91 9.69 11.44C9.69 11.21 9.61 11 9.47 10.85C9.28 10.6 8.72 10.12 8.47 10.11L8.44 10.11ZM14.63 10.11C14.37 10.12 13.81 10.6 13.62 10.85C13.49 11 13.4 11.21 13.4 11.44C13.4 11.91 13.74 12.29 14.15 12.29C14.47 12.29 14.73 12.08 14.85 11.77C15.06 11.21 15.07 10.44 14.72 10.13C14.69 10.11 14.66 10.11 14.63 10.11ZM11.55 10.51C11.08 10.51 10.68 10.83 10.55 11.25C10.4 11.79 10.49 12.41 9.8 12.76C9.24 12.94 9.01 13.21 9.01 13.84C9.01 14.35 9.45 14.9 10.02 14.97C10.65 15.06 11.15 14.94 11.55 14.71C11.95 14.94 12.44 15.06 13.08 14.97C13.65 14.9 14.09 14.36 14.09 13.84C14.09 13.2 13.87 12.95 13.31 12.77C12.67 12.45 12.7 11.84 12.56 11.28C12.44 10.84 12.03 10.51 11.55 10.51Z" />
</svg>
