<svg xmlns="http://www.w3.org/2000/svg" viewBox="0 0 15 15">
<path d="M3.46 0C1.6 0.19 0.14 1.69 0 3.56L0 3.94C0 4.12 0.05 4.29 0.15 4.44C0.62 4.96 1.14 5.45 1.69 5.89L1.69 6.87C1.67 7.04 1.77 7.19 1.92 7.27L3.74 8L3.8 8L5.62 7.27C5.78 7.21 5.89 7.05 5.89 6.87L5.89 5.89C6.43 5.45 6.93 4.96 7.4 4.44C7.51 4.29 7.57 4.12 7.57 3.94L7.57 3.56C7.43 1.69 5.97 0.18 4.09 0L3.76 0L3.46 0ZM1.69 2.53C2.14 2.53 2.52 2.91 2.52 3.37C2.52 3.83 2.14 4.21 1.69 4.21C1.22 4.21 0.84 3.83 0.84 3.37C0.84 2.91 1.22 2.53 1.69 2.53ZM5.89 2.53C6.35 2.53 6.73 2.91 6.73 3.37C6.73 3.83 6.35 4.21 5.89 4.21C5.43 4.21 5.05 3.83 5.05 3.37C5.05 2.91 5.43 2.53 5.89 2.53ZM2.94 5.47C3.18 5.47 3.37 5.66 3.37 5.89L3.37 6.31C3.37 6.55 3.18 6.74 2.94 6.74C2.71 6.74 2.52 6.55 2.52 6.31L2.52 5.89C2.52 5.66 2.71 5.47 2.94 5.47ZM4.63 5.47C4.86 5.47 5.05 5.66 5.05 5.89L5.05 6.31C5.05 6.55 4.86 6.74 4.63 6.74C4.39 6.74 4.21 6.55 4.21 6.31L4.21 5.89C4.21 5.66 4.39 5.47 4.63 5.47ZM10.64 7.07L10.64 7.07L10.64 7.07C10.64 7.08 10.63 7.08 10.63 7.08C8.89 7.37 9.01 10.3 10.4 10.06C10.81 10 11.11 9.63 11.15 9.2C11.2 8.76 11.3 7.07 10.69 7.07L10.68 7.07L10.67 7.07L10.65 7.07C10.65 7.07 10.64 7.07 10.64 7.07L10.64 7.07ZM12.38 7.07C11.81 7.12 11.9 8.77 11.95 9.2C11.99 9.63 12.29 10 12.69 10.06C14.08 10.3 14.21 7.37 12.47 7.08C12.45 7.07 12.43 7.07 12.41 7.07L12.38 7.07ZM8.44 10.11C8.42 10.11 8.4 10.12 8.38 10.13C8.02 10.44 8.04 11.21 8.25 11.77C8.37 12.08 8.63 12.29 8.95 12.29C9.35 12.29 9.69 11.91 9.69 11.44C9.69 11.21 9.61 11 9.47 10.85C9.28 10.6 8.72 10.12 8.47 10.11L8.44 10.11ZM14.63 10.11C14.37 10.12 13.81 10.6 13.62 10.85C13.49 11 13.4 11.21 13.4 11.44C13.4 11.91 13.74 12.29 14.15 12.29C14.47 12.29 14.73 12.08 14.85 11.77C15.06 11.21 15.07 10.44 14.72 10.13C14.69 10.11 14.66 10.11 14.63 10.11ZM11.55 10.51C11.08 10.51 10.68 10.83 10.55 11.25C10.4 11.79 10.49 12.41 9.8 12.76C9.24 12.94 9.01 13.21 9.01 13.84C9.01 14.35 9.45 14.9 10.02 14.97C10.65 15.06 11.15 14.94 11.55 14.71C11.95 14.94 12.44 15.06 13.08 14.97C13.65 14.9 14.09 14.36 14.09 13.84C14.09 13.2 13.87 12.95 13.31 12.77C12.67 12.45 12.7 11.84 12.56 11.28C12.44 10.84 12.03 10.51 11.55 10.51Z" />
</svg>
