<svg xmlns="http://www.w3.org/2000/svg" viewBox="0 0 15 15">
<path d="M1.54 0.05C1.06 0.05 0.57 1.52 0.07 4.47 0.05 4.55 0.05 4.63 0.05 4.71 0.05 5.41 0.54 6 1.2 6.13V8H1.81V6.13C2.56 5.97 3.06 5.24 2.95 4.47 2.49 1.52 2.02 0.05 1.54 0.05ZM3.64 4.33V5.86H7.31V4.33ZM3.03 6.16V8H3.64V6.77H7.31V8H7.92V6.16ZM10.62 7.07V7.07H10.62L10.62 7.08C10.62 7.08 10.61 7.08 10.61 7.08 8.88 7.37 9 10.28 10.38 10.04 10.79 9.98 11.09 9.61 11.13 9.19 11.18 8.75 11.28 7.07 10.67 7.07H10.66 10.65 10.63C10.63 7.07 10.63 7.07 10.63 7.07H10.62ZM12.35 7.07C11.78 7.12 11.87 8.76 11.92 9.19 11.96 9.61 12.26 9.98 12.66 10.04 14.04 10.28 14.17 7.37 12.44 7.08 12.42 7.07 12.4 7.07 12.38 7.07ZM8.44 10.09C8.42 10.09 8.4 10.1 8.38 10.11 8.02 10.42 8.04 11.18 8.25 11.74 8.37 12.05 8.63 12.26 8.94 12.26 9.34 12.26 9.68 11.88 9.68 11.41 9.68 11.18 9.6 10.98 9.46 10.83 9.27 10.58 8.71 10.1 8.47 10.09ZM14.59 10.09C14.33 10.1 13.77 10.58 13.58 10.83 13.45 10.98 13.36 11.18 13.36 11.41 13.36 11.88 13.7 12.26 14.11 12.26 14.43 12.26 14.69 12.05 14.8 11.74 15.01 11.18 15.02 10.42 14.67 10.11 14.64 10.09 14.61 10.09 14.59 10.09ZM11.53 10.49C11.06 10.49 10.66 10.81 10.53 11.22 10.38 11.76 10.47 12.38 9.79 12.72 9.23 12.9 9 13.17 9 13.8 9 14.3 9.44 14.85 10.01 14.92 10.63 15.01 11.13 14.89 11.53 14.66 11.92 14.89 12.41 15.01 13.04 14.92 13.61 14.85 14.05 14.31 14.05 13.8 14.05 13.16 13.83 12.91 13.27 12.73 12.64 12.42 12.67 11.81 12.53 11.25 12.41 10.82 12 10.49 11.53 10.49Z" />
</svg>
