<svg xmlns="http://www.w3.org/2000/svg" viewBox="0 0 15 15">
  <path d="M4.27 10.63C4.57 10.92 4.58 11.39 4.29 11.69L2.79 13.27C2.51 13.57 2.03 13.58 1.73 13.29C1.43 13.01 1.42 12.53 1.71 12.23L3.21 10.66C3.49 10.36 3.97 10.35 4.27 10.63ZM8.37 8.06C8.51 8.36 8.74 8.59 9.04 8.73C8.94 9 8.93 9.29 9 9.56L3.32 9.56L1.29 11.69C1.01 11.99 0.53 12 0.23 11.72C-0.07 11.43 -0.08 10.96 0.21 10.66L2.68 8.06L8.37 8.06ZM12 4.5C12.33 4.5 12.6 4.77 12.6 5.1L12.6 5.8C12.66 5.82 12.72 5.85 12.78 5.88L13.27 5.38C13.51 5.14 13.89 5.14 14.12 5.38C14.36 5.61 14.36 5.99 14.12 6.23L13.62 6.72C13.65 6.78 13.68 6.84 13.7 6.9L14.4 6.9C14.73 6.9 15 7.17 15 7.5C15 7.83 14.73 8.1 14.4 8.1L13.7 8.1C13.68 8.16 13.65 8.22 13.62 8.28L14.12 8.77C14.36 9.01 14.36 9.39 14.12 9.62C13.89 9.86 13.51 9.86 13.27 9.62L12.78 9.12C12.72 9.15 12.66 9.18 12.6 9.2L12.6 9.9C12.6 10.23 12.33 10.5 12 10.5C11.67 10.5 11.4 10.23 11.4 9.9L11.4 9.2C11.34 9.18 11.28 9.15 11.22 9.12L10.73 9.62C10.49 9.86 10.11 9.86 9.88 9.62L9.82 9.56C9.67 9.35 9.66 9.06 9.81 8.85L9.84 8.81L10.38 8.28C10.35 8.22 10.32 8.16 10.3 8.1L9.6 8.1C9.57 8.1 9.53 8.1 9.5 8.09C9.46 8.09 9.43 8.08 9.39 8.06C9.16 7.98 9 7.76 9 7.5C9 7.24 9.16 7.02 9.39 6.94C9.43 6.92 9.46 6.91 9.5 6.91C9.53 6.9 9.57 6.9 9.6 6.9L10.3 6.9C10.32 6.84 10.35 6.78 10.38 6.72L9.88 6.23C9.85 6.2 9.83 6.18 9.81 6.15C9.66 5.94 9.67 5.65 9.82 5.44L9.88 5.38C10.11 5.14 10.49 5.14 10.73 5.38L11.22 5.88C11.28 5.85 11.34 5.82 11.4 5.8L11.4 5.1C11.4 4.77 11.67 4.5 12 4.5ZM1.29 3.31L3.32 5.44L9 5.44C8.93 5.71 8.94 6 9.04 6.27C8.74 6.41 8.51 6.64 8.37 6.94L2.68 6.94L0.21 4.34C-0.08 4.04 -0.07 3.57 0.23 3.28C0.53 3 1.01 3.01 1.29 3.31ZM2.79 1.73L4.29 3.31C4.58 3.61 4.57 4.08 4.27 4.37C3.97 4.65 3.49 4.64 3.21 4.34L1.71 2.77C1.42 2.47 1.43 1.99 1.73 1.71C2.03 1.42 2.51 1.43 2.79 1.73Z"/>
</svg>