<svg xmlns="http://www.w3.org/2000/svg" viewBox="0 0 15 15">
  <path d="M4.82 0L4.82 1.59C5.31 1.72 5.72 1.99 5.99 2.36L7.09 1.34L8.23 2.41L6.49 4.02C6.78 5.22 7.23 6.03 7.56 6.53L9.11 5.09L10.26 6.16L8.71 7.59C9.19 7.85 9.96 8.16 11.14 8.39L12.2 6.41L13.65 7.09L12.74 8.78C13.7 9.3 14.33 10.45 14.1 11.57L15 12.13L14.1 13.37L13.31 12.89C12.85 13.27 12.14 13.46 11.31 13.5L11.31 15L9.69 15L9.69 13.38C8.82 13.24 7.9 12.98 7.02 12.61L6.36 13.84L4.91 13.16L5.6 11.89C5.06 11.57 4.57 11.21 4.14 10.81L4.07 10.75L2.96 11.78L1.82 10.72L3.03 9.59L3.11 9.67C2.62 9.01 2.21 8.28 1.89 7.54L0.56 7.85L0.17 6.4L1.4 6.11C1.2 5.3 1.12 4.52 1.21 3.85L0 3.3L0.73 1.95L1.79 2.45C1.85 2.39 1.91 2.34 1.97 2.29C2.36 1.97 2.78 1.76 3.2 1.63L3.2 0L4.82 0ZM10.9 10.5C10.45 10.5 10.09 10.84 10.09 11.25C10.09 11.66 10.45 12 10.9 12C11.35 12 11.71 11.66 11.71 11.25C11.71 10.84 11.35 10.5 10.9 10.5ZM7.66 9C7.21 9 6.85 9.34 6.85 9.75C6.85 10.16 7.21 10.5 7.66 10.5C8.11 10.5 8.47 10.16 8.47 9.75C8.47 9.34 8.11 9 7.66 9ZM4.42 6.75C3.97 6.75 3.61 7.09 3.61 7.5C3.61 7.91 3.97 8.25 4.42 8.25C4.86 8.25 5.23 7.91 5.23 7.5C5.23 7.09 4.86 6.75 4.42 6.75ZM4.42 3.38C3.97 3.38 3.61 3.71 3.61 4.13C3.61 4.54 3.97 4.88 4.42 4.88C4.86 4.88 5.23 4.54 5.23 4.13C5.23 3.71 4.86 3.38 4.42 3.38Z"/>
</svg>