<svg xmlns="http://www.w3.org/2000/svg" viewBox="0 0 15 15">
  <path d="M5.57 0.75C6.74 0.75 7.88 1.07 8.76 1.66C9.63 2.24 10.4 3.21 10.4 4.49C10.4 5.77 9.63 6.74 8.76 7.32C7.97 7.85 6.97 8.16 5.92 8.22C6.53 8.94 6.6 9.85 6.48 10.54C6.36 11.29 6 12.03 5.48 12.66C4.94 13.32 4.24 13.83 3.49 14.08C2.75 14.33 1.73 14.38 0.9 13.69C0.06 12.99 -0.07 11.97 0.03 11.2C0.14 10.41 0.51 9.62 1.05 8.96C1.4 8.54 1.81 8.18 2.25 7.91C2.34 7.86 2.43 7.8 2.53 7.76C2.63 7.7 2.74 7.65 2.86 7.61C2.69 7.52 2.53 7.43 2.38 7.32C1.51 6.74 0.74 5.77 0.74 4.49C0.74 3.21 1.51 2.24 2.38 1.66C3.26 1.07 4.39 0.75 5.57 0.75ZM11.29 7.49C12.07 7.53 12.84 7.82 13.49 8.29C13.91 8.59 14.25 8.96 14.51 9.36C14.56 9.45 14.61 9.53 14.66 9.62C15.05 10.38 15.24 11.53 14.45 12.48C14.39 12.55 14.33 12.62 14.26 12.69C13.59 13.33 12.7 13.49 11.98 13.44C11.24 13.38 10.51 13.09 9.89 12.65C9.25 12.18 8.76 11.55 8.52 10.84C8.29 10.15 8.29 9.23 8.93 8.46C9.56 7.69 10.51 7.46 11.29 7.49ZM3.2 9.09C3.14 9.12 3.08 9.16 3.02 9.19C2.73 9.37 2.44 9.61 2.19 9.92C1.41 10.87 1.25 12.04 1.84 12.54C2.44 13.03 3.55 12.66 4.34 11.71C5.08 10.8 5.26 9.7 4.77 9.17C4.74 9.14 4.71 9.11 4.69 9.09C4.32 8.78 3.76 8.81 3.2 9.09ZM4.34 9.79C4.52 10.06 4.53 10.41 4.46 10.7C4.38 11.01 4.22 11.32 4.01 11.59C3.8 11.85 3.53 12.08 3.23 12.2C2.93 12.32 2.55 12.35 2.25 12.11C1.97 11.89 1.91 11.54 1.94 11.24L2.86 11.3L2.86 11.38C2.86 11.39 2.86 11.4 2.86 11.41L2.89 11.4C2.99 11.36 3.14 11.25 3.28 11.07C3.42 10.9 3.52 10.71 3.56 10.54C3.57 10.48 3.58 10.43 3.58 10.4L3.58 10.33C3.54 10.34 3.49 10.37 3.42 10.41L2.9 9.71C3.05 9.61 3.23 9.52 3.41 9.48C3.75 9.4 4.12 9.49 4.34 9.79ZM10.13 9.33C9.66 9.9 9.98 10.87 10.84 11.5C11.66 12.09 12.67 12.16 13.18 11.68C13.2 11.66 13.23 11.63 13.25 11.6C13.54 11.25 13.53 10.75 13.28 10.27C13.25 10.22 13.22 10.17 13.19 10.12C13.03 9.88 12.81 9.64 12.54 9.44C11.68 8.81 10.6 8.77 10.13 9.33ZM11.54 9.47L11.4 10.18C11.33 10.17 11.29 10.17 11.25 10.18L11.26 10.19C11.27 10.22 11.29 10.27 11.34 10.32C11.43 10.44 11.57 10.55 11.74 10.63C11.87 10.7 11.99 10.73 12.09 10.73L12.18 10.73C12.17 10.71 12.16 10.68 12.14 10.65L12.81 10.28C12.93 10.49 13.01 10.77 12.88 11.04C12.74 11.33 12.44 11.44 12.18 11.46C11.91 11.47 11.62 11.4 11.37 11.28C11.12 11.15 10.89 10.98 10.72 10.77C10.57 10.57 10.45 10.31 10.49 10.04C10.54 9.73 10.79 9.54 11.08 9.47C11.23 9.44 11.39 9.44 11.54 9.47ZM11.77 4.03C12.16 3.89 12.62 3.89 13.07 4.02C13.51 4.15 13.9 4.4 14.16 4.73C14.41 5.06 14.57 5.51 14.44 5.98C14.3 6.44 13.93 6.74 13.54 6.88C13.14 7.02 12.68 7.02 12.24 6.89C11.79 6.76 11.41 6.51 11.15 6.18C10.89 5.85 10.73 5.4 10.87 4.93C11 4.46 11.37 4.17 11.77 4.03ZM5.57 2.25C3.72 2.25 2.22 3.25 2.22 4.49C2.22 5.73 3.72 6.73 5.57 6.73C7.42 6.73 8.91 5.73 8.91 4.49C8.91 3.25 7.42 2.25 5.57 2.25ZM4.11 2.89L4.57 3.92C4.39 4 4.27 4.09 4.19 4.18C4.06 4.32 4.07 4.42 4.1 4.49C4.15 4.61 4.3 4.79 4.65 4.92C4.99 5.06 5.42 5.12 5.85 5.08C6.28 5.03 6.62 4.89 6.84 4.73C7.05 4.56 7.06 4.43 7.05 4.38C7.04 4.3 6.97 4.14 6.68 3.98L7.22 3C7.69 3.26 8.08 3.68 8.16 4.23C8.23 4.79 7.94 5.28 7.52 5.61C7.1 5.94 6.54 6.13 5.96 6.19C5.37 6.25 4.76 6.18 4.24 5.97C3.73 5.76 3.27 5.41 3.07 4.92C2.85 4.39 2.99 3.84 3.36 3.43C3.56 3.2 3.82 3.03 4.11 2.89ZM12.76 5.1C12.51 5.02 12.29 5.04 12.14 5.09C11.98 5.14 11.95 5.22 11.94 5.25C11.93 5.27 11.92 5.36 12.02 5.48C12.12 5.61 12.3 5.74 12.55 5.81C12.79 5.89 13.02 5.87 13.17 5.82C13.32 5.76 13.36 5.69 13.37 5.66C13.37 5.63 13.38 5.55 13.28 5.43C13.18 5.3 13 5.17 12.76 5.1Z"/>
</svg>