<svg xmlns="http://www.w3.org/2000/svg" viewBox="0 0 15 15">
  <path d="M7.5 0C11.64 0 15 3.36 15 7.5C15 11.64 11.64 15 7.5 15C3.36 15 0 11.64 0 7.5C0 3.36 3.36 0 7.5 0ZM4.22 8.34C3.5 8.34 2.93 8.92 2.93 9.63L2.93 10.43C2.93 11.14 3.5 11.72 4.22 11.72C4.93 11.72 5.51 11.14 5.51 10.43L5.51 9.63C5.51 8.92 4.93 8.34 4.22 8.34ZM9.77 5.93C8.2 5.93 6.93 7.2 6.93 8.77C6.93 10.34 8.2 11.61 9.77 11.61C11.34 11.61 12.61 10.34 12.61 8.77C12.61 7.2 11.34 5.93 9.77 5.93ZM4.22 9.48C4.3 9.48 4.37 9.55 4.37 9.63L4.37 10.43C4.37 10.52 4.3 10.58 4.22 10.58C4.13 10.58 4.06 10.52 4.06 10.43L4.06 9.63C4.06 9.55 4.13 9.48 4.22 9.48ZM9.77 7.07C10.71 7.07 11.48 7.83 11.48 8.77C11.48 9.71 10.71 10.48 9.77 10.48C8.83 10.48 8.07 9.71 8.07 8.77C8.07 7.83 8.83 7.07 9.77 7.07ZM9.77 7.64C9.14 7.64 8.64 8.14 8.64 8.77C8.64 9.4 9.14 9.91 9.77 9.91C10.4 9.91 10.91 9.4 10.91 8.77C10.91 8.14 10.4 7.64 9.77 7.64ZM6.78 2.44C4.34 2.46 2.37 4.47 2.4 6.92C2.41 7.23 2.66 7.48 2.98 7.48C3.29 7.48 3.54 7.22 3.54 6.9C3.53 6.2 3.74 5.55 4.11 5.01L4.99 5.9C5.21 6.12 5.57 6.12 5.8 5.9C6.02 5.68 6.02 5.32 5.8 5.1L4.9 4.2C5.43 3.81 6.09 3.58 6.8 3.57C7.11 3.57 7.36 3.31 7.36 3C7.35 2.68 7.1 2.43 6.78 2.44Z"/>
</svg>