<svg xmlns="http://www.w3.org/2000/svg" viewBox="0 0 15 15">
  <path d="M4.17 0C4.17 0.53 4.19 1.02 4.23 1.46L10.77 1.46C10.81 1.02 10.83 0.53 10.83 0L12.5 0C12.5 2.71 11.96 4.49 11.04 5.76C10.15 6.99 8.97 7.65 7.95 8.2L7.9 8.23C7.02 8.72 6.27 9.14 5.66 9.79L9.34 9.79C9.04 9.47 8.7 9.2 8.32 8.95L8.39 8.91C8.84 8.67 9.35 8.38 9.88 8.02C10.29 8.36 10.69 8.75 11.04 9.24C11.96 10.51 12.5 12.29 12.5 15L10.83 15C10.83 14.47 10.81 13.98 10.77 13.54L4.23 13.54C4.19 13.98 4.17 14.47 4.17 15L2.5 15C2.5 12.29 3.04 10.51 3.96 9.24C4.85 8.01 6.03 7.35 7.05 6.8L7.1 6.77C7.98 6.29 8.73 5.86 9.34 5.21L5.66 5.21C5.96 5.53 6.3 5.8 6.68 6.05L6.61 6.09C6.16 6.33 5.65 6.62 5.12 6.98C4.71 6.64 4.31 6.25 3.96 5.76C3.04 4.49 2.5 2.71 2.5 0L4.17 0ZM10.16 11.04L4.84 11.04C4.68 11.4 4.54 11.81 4.43 12.29L10.57 12.29C10.46 11.81 10.32 11.4 10.16 11.04ZM10.57 2.71L4.43 2.71C4.54 3.19 4.68 3.6 4.84 3.96L10.16 3.96C10.32 3.6 10.46 3.19 10.57 2.71Z"/>
</svg>