<svg xmlns="http://www.w3.org/2000/svg" viewBox="0 0 15 15">
  <path d="M3.33 5L10 11.67L8.06 13.62C6.21 15.46 3.23 15.46 1.38 13.62C-0.46 11.77 -0.46 8.79 1.38 6.94L3.33 5ZM4.19 11.16L4.08 11.16L4.16 12.04C4.2 12.04 4.24 12.04 4.28 12.06C4.3 12.06 4.31 12.07 4.33 12.08C4.37 12.1 4.4 12.12 4.42 12.15C4.43 12.17 4.44 12.18 4.45 12.2C4.47 12.23 4.48 12.27 4.48 12.31C4.49 12.33 4.49 12.35 4.48 12.37C4.48 12.43 4.45 12.48 4.42 12.53C4.38 12.57 4.33 12.6 4.27 12.62C4.26 12.63 4.24 12.63 4.22 12.63C4.18 12.63 4.14 12.63 4.1 12.62C4.08 12.61 4.07 12.61 4.05 12.6C4.02 12.58 3.99 12.55 3.96 12.52C3.95 12.51 3.94 12.49 3.93 12.47C3.91 12.44 3.9 12.4 3.9 12.36L3.02 12.45C3.03 12.56 3.05 12.67 3.09 12.77C3.14 12.88 3.2 12.99 3.27 13.08C3.32 13.14 3.38 13.2 3.44 13.25C3.56 13.34 3.69 13.42 3.84 13.46C3.88 13.48 3.92 13.49 3.97 13.5C4.15 13.53 4.34 13.52 4.53 13.47C4.75 13.4 4.95 13.27 5.1 13.09C5.25 12.91 5.34 12.69 5.36 12.46C5.38 12.27 5.36 12.08 5.29 11.9C5.27 11.86 5.25 11.83 5.23 11.79C5.16 11.65 5.07 11.53 4.95 11.43C4.89 11.38 4.82 11.34 4.75 11.3C4.65 11.24 4.53 11.2 4.42 11.18C4.31 11.16 4.19 11.15 4.08 11.16ZM2.38 10.32C2.15 10.55 2.15 10.93 2.38 11.16C2.61 11.39 2.99 11.39 3.22 11.16C3.45 10.93 3.45 10.55 3.22 10.32C2.99 10.09 2.61 10.09 2.38 10.32ZM3.79 8.25L3.68 8.25C3.37 8.27 3.13 8.54 3.15 8.85C3.17 9.16 3.44 9.4 3.75 9.38C3.85 9.37 4.08 9.38 4.33 9.43C4.59 9.48 4.82 9.57 4.98 9.69C5.14 9.82 5.28 10.01 5.39 10.22C5.45 10.33 5.49 10.42 5.51 10.5C5.53 10.54 5.54 10.58 5.54 10.6C5.55 10.63 5.55 10.64 5.55 10.64C5.57 10.96 5.84 11.19 6.15 11.17C6.46 11.16 6.7 10.89 6.68 10.58C6.66 10.32 6.55 9.99 6.4 9.7C6.24 9.4 6 9.06 5.68 8.8C5.32 8.52 4.9 8.39 4.55 8.32C4.2 8.25 3.87 8.24 3.68 8.25ZM6.94 1.38C8.79 -0.46 11.77 -0.46 13.62 1.38C15.46 3.23 15.46 6.21 13.62 8.06L11.12 10.56L4.44 3.88ZM8.19 3.83C7.85 3.87 7.6 4.19 7.7 4.52C7.83 4.91 8.03 5.27 8.3 5.58C8.7 6.06 9.23 6.4 9.83 6.57C10.43 6.74 11.06 6.73 11.66 6.54C12.05 6.42 12.41 6.22 12.72 5.96C12.99 5.73 12.94 5.33 12.67 5.11C12.39 4.9 12 4.96 11.71 5.14C11.57 5.23 11.43 5.3 11.27 5.35C10.92 5.46 10.53 5.47 10.18 5.36C9.82 5.26 9.5 5.05 9.26 4.77C9.15 4.65 9.06 4.51 8.99 4.37C8.84 4.05 8.54 3.8 8.19 3.83ZM10.63 1.33C10.33 1.41 10.06 1.58 9.85 1.81C9.78 1.9 9.71 1.99 9.66 2.09C9.56 2.26 9.5 2.45 9.48 2.65C9.44 2.95 9.49 3.27 9.63 3.55C9.76 3.83 9.98 4.06 10.25 4.21C10.52 4.37 10.83 4.44 11.14 4.42C11.45 4.4 11.75 4.29 11.99 4.1C12.15 3.98 12.28 3.83 12.38 3.66C12.44 3.57 12.49 3.46 12.53 3.36C12.63 3.06 12.64 2.75 12.56 2.44L11.57 2.71C11.59 2.78 11.59 2.85 11.58 2.92C11.58 2.96 11.57 2.99 11.56 3.03C11.53 3.1 11.5 3.16 11.45 3.21C11.43 3.24 11.4 3.27 11.37 3.29C11.31 3.33 11.25 3.37 11.18 3.38C11.14 3.39 11.11 3.4 11.07 3.4C10.96 3.41 10.85 3.38 10.76 3.33C10.67 3.27 10.59 3.19 10.54 3.1C10.53 3.06 10.51 3.03 10.5 2.99C10.49 2.92 10.48 2.85 10.49 2.78C10.49 2.74 10.5 2.71 10.51 2.67C10.54 2.61 10.57 2.54 10.62 2.49C10.65 2.46 10.67 2.44 10.7 2.42C10.76 2.37 10.82 2.34 10.89 2.32L10.63 1.33Z"/>
</svg>