<svg xmlns="http://www.w3.org/2000/svg" viewBox="0 0 15 15">
  <path d="M12.69 0.03C14.03 -0.2 15.2 0.97 14.97 2.31C14.74 3.71 13.65 4.8 12.25 5.03C11.96 5.08 11.68 5.06 11.41 4.99L11.11 5.4C10.57 6.12 9.72 6.55 8.81 6.55L8.12 6.55C7.36 6.55 6.83 7.28 7.07 8L7.17 8.29C7.69 9.87 6.33 11.44 4.69 11.14C4.08 11.03 3.54 11.53 3.61 12.15L3.63 12.33C3.76 13.53 2.96 14.63 1.77 14.87L1.18 14.99C0.84 15.06 0.5 14.83 0.44 14.49C0.37 14.15 0.59 13.81 0.93 13.74L1.52 13.63C2.06 13.52 2.43 13.02 2.37 12.47L2.35 12.29C2.19 10.83 3.48 9.63 4.92 9.89C5.61 10.02 6.19 9.35 5.96 8.69L5.87 8.4C5.36 6.86 6.5 5.28 8.12 5.28L8.81 5.28C9.32 5.28 9.8 5.04 10.1 4.64L10.36 4.29C10.03 3.87 9.87 3.33 9.97 2.75C10.2 1.35 11.29 0.26 12.69 0.03ZM12.59 7.02C13.36 6.89 14.03 7.56 13.9 8.32C13.77 9.12 13.14 9.74 12.35 9.88C12.25 9.89 12.16 9.9 12.07 9.89L10.92 11.23C10.48 11.74 9.83 12.04 9.15 12.04C8.8 12.04 8.46 12.22 8.27 12.52L8.23 12.57C8.1 12.76 8.03 12.99 8.03 13.23L8.03 13.52C8.03 13.87 7.75 14.15 7.4 14.15C7.05 14.15 6.76 13.87 6.76 13.52L6.76 13.23C6.76 12.74 6.91 12.27 7.18 11.87L7.21 11.81C7.64 11.16 8.37 10.77 9.15 10.77C9.46 10.77 9.76 10.64 9.96 10.4L11.08 9.1C11.02 8.94 11.01 8.76 11.04 8.57C11.17 7.78 11.8 7.15 12.59 7.02ZM6.6 0.27C7.4 0.13 8.1 0.83 7.97 1.64C7.84 2.4 7.27 3.03 6.52 3.23C6.43 3.25 6.34 3.27 6.26 3.27L5.8 3.96C5.42 4.52 4.8 4.85 4.12 4.85L3.8 4.85C3.57 4.85 3.38 5.04 3.38 5.28C3.38 6.21 2.62 6.97 1.69 6.97C1.46 6.97 1.27 7.16 1.27 7.39L1.27 7.6C1.27 7.95 0.98 8.24 0.63 8.24C0.28 8.24 0 7.95 0 7.6L0 7.39C0 6.46 0.76 5.7 1.69 5.7C1.92 5.7 2.11 5.51 2.11 5.28C2.11 4.34 2.87 3.59 3.8 3.59L4.12 3.59C4.37 3.59 4.6 3.46 4.74 3.26L5.14 2.66C4.98 2.39 4.91 2.06 5.01 1.72C5.21 0.97 5.83 0.4 6.6 0.27Z"/>
</svg>