<svg xmlns="http://www.w3.org/2000/svg" viewBox="0 0 15 15">
  <path d="M0 7.42L4.44 8.61L5.43 12.75L1.5 12.75C0.67 12.75 0 12.08 0 11.25L0 7.42ZM10.04 7.51L9.39 12.75L6.58 12.75L5.58 8.55L10.04 7.51ZM11.14 7.8L15 9.45L15 11.25C15 12.08 14.33 12.75 13.5 12.75L10.52 12.75L11.14 7.8ZM12.94 10.17C12.63 10.17 12.37 10.42 12.37 10.73C12.37 11.04 12.63 11.29 12.94 11.29C13.25 11.29 13.5 11.04 13.5 10.73C13.5 10.42 13.25 10.17 12.94 10.17ZM2.81 9.94C2.5 9.94 2.25 10.19 2.25 10.5C2.25 10.81 2.5 11.06 2.81 11.06C3.12 11.06 3.37 10.81 3.37 10.5C3.37 10.19 3.12 9.94 2.81 9.94ZM8.06 9.38C7.75 9.38 7.5 9.63 7.5 9.94C7.5 10.25 7.75 10.5 8.06 10.5C8.37 10.5 8.63 10.25 8.63 9.94C8.63 9.63 8.37 9.38 8.06 9.38ZM13.5 2.25C14.33 2.25 15 2.92 15 3.75L15 8.23L11.03 6.53L10.01 2.25L13.5 2.25ZM8.86 2.25L9.84 6.4L5.37 7.45L6.28 2.25L8.86 2.25ZM5.14 2.25L4.23 7.39L0 6.25L0 3.75C0 2.92 0.67 2.25 1.5 2.25L5.14 2.25ZM7.7 4.5C7.39 4.5 7.14 4.75 7.14 5.06C7.14 5.37 7.39 5.63 7.7 5.63C8.01 5.63 8.26 5.37 8.26 5.06C8.26 4.75 8.01 4.5 7.7 4.5ZM2.81 4.27C2.5 4.27 2.25 4.52 2.25 4.84C2.25 5.15 2.5 5.4 2.81 5.4C3.12 5.4 3.37 5.15 3.37 4.84C3.37 4.52 3.12 4.27 2.81 4.27ZM12.75 3.94C12.44 3.94 12.19 4.19 12.19 4.5C12.19 4.81 12.44 5.06 12.75 5.06C13.06 5.06 13.31 4.81 13.31 4.5C13.31 4.19 13.06 3.94 12.75 3.94Z"/>
</svg>