<svg xmlns="http://www.w3.org/2000/svg" viewBox="0 0 15 15">
  <path d="M7.35 0C8.6 0 9.62 0.95 9.71 2.15C9.9 2.08 10.1 2.03 10.32 2.03C11.17 2.03 11.87 2.71 11.87 3.56C11.87 3.62 11.86 3.68 11.86 3.75L11.87 3.75C12.73 3.75 13.42 4.43 13.42 5.27C13.42 5.9 13.04 6.43 12.49 6.67C12.74 7.03 12.88 7.47 12.88 7.95C12.88 8.04 12.88 8.14 12.86 8.24C12.89 8.23 12.93 8.23 12.96 8.23C14.09 8.23 15 9.13 15 10.24C15 11.03 14.53 11.72 13.84 12.04C13.85 12.11 13.86 12.18 13.86 12.24C13.86 13.23 13.02 14.02 11.99 14.02C11.5 14.02 11.06 13.85 10.72 13.55C10.33 13.85 9.83 14.02 9.29 14.02C8.58 14.02 7.95 13.72 7.51 13.24C7.39 14.23 6.53 15 5.48 15C4.35 15 3.44 14.1 3.44 13C3.44 12.77 3.48 12.55 3.55 12.35C3.17 12.75 2.64 13 2.04 13C0.91 13 0 12.1 0 10.99C0 10.12 0.56 9.38 1.35 9.11C0.72 8.85 0.28 8.24 0.28 7.53C0.28 6.58 1.07 5.81 2.03 5.81C2.35 5.81 2.64 5.9 2.9 6.04C3.03 5.78 3.23 5.55 3.48 5.38C2.99 5.08 2.68 4.55 2.68 3.94C2.68 3 3.46 2.23 4.42 2.23C4.62 2.23 4.8 2.26 4.97 2.31C4.98 1.03 6.04 0 7.35 0ZM9.27 11.19C8.87 11.19 8.54 11.51 8.54 11.91C8.54 12.3 8.87 12.63 9.27 12.63C9.68 12.63 10 12.3 10 11.91C10 11.51 9.68 11.19 9.27 11.19ZM2.12 10.24C1.72 10.24 1.39 10.56 1.39 10.96C1.39 11.35 1.72 11.67 2.12 11.67C2.52 11.67 2.85 11.35 2.85 10.96C2.85 10.56 2.52 10.24 2.12 10.24ZM7.31 1.3C6.91 1.3 6.58 1.62 6.58 2.02C6.58 2.41 6.91 2.73 7.31 2.73C7.72 2.73 8.04 2.41 8.04 2.02C8.04 1.62 7.72 1.3 7.31 1.3Z"/>
</svg>