<svg xmlns="http://www.w3.org/2000/svg" viewBox="0 0 15 15" >
 <path d="m12.191 0.13086c-2.3726-0.086311-6.3861 2.5272-8.9844 5.5645 0.18878 0.30021 0.70399 0.95929 0.92773 1.2656 3.1958-3.7766 8.0753-7.2235 9.0137-4.4883 0.82086 2.3927-1.3984 6.2773-3.8984 9.5273 6.2733-4.9793 6.7277-11.731 2.9414-11.869zm-10.047 1.2559c-5.2084 0.16973 3.7289 14.423 10.275 13.465 2.3242-0.34012 3.6874-3.3255 1.3945-6.5332-0.24994 0.45139-0.60715 0.82612-0.91602 1.248 1.2158 2.2318 0.55884 3.6007-0.91211 3.832-5.3204 0.83668-15.074-12.421-8.0352-11.607 0 0-0.27483-0.33827-1.5488-0.40234-0.089868-0.0045198-0.17514-0.0046473-0.25781-0.0019531zm8.3555 3.1133a1 1 0 0 0-1 1 1 1 0 0 0 1 1 1 1 0 0 0 0.16016-0.013672c0.22962 0.27919 0.40736 0.52944 0.66211 0.87695 0.29125-0.4185 0.50841-0.83735 0.65234-1.2559-0.18154-0.23306-0.3215-0.38012-0.47656-0.53516a1 1 0 0 0 0.001953-0.072266 1 1 0 0 0-1-1zm-3 1.5a1.5 1.5 0 0 0-1.5 1.5 1.5 1.5 0 0 0 1.5 1.5 1.5 1.5 0 0 0 1.5-1.5 1.5 1.5 0 0 0-1.5-1.5zm-6.0566 2.0918c-1.4895 2.4214-2.2373 5.2608 0.27148 6.0273a1 1 0 0 0 0.78516 0.38086 1 1 0 0 0 1-1 1 1 0 0 0-1-1 1 1 0 0 0-0.61719 0.21289c-0.77434-0.59847-0.60335-1.6666 0.44336-3.3262l-0.88281-1.2949z"/>
</svg>
