<svg xmlns="http://www.w3.org/2000/svg" viewBox="0 0 15 15">
  <path d="M12.75 7.86L12.75 8.5C12.75 8.77 12.53 9 12.25 9L2.75 9C2.47 9 2.25 8.77 2.25 8.5L2.25 7.86C2.25 7.59 2.47 7.36 2.75 7.36C2.85 7.36 2.96 7.36 3.06 7.36L3.26 7.36L7.12 0.21C7.3 -0.07 7.7 -0.07 7.88 0.21L11.74 7.36L11.94 7.36C12.04 7.36 12.15 7.36 12.25 7.36C12.53 7.36 12.75 7.59 12.75 7.86ZM9.52 7.36L7.5 3.27L5.48 7.36L9.52 7.36ZM1.25 10C1.26 11.67 2.91 12.5 5 12.5L10 12.5C12.09 12.5 13.75 11.67 13.75 10C14.58 10.67 15 11.4 14.99 12.19C14.98 13.55 14 15 11 15C8 15 7 15 4 15C1 15 0 13.62 0 12.25C0 11.42 0.42 10.67 1.25 10Z"/>
</svg>