<svg xmlns="http://www.w3.org/2000/svg" viewBox="0 0 15 15">
  <path d="M6.97 4.26L11.75 13L12.5 13C12.78 13 13 13.22 13 13.5L13 14.5C13 14.78 12.78 15 12.5 15L0.5 15C0.22 15 0 14.78 0 14.5L0 13.5C0 13.22 0.22 13 0.5 13L1.25 13L6.03 4.26C6.25 3.91 6.75 3.91 6.97 4.26ZM6.5 8L4 13L9 13L6.5 8ZM8.25 2.1C8.32 2.15 8.38 2.21 8.42 2.28L14 12L12.5 12L7.25 2.8L7.56 2.27C7.7 2.04 8.01 1.96 8.25 2.1ZM9.75 0.1C9.82 0.15 9.88 0.21 9.92 0.28L15 9.13L15 10L14 10L8.75 0.8L9.06 0.27C9.2 0.04 9.51 -0.04 9.75 0.1Z"/>
</svg>