<svg xmlns="http://www.w3.org/2000/svg" viewBox="0 0 15 15">
  <path d="M8 0L8 0.02C11.74 0.26 14.74 3.26 14.98 7L15 7L15 8L14.98 8C14.74 11.74 11.74 14.74 8 14.98L8 15L7 15L7 14.98C3.26 14.74 0.26 11.74 0.02 8L0 8L0 7L0.02 7C0.26 3.26 3.26 0.26 7 0.02L7 0L8 0ZM7 11L5 11C5.47 12.5 6.22 13.57 7 13.9L7 11ZM10 11L8 11L8 13.9C8.78 13.57 9.53 12.5 10 11ZM3.96 11L2.02 11C2.76 12.15 3.85 13.06 5.14 13.56C4.65 12.89 4.25 12.01 3.96 11ZM12.98 11L11.04 11C10.75 12.01 10.35 12.89 9.86 13.56C11.06 13.09 12.08 12.28 12.81 11.24L12.98 11ZM3.51 8L1.02 8C1.07 8.7 1.24 9.38 1.5 10L3.73 10C3.61 9.37 3.53 8.7 3.51 8ZM7 8L4.51 8C4.54 8.71 4.62 9.38 4.75 10L7 10L7 8ZM10.49 8L8 8L8 10L10.25 10C10.38 9.38 10.46 8.71 10.49 8ZM13.98 8L11.49 8C11.47 8.7 11.39 9.37 11.27 10L13.5 10C13.76 9.38 13.93 8.7 13.98 8ZM10.25 5L8 5L8 7L10.49 7C10.46 6.29 10.38 5.62 10.25 5ZM3.73 5L1.5 5C1.24 5.62 1.07 6.3 1.02 7L3.51 7C3.53 6.44 3.58 5.9 3.66 5.38L3.73 5ZM7 5L4.75 5C4.62 5.62 4.54 6.29 4.51 7L7 7L7 5ZM13.5 5L11.27 5C11.39 5.63 11.47 6.3 11.49 7L13.98 7C13.94 6.41 13.81 5.85 13.62 5.32L13.5 5ZM5.14 1.44L5.07 1.47C3.81 1.98 2.75 2.87 2.02 4L3.96 4C4.25 2.99 4.65 2.11 5.14 1.44ZM7 1.1C6.21 1.43 5.47 2.5 5 4L7 4L7 1.1ZM8 1.1L8 4L10 4C9.53 2.5 8.78 1.43 8 1.1ZM9.86 1.44L9.91 1.51C10.37 2.17 10.76 3.02 11.04 4L12.98 4C12.24 2.85 11.15 1.94 9.86 1.44Z"/>
</svg>