<svg xmlns="http://www.w3.org/2000/svg" viewBox="0 0 15 15">
  <path d="M6.02 4C7.59 4 9.38 4.82 11.42 6.45L11.6 6.6L11.66 6.55C12.18 6.08 12.73 5.55 13.3 4.97L13.58 4.67L14.06 4.18L15 5.17L14.53 5.66C13.93 6.29 13.35 6.86 12.79 7.37L12.65 7.5L12.79 7.63C13.26 8.06 13.74 8.52 14.23 9.03L14.53 9.34L15 9.83L14.06 10.82L13.58 10.33C12.91 9.63 12.27 9 11.66 8.45L11.6 8.4L11.42 8.55C9.46 10.11 7.74 10.93 6.23 11L6.02 11C4.04 11 2.1 9.98 0.2 7.99C-0.07 7.72 -0.07 7.28 0.2 7.01L0.2 7.01L0.2 7.01C2.1 5.02 4.04 4 6.02 4ZM6.02 5.4C4.65 5.4 3.25 6.03 1.82 7.33L1.64 7.5L1.82 7.67C3.18 8.9 4.51 9.53 5.81 9.59L6.02 9.6C7.21 9.6 8.67 8.94 10.38 7.61L10.53 7.5L10.38 7.39C8.75 6.12 7.35 5.46 6.19 5.4L6.02 5.4Z"/>
</svg>