<svg xmlns="http://www.w3.org/2000/svg" viewBox="0 0 15 15">
  <path d="M8.5 1L8.5 6.5L12 6.5L12 1L14 1L14 8.5L8.5 8.5L8.5 11.99L13.96 11.99L13.96 13.99L6.5 14L6.5 8.5L3 8.5L3 14L1 14L1 6.5L6.5 6.5L6.5 3L1 3L1 1L8.5 1ZM10.25 9.25C10.8 9.25 11.25 9.7 11.25 10.25C11.25 10.8 10.8 11.25 10.25 11.25C9.7 11.25 9.25 10.8 9.25 10.25C9.25 9.7 9.7 9.25 10.25 9.25ZM4.75 9.25C5.3 9.25 5.75 9.7 5.75 10.25C5.75 10.8 5.3 11.25 4.75 11.25C4.2 11.25 3.75 10.8 3.75 10.25C3.75 9.7 4.2 9.25 4.75 9.25ZM4.75 3.75C5.3 3.75 5.75 4.2 5.75 4.75C5.75 5.3 5.3 5.75 4.75 5.75C4.2 5.75 3.75 5.3 3.75 4.75C3.75 4.2 4.2 3.75 4.75 3.75ZM10.25 3.75C10.8 3.75 11.25 4.2 11.25 4.75C11.25 5.3 10.8 5.75 10.25 5.75C9.7 5.75 9.25 5.3 9.25 4.75C9.25 4.2 9.7 3.75 10.25 3.75Z"/>
</svg>