<svg xmlns="http://www.w3.org/2000/svg" viewBox="0 0 15 15">
  <path d="M14.38 8.12C14.03 8.12 13.75 8.4 13.75 8.75L13.75 9.69L10 6.87L10 5.46C10 5.17 9.83 4.9 9.57 4.77C9.3 4.64 8.98 4.67 8.75 4.85L8.75 3.32C8.75 3.2 8.73 3.09 8.68 2.97L7.84 0.23C7.79 0.09 7.65 0 7.5 0C7.35 0 7.22 0.09 7.16 0.23L6.32 2.97C6.27 3.09 6.25 3.2 6.25 3.32L6.25 4.85C6.02 4.67 5.7 4.64 5.43 4.77C5.17 4.9 5 5.17 5 5.46L5 6.87L1.25 9.69L1.25 8.75C1.25 8.4 0.97 8.12 0.63 8.12C0.28 8.12 0 8.4 0 8.75L0 13.12C0 13.47 0.28 13.75 0.63 13.75C0.97 13.75 1.25 13.47 1.25 13.12L1.25 12.5L6.25 11.25L6.25 12.81L4.86 14C4.69 14.17 4.64 14.42 4.73 14.64C4.82 14.86 5.04 15 5.27 15L7.5 14.69L9.73 15C9.96 15 10.18 14.86 10.27 14.64C10.36 14.42 10.31 14.17 10.14 14L8.75 12.81L8.75 11.25L13.75 12.5L13.75 13.12C13.75 13.47 14.03 13.75 14.38 13.75C14.72 13.75 15 13.47 15 13.12L15 8.75C15 8.4 14.72 8.12 14.38 8.12Z"/>
</svg>