<svg xmlns="http://www.w3.org/2000/svg" viewBox="0 0 15 15">
  <path d="M4 2C3 2 3 3 4 3h4v1C7.72 4 7.5 4.22 7.5 4.5V5H5H3.97H3.93C3.7 4.12 2.91 3.5 2 3.5c-1.1 0 -2 0.9 -2 2s0.9 2 2 2c0.37 0 0.74 -0.11 1.05 -0.3L5.5 10.5C6.51 11.95 8.32 12 9 12h5c0 0 1 0 1 -1v-0.99C15 9.27 14.87 8.87 14.5 8.5l-3 -3c0 0 -0.59 -0.5 -1.27 -0.5H9.5V4.5C9.5 4.22 9.28 4 9 4V3h4c1 0 1 -1 0 -1C13 2 4 2 4 2zM2 4.5c0.55 0 1 0.45 1 1s-0.45 1 -1 1s-1 -0.45 -1 -1C1 4.95 1.45 4.5 2 4.5zM10 6c0.5 0 0.79 0.32 1 0.5L13.5 9H10c0 0 -1 0 -1 -1V7C9 7 9 6 10 6z"/>
</svg>