<svg xmlns="http://www.w3.org/2000/svg" viewBox="0 0 15 15">
  <path d="M13.77 14.86C13.5 14.86 13.16 14.52 12.95 14.39C12.68 14.25 12.41 14.18 12.07 14.18C11.73 14.18 11.45 14.25 11.18 14.39C10.91 14.52 10.64 14.86 10.36 14.86C10.09 14.86 9.75 14.52 9.55 14.39C9.27 14.25 9 14.18 8.66 14.18C8.32 14.18 8.05 14.25 7.77 14.39C7.5 14.52 7.23 14.86 6.95 14.86C6.68 14.86 6.34 14.52 6.14 14.39C5.86 14.25 5.59 14.18 5.25 14.18C4.91 14.18 4.64 14.25 4.36 14.39C4.09 14.52 3.82 14.86 3.55 14.86C3.27 14.86 2.93 14.52 2.73 14.39C2.45 14.25 2.18 14.18 1.84 14.18C1.5 14.18 1.23 14.25 0.95 14.39C0.68 14.52 0.41 14.86 0.14 14.86L0.14 13.57C0.41 13.57 0.75 13.23 0.95 13.09C1.09 13.02 1.43 12.95 1.7 12.95C2.05 12.95 2.32 13.02 2.59 13.16C2.86 13.3 3.14 13.64 3.41 13.64C3.68 13.64 4.02 13.3 4.23 13.16C4.57 13.02 4.84 12.95 5.18 12.95C5.52 12.95 5.8 13.02 6.07 13.16C6.34 13.3 6.61 13.64 6.89 13.64C7.16 13.64 7.5 13.3 7.7 13.16C7.98 13.02 8.25 12.95 8.59 12.95C8.93 12.95 9.2 13.02 9.48 13.16C9.75 13.3 10.02 13.64 10.3 13.64C10.57 13.64 10.91 13.3 11.11 13.16C11.39 13.02 11.66 12.95 12 12.95C12.34 12.95 12.61 13.02 12.89 13.16C13.16 13.3 13.43 13.64 13.7 13.64L13.77 14.86L13.77 14.86ZM14.73 6.34L12.55 7.02L11.59 5.93C11.93 5.73 12.61 5.39 13.02 5.11C13.16 4.98 13.3 4.77 13.3 4.64L13.77 2.73L14.45 4.64C14.52 4.84 14.86 4.7 14.8 4.5L14.11 2.52L14.25 2.45C14.66 2.32 14.45 1.77 14.05 1.91L13.91 1.98L13.23 0.07C13.16 -0.14 12.82 0 12.89 0.2L13.57 2.11L13.5 2.11L13.5 2.11C13.16 2.18 11.52 2.59 11.11 2.59C10.77 2.52 10.36 2.45 10.02 2.45C9.68 2.39 9.55 2.45 9.27 2.66C9.14 2.73 8.18 3.27 7.3 3.89C6.14 4.57 4.91 5.8 4.91 5.8L3.27 6.48C2.86 6.48 2.45 5.86 2.18 5.59L1.43 4.91C1.36 4.77 1.23 4.77 1.16 4.84L0.07 5.18C-0.07 5.25 0 5.32 0.07 5.39L1.84 7.98C2.05 8.25 2.59 8.39 2.93 8.32L7.5 7.43L7.57 7.43L7.57 8.86L4.16 10.09C4.09 10.09 4.02 10.16 4.02 10.3C4.02 10.3 4.09 10.43 4.09 10.5C4.09 10.57 4.23 10.64 4.3 10.64C4.64 10.64 5.52 10.57 6.61 10.43C7.3 10.3 12.89 8.32 13.98 7.77C14.73 7.23 14.93 6.89 14.93 6.89C15 6.82 15 6.75 15 6.68L14.93 6.48C14.86 6.34 14.8 6.34 14.73 6.34ZM7.91 8.73L7.91 7.3L11.18 6.07L12.14 7.16L7.91 8.73ZM8.86 3.2L9.68 4.23C8.45 4.64 6.89 5.25 6.75 5.32C6.68 5.32 6.61 5.32 6.55 5.25C6.55 5.11 6.55 5.11 6.55 5.05C6.55 4.98 6.55 4.91 6.61 4.84C6.68 4.77 7.16 4.36 7.43 4.16C7.91 3.82 8.45 3.48 8.86 3.2ZM11.11 3.14C11.11 3.2 11.05 3.68 11.05 3.68C11.05 3.68 11.05 3.82 10.91 3.82C10.77 3.89 10.5 3.95 10.16 4.09L9.27 3C9.27 3 9.34 2.93 9.34 2.93C9.61 2.8 9.68 2.73 9.89 2.8C9.89 2.8 10.91 2.93 10.98 2.93C11.05 2.93 11.11 3.07 11.11 3.14Z"/>
</svg>