<svg xmlns="http://www.w3.org/2000/svg" viewBox="0 0 15 15">
  <path d="M10.99 0L11.58 0.58L12.28 3.02L11.94 3.91L11.58 3.23L11.17 3.43L11.58 4.4L10.87 5.21L11.17 5.9L8.5 14.13L7.52 14.48L6.71 15L6.26 15L5.68 14.42L5.3 14.42L4.55 13.48L4.55 12.27L3.75 11.12L4.01 9.83L4.78 9.83L5.59 8.19L5.59 7.53L4.78 5.47L5.59 4.61L5.59 3.91L6.31 3.91L8.15 3.23L8.82 2.38L9.39 1.77L9.11 1.36L9.39 1.1L9.7 1.36L10.4 0.85L10.47 0L10.99 0ZM8.5 4.92L8.14 6.01L7 6.01L7.92 6.76L7.5 8L8.5 7.25L9.5 8L9.08 6.76L10 6.01L8.86 6.01L8.5 4.92Z"/>
</svg>