<svg xmlns="http://www.w3.org/2000/svg" viewBox="0 0 15 15">
  <path d="M10.5 0C10.78 0 11 0.22 11 0.5L11 13.18C11 13.82 10.6 14.4 10 14.63C9.34 14.87 8.64 15 7.93 15L7.07 15C6.36 15 5.66 14.87 5 14.63C4.4 14.4 4 13.82 4 13.18L4 3.82C4 3.18 4.4 2.6 5 2.38C5.66 2.13 6.36 2 7.07 2L7.93 2C8.64 2 9.34 2.13 10 2.38L10 0.5C10 0.22 10.22 0 10.5 0ZM5.75 12L5.25 12C5.11 12 5 12.11 5 12.25L5 12.75C5 12.89 5.11 13 5.25 13L5.75 13C5.89 13 6 12.89 6 12.75L6 12.25C6 12.11 5.89 12 5.75 12ZM7.75 12L7.25 12C7.11 12 7 12.11 7 12.25L7 12.75C7 12.89 7.11 13 7.25 13L7.75 13C7.89 13 8 12.89 8 12.75L8 12.25C8 12.11 7.89 12 7.75 12ZM9.75 12L9.25 12C9.11 12 9 12.11 9 12.25L9 12.75C9 12.89 9.11 13 9.25 13L9.75 13C9.89 13 10 12.89 10 12.75L10 12.25C10 12.11 9.89 12 9.75 12ZM5.75 10L5.25 10C5.11 10 5 10.11 5 10.25L5 10.75C5 10.89 5.11 11 5.25 11L5.75 11C5.89 11 6 10.89 6 10.75L6 10.25C6 10.11 5.89 10 5.75 10ZM7.75 10L7.25 10C7.11 10 7 10.11 7 10.25L7 10.75C7 10.89 7.11 11 7.25 11L7.75 11C7.89 11 8 10.89 8 10.75L8 10.25C8 10.11 7.89 10 7.75 10ZM9.75 10L9.25 10C9.11 10 9 10.11 9 10.25L9 10.75C9 10.89 9.11 11 9.25 11L9.75 11C9.89 11 10 10.89 10 10.75L10 10.25C10 10.11 9.89 10 9.75 10ZM5.75 8L5.25 8C5.11 8 5 8.11 5 8.25L5 8.75C5 8.89 5.11 9 5.25 9L5.75 9C5.89 9 6 8.89 6 8.75L6 8.25C6 8.11 5.89 8 5.75 8ZM7.75 8L7.25 8C7.11 8 7 8.11 7 8.25L7 8.75C7 8.89 7.11 9 7.25 9L7.75 9C7.89 9 8 8.89 8 8.75L8 8.25C8 8.11 7.89 8 7.75 8ZM9.75 8L9.25 8C9.11 8 9 8.11 9 8.25L9 8.75C9 8.89 9.11 9 9.25 9L9.75 9C9.89 9 10 8.89 10 8.75L10 8.25C10 8.11 9.89 8 9.75 8ZM9.5 5L5.5 5C5.22 5 5 5.22 5 5.5L5 6.5C5 6.78 5.22 7 5.5 7L9.5 7C9.78 7 10 6.78 10 6.5L10 5.5C10 5.22 9.78 5 9.5 5ZM8.5 3L6.5 3C6.22 3 6 3.22 6 3.5C6 3.78 6.22 4 6.5 4L8.5 4C8.78 4 9 3.78 9 3.5C9 3.22 8.78 3 8.5 3Z"/>
</svg>