<svg xmlns="http://www.w3.org/2000/svg" viewBox="0 0 15 15">
  <path d="M6.5 0C6.78 0 7 0.22 7 0.5L7 3.82L7 13.18C7 13.82 6.6 14.4 6 14.63C5.34 14.87 4.64 15 3.93 15L3.07 15C2.36 15 1.66 14.87 1 14.63C0.4 14.4 0 13.82 0 13.18L0 3.82C0 3.18 0.4 2.6 1 2.38C1.66 2.13 2.36 2 3.07 2L3.93 2C4.64 2 5.34 2.13 6 2.38L6 0.5C6 0.22 6.22 0 6.5 0ZM1.75 12L1.25 12C1.11 12 1 12.11 1 12.25L1 12.75C1 12.89 1.11 13 1.25 13L1.75 13C1.89 13 2 12.89 2 12.75L2 12.25C2 12.11 1.89 12 1.75 12ZM3.75 12L3.25 12C3.11 12 3 12.11 3 12.25L3 12.75C3 12.89 3.11 13 3.25 13L3.75 13C3.89 13 4 12.89 4 12.75L4 12.25C4 12.11 3.89 12 3.75 12ZM5.75 12L5.25 12C5.11 12 5 12.11 5 12.25L5 12.75C5 12.89 5.11 13 5.25 13L5.75 13C5.89 13 6 12.89 6 12.75L6 12.25C6 12.11 5.89 12 5.75 12ZM1.75 10L1.25 10C1.11 10 1 10.11 1 10.25L1 10.75C1 10.89 1.11 11 1.25 11L1.75 11C1.89 11 2 10.89 2 10.75L2 10.25C2 10.11 1.89 10 1.75 10ZM3.75 10L3.25 10C3.11 10 3 10.11 3 10.25L3 10.75C3 10.89 3.11 11 3.25 11L3.75 11C3.89 11 4 10.89 4 10.75L4 10.25C4 10.11 3.89 10 3.75 10ZM5.75 10L5.25 10C5.11 10 5 10.11 5 10.25L5 10.75C5 10.89 5.11 11 5.25 11L5.75 11C5.89 11 6 10.89 6 10.75L6 10.25C6 10.11 5.89 10 5.75 10ZM1.75 8L1.25 8C1.11 8 1 8.11 1 8.25L1 8.75C1 8.89 1.11 9 1.25 9L1.75 9C1.89 9 2 8.89 2 8.75L2 8.25C2 8.11 1.89 8 1.75 8ZM3.75 8L3.25 8C3.11 8 3 8.11 3 8.25L3 8.75C3 8.89 3.11 9 3.25 9L3.75 9C3.89 9 4 8.89 4 8.75L4 8.25C4 8.11 3.89 8 3.75 8ZM5.75 8L5.25 8C5.11 8 5 8.11 5 8.25L5 8.75C5 8.89 5.11 9 5.25 9L5.75 9C5.89 9 6 8.89 6 8.75L6 8.25C6 8.11 5.89 8 5.75 8ZM5.5 5L1.5 5C1.22 5 1 5.22 1 5.5L1 6.5C1 6.78 1.22 7 1.5 7L5.5 7C5.78 7 6 6.78 6 6.5L6 5.5C6 5.22 5.78 5 5.5 5ZM4.5 3L2.5 3C2.22 3 2 3.22 2 3.5C2 3.78 2.22 4 2.5 4L4.5 4C4.78 4 5 3.78 5 3.5C5 3.22 4.78 3 4.5 3ZM15 13C15 14.1 14.1 15 13 15L10 15C8.9 15 8 14.1 8 13L8 4C8 2.9 8.9 2 10 2L13 2C13.36 2 13.71 2.1 14 2.27L14 0.5C14 0.22 14.22 0 14.5 0C14.78 0 15 0.22 15 0.5ZM12.5 13L10.5 13C10.22 13 10 13.22 10 13.5C10 13.78 10.22 14 10.5 14L12.5 14C12.78 14 13 13.78 13 13.5C13 13.22 12.78 13 12.5 13ZM13.5 4L9.5 4C9.22 4 9 4.22 9 4.5L9 11.5C9 11.78 9.22 12 9.5 12L13.5 12C13.78 12 14 11.78 14 11.5L14 4.5C14 4.22 13.78 4 13.5 4Z"/>
</svg>