<svg xmlns="http://www.w3.org/2000/svg" viewBox="0 0 15 15">
  <path d="M7.5 0C7.78 0 8 0.22 8 0.5L8 13.18C8 13.82 7.6 14.4 7 14.63C6.34 14.87 5.64 15 4.93 15L4.07 15C3.36 15 2.66 14.87 2 14.63C1.4 14.4 1 13.82 1 13.18L1 3.82C1 3.18 1.4 2.6 2 2.38C2.66 2.13 3.36 2 4.07 2L4.93 2C5.64 2 6.34 2.13 7 2.38L7 0.5C7 0.22 7.22 0 7.5 0ZM2.75 12L2.25 12C2.11 12 2 12.11 2 12.25L2 12.75C2 12.89 2.11 13 2.25 13L2.75 13C2.89 13 3 12.89 3 12.75L3 12.25C3 12.11 2.89 12 2.75 12ZM4.75 12L4.25 12C4.11 12 4 12.11 4 12.25L4 12.75C4 12.89 4.11 13 4.25 13L4.75 13C4.89 13 5 12.89 5 12.75L5 12.25C5 12.11 4.89 12 4.75 12ZM6.75 12L6.25 12C6.11 12 6 12.11 6 12.25L6 12.75C6 12.89 6.11 13 6.25 13L6.75 13C6.89 13 7 12.89 7 12.75L7 12.25C7 12.11 6.89 12 6.75 12ZM2.75 10L2.25 10C2.11 10 2 10.11 2 10.25L2 10.75C2 10.89 2.11 11 2.25 11L2.75 11C2.89 11 3 10.89 3 10.75L3 10.25C3 10.11 2.89 10 2.75 10ZM4.75 10L4.25 10C4.11 10 4 10.11 4 10.25L4 10.75C4 10.89 4.11 11 4.25 11L4.75 11C4.89 11 5 10.89 5 10.75L5 10.25C5 10.11 4.89 10 4.75 10ZM6.75 10L6.25 10C6.11 10 6 10.11 6 10.25L6 10.75C6 10.89 6.11 11 6.25 11L6.75 11C6.89 11 7 10.89 7 10.75L7 10.25C7 10.11 6.89 10 6.75 10ZM2.75 8L2.25 8C2.11 8 2 8.11 2 8.25L2 8.75C2 8.89 2.11 9 2.25 9L2.75 9C2.89 9 3 8.89 3 8.75L3 8.25C3 8.11 2.89 8 2.75 8ZM4.75 8L4.25 8C4.11 8 4 8.11 4 8.25L4 8.75C4 8.89 4.11 9 4.25 9L4.75 9C4.89 9 5 8.89 5 8.75L5 8.25C5 8.11 4.89 8 4.75 8ZM6.75 8L6.25 8C6.11 8 6 8.11 6 8.25L6 8.75C6 8.89 6.11 9 6.25 9L6.75 9C6.89 9 7 8.89 7 8.75L7 8.25C7 8.11 6.89 8 6.75 8ZM6.5 5L2.5 5C2.22 5 2 5.22 2 5.5L2 6.5C2 6.78 2.22 7 2.5 7L6.5 7C6.78 7 7 6.78 7 6.5L7 5.5C7 5.22 6.78 5 6.5 5ZM5.5 3L3.5 3C3.22 3 3 3.22 3 3.5C3 3.78 3.22 4 3.5 4L5.5 4C5.78 4 6 3.78 6 3.5C6 3.22 5.78 3 5.5 3ZM11.15 1.94L14.06 1.94L12.61 5.82L14.54 5.82L10.67 12.61L11.64 7.76L9.7 7.76L11.15 1.94Z"/>
</svg>