<svg xmlns="http://www.w3.org/2000/svg" viewBox="0 0 15 15">
  <path d="M8 13C8 14.1 7.1 15 6 15L3 15C1.9 15 1 14.1 1 13L1 4C1 2.9 1.9 2 3 2L6 2C6.36 2 6.71 2.1 7 2.27L7 0.5C7 0.22 7.22 0 7.5 0C7.78 0 8 0.22 8 0.5L8 13ZM5.5 13L3.5 13C3.22 13 3 13.22 3 13.5C3 13.78 3.22 14 3.5 14L5.5 14C5.78 14 6 13.78 6 13.5C6 13.22 5.78 13 5.5 13ZM6.5 4L2.5 4C2.22 4 2 4.22 2 4.5L2 11.5C2 11.78 2.22 12 2.5 12L6.5 12C6.78 12 7 11.78 7 11.5L7 4.5C7 4.22 6.78 4 6.5 4ZM11.15 1.94L14.06 1.94L12.61 5.82L14.54 5.82L10.67 12.61L11.64 7.76L9.7 7.76L11.15 1.94Z"/>
</svg>