<svg xmlns="http://www.w3.org/2000/svg" viewBox="0 0 15 15">
  <path d="M6.5 0C6.78 0 7 0.22 7 0.5L7 4.31C6.53 4.5 6.08 4.74 5.65 5.02C5.6 5.01 5.55 5 5.5 5L1.5 5C1.22 5 1 5.22 1 5.5L1 6.5C1 6.78 1.22 7 1.5 7L4.31 7C4.36 7.15 4.45 7.29 4.56 7.41L5.16 8.01C5.07 8.05 5 8.14 5 8.25L5 8.75C5 8.89 5.11 9 5.25 9L5.75 9C5.86 9 5.95 8.93 5.98 8.84L6.14 9L7 9.86L7 13.18C7 13.82 6.6 14.4 6 14.63C5.34 14.87 4.64 15 3.93 15L3.07 15C2.36 15 1.66 14.87 1 14.63C0.4 14.4 0 13.82 0 13.18L0 3.82C0 3.18 0.4 2.6 1 2.38C1.66 2.13 2.36 2 3.07 2L3.93 2C4.64 2 5.34 2.13 6 2.38L6 0.5C6 0.22 6.22 0 6.5 0ZM1.75 12L1.25 12C1.11 12 1 12.11 1 12.25L1 12.75C1 12.89 1.11 13 1.25 13L1.75 13C1.89 13 2 12.89 2 12.75L2 12.25C2 12.11 1.89 12 1.75 12ZM3.75 12L3.25 12C3.11 12 3 12.11 3 12.25L3 12.75C3 12.89 3.11 13 3.25 13L3.75 13C3.89 13 4 12.89 4 12.75L4 12.25C4 12.11 3.89 12 3.75 12ZM5.75 12L5.25 12C5.11 12 5 12.11 5 12.25L5 12.75C5 12.89 5.11 13 5.25 13L5.75 13C5.89 13 6 12.89 6 12.75L6 12.25C6 12.11 5.89 12 5.75 12ZM10.01 9.66L10.07 9.66L10.12 9.66C10.71 9.7 11.16 10.21 11.12 10.8C11.11 11 11.04 11.2 10.92 11.36L10.86 11.44C10.65 11.68 10.36 11.81 10.07 11.83L9.95 11.83C9.7 11.82 9.45 11.73 9.24 11.54C9.21 11.51 9.18 11.48 9.14 11.44C8.76 11 8.8 10.32 9.24 9.93C9.41 9.78 9.62 9.69 9.84 9.67C9.9 9.66 9.96 9.66 10.01 9.66ZM1.75 10L1.25 10C1.11 10 1 10.11 1 10.25L1 10.75C1 10.89 1.11 11 1.25 11L1.75 11C1.89 11 2 10.89 2 10.75L2 10.25C2 10.11 1.89 10 1.75 10ZM3.75 10L3.25 10C3.11 10 3 10.11 3 10.25L3 10.75C3 10.89 3.11 11 3.25 11L3.75 11C3.89 11 4 10.89 4 10.75L4 10.25C4 10.11 3.89 10 3.75 10ZM5.75 10L5.25 10C5.11 10 5 10.11 5 10.25L5 10.75C5 10.89 5.11 11 5.25 11L5.75 11C5.89 11 6 10.89 6 10.75L6 10.25C6 10.11 5.89 10 5.75 10ZM8.03 9.55L7.88 9.69L6.67 8.47C6.78 8.36 6.89 8.26 7 8.17C8.85 6.63 11.6 6.73 13.33 8.47L12.12 9.69C11.56 9.12 10.83 8.83 10.09 8.81L9.91 8.81C9.24 8.83 8.57 9.08 8.03 9.55ZM1.75 8L1.25 8C1.11 8 1 8.11 1 8.25L1 8.75C1 8.89 1.11 9 1.25 9L1.75 9C1.89 9 2 8.89 2 8.75L2 8.25C2 8.11 1.89 8 1.75 8ZM3.75 8L3.25 8C3.11 8 3 8.11 3 8.25L3 8.75C3 8.89 3.11 9 3.25 9L3.75 9C3.89 9 4 8.89 4 8.75L4 8.25C4 8.11 3.89 8 3.75 8ZM13.93 7.86C11.76 5.68 8.24 5.68 6.07 7.86L5.1 6.89C4.98 6.77 4.97 6.59 5.06 6.46L5.11 6.4C6.49 5.13 8.12 4.49 10 4.5C11.88 4.51 13.51 5.14 14.89 6.4C15.03 6.53 15.04 6.74 14.91 6.87ZM4.5 3L2.5 3C2.22 3 2 3.22 2 3.5C2 3.78 2.22 4 2.5 4L4.5 4C4.78 4 5 3.78 5 3.5C5 3.22 4.78 3 4.5 3Z"/>
</svg>