<svg xmlns="http://www.w3.org/2000/svg" viewBox="0 0 15 15">
  <path d="M6.5 0C6.78 0 7 0.22 7 0.5L7 4.31C6.66 4.45 6.32 4.61 6 4.8L6 4.5C6 4.22 5.78 4 5.5 4L1.5 4C1.22 4 1 4.22 1 4.5L1 11.5C1 11.78 1.22 12 1.5 12L5.5 12C5.78 12 6 11.78 6 11.5L6 8.86L6.14 9L7 9.86L7 13C7 14.1 6.1 15 5 15L2 15C0.9 15 0 14.1 0 13L0 4C0 2.9 0.9 2 2 2L5 2C5.36 2 5.71 2.1 6 2.27L6 0.5C6 0.22 6.22 0 6.5 0ZM4.5 13L2.5 13C2.22 13 2 13.22 2 13.5C2 13.78 2.22 14 2.5 14L4.5 14C4.78 14 5 13.78 5 13.5C5 13.22 4.78 13 4.5 13ZM10.01 9.66L10.07 9.66L10.12 9.66C10.71 9.7 11.16 10.21 11.12 10.8C11.11 11 11.04 11.2 10.92 11.36L10.86 11.44C10.65 11.68 10.36 11.81 10.07 11.83L9.95 11.83C9.7 11.82 9.45 11.73 9.24 11.54C9.21 11.51 9.18 11.48 9.14 11.44C8.76 11 8.8 10.32 9.24 9.93C9.41 9.78 9.62 9.69 9.84 9.67C9.9 9.66 9.96 9.66 10.01 9.66ZM8.03 9.55L7.88 9.69L7.63 9.43L7 8.8L6.67 8.47C6.73 8.41 6.79 8.36 6.84 8.31L7 8.17C8.85 6.63 11.6 6.73 13.33 8.47L12.12 9.69C11.56 9.12 10.83 8.83 10.09 8.81L9.91 8.81C9.24 8.83 8.57 9.08 8.03 9.55ZM10 4.5C11.88 4.51 13.51 5.14 14.89 6.4C15.03 6.53 15.04 6.74 14.91 6.87L13.93 7.86C12.91 6.83 11.58 6.28 10.24 6.23L10 6.22C8.96 6.22 7.91 6.52 7 7.11L6.84 7.21C6.57 7.4 6.31 7.62 6.07 7.86L5.1 6.89C4.98 6.77 4.97 6.59 5.06 6.46L5.11 6.4C6.49 5.13 8.12 4.49 10 4.5Z"/>
</svg>