<svg xmlns="http://www.w3.org/2000/svg" viewBox="0 0 15 15">
  <path d="M11 1L11 4L14 4L14 7.99C14 8.41 13.66 8.74 13.25 8.74C12.84 8.74 12.5 8.41 12.5 7.99L12.5 6.56L10.6 8.46C11.66 10.02 11.5 12.16 10.12 13.54C8.56 15.1 6.03 15.1 4.46 13.54C3.91 12.99 3.55 12.31 3.39 11.61C2.69 11.44 2.01 11.09 1.46 10.54C-0.1 8.97 -0.1 6.44 1.46 4.88C2.84 3.5 4.98 3.34 6.54 4.4L8.44 2.5L7.01 2.5C6.63 2.5 6.32 2.22 6.27 1.86L6.26 1.75C6.26 1.34 6.59 1 7.01 1L11 1ZM8.23 8.39L8.22 8.48C8.07 9.23 7.7 9.95 7.12 10.54C6.51 11.14 5.76 11.51 4.97 11.65C5.1 11.95 5.28 12.23 5.52 12.48C6.5 13.45 8.08 13.45 9.06 12.48C10.04 11.5 10.04 9.92 9.06 8.94C8.82 8.7 8.53 8.51 8.23 8.39ZM6.73 8.27L6.71 8.28C6.28 8.38 5.86 8.6 5.52 8.94C5.18 9.28 4.96 9.7 4.86 10.14C5.3 10.04 5.72 9.82 6.06 9.48C6.4 9.13 6.63 8.71 6.73 8.27ZM2.52 5.94C1.55 6.92 1.55 8.5 2.52 9.48C2.77 9.72 3.05 9.9 3.35 10.03C3.49 9.24 3.86 8.49 4.46 7.88C5.07 7.27 5.82 6.9 6.61 6.77C6.49 6.47 6.3 6.18 6.06 5.94C5.08 4.96 3.5 4.96 2.52 5.94ZM10.25 5.74C9.98 5.74 9.74 5.6 9.61 5.39C9.43 5.27 9.3 5.08 9.27 4.86L9.26 4.75C9.26 4.53 9.35 4.34 9.5 4.2L9.5 3.56L7.6 5.46C7.88 5.88 8.08 6.34 8.19 6.81C8.66 6.92 9.12 7.12 9.54 7.4L11.44 5.5L10.8 5.5C10.66 5.65 10.47 5.74 10.25 5.74Z"/>
</svg>