<svg xmlns="http://www.w3.org/2000/svg" viewBox="0 0 15 15">
  <path d="M9.25 1C11.46 1 13.25 2.79 13.25 5C13.25 6.95 11.85 8.58 10 8.93L10 10.75L11.75 10.75C12.16 10.75 12.5 11.09 12.5 11.5C12.5 11.91 12.16 12.25 11.75 12.25L10 12.25L10 13.75C10 14.16 9.66 14.5 9.25 14.5C8.84 14.5 8.5 14.16 8.5 13.75L8.5 12.25L6.5 12.25L6.5 13.75C6.5 14.16 6.16 14.5 5.75 14.5C5.34 14.5 5 14.16 5 13.75L5 12.25L3.25 12.25C2.84 12.25 2.5 11.91 2.5 11.5C2.5 11.09 2.84 10.75 3.25 10.75L5 10.75L5 8.93C3.15 8.58 1.75 6.95 1.75 5C1.75 2.79 3.54 1 5.75 1C6.38 1 6.97 1.14 7.5 1.4C8.03 1.14 8.62 1 9.25 1ZM7.5 8.6C7.19 8.75 6.85 8.86 6.5 8.93L6.5 10.75L8.5 10.75L8.5 8.93C8.15 8.86 7.81 8.75 7.5 8.6ZM5.75 2.5C4.37 2.5 3.25 3.62 3.25 5C3.25 6.38 4.37 7.5 5.75 7.5C5.87 7.5 5.99 7.49 6.11 7.47C5.57 6.79 5.25 5.93 5.25 5C5.25 4.07 5.57 3.21 6.11 2.53C5.99 2.51 5.87 2.5 5.75 2.5ZM9.25 2.5C9.13 2.5 9.01 2.51 8.89 2.53C9.43 3.21 9.75 4.07 9.75 5C9.75 5.93 9.43 6.79 8.89 7.47C9.01 7.49 9.13 7.5 9.25 7.5C10.63 7.5 11.75 6.38 11.75 5C11.75 3.62 10.63 2.5 9.25 2.5ZM7.5 3.22L7.43 3.29C7.01 3.73 6.75 4.34 6.75 5C6.75 5.7 7.04 6.33 7.5 6.79C7.96 6.33 8.25 5.7 8.25 5C8.25 4.3 7.96 3.67 7.5 3.22Z"/>
</svg>