<svg xmlns="http://www.w3.org/2000/svg" viewBox="0 0 15 15">
  <path d="M13 2L13 5.99C13 6.41 12.66 6.74 12.25 6.74C11.84 6.74 11.5 6.41 11.5 5.99L11.5 4.56L9.6 6.46C10.66 8.02 10.5 10.16 9.12 11.54C7.56 13.1 5.03 13.1 3.46 11.54C1.9 9.97 1.9 7.44 3.46 5.88C4.84 4.5 6.98 4.34 8.54 5.4L10.44 3.5L9.01 3.5C8.63 3.5 8.32 3.22 8.27 2.86L8.26 2.75C8.26 2.34 8.59 2 9.01 2L13 2ZM4.52 6.94C3.55 7.92 3.55 9.5 4.52 10.48C5.5 11.45 7.08 11.45 8.06 10.48C9.04 9.5 9.04 7.92 8.06 6.94C7.08 5.96 5.5 5.96 4.52 6.94Z"/>
</svg>