<svg xmlns="http://www.w3.org/2000/svg" viewBox="0 0 15 15">
  <path d="M15 0L15 3.99C15 4.41 14.66 4.74 14.25 4.74C13.84 4.74 13.5 4.41 13.5 3.99L13.5 2.56L11.6 4.46C12.66 6.02 12.5 8.16 11.12 9.54C9.89 10.77 8.05 11.03 6.56 10.32C6.16 10.52 5.72 10.66 5.25 10.72L5.25 11.75L6.75 11.75C7.16 11.75 7.5 12.09 7.5 12.5C7.5 12.91 7.16 13.25 6.75 13.25L5.25 13.25L5.25 14.25C5.25 14.66 4.91 15 4.5 15C4.09 15 3.75 14.66 3.75 14.25L3.75 13.25L2.25 13.25C1.84 13.25 1.5 12.91 1.5 12.5C1.5 12.09 1.84 11.75 2.25 11.75L3.75 11.75L3.75 10.62C2.02 10.18 0.75 8.61 0.75 6.75C0.75 4.54 2.54 2.75 4.75 2.75C5.37 2.75 5.96 2.89 6.48 3.14C7.76 2.49 9.33 2.57 10.54 3.4L12.44 1.5L11.01 1.5C10.63 1.5 10.32 1.22 10.27 0.86L10.26 0.75C10.26 0.34 10.59 0 11.01 0L15 0ZM4.75 4.25C3.37 4.25 2.25 5.37 2.25 6.75C2.25 8.13 3.37 9.25 4.75 9.25C4.89 9.25 5.04 9.24 5.17 9.21C4.02 7.78 4 5.73 5.11 4.28C5 4.26 4.87 4.25 4.75 4.25ZM7.88 4.24C8.42 4.93 8.75 5.8 8.75 6.75C8.75 7.66 8.44 8.51 7.93 9.18C8.68 9.29 9.48 9.06 10.06 8.48C11.04 7.5 11.04 5.92 10.06 4.94C9.46 4.35 8.65 4.11 7.88 4.24ZM6.5 4.97L6.52 4.94C5.55 5.92 5.55 7.5 6.52 8.48L6.54 8.49C6.98 8.04 7.25 7.43 7.25 6.75C7.25 6.05 6.96 5.42 6.5 4.97Z"/>
</svg>