<svg xmlns="http://www.w3.org/2000/svg" viewBox="0 0 15 15">
  <path d="M7.5 1C9.71 1 11.5 2.79 11.5 5C11.5 6.95 10.1 8.58 8.25 8.93L8.25 10.75L10 10.75C10.41 10.75 10.75 11.09 10.75 11.5C10.75 11.91 10.41 12.25 10 12.25L8.25 12.25L8.25 13.75C8.25 14.16 7.91 14.5 7.5 14.5C7.09 14.5 6.75 14.16 6.75 13.75L6.75 12.25L5 12.25C4.59 12.25 4.25 11.91 4.25 11.5C4.25 11.09 4.59 10.75 5 10.75L6.75 10.75L6.75 8.93C4.9 8.58 3.5 6.95 3.5 5C3.5 2.79 5.29 1 7.5 1ZM7.5 2.5C6.12 2.5 5 3.62 5 5C5 6.38 6.12 7.5 7.5 7.5C8.88 7.5 10 6.38 10 5C10 3.62 8.88 2.5 7.5 2.5Z"/>
</svg>