<svg xmlns="http://www.w3.org/2000/svg" viewBox="0 0 15 15">
  <path d="M13 0L13 3.99C13 4.41 12.66 4.74 12.25 4.74C11.84 4.74 11.5 4.41 11.5 3.99L11.5 2.56L9.6 4.46C10.66 6.02 10.5 8.16 9.12 9.54C8.52 10.14 7.78 10.51 7 10.65L7 11.75L8.5 11.75C8.91 11.75 9.25 12.09 9.25 12.5C9.25 12.91 8.91 13.25 8.5 13.25L7 13.25L7 14.25C7 14.66 6.66 15 6.25 15C5.84 15 5.5 14.66 5.5 14.25L5.5 13.25L4 13.25C3.59 13.25 3.25 12.91 3.25 12.5C3.25 12.09 3.59 11.75 4 11.75L5.5 11.75L5.5 10.63C4.75 10.48 4.04 10.12 3.46 9.54C1.9 7.97 1.9 5.44 3.46 3.88C4.84 2.5 6.98 2.34 8.54 3.4L10.44 1.5L9.01 1.5C8.63 1.5 8.32 1.22 8.27 0.86L8.26 0.75C8.26 0.34 8.59 0 9.01 0L13 0ZM4.52 4.94C3.55 5.92 3.55 7.5 4.52 8.48C5.5 9.45 7.08 9.45 8.06 8.48C9.04 7.5 9.04 5.92 8.06 4.94C7.08 3.96 5.5 3.96 4.52 4.94Z"/>
</svg>