<svg xmlns="http://www.w3.org/2000/svg" viewBox="0 0 15 15">
  <path d="M5.3 0.69C4.98 0.68 4.65 0.82 4.45 1.1L0.19 6.91C-0.06 7.26 -0.06 7.74 0.19 8.09L4.45 13.9C4.51 13.98 4.59 14.06 4.67 14.12C5.11 14.44 5.74 14.35 6.07 13.9L10.33 8.09C10.58 7.74 10.58 7.26 10.33 6.91L6.07 1.1C6.01 1.02 5.93 0.94 5.85 0.88C5.68 0.76 5.49 0.7 5.3 0.69zM9.78 0.69C9.46 0.68 9.14 0.82 8.93 1.1L8.12 2.21L11.14 6.32L11.14 6.33C11.64 7.03 11.64 7.97 11.14 8.67L11.14 8.68L8.12 12.79L8.93 13.9C8.99 13.98 9.07 14.06 9.15 14.12C9.59 14.44 10.22 14.35 10.55 13.9L14.81 8.09C15.06 7.74 15.06 7.26 14.81 6.91L10.55 1.1C10.49 1.02 10.41 0.94 10.33 0.88C10.17 0.76 9.98 0.7 9.78 0.69zZ"/>
</svg>