<svg xmlns="http://www.w3.org/2000/svg" viewBox="0 0 15 15">
  <path d="M0 4.18C0 4.07 0.21 4.07 0.43 3.96L0.29 3.69C0.16 3.43 0 3.05 0 2.68C0 1.82 0.43 1.07 0.64 1.07C0.86 1.07 1.18 1.82 1.18 2.68C1.18 3.21 0.96 3.64 0.86 3.96L2.14 3.96L2.14 1.07L3.43 1.07L4.29 7.5L2.14 7.5L2.14 4.39L0.86 4.39C0.96 4.71 1.29 5.14 1.29 5.68C1.29 6.54 0.96 7.29 0.75 7.29C0.43 7.18 0 6.43 0 5.57C0 5.04 0.32 4.61 0.43 4.29C0.21 4.29 0 4.18 0 4.18ZM12.32 11.36C13.06 11.36 13.48 11.75 13.79 12.06L13.93 12.21C14.25 12.54 14.46 12.75 14.79 12.75L14.79 13.82C13.93 13.82 13.5 13.29 13.18 12.96C12.86 12.64 12.64 12.43 12.32 12.43C12 12.43 11.79 12.64 11.46 12.96L11.24 13.19C10.94 13.49 10.53 13.82 9.86 13.82C9.12 13.82 8.7 13.43 8.39 13.11L7.98 12.68C7.82 12.52 7.68 12.43 7.39 12.43C7.01 12.43 6.89 12.6 6.64 12.86L6.31 13.19C6.01 13.49 5.61 13.82 4.93 13.82C4.07 13.82 3.64 13.29 3.32 12.96L3.1 12.74C2.89 12.55 2.71 12.43 2.46 12.43C2.18 12.43 2.04 12.52 1.88 12.68L1.39 13.19C1.09 13.49 0.68 13.82 0 13.82L0 12.75C0.43 12.75 0.54 12.54 0.86 12.21L1.1 11.96C1.4 11.67 1.81 11.36 2.46 11.36C3.32 11.36 3.75 11.89 4.07 12.21L4.34 12.5C4.5 12.66 4.64 12.75 4.93 12.75C5.22 12.75 5.36 12.66 5.52 12.5L5.95 12.05C6.25 11.74 6.67 11.36 7.39 11.36C8.13 11.36 8.55 11.75 8.86 12.06L9 12.21C9.32 12.54 9.54 12.75 9.86 12.75C10.1 12.75 10.28 12.63 10.49 12.43L10.94 11.98C11.24 11.69 11.64 11.36 12.32 11.36ZM15 8.57C14.79 9.32 14.46 9.96 13.61 10.5C13.29 10.39 12.96 10.29 12.43 10.29C11.22 10.29 10.48 11.04 10.13 11.49L10.07 11.57L9.96 11.57L9.71 11.32C9.29 10.9 8.64 10.39 7.5 10.39C6.35 10.39 5.7 10.91 5.28 11.33L5.04 11.57L4.79 11.32C4.36 10.9 3.71 10.39 2.57 10.39C1.42 10.39 0.78 10.91 0.35 11.33L0.11 11.57L0.11 8.57L15 8.57Z"/>
</svg>