<svg xmlns="http://www.w3.org/2000/svg" viewBox="0 0 15 15">
  <path d="M7.92 6.99C8.74 6.99 9.41 7.66 9.41 8.49C9.41 9.31 8.74 9.98 7.92 9.98L7.77 9.97L14.4 11.79L14.41 13.11L14.4 13.1C14.09 13.1 13.79 13.03 13.52 12.91C13.24 12.78 12.93 12.71 12.6 12.71C12.28 12.71 11.97 12.78 11.69 12.91C11.42 13.03 11.12 13.1 10.81 13.1C10.49 13.1 10.19 13.03 9.92 12.91C9.65 12.78 9.34 12.71 9.02 12.71C8.76 12.71 8.5 12.75 8.27 12.84L8.1 12.91C7.84 13.03 7.53 13.1 7.22 13.1C6.91 13.1 6.6 13.03 6.33 12.91C6.05 12.78 5.74 12.71 5.42 12.71C5.09 12.71 4.78 12.78 4.51 12.91C4.24 13.03 3.94 13.1 3.62 13.1C3.31 13.1 3.01 13.03 2.74 12.91C2.46 12.78 2.15 12.71 1.82 12.71C1.5 12.71 1.19 12.78 0.91 12.91C0.64 13.03 0.34 13.1 0.03 13.1L0.01 7.82L7.28 9.83C6.77 9.59 6.43 9.08 6.43 8.49C6.43 7.66 7.1 6.99 7.92 6.99ZM9.78 7.81L13.76 8.92L13.63 9.42L9.89 8.38C9.88 8.18 9.84 7.99 9.78 7.81ZM7.91 7.84C7.56 7.84 7.27 8.13 7.27 8.48C7.27 8.84 7.56 9.13 7.91 9.13C8.27 9.13 8.56 8.84 8.56 8.48C8.56 8.13 8.27 7.84 7.91 7.84ZM6.71 2L7.27 2.14L5.69 3.26L14.39 5.68L13.75 8.04L5.03 5.63C1.72 4.63 2.23 2.44 2.26 2.33L5.12 3.12L6.71 2ZM0 5.12L6.65 6.96C6.5 7.08 6.38 7.22 6.27 7.38L0 5.65L0 5.12Z"/>
</svg>