<svg xmlns="http://www.w3.org/2000/svg" viewBox="0 0 15 15">
  <path d="M8 8.35C7.1 8.6 6.55 9.5 6.8 10.45C7.05 11.35 7.95 11.9 8.9 11.65C9.8 11.4 10.35 10.5 10.1 9.55C9.85 8.65 8.9 8.1 8 8.35ZM8.65 10.7C8.25 10.8 7.9 10.55 7.75 10.2C7.65 9.8 7.9 9.45 8.25 9.3C8.65 9.2 9 9.45 9.15 9.8C9.25 10.2 9 10.6 8.65 10.7ZM4.65 7.75L15 7.85L15 5.1L4.7 5L6.1 3.3L5.45 3.3L4 5L0.6 5C0.65 5.05 0.65 7.65 4.65 7.75ZM0.65 5.25L0.6 5.25zM10.3 8.65C10.4 8.85 10.5 9.05 10.6 9.3L15 9.3L15 8.65L10.3 8.65ZM0.15 9.3L0.75 9.3L0.75 11.3L0.2 11.3L0.2 11.7L1.8 11.7L1.8 11.3L1.2 11.3L1.2 9.3L6.35 9.3C6.4 9.1 6.5 8.85 6.65 8.65L0 8.65L0.15 9.3Z"/>
</svg>