<svg xmlns="http://www.w3.org/2000/svg" viewBox="0 0 15 15">
  <path d="M0.5 8.39L13.41 12.43L12.2 13.23L11.39 13.23L10.18 12.43L9.38 12.43L8.17 13.23L7.36 13.23L6.15 12.43L5.34 12.43L4.13 13.23L3.32 13.23L2.11 12.43L1.31 12.43L0.5 12.97L0.5 8.39ZM2.63 2.5L2.78 2.5C2.33 3.99 3.06 5.03 4.98 5.62L9.98 7.15C11.9 7.74 13.08 7.29 13.54 5.8L13.67 5.89C14.33 6.37 14.64 7.29 14.44 8.22C14.17 9.46 13.07 10.31 11.99 10.1L11.36 9.97C11.05 9.91 10.81 9.85 10.64 9.8L3.19 7.51L2.72 7.36L2.43 7.25L2.08 7.1L1.67 6.93C0.66 6.49 0.22 5.18 0.69 3.99C1.04 3.11 1.81 2.53 2.63 2.5Z"/>
</svg>