<svg xmlns="http://www.w3.org/2000/svg" viewBox="0 0 15 15">
  <path d="M0.5 9.66L13.41 13.69L12.2 14.5L11.39 14.5L10.18 13.69L9.38 13.69L8.17 14.5L7.36 14.5L6.15 13.69L5.34 13.69L4.13 14.5L3.32 14.5L2.11 13.69L1.31 13.69L0.5 14.23L0.5 9.66ZM9.38 7.64C10.49 7.64 11.39 8.54 11.39 9.66C11.39 10.77 10.49 11.68 9.38 11.68C8.26 11.68 7.36 10.77 7.36 9.66C7.36 8.54 8.26 7.64 9.38 7.64ZM12 9.62L13.41 10.06L13.01 11.47L11.6 11.05C11.85 10.64 12 10.17 12 9.66L12 9.62ZM9.38 8.85C8.93 8.85 8.57 9.21 8.57 9.66C8.57 10.1 8.93 10.47 9.38 10.47C9.82 10.47 10.18 10.1 10.18 9.66C10.18 9.21 9.82 8.85 9.38 8.85ZM0.5 6.03L7.24 8.13C6.95 8.54 6.78 9.03 6.76 9.56L0.5 7.64L0.5 6.03ZM2.62 0.5L2.78 0.5C2.33 1.99 3.06 3.03 4.98 3.62L9.98 5.15C11.9 5.74 13.08 5.29 13.54 3.8L13.67 3.89C14.33 4.37 14.64 5.29 14.44 6.22C14.17 7.46 13.07 8.3 11.99 8.1L11.39 7.98C10.91 7.4 10.19 7.04 9.38 7.04C9.1 7.04 8.83 7.08 8.58 7.16L3.19 5.51L2.72 5.36L2.43 5.25L2.08 5.1L1.67 4.93C0.66 4.49 0.22 3.18 0.69 1.99C1.04 1.11 1.81 0.53 2.62 0.5Z"/>
</svg>