<svg xmlns="http://www.w3.org/2000/svg" viewBox="0 0 15 15">
  <path d="M15 12.27C14.66 12.27 14.39 11.86 14.05 11.8C13.77 11.66 13.43 11.59 13.09 11.59C12.75 11.59 12.41 11.66 12.14 11.8C11.86 11.86 11.59 12.27 11.25 12.27C10.91 12.27 10.64 11.86 10.3 11.8C10.02 11.66 9.68 11.59 9.34 11.59C9 11.59 8.66 11.66 8.39 11.8C8.11 11.86 7.84 12.27 7.5 12.27C7.16 12.27 6.89 11.86 6.55 11.8C6.27 11.66 5.93 11.59 5.59 11.59C5.25 11.59 4.91 11.66 4.64 11.8C4.36 11.86 4.09 12.27 3.75 12.27C3.41 12.27 3.14 11.86 2.8 11.8C2.52 11.66 2.18 11.59 1.84 11.59C1.5 11.59 1.16 11.66 0.89 11.8C0.61 11.86 0.34 12.14 0 12.27L0 10.77C0.34 10.64 0.61 10.57 0.95 10.43C1.23 10.3 1.57 10.23 1.91 10.23C2.25 10.23 2.59 10.3 2.86 10.43C3.14 10.57 3.48 10.64 3.82 10.64C4.16 10.64 4.43 10.57 4.77 10.43C4.98 10.3 5.32 10.23 5.59 10.23C5.86 10.23 6.27 10.3 6.55 10.43C6.82 10.57 7.16 10.64 7.5 10.64C7.84 10.64 8.11 10.57 8.45 10.43C8.73 10.3 9.07 10.23 9.41 10.23C9.75 10.23 10.09 10.3 10.36 10.43C10.64 10.57 10.98 10.64 11.32 10.64C11.66 10.64 11.93 10.57 12.27 10.43C12.55 10.3 12.89 10.23 13.23 10.23C13.57 10.23 13.91 10.3 14.18 10.43C14.45 10.57 14.8 10.64 15.14 10.64L15 12.27ZM13.16 6.75C13.3 6.68 13.43 6.55 13.43 6.34L13.43 5.86L13.91 5.86L13.91 4.36L13.91 4.36C13.91 4.02 13.7 3.75 13.36 3.68L12.82 2.39C12.75 2.18 12.55 2.05 12.34 2.05L9.55 2.05C9.34 2.05 9.14 2.18 9.07 2.39L8.52 3.68C8.25 3.75 7.98 4.02 7.98 4.36L7.98 4.36L7.98 5.86L8.45 5.86L8.45 6.34C8.45 6.55 8.59 6.68 8.73 6.75L6.27 6.75C6.41 6.68 6.55 6.55 6.55 6.34L6.55 5.86L7.02 5.86L7.02 4.36L7.02 4.36C7.02 4.02 6.82 3.75 6.48 3.68L5.93 2.39C5.86 2.18 5.66 2.05 5.45 2.05L2.66 2.05C2.45 2.05 2.25 2.18 2.18 2.39L1.64 3.68C1.36 3.75 1.09 4.02 1.09 4.36L1.09 4.36L1.09 5.86L1.57 5.86L1.57 6.34C1.57 6.55 1.7 6.68 1.84 6.75L0 6.75L0 7.91L1.3 7.91L2.32 9.14C2.52 9.2 2.66 9.2 2.86 9.34C3.14 9.48 3.48 9.55 3.82 9.55C4.16 9.55 4.43 9.48 4.77 9.34C5.05 9.2 5.39 9.14 5.73 9.14C6.07 9.14 6.41 9.2 6.68 9.34C6.95 9.48 7.3 9.55 7.64 9.55C7.98 9.55 8.25 9.48 8.59 9.34C8.86 9.2 9.2 9.14 9.55 9.14C9.89 9.14 10.23 9.2 10.5 9.34C10.77 9.48 11.11 9.55 11.45 9.55C11.8 9.55 12.07 9.48 12.41 9.34C12.61 9.27 12.82 9.2 13.02 9.14L14.05 7.91L15 7.91L15 6.75L13.16 6.75ZM2.25 6.75C2.39 6.68 2.52 6.55 2.52 6.34L2.52 5.86L5.59 5.86L5.59 6.34C5.59 6.55 5.73 6.68 5.86 6.75L2.25 6.75ZM9.2 6.75C9.34 6.68 9.48 6.55 9.48 6.34L9.48 5.86L12.55 5.86L12.55 6.34C12.55 6.55 12.68 6.68 12.82 6.75L9.2 6.75L9.2 6.75ZM2.05 4.09L2.59 2.52C2.59 2.45 2.66 2.45 2.73 2.45L5.39 2.45C5.45 2.45 5.52 2.52 5.52 2.52L6.14 4.09L6.14 4.77L5.45 4.77L5.45 4.09L2.73 4.09L2.73 4.77L2.05 4.77L2.05 4.09ZM8.86 4.09L9.48 2.52C9.48 2.45 9.55 2.45 9.61 2.45L12.27 2.45C12.34 2.45 12.41 2.52 12.41 2.52L12.95 4.09L12.95 4.77L12.27 4.77L12.27 4.09L9.55 4.09L9.55 4.77L8.86 4.77L8.86 4.09Z"/>
</svg>