<svg xmlns="http://www.w3.org/2000/svg" viewBox="0 0 15 15">
  <path d="M8.5 7.5L11.5 10L13 10C13 12 10.5 14 8.5 14L1.5 14L0 10L9.5 10L7.5 8L8.5 7.5ZM3 7.5C3.55 7.5 4 7.95 4 8.5L4 9.5L0 9.5L0 7.5L3 7.5ZM10.53 1C10.66 1 10.79 1.05 10.88 1.15L14.85 5.12C15.05 5.32 15.05 5.63 14.85 5.82L12.82 7.85C12.63 8.05 12.32 8.05 12.12 7.85L8.15 3.88C8.05 3.79 8 3.66 8 3.53L8 1.5C8 1.22 8.22 1 8.5 1L10.53 1ZM9.49 1.74C9.08 1.74 8.74 2.08 8.74 2.49C8.74 2.9 9.08 3.23 9.49 3.23C9.9 3.23 10.23 2.9 10.23 2.49C10.23 2.08 9.9 1.74 9.49 1.74Z"/>
</svg>