<svg xmlns="http://www.w3.org/2000/svg" viewBox="0 0 15 15">
  <path d="M1.24 11.25L5.01 11.25C5.18 11.25 5.31 11.11 5.31 10.94L5.31 5.31C5.31 5.18 5.22 5.06 5.09 5.02C4.96 4.98 4.82 5.03 4.75 5.14L0.99 10.78C0.93 10.87 0.92 10.99 0.98 11.09C1.03 11.19 1.13 11.25 1.24 11.25ZM6.25 11.25L13.75 11.25C13.83 11.25 13.91 11.22 13.97 11.16C14.03 11.1 14.06 11.02 14.06 10.93C13.93 5.19 10.26 0.24 6.26 0C6.17 0 6.09 0.03 6.03 0.09C5.97 0.15 5.94 0.23 5.94 0.31L5.94 10.94C5.94 11.11 6.08 11.25 6.25 11.25ZM14.38 12.19L0.63 12.19C0.28 12.19 0 12.47 0 12.81C0 14.02 0.98 15 2.19 15L12.81 15C14.02 15 15 14.02 15 12.81C15 12.47 14.72 12.19 14.38 12.19Z"/>
</svg>