<svg xmlns="http://www.w3.org/2000/svg" viewBox="0 0 15 15">
  <path d="M14.1 14.7C13.82 14.7 13.54 14.63 13.29 14.52C13.04 14.4 12.75 14.33 12.45 14.33C12.16 14.33 11.87 14.4 11.62 14.52C11.37 14.63 11.09 14.7 10.8 14.7C10.52 14.7 10.24 14.63 9.99 14.52C9.74 14.4 9.45 14.33 9.15 14.33C8.86 14.33 8.57 14.4 8.32 14.52C8.07 14.63 7.79 14.7 7.51 14.7C7.22 14.7 6.94 14.63 6.69 14.52C6.44 14.4 6.15 14.33 5.86 14.33C5.56 14.33 5.27 14.4 5.02 14.52C4.77 14.63 4.49 14.7 4.21 14.7C3.92 14.7 3.64 14.63 3.39 14.52C3.14 14.4 2.85 14.33 2.56 14.33C2.26 14.33 1.97 14.4 1.72 14.52C1.47 14.63 1.19 14.7 0.91 14.7L0.91 13.47C1.19 13.47 1.47 13.4 1.72 13.29C1.97 13.17 2.26 13.1 2.56 13.1C2.85 13.1 3.14 13.17 3.39 13.29C3.64 13.4 3.92 13.47 4.21 13.47C4.5 13.47 4.77 13.4 5.02 13.29C5.27 13.17 5.56 13.1 5.86 13.1C6.15 13.1 6.44 13.17 6.69 13.29C6.94 13.4 7.22 13.47 7.51 13.47C7.79 13.47 8.07 13.4 8.32 13.29C8.57 13.17 8.86 13.1 9.16 13.1C9.46 13.1 9.74 13.17 9.99 13.29C10.24 13.4 10.52 13.47 10.81 13.47C11.09 13.47 11.37 13.4 11.62 13.29C11.87 13.17 12.16 13.1 12.46 13.1C12.76 13.1 13.04 13.17 13.29 13.29C13.54 13.4 13.82 13.47 14.11 13.47L14.11 14.7L14.1 14.7ZM8.7 0.3L8.7 9.6L1.29 9.6L8.7 0.3ZM9.6 2.44C9.6 3.47 14.36 6.3 14.01 9.6L9.6 9.6L9.6 2.44ZM13.06 10.2L3 10.2L3 12.06C3.3 12.09 3.26 12.12 3.36 12.17C3.61 12.29 3.9 12.35 4.18 12.35C4.48 12.35 4.76 12.29 5.01 12.18C5.26 12.06 5.55 11.99 5.85 11.99C6.15 11.99 6.44 12.06 6.69 12.18C6.94 12.29 7.21 12.35 7.5 12.35C7.79 12.35 8.07 12.29 8.32 12.18C8.57 12.06 8.86 11.99 9.15 11.99C9.45 11.99 9.74 12.06 9.99 12.18C10.24 12.29 10.52 12.36 10.8 12.36C10.86 12.36 10.91 12.35 10.97 12.34L10.98 12.34L11.08 12.33C11.15 12.32 11.21 12.31 11.28 12.29C11.87 12.17 12.25 11.69 12.25 11.69L13.4 10.21L13.07 10.21L13.06 10.2Z"/>
</svg>