<svg xmlns="http://www.w3.org/2000/svg" viewBox="0 0 15 15">
  <path d="M15 13.18C14.68 13.18 14.36 13.07 14.04 12.96C13.82 12.86 13.5 12.86 13.18 12.86C12.86 12.86 12.54 12.96 12.21 13.07C11.89 13.18 11.57 13.29 11.25 13.29C10.93 13.29 10.61 13.18 10.29 13.07C10.07 12.86 9.75 12.86 9.43 12.86C9.11 12.86 8.79 12.96 8.46 13.07C8.14 13.18 7.82 13.29 7.5 13.29C7.18 13.29 6.86 13.18 6.54 13.07C6.32 12.86 6 12.86 5.57 12.86C5.25 12.86 4.93 12.96 4.61 13.07C4.29 13.18 3.96 13.29 3.64 13.29C3.32 13.29 3 13.18 2.68 13.07C2.57 12.86 2.25 12.86 1.82 12.86C1.5 12.86 1.18 12.96 0.86 13.07C0.54 13.18 0.21 13.29 -0.11 13.29L-0.11 11.89C0.21 11.89 0.54 11.79 0.86 11.68C1.18 11.57 1.5 11.46 1.82 11.46C2.14 11.46 2.46 11.57 2.79 11.68C3.11 11.79 3.43 11.89 3.75 11.89C4.07 11.89 4.39 11.79 4.71 11.68C5.04 11.57 5.36 11.46 5.68 11.46C6 11.46 6.32 11.57 6.64 11.68C6.86 11.79 7.18 11.89 7.5 11.89C7.82 11.89 8.14 11.79 8.46 11.68C8.79 11.57 9.11 11.46 9.43 11.46C9.75 11.46 10.07 11.57 10.39 11.68C10.71 11.79 11.04 11.89 11.36 11.89C11.68 11.89 12 11.79 12.32 11.68C12.64 11.57 12.96 11.46 13.29 11.46C13.61 11.46 13.93 11.57 14.25 11.68C14.57 11.79 14.89 11.89 15.21 11.89L15.21 13.18L15 13.18ZM8.04 7.5L6.64 4.29L8.04 3.75L7.71 2.79L6.75 3.21C6.75 3.21 6.54 3.32 6.32 3.43L5.68 1.82L4.82 2.14L5.46 3.75C4.82 4.07 4.07 4.39 4.07 4.39L4.39 5.25L5.89 4.61L7.29 7.82C4.5 9 1.82 10.18 1.93 10.18C2.25 10.18 2.57 10.29 2.89 10.39C3.21 10.5 3.54 10.61 3.86 10.61C4.18 10.61 4.5 10.5 4.82 10.39C5.14 10.29 5.46 10.18 5.79 10.18C6.11 10.18 6.43 10.29 6.75 10.39C6.86 10.5 7.18 10.5 7.5 10.5C7.82 10.5 8.14 10.39 8.46 10.29C8.79 10.18 9.11 10.07 9.43 10.07C9.75 10.07 10.07 10.18 10.39 10.29C10.71 10.39 11.04 10.5 11.36 10.5C11.46 10.5 11.57 10.5 11.68 10.5C11.89 10.5 12 10.5 12.21 10.39C12.21 10.39 12.21 10.39 12.21 10.39C12.32 8.79 12.96 5.36 12.96 5.36C12.96 5.36 10.61 6.43 8.04 7.5Z"/>
</svg>