<svg xmlns="http://www.w3.org/2000/svg" viewBox="0 0 15 15">
  <path d="M14.4 12.3C14.1 12.3 13.85 12.23 13.58 12.12C13.31 11.99 13.03 11.92 12.71 11.92C12.38 11.92 12.09 11.99 11.82 12.12C11.55 12.23 11.26 12.3 10.95 12.3C10.64 12.3 10.34 12.23 10.08 12.12C9.8 12 9.5 11.93 9.18 11.93C8.86 11.93 8.55 12 8.28 12.12C8.01 12.24 7.71 12.31 7.4 12.31C7.1 12.31 6.8 12.24 6.53 12.12C6.26 12 5.95 11.93 5.63 11.93C5.31 11.93 5 12 4.73 12.12C4.46 12.24 4.17 12.31 3.86 12.31C3.55 12.31 3.25 12.24 2.98 12.13C2.71 12 2.4 11.93 2.08 11.93C1.76 11.93 1.45 12 1.18 12.13C0.91 12.24 0.6 12.31 0.3 12.31L0.3 11.03C0.6 11.03 0.91 10.96 1.18 10.85C1.45 10.72 1.76 10.65 2.08 10.65C2.4 10.65 2.71 10.72 2.98 10.85C3.25 10.96 3.55 11.03 3.86 11.03C4.17 11.03 4.47 10.96 4.73 10.85C5 10.72 5.31 10.65 5.63 10.65C5.95 10.65 6.26 10.72 6.53 10.85C6.8 10.96 7.1 11.03 7.4 11.03C7.71 11.03 8.01 10.96 8.28 10.85C8.55 10.72 8.86 10.65 9.18 10.65C9.5 10.65 9.81 10.72 10.08 10.85C10.35 10.96 10.65 11.03 10.96 11.03C11.27 11.03 11.57 10.96 11.83 10.85C12.1 10.72 12.41 10.65 12.73 10.65C13.05 10.65 13.31 10.72 13.58 10.85C13.85 10.96 14.1 11.03 14.4 11.03L14.4 12.31L14.4 12.3ZM0.31 6.9L0.3 9.87C0.61 9.87 0.91 9.78 1.18 9.66C1.45 9.54 1.76 9.45 2.08 9.45C2.4 9.45 2.7 9.52 2.98 9.64C3.24 9.76 3.54 9.82 3.85 9.82C4.16 9.82 4.46 9.75 4.72 9.64C5 9.51 5.3 9.44 5.63 9.44C5.95 9.44 6.25 9.51 6.53 9.63C6.79 9.75 7.09 9.82 7.4 9.82C7.71 9.82 8.01 9.75 8.27 9.63C8.55 9.51 8.85 9.44 9.17 9.44C9.49 9.44 9.8 9.51 10.07 9.63C10.34 9.75 10.64 9.82 10.95 9.82C11.04 9.82 11.12 9.8 11.21 9.79C11.36 9.76 11.52 9.74 11.68 9.68L11.69 9.68C12.81 9.23 13.79 8.17 14.39 7.34L14.7 6.89L0.31 6.89L0.31 6.9ZM8.34 3.6L10.46 3.6C10.48 3.6 11.03 3.52 11.21 3.92L12 5.7L9.3 5.7L8.34 3.6L8.34 3.6ZM2.7 5.51C2.7 5.66 2.59 5.7 2.45 5.7L1.29 5.7C1.15 5.7 0.91 5.66 0.91 5.51L0.91 3.8C0.91 3.66 1.15 3.6 1.29 3.6L2.45 3.6C2.59 3.6 2.71 3.66 2.71 3.8L2.71 5.51L2.7 5.51ZM7.5 5.51C7.5 5.66 7.38 5.7 7.24 5.7L6.08 5.7C5.93 5.7 5.7 5.66 5.7 5.51L5.7 3.8C5.7 3.66 5.93 3.6 6.08 3.6L7.24 3.6C7.38 3.6 7.51 3.66 7.51 3.8L7.51 5.51L7.5 5.51ZM5.1 5.51C5.1 5.66 4.98 5.7 4.84 5.7L3.68 5.7C3.54 5.7 3.31 5.66 3.31 5.51L3.31 3.8C3.31 3.66 3.54 3.6 3.68 3.6L4.84 3.6C4.98 3.6 5.1 3.66 5.1 3.8L5.1 5.51ZM11.57 3.39C11.22 2.64 10.29 2.7 10.29 2.7L0.31 2.7L0.31 6.3L12.82 6.3L11.57 3.39L11.57 3.39Z"/>
</svg>