<svg xmlns="http://www.w3.org/2000/svg" viewBox="0 0 15 15">
  <path d="M2.48 14.08L2.78 13.59L3.09 13.11L3.24 12.91C3.31 12.82 3.37 12.75 3.46 12.66C3.78 12.34 3.89 12.29 4.38 12.14C5.31 11.86 6 11.69 6.86 11.49L7.55 11.34L8.37 11.18C9.08 11.05 9.34 11.05 9.86 10.96L10.38 10.87L10.91 10.69L11.35 10.5L11.8 10.27L12.3 9.94C12.36 9.89 12.45 9.82 12.62 9.69L13.01 9.33L13.33 8.97L13.68 8.52L13.82 8.32C13.85 8.27 13.89 8.21 13.94 8.13L14.21 7.65L14.44 7.16L14.59 6.76C14.69 6.51 14.73 6.36 14.85 5.88L14.94 5.48L14.98 5.13L15 4.75L15 4.41L14.97 4.01L14.88 3.36L14.78 3C14.63 2.54 14.52 2.2 14.3 1.79L14.21 1.69L14.11 1.54L14 1.44L13.88 1.37C13.59 2.21 13.48 2.99 13.53 3.71C13.58 4.62 11.32 8.06 11.15 7.46L10.35 5.25L9.86 3.87C9.8 3.62 9.7 3.39 9.63 3.16C9.2 1.84 8.16 1.06 7.34 0.57L6.48 0.07L6.35 0.02L6.25 0L6.22 0L6.17 0.08L6.13 0.19L6.12 0.31L6.18 0.46L6.81 2L7.72 4.2L8.45 6.07C8.5 6.22 8.54 6.33 8.56 6.38L8.68 7.05L8.72 7.43C8.72 7.47 8.73 7.52 8.74 7.58C8.74 7.8 8.73 7.87 8.7 8.05L8.66 8.2L8.6 8.31L8.55 8.41C8.54 8.43 8.53 8.45 8.52 8.48C8.11 9.07 7 9.6 6.11 9.86L6.03 9.86L5.84 9.84C5.39 9.8 4.51 9.59 4.66 8.68C4.85 7.58 6.64 5.94 6.45 5.9L6.35 5.91C5.69 6.2 2.7 6.36 2.79 8.58L2.84 9.21C2.97 10.77 3.12 10.76 1.75 11.92C1.57 12.25 0.15 12.3 0.03 12.86C-0.09 13.43 0.12 13.81 0.76 14.51C1.4 15.21 1.72 14.97 1.99 14.92C2.16 14.88 2.33 14.6 2.48 14.08Z"/>
</svg>