<svg xmlns="http://www.w3.org/2000/svg" viewBox="0 0 15 15">
  <path d="M3.88 0.25a0.38 0.38 0 0 0 -0.37 0.38a0.38 0.38 0 0 0 0.38 0.38c0.7 0 1.51 0.61 2 1.38a2 2.13 0 0 0 -0.38 1.24a2 2.13 0 0 0 0.29 1.1c0.57 -0.14 1.14 -0.22 1.71 -0.22c0.57 0 1.14 0.07 1.71 0.22a2 2.13 0 0 0 0.29 -1.1a2 2.13 0 0 0 -0.38 -1.24c0.49 -0.77 1.31 -1.38 2 -1.38a0.38 0.38 0 0 0 0.38 -0.37a0.38 0.38 0 0 0 -0.37 -0.37c-1.03 0 -1.95 0.7 -2.54 1.59a2 2.13 0 0 0 -1.08 -0.34a2 2.13 0 0 0 -1.08 0.34c-0.59 -0.88 -1.51 -1.59 -2.54 -1.59zm3.57 5.24c-0.31 0 -0.62 0.03 -0.94 0.09c0.04 0.67 0 1.36 -0.11 2.02c0.37 -0.06 0.73 -0.09 1.1 -0.09c0.45 0 0.91 0.05 1.36 0.14c-0.11 -0.67 -0.16 -1.35 -0.12 -2.02c-0.43 -0.1 -0.87 -0.15 -1.3 -0.14zm-2 0.86c-2.45 0.96 -3.63 2.24 -3.88 3.31c-0.14 0.6 -0.06 1.14 0.12 1.51c0.18 0.38 0.44 0.56 0.63 0.59c0.37 0.05 0.75 -0.07 1.14 -0.37c0.39 -0.31 0.79 -0.8 1.12 -1.41c0.54 -1.01 0.83 -2.33 0.87 -3.62zm4.37 0c0.04 1.29 0.33 2.61 0.87 3.62c0.33 0.61 0.72 1.11 1.12 1.41c0.39 0.31 0.77 0.43 1.14 0.38c0.19 -0.03 0.45 -0.21 0.63 -0.59c0.18 -0.38 0.26 -0.91 0.12 -1.51c-0.25 -1.07 -1.43 -2.35 -3.88 -3.31zm-2.31 2.14c-0.44 0 -0.89 0.06 -1.33 0.16c-0.18 0.64 -0.42 1.24 -0.71 1.79c-0.09 0.17 -0.18 0.32 -0.28 0.48c0.77 -0.27 1.55 -0.4 2.33 -0.4c0.89 0 1.78 0.18 2.66 0.53c-0.13 -0.19 -0.25 -0.39 -0.36 -0.6c-0.28 -0.52 -0.51 -1.1 -0.69 -1.72c-0.54 -0.16 -1.07 -0.23 -1.61 -0.23zm0 3c-0.81 0 -1.63 0.18 -2.46 0.54c0.67 1.34 1.79 2.47 2.46 2.47s1.79 -1.12 2.46 -2.47c-0.83 -0.36 -1.64 -0.54 -2.46 -0.54z"/>
</svg>