<svg xmlns="http://www.w3.org/2000/svg" viewBox="0 0 15 15">
  <path d="M4.2 5.57L4.2 7.05C4.2 7.59 4.51 8.08 5 8.32C5.53 8.06 6.11 7.93 6.69 7.93L8.55 7.93L11.8 11.12L11.8 13.27C11.8 13.37 11.84 13.47 11.92 13.54L12.48 14.1C12.56 14.17 12.6 14.27 12.6 14.38L12.6 14.61C12.6 14.82 12.42 15 12.2 15L11.17 15C11.06 15 10.96 14.96 10.88 14.88L10.32 14.33C10.24 14.26 10.2 14.16 10.2 14.05L10.2 12.25C10.2 12.03 10.02 11.86 9.8 11.86L7.25 11.86C7.1 11.86 6.96 11.94 6.89 12.07L6.33 13.18C6.25 13.33 6.28 13.51 6.4 13.63L6.88 14.1C6.96 14.17 7 14.27 7 14.38L7 14.61C7 14.82 6.82 15 6.6 15L5.57 15C5.46 15 5.36 14.96 5.28 14.88L4.72 14.33C4.64 14.26 4.6 14.16 4.6 14.05L4.6 10.45C4.6 10.34 4.56 10.24 4.48 10.17L3.7 9.4C3.25 8.96 3 8.36 3 7.74L3 7.54C3 6.8 3.37 6.11 4 5.7L4.2 5.57ZM11.4 4C11.62 4 11.8 4.18 11.8 4.39L11.8 5.33C11.8 5.48 11.89 5.61 12.02 5.68L14.64 6.97C14.86 7.07 15 7.29 15 7.54L15 7.6C15 7.81 14.92 8.01 14.77 8.16L14.2 8.71L12.6 8.71L12.08 9.73L9.42 7.11L10.89 4.22C10.96 4.08 11.1 4 11.25 4L11.4 4ZM4.5 0C5.77 0 6.94 0.19 8.02 0.58L8.38 0.72C8.75 0.87 9 1.24 9 1.64L9 4.5C9 4.78 8.78 5 8.5 5C8.22 5 8 4.78 8 4.5L8 2L7 2L7 4.5C7 4.78 6.78 5 6.5 5C6.22 5 6 4.78 6 4.5L6 2L5 2L5 4.5C5 4.78 4.78 5 4.5 5C4.22 5 4 4.78 4 4.5L4 2L3 2L3 4.5C3 4.78 2.78 5 2.5 5C2.22 5 2 4.78 2 4.5L2 2L1 2L1 4.5C1 4.78 0.78 5 0.5 5C0.22 5 0 4.78 0 4.5L0 1.64C0 1.24 0.25 0.87 0.62 0.72C1.8 0.24 3.09 0 4.5 0Z"/>
</svg>