<svg xmlns="http://www.w3.org/2000/svg" viewBox="0 0 15 15">
  <path d="M3 7L3 15L1 15L1 7.78L0 8.16L0 6L15 1L15 3.14L3 7ZM5.5 6.86L5.5 8.13C5.5 8.6 5.76 9.02 6.17 9.23C6.61 9.01 7.09 8.89 7.58 8.89L9.13 8.89L11.83 11.65L11.83 13.5C11.83 13.59 11.87 13.68 11.93 13.74L12.4 14.22C12.46 14.29 12.5 14.37 12.5 14.46L12.5 14.66C12.5 14.85 12.35 15 12.17 15L11.3 15C11.22 15 11.13 14.96 11.07 14.9L10.6 14.42C10.54 14.36 10.5 14.27 10.5 14.18L10.5 12.63C10.5 12.44 10.35 12.29 10.17 12.29L8.04 12.29C7.91 12.29 7.8 12.36 7.74 12.47L7.27 13.42C7.21 13.55 7.24 13.71 7.34 13.82L7.74 14.22C7.8 14.29 7.83 14.37 7.83 14.46L7.83 14.66C7.83 14.85 7.68 15 7.5 15L6.64 15C6.55 15 6.46 14.96 6.4 14.9L5.93 14.42C5.87 14.36 5.83 14.27 5.83 14.18L5.83 11.07C5.83 10.98 5.8 10.89 5.74 10.83L5.09 10.17C4.71 9.79 4.5 9.27 4.5 8.73L4.5 8.55C4.5 7.92 4.81 7.32 5.33 6.97L5.5 6.86ZM11.5 5.5C11.68 5.5 11.83 5.65 11.83 5.84L11.83 6.65C11.83 6.78 11.9 6.89 12.02 6.95L14.2 8.06C14.38 8.16 14.5 8.35 14.5 8.55L14.5 8.61C14.5 8.79 14.43 8.96 14.3 9.09L13.83 9.57L12.5 9.57L12.07 10.45L9.85 8.19L11.07 5.69C11.13 5.57 11.25 5.5 11.37 5.5L11.5 5.5Z"/>
</svg>