<svg xmlns="http://www.w3.org/2000/svg" viewBox="0 0 15 15">
<path d="M11.35 2.24C11.09 2.27 10.86 2.37 10.69 2.54L8.61 4.62 10.13 6.16 12.06 4.23H13.77C14.34 4.23 14.5 3.52 14.5 3.52H12.56C12.63 3.19 12.52 2.87 12.28 2.62 12.04 2.39 11.76 2.26 11.47 2.24ZM1.5 3.52V6.4C1.57 7.17 2.38 8.45 4.21 9.01V12H4.75 6.92C6.92 12 6.22 11.56 5.83 11.46 5.49 11.37 4.75 11.46 4.75 11.46V9.15C4.92 9.18 5.11 9.22 5.29 9.25V11.02H5.83 8C8 11.02 7.31 10.57 6.92 10.47 6.57 10.39 5.83 10.47 5.83 10.47V9.29C7.95 9.17 9.22 8.31 9.81 6.72L8.05 4.96H3.67Z" />
</svg>