<svg xmlns="http://www.w3.org/2000/svg" viewBox="0 0 15 15">
<path d="M11.35 4.74C11.09 4.77 10.86 4.87 10.69 5.04L8.61 7.12L10.13 8.66L12.06 6.73L13.77 6.73C14.34 6.73 14.5 6.02 14.5 6.02L12.56 6.02C12.63 5.69 12.52 5.37 12.28 5.12C12.04 4.89 11.76 4.76 11.47 4.74L11.35 4.74ZM1.5 6.02L1.5 8.9C1.53 9.28 1.74 9.77 2.16 10.25C2.86 10.26 3.32 10.65 3.66 10.9C4 11.15 4.21 11.25 4.29 11.25C4.36 11.25 4.57 11.15 4.91 10.9C5.25 10.65 5.72 10.25 6.43 10.25C7.14 10.25 7.61 10.65 7.95 10.9C8.08 10.99 8.19 11.07 8.28 11.12C9 10.69 9.5 10.06 9.81 9.22L8.05 7.46L3.67 7.46L1.5 6.02ZM2.14 11C1.35 11 0 12 0 12L0 14C0 14 1.35 13 2.14 13C2.93 13 3.5 14 4.29 14C5.07 14 5.64 13 6.43 13C7.22 13 7.78 14 8.57 14C9.36 14 9.93 13 10.71 13C11.5 13 12.07 14 12.86 14C13.65 14 15 13 15 13L15 11C15 11 13.65 12 12.86 12C12.07 12 11.5 11 10.71 11C9.93 11 9.36 12 8.57 12C7.78 12 7.22 11 6.43 11C5.64 11 5.07 12 4.29 12C3.5 12 2.93 11 2.14 11Z" />
</svg>