<svg xmlns="http://www.w3.org/2000/svg" viewBox="0 0 15 15">
<path d="M 12.64,7.27 V 7.22 C 12.98,7.19 13.29,7.45 13.32,7.79 V 7.84 C 12.97,7.87 12.67,7.62 12.64,7.27 Z M 12.22,7.26 C 12.22,7.83 12.69,8.26 13.22,8.26 L 12.82,11.36 C 12.74,12.04 12.98,12.76 13.49,13.16 13.57,13.24 13.7,13.23 13.77,13.15 L 14.11,12.81 C 14.15,12.76 14.15,12.63 14.06,12.56 13.73,12.26 13.58,11.82 13.66,11.36 L 14.26,8.26 C 14.61,8.26 14.89,7.98 14.89,7.63 H 14.47 C 14.36,7.63 14.26,7.54 14.27,7.46 14.27,7.43 14.59,6.17 14.59,6.17 14.68,5.83 14.71,5.48 14.66,5.17 L 14.45,3.77 C 14.29,2.67 13.35,1.77 12.15,1.77 H 11.25 C 11.06,1.77 10.89,1.85 10.77,2 L 9.07,4.1 C 9.01,4.17 8.96,4.25 8.91,4.33 8.6,4.95 8.85,5.73 9.47,6.03 L 11.27,6.95 C 11.33,6.98 11.39,7 11.46,7 11.69,7 11.78,6.81 11.78,6.58 V 6.37 L 12.11,6.62 C 12.16,6.66 12.19,6.73 12.21,6.82 Z M 1.19,6.81 V 4.71 C 1.09,4.42 0.92,4.84 0.82,4.89 0.79,4.93 0.78,4.97 0.78,5.02 V 7.42 C 0.78,7.83 0.53,8.2 0.15,8.37 V 7.88 C 0.28,7.76 0.36,7.59 0.36,7.42 V 4.92 C 0.36,4.74 0.43,4.58 0.56,4.46 L 2.16,2.96 C 2.97,2.21 4.06,1.76 5.16,1.76 H 10.36 L 8.66,3.86 C 8.59,3.95 8.53,4.05 8.47,4.15 8.05,4.97 8.36,5.95 9.17,6.35 L 10.87,7.24 C 11.04,7.33 11.16,7.5 11.19,7.7 L 12.1,13 C 12.11,13.11 12.14,13.22 12.02,13.24 H 10.49 C 10.39,13.24 10.3,13.17 10.28,13.07 L 9.31,8.37 C 9.29,8.27 9.2,8.2 9.09,8.2 7.59,8.27 6.09,8.2 4.69,7.98 L 5.27,10.78 C 5.34,11.1 5.37,11.42 5.37,11.74 V 12.94 C 5.37,13.06 5.27,13.15 5.16,13.15 H 3.66 C 3.55,13.15 3.45,13.06 3.45,12.94 V 11.74 C 3.45,10.98 3.16,10.24 2.63,9.74 M 7.52,8.74 C 7.54,8.64 7.63,8.56 7.73,8.56 8.08,8.57 8.42,8.56 8.73,8.55 8.83,8.55 8.92,8.62 8.94,8.72 L 9.12,9.56 C 9.13,9.61 9.12,9.65 9.1,9.7 L 8.64,10.6 C 8.63,10.63 8.62,10.67 8.62,10.7 V 12.9 C 8.62,13.02 8.53,13.11 8.41,13.11 H 7.01 C 6.9,13.11 6.8,13.02 6.81,12.96 6.81,12.95 7.52,8.74 7.52,8.74 Z M 0.11,12.87 V 12.9 C 0.11,13.02 0.21,13.11 0.32,13.11 H 1.72 C 1.83,13.11 1.93,13.02 1.93,12.9 L 1.95,10.64 C 1.95,10.61 2.25,10.13 2.25,10.13 L 0.95,7.53 Z" />
</svg>
