<svg xmlns="http://www.w3.org/2000/svg" viewBox="0 0 15 15">
<path d="M 11.79,0.12 C 11.57,0.44 11.35,0.76 11.13,1.08 11.07,0.7 10.42,-0.32 10.42,0.56 10.29,1.12 11.2,2.16 10.39,2.26 9.38,2.3 8.37,2.02 7.5,1.5 7.24,2.17 8.22,2.58 7.53,3.07 7.24,3.5 7.14,4.59 7.41,4.7 7.64,4.25 8.57,3.81 8.79,4.03 8.39,4.51 8.61,5.4 9.26,5.5 9.73,5.6 10.02,6.58 10.05,6.56 10.1,5.36 11.01,4.32 12.14,3.98 12.41,4.28 12.47,5.26 12.85,4.52 12.9,4.01 13.13,4.07 13.29,4.52 13.35,5.31 13.9,3.9 13.46,3.62 13.11,3.25 14.24,3.42 14.42,3.08 14.8,2.8 14.92,2.27 14.46,2.03 14.11,1.71 15.11,1.71 14.79,1.45 14.32,1.52 13.62,1.79 13.25,1.53 13.42,1.33 13.99,0.74 13.36,0.96 12.97,1.24 12.28,1.37 12.72,0.78 12.85,0.59 13.15,-0.05 12.7,0.24 12.44,0.53 12.07,1.2 11.81,1.19 11.9,0.86 11.95,0.52 12.02,0.18 12.04,0.1 11.8,0.03 11.79,0.12 Z M 3.63,1.49 C 2.29,1.54 1.03,2.27 0.24,3.34 0.6,3.58 1.7,2.72 1.08,3.29 0.29,4.18 -0.03,5.46 0.24,6.62 0.91,5.99 1.05,4.92 1.92,4.46 2.73,3.95 3.8,3.96 4.63,4.42 3.89,5.33 3.63,6.59 3.9,7.72 2.54,6.91 0.6,7.79 0.27,9.33 0.2,9.78 1.06,9.02 1.31,8.85 1.67,8.29 2.52,8.08 3,8.63 3.23,9 2.12,8.93 1.9,9.3 0.36,10.27 -0.11,12.55 0.97,14.02 1.2,14.36 1.77,14.96 2,14.92 1.84,14.17 1.01,13.86 0.9,13.09 0.41,11.57 1.53,9.77 3.13,9.6 1.8,10.17 1.27,11.99 2.09,13.19 2.58,14.15 2.54,12.7 2.49,12.26 2.26,11.58 2.87,10.95 3.43,10.65 3.92,10.7 4.51,10.91 5.04,10.69 5.65,10.63 5.92,9.85 6.53,9.94 7.43,10.22 6.86,11.29 6.13,11.27 5.81,11.8 6.53,12.03 6.74,11.5 7.38,10.98 8.38,11.02 8.99,11.56 9.68,11.54 8.58,10.67 8.19,10.77 7.49,10.78 8.93,10.23 9.27,10.43 9.5,10.52 10.33,10.78 9.84,10.36 9.21,9.99 8.46,10.06 7.78,10.06 6.83,9.49 7.98,8.69 8.66,8.66 9.19,8.54 10.77,8.31 10.34,9.24 9.77,9.3 10.23,9.81 10.54,9.45 11.1,9.24 11.73,9.84 11.53,10.41 11.85,9.91 11.73,9.23 11.17,8.96 11.76,8.59 12.25,9.45 12.34,9.62 12.83,8.99 11.93,8.46 11.38,8.43 11.1,8.33 12.13,8.11 12.38,8.36 13.24,8.83 12.01,7.45 11.43,7.87 10.79,7.92 10.18,8.38 9.53,8.07 8.55,7.73 8.39,6.57 8.68,5.72 8.2,5.41 8.51,4.15 7.89,4.96 7.55,5.19 7.6,6.01 7.53,6.04 6.94,5.24 6.83,4.13 7.23,3.22 6.35,2.26 5.03,1.71 3.73,1.82 3.7,1.71 3.66,1.6 3.63,1.49 Z" />
</svg>
