<svg xmlns="http://www.w3.org/2000/svg" viewBox="0 0 15 15">
  <path d="M1.51 0.76c-0.12 0 -0.21 0.09 -0.21 0.2c0 0.12 -0.1 0.21 -0.21 0.21c-0.12 0 -0.21 0.1 -0.21 0.21v1.24c0 0.12 0.1 0.21 0.21 0.21c0.12 0 0.21 0.1 0.21 0.21V3.86L1.17 3.78C1.08 3.71 0.95 3.73 0.88 3.82C0.81 3.91 0.68 3.93 0.59 3.86C0.5 3.79 0.37 3.81 0.3 3.9C0.23 3.99 0.25 4.12 0.34 4.19C0.43 4.26 0.45 4.39 0.38 4.48C0.31 4.57 0.33 4.7 0.42 4.77L1.3 5.42V6.51C1.21 6.44 1.08 6.46 1.01 6.55C0.94 6.64 0.96 6.77 1.05 6.84C1.14 6.91 1.16 7.04 1.09 7.13C1.02 7.22 1.04 7.35 1.13 7.42L1.3 7.55v4.52c0.14 0 0.28 0.02 0.41 0.05V7.83l0.42 0.32v0.68v3.44c0.15 0.06 0.27 0.16 0.4 0.25V8.78C2.51 8.55 2.53 8.32 2.57 8.1C2.6 8.09 2.62 8.08 2.65 8.08c0.05 0 0.1 0.01 0.15 0.04c0.09 0.23 0.14 0.47 0.15 0.71v3.92c0.14 0.06 0.28 0.1 0.42 0.13V8.83C3.38 8.49 3.29 8.15 3.11 7.86C3.02 7.79 3 7.66 3.07 7.57C3.14 7.48 3.12 7.35 3.03 7.28L2.86 7.15C2.94 6.94 3.04 6.73 3.16 6.54C3.59 7.15 3.81 7.88 3.78 8.63v4.28c0.14 0 0.28 -0.02 0.41 -0.05V8.61C4.19 7.71 3.9 6.83 3.36 6.11C3.61 5.74 3.88 5.39 4.19 5.07c0 0.12 0.1 0.21 0.21 0.21c0.12 0 0.21 0.1 0.21 0.21v7.23C4.75 12.66 4.88 12.58 5 12.49V5.55C5 5.43 5.1 5.34 5.21 5.34C5.33 5.34 5.42 5.24 5.42 5.13V4.71C5.88 4.52 6.37 4.43 6.87 4.45C7.04 4.43 7.12 4.63 7.08 4.71c0 0.12 0.1 0.21 0.21 0.21H8.54C8.66 4.92 8.75 4.82 8.75 4.71C8.75 4.6 8.84 4.5 8.96 4.5C9.08 4.5 9.17 4.4 9.17 4.29C9.17 4.17 9.07 4.08 8.96 4.08C8.84 4.08 8.75 3.98 8.75 3.87C8.75 3.75 8.65 3.66 8.54 3.66H7.32c-0.12 0 -0.21 0.1 -0.21 0.21c0 0.12 -0.1 0.21 -0.21 0.21c-0.49 0 -0.98 0.07 -1.44 0.21V3.87C5.46 3.75 5.36 3.66 5.25 3.66C5.13 3.66 5.04 3.56 5.04 3.45C5.04 3.33 4.94 3.24 4.83 3.24C4.71 3.24 4.62 3.34 4.62 3.45C4.62 3.57 4.52 3.66 4.41 3.66C4.29 3.66 4.2 3.76 4.2 3.87V4.7C3.81 5 3.47 5.35 3.17 5.74C2.95 5.52 2.69 5.34 2.41 5.23C2.32 5.16 2.3 5.03 2.37 4.94C2.44 4.85 2.42 4.72 2.33 4.65C2.56 4.35 2.78 4.04 2.99 3.72C3.06 3.63 3.19 3.6 3.28 3.67C3.37 3.74 3.5 3.71 3.57 3.62L4.29 2.6C4.36 2.51 4.33 2.38 4.24 2.31C4.15 2.24 4.12 2.11 4.19 2.02C4.26 1.93 4.23 1.8 4.14 1.73C4.05 1.66 3.92 1.69 3.85 1.78C3.78 1.87 3.66 1.9 3.57 1.83C3.48 1.76 3.35 1.79 3.28 1.88L2.55 2.9C2.48 2.99 2.51 3.12 2.6 3.19C2.69 3.26 2.72 3.39 2.65 3.48C2.49 3.82 2.29 4.14 2.04 4.43L1.72 4.19V3.06c0 -0.12 0.1 -0.21 0.21 -0.21c0.12 0 0.21 -0.1 0.21 -0.21V1.39C2.14 1.27 2.04 1.18 1.93 1.18C1.81 1.18 1.72 1.08 1.72 0.97C1.72 0.85 1.62 0.76 1.51 0.76ZM2.17 5.52C2.51 5.59 2.81 5.82 2.96 6.14C2.81 6.39 2.67 6.64 2.53 6.91L1.88 6.4Zm11.38 3.1C13.37 8.61 13.19 8.69 13.06 8.83l-1.05 0.98l0.82 0.83l1.16 -0.97h0.57c0.23 0 0.42 -0.19 0.42 -0.42H14.15C14.15 9.07 14.07 8.9 13.94 8.78C13.83 8.68 13.69 8.63 13.55 8.62ZM6.7 9.25L6.89 10.94c0.06 0.69 0.4 1.33 0.93 1.75c0.7 0.35 1.54 0.28 2.18 -0.2c0.71 -0.54 1.67 -0.56 2.4 -0.07c0.23 -0.31 0.33 -0.7 0.28 -1.08c-0.03 -0.15 -0.07 -0.29 -0.13 -0.42L11.71 10.08H8.33ZM2.45 13c0.74 0.56 1.76 0.56 2.5 0c0.74 -0.56 1.76 -0.56 2.5 0c0.74 0.56 1.76 0.56 2.5 0c0.74 -0.56 1.76 -0.56 2.5 0c0.94 0.46 1.62 0.52 2.55 0v0.82c-0.74 0.56 -1.81 0.56 -2.55 0c-0.74 -0.56 -1.76 -0.56 -2.5 0c-0.74 0.56 -1.76 0.56 -2.5 0c-0.74 -0.56 -1.76 -0.56 -2.5 0c-0.74 0.56 -1.76 0.56 -2.5 0C1.71 13.26 0.74 13.26 0 13.82V12.99C0.46 12.63 0.97 12.58 1.12 12.58C1.62 12.59 2.09 12.73 2.45 13Z"/>
</svg>