<svg xmlns="http://www.w3.org/2000/svg" viewBox="0 0 15 15">
  <path d="m 12.41,0.02 c -0.1,0 -0.2,0.01 -0.29,0.03 C 10.88,0.31 9.74,0.87 8.79,1.7 7.79,2.52 7.41,3.88 7.85,5.1 8.07,5.61 8.04,6.18 7.76,6.65 l -3.28,3.28 -1.01,0.53 1.07,1.06 0.52,-1 3.28,-3.29 C 8.81,6.96 9.39,6.92 9.89,7.14 11.11,7.58 12.47,7.2 13.29,6.2 14.11,5.25 14.68,4.11 14.93,2.88 15.07,2.09 14.82,1.3 14.26,0.74 13.77,0.25 13.09,-0.01 12.41,0.02 Z m 0.18,0.89 c 0.72,0.03 1.35,0.57 1.47,1.31 0.03,0.16 0.03,0.33 0,0.49 C 14.04,2.79 14.02,2.88 14,2.96 L 12.03,0.99 c 0.08,-0.02 0.16,-0.04 0.25,-0.06 0.11,-0.02 0.21,-0.02 0.31,-0.02 z m -0.98,0.2 2.27,2.27 c -0.09,0.3 -0.21,0.59 -0.34,0.87 L 10.75,1.46 c 0.28,-0.14 0.57,-0.25 0.87,-0.35 z m -1.22,0.53 2.95,2.95 C 13.16,4.93 12.95,5.24 12.71,5.54 L 9.46,2.29 C 9.75,2.04 10.07,1.83 10.39,1.64 Z M 9.17,2.56 12.44,5.83 C 12.19,6.07 11.9,6.25 11.58,6.36 L 8.65,3.44 C 8.76,3.11 8.93,2.81 9.17,2.56 Z M 8.55,3.88 11.14,6.47 C 10.82,6.52 10.49,6.49 10.17,6.4 9.39,6.2 8.79,5.6 8.6,4.83 8.52,4.51 8.5,4.19 8.55,3.88 Z m 1.89,6.17 1.24,3.29 h 0.01 0.01 1.96 0.01 l 0.01,-0.01 1.31,-3.29 h -0.91 l -0.93,2.6 0.26,-2.6 h -1.15 l 0.11,2.6 -1.02,-2.6 c -0.47,0.01 -0.44,0 -0.91,0 z m -7.2,0.65 v 2 l 1,-1 z M 2.97,11.1 2.21,11.86 v 1.86 L 2.97,12.96 Z M 1.94,12.14 1.18,12.9 v 1.86 l 0.75,-0.77 z m -1.05,1.03 -0.88,0.89 0.88,0.88 z m 10.78,0.8 c 0,0.56 0.45,1.01 1.01,1.01 0.56,0 1.01,-0.45 1.01,-1.01 v -0.01 c -0.67,-0 -1.35,-0.01 -2.02,0 z" />
</svg>
