<svg xmlns="http://www.w3.org/2000/svg" viewBox="0 0 15 15">
  <path d="M12.41 0.02c-0.1 0 -0.2 0.01 -0.29 0.03C10.88 0.31 9.74 0.87 8.79 1.7C7.79 2.52 7.41 3.88 7.85 5.1C8.07 5.61 8.04 6.18 7.76 6.65l-3.28 3.28l-1.01 0.53l1.07 1.06l0.52 -1l3.28 -3.29C8.81 6.96 9.39 6.92 9.89 7.14C11.11 7.58 12.47 7.2 13.29 6.2C14.11 5.25 14.68 4.11 14.93 2.88C15.07 2.09 14.82 1.3 14.26 0.74C13.77 0.25 13.09 -0.01 12.41 0.02Zm0.18 0.89c0.72 0.03 1.35 0.57 1.47 1.31c0.03 0.16 0.03 0.33 0 0.49C14.04 2.79 14.02 2.88 14 2.96L12.03 0.99c0.08 -0.02 0.16 -0.04 0.25 -0.06c0.11 -0.02 0.21 -0.02 0.31 -0.02zm-0.98 0.2l2.27 2.27c-0.09 0.3 -0.21 0.59 -0.34 0.87L10.75 1.46c0.28 -0.14 0.57 -0.25 0.87 -0.35zm-1.22 0.53l2.95 2.95C13.16 4.93 12.95 5.24 12.71 5.54L9.46 2.29C9.75 2.04 10.07 1.83 10.39 1.64ZM9.17 2.56L12.44 5.83C12.19 6.07 11.9 6.25 11.58 6.36L8.65 3.44C8.76 3.11 8.93 2.81 9.17 2.56ZM8.55 3.88L11.14 6.47C10.82 6.52 10.49 6.49 10.17 6.4C9.39 6.2 8.79 5.6 8.6 4.83C8.52 4.51 8.5 4.19 8.55 3.88Zm1.89 6.17l1.24 3.29h0.01h0.01h1.96h0.01l0.01 -0.01l1.31 -3.29h-0.91l-0.93 2.6l0.26 -2.6h-1.15l0.11 2.6l-1.02 -2.6c-0.47 0.01 -0.44 0 -0.91 0zm-7.2 0.65v2l1 -1zM2.97 11.1L2.21 11.86v1.86L2.97 12.96ZM1.94 12.14L1.18 12.9v1.86l0.75 -0.77zm-1.05 1.03l-0.88 0.89l0.88 0.88zm10.78 0.8c0 0.56 0.45 1.01 1.01 1.01c0.56 0 1.01 -0.45 1.01 -1.01v-0.01c-0.67 0 -1.35 -0.01 -2.02 0z"/>
</svg>