<svg xmlns="http://www.w3.org/2000/svg" viewBox="0 0 15 15">
<path d="M 13.71,0 C 13.336051,0.03238785 11.573748,1.7483034 8.5304655,4.8993182 7.1969027,6.5498182 5.8909107,8.2249726 4.5401538,9.8600972 L 1.05,13.36 C 0.67005215,13.361575 0.11226314,13.274721 0.01087891,13.773984 -0.04015693,14.262839 0.48459652,14.502671 0.75,14.84 1.2239772,15.283685 1.7779736,14.67802 1.63,14.163108 1.5532505,13.841025 5.2161385,10.382468 5.3524243,10.253954 6.9918048,8.9291442 8.6561758,7.6322416 10.279972,6.2900282 11.804903,4.7516919 13.357992,3.2389251 14.865176,1.6844727 15.407856,0.95227809 13.881289,-0.02698458 13.71,0 Z M 10.02,12.46 C 11.396495,12.457327 12.546213,11.213947 12.61,9.91 11.251685,9.8927334 10.022718,11.111544 10.02,12.46 Z M 13.11,10.01 C 13.067742,11.580092 11.676052,12.931624 10.12,13 10.316501,13.912244 11.086643,14.63556 11.98,14.86 12.027678,13.293149 13.417197,11.943771 14.97,11.87 14.753983,10.965146 14.014777,10.226428 13.11,10.01 Z M 15,12.4 C 13.626742,12.408084 12.479135,13.64931 12.41,14.99 13.806603,15.050791 15.04372,13.78604 15,12.4 Z" />
</svg>
