<svg xmlns="http://www.w3.org/2000/svg" viewBox="0 0 15 15">
<path
 d="M 1.02,0.69 C 0.96,0.69 0.13,1.34 0.13,1.34 -0.01,1.46 -0.03,1.67 0.05,1.76 L 3.63,6.01 C 4.06,6.46 4.33,7.05 4.38,7.67 L 4.18,9.76 C 4.17,10.31 4.39,10.84 4.79,11.22 7.33,13.82 11.11,14.78 13.01,14.16 14.9,13.53 14.98,13.42 15,13.29 L 14.88,12.73 C 14.84,12.59 14.73,12.49 12.74,12.5 10.75,12.51 7.39,10.17 6.15,6.63 6.02,6.33 5.84,6.05 5.63,5.8 L 1.39,0.8 C 1.32,0.69 1.2,0.63 1.02,0.69 Z M 11.5,5.96 C 10.7,5.96 10.04,6.62 10.04,7.43 10.04,8.25 10.7,8.9 11.5,8.9 12.32,8.9 12.97,8.25 12.97,7.43 12.97,6.62 12.32,5.96 11.5,5.96 Z" />
</svg>
