<svg xmlns="http://www.w3.org/2000/svg" viewBox="0 0 15 15">
<path d="M9.33 0L9 14.5A0.5 0.49 0 0 0 9.5 15A0.5 0.49 0 0 0 10 14.5L9.67 0L9.33 0ZM11.33 0L11 14.5A0.5 0.49 0 0 0 11.5 15A0.5 0.49 0 0 0 12 14.5L11.67 0L11.33 0ZM4.61 0.05C3.79 0.04 2.42 2.11 2.25 3.73C2.1 5.34 3.94 6.35 3.91 7.12L3.69 14.01C3.68 14.26 3.78 14.51 3.96 14.68C4.13 14.86 4.38 14.96 4.63 14.95C4.89 14.96 5.13 14.87 5.32 14.68C5.5 14.51 5.59 14.26 5.58 14.01L5.33 7.12C5.31 6.46 7.17 5.65 6.98 3.74C6.78 1.82 5.43 0.04 4.61 0.05ZM4.72 1.18C5.48 1.81 5.86 2.68 5.86 3.81C5.86 4.95 5.49 5.7 4.73 6.07C4.98 5.16 5.11 4.4 5.11 3.81C5.11 3.23 4.97 2.35 4.72 1.18Z"/>
</svg>