<svg xmlns="http://www.w3.org/2000/svg" viewBox="0 0 15 15">
<path d="M4.61 0.05C3.79 0.04 2.42 2.11 2.25 3.73 2.1 5.34 3.94 6.35 3.91 7.12L3.69 14.01C3.68 14.26 3.78 14.51 3.96 14.68 4.13 14.86 4.38 14.96 4.63 14.95 4.89 14.96 5.13 14.87 5.32 14.68 5.5 14.51 5.59 14.26 5.58 14.01L5.33 7.12C5.31 6.46 7.17 5.65 6.98 3.74 6.78 1.82 5.43 0.04 4.61 0.05ZM9.47 0.05 8.97 0.06 7.98 5.51C8 6.33 9.75 6.69 9.73 7.5L9.47 13.96C9.46 14.23 9.56 14.48 9.75 14.67 9.94 14.86 10.2 14.96 10.46 14.95 10.73 14.96 10.99 14.86 11.18 14.67 11.37 14.48 11.47 14.23 11.46 13.96L11.21 7.5C11.18 6.69 13.1 6.32 12.95 5.51L11.95 0.06 11.46 0.05 11.71 4.02 10.96 4.52 10.71 0.06 H 10.22L9.97 4.52 9.22 4.02ZM4.72 1.18C5.48 1.81 5.86 2.68 5.86 3.81 5.86 4.95 5.49 5.7 4.73 6.07 4.98 5.16 5.11 4.4 5.11 3.81 5.11 3.23 4.97 2.35 4.72 1.18Z"/>
</svg>