<svg xmlns="http://www.w3.org/2000/svg" viewBox="0 0 15 15">
  <path d="M 7.5 0 A 1.5 1.5 0 0 0 6 1.5 A 1.5 1.5 0 0 0 6.59 2.69 L 4.78 9.42 L 2.9 7.5 L 0 7.5 L 4.17 11.67 L 3.28 14.99 L 3.54 14.99 L 4.66 12.16 L 7.5 15 L 10.34 12.16 L 11.46 15 L 11.72 15 L 10.83 11.67 L 15 7.5 L 12.2 7.5 L 10.24 9.46 L 8.42 2.68 A 1.5 1.5 0 0 0 9 1.5 A 1.5 1.5 0 0 0 7.5 0 z M 7.5 1 A 0.5 0.5 0 0 1 8 1.5 A 0.5 0.5 0 0 1 7.5 2 A 0.5 0.5 0 0 1 7 1.5 A 0.5 0.5 0 0 1 7.5 1 z M 7.5 3.11 L 9.08 9 L 9.54 10.16 L 7.5 12.2 L 5.47 10.13 L 5.92 9 L 7.5 3.11 z" />
</svg>
