<svg xmlns="http://www.w3.org/2000/svg" viewBox="0 0 15 15">
  <path d="M12.86 4.82L12.86 2.68L12.64 2.68C12.21 2.68 10.71 3.21 10.71 3.75C10.71 4.29 12.21 4.82 12.64 4.82L12.86 4.82ZM10.71 3.75L9.86 2.14C9.64 1.82 9.32 1.61 9 1.61L7.07 1.61C6.86 1.61 6.54 2.68 6.64 2.68L8.57 2.68C8.68 2.68 9 3.11 9 3.21L9.64 4.29L10.71 3.75ZM13.82 6.32C14.04 6.43 14.25 6.64 14.25 6.86L12.86 6.86C11.14 6.86 8.57 8.36 8.57 10.18L6.43 10.18C6.43 8.68 4.61 7.5 3.21 7.07L0.75 6.21L1.18 5.57C1.29 5.36 1.61 5.25 1.82 5.25L2.04 5.25L7.5 6.21L7.71 6.21C7.93 6.21 8.14 6.11 8.36 5.89L9.64 4.93L13.82 6.32ZM2.68 8.04C1.18 8.04 0 9.21 0 10.71C0 12.21 1.18 13.39 2.68 13.39C4.18 13.39 5.36 12.21 5.36 10.71C5.36 9.21 4.18 8.04 2.68 8.04ZM2.68 11.79C2.14 11.89 1.71 11.46 1.61 10.93C1.61 10.82 1.61 10.82 1.61 10.71C1.5 10.18 1.93 9.75 2.46 9.64C2.57 9.64 2.57 9.64 2.68 9.64C3.21 9.54 3.64 9.96 3.75 10.5C3.75 10.61 3.75 10.61 3.75 10.71C3.86 11.25 3.43 11.68 2.89 11.79C2.79 11.79 2.79 11.79 2.68 11.79ZM12.32 8.04C10.82 8.04 9.64 9.21 9.64 10.71C9.64 12.21 10.82 13.39 12.32 13.39C13.82 13.39 15 12.21 15 10.71C15 9.21 13.82 8.04 12.32 8.04ZM12.32 11.79C11.79 11.89 11.36 11.46 11.25 10.93C11.25 10.82 11.25 10.82 11.25 10.71C11.25 10.07 11.68 9.64 12.32 9.64C12.96 9.64 13.39 10.07 13.39 10.71C13.5 11.25 13.07 11.68 12.54 11.79C12.43 11.79 12.43 11.79 12.32 11.79Z"/>
</svg>