<svg xmlns="http://www.w3.org/2000/svg" viewBox="0 0 15 15">
  <path d="M4.91 12a1.5 1.5 0 1 1 -2.82 0Zm8.65 -6C13.54 6 13 6 13 6V3h0.35a0.28 0.28 0 0 0 0.22 -0.15l0.27 -0.54a0.33 0.33 0 0 0 0.01 -0.07A0.25 0.25 0 0 0 13.6 2H13V1.7a0.22 0.22 0 0 0 -0.2 -0.2H9.25a0.25 0.25 0 0 0 0 0.5H12V6.6L7.6 10H6V7.5A0.5 0.5 0 0 0 5.5 7H5V5H6.75a0.25 0.25 0 0 0 0 -0.5L2.27 4.03c-0.01 0 -0.01 -0.01 -0.02 -0.01a0.25 0.25 0 0 0 -0.25 0.25V4.75A0.25 0.25 0 0 0 2.25 5H3V7H2.5A1.54 1.54 0 0 0 1 8.5v2a0.47 0.47 0 0 0 0.44 0.5C1.46 11 7.5 11 7.5 11L10 10h3.5a0.47 0.47 0 0 0 0.5 -0.44C14 9.54 14 6.5 14 6.5A0.47 0.47 0 0 0 13.56 6ZM12.5 11A1.5 1.5 0 1 0 14 12.5A1.54 1.54 0 0 0 12.5 11Z"/>
</svg>