<svg xmlns="http://www.w3.org/2000/svg" viewBox="0 0 15 15">
  <path d="M8.49 6L8.54 6L8.58 6.01C8.66 6.02 8.74 6.05 8.8 6.1C8.85 6.14 8.89 6.18 8.93 6.24L8.97 6.33L10.04 9L10.5 9C11.88 9 13 10.12 13 11.5C13 12.88 11.88 14 10.5 14C9.12 14 8 12.88 8 11.5C8 11.33 8.02 11.16 8.05 11L7 11C7 11.55 6.55 12 6 12L4.95 12C4.72 13.14 3.71 14 2.5 14C1.12 14 0 12.88 0 11.5C0 10.29 0.86 9.28 2 9.05L2 9L5 9L8.6 8.1L8.16 7L6.5 7C6.22 7 6 6.78 6 6.5C6 6.22 6.22 6 6.5 6L8.49 6ZM2 10.09C1.42 10.29 1 10.85 1 11.5C1 12.33 1.67 13 2.5 13C3.15 13 3.71 12.58 3.91 12L3 12C2.45 12 2 11.55 2 11L2 10.09ZM10.5 10L10.44 10L10.96 11.31C11.07 11.57 10.94 11.86 10.69 11.96C10.43 12.07 10.14 11.94 10.04 11.69L9.51 10.37C9.2 10.65 9 11.05 9 11.5C9 12.33 9.67 13 10.5 13C11.33 13 12 12.33 12 11.5C12 10.67 11.33 10 10.5 10ZM3 7C3.55 7 4 7.45 4 8L4 8.5L1 8.5L1 7L3 7ZM10.53 1C10.66 1 10.79 1.05 10.88 1.15L14.85 5.12C15.05 5.32 15.05 5.63 14.85 5.82L12.82 7.85C12.63 8.05 12.32 8.05 12.12 7.85L8.15 3.88C8.05 3.79 8 3.66 8 3.53L8 1.5C8 1.22 8.22 1 8.5 1L10.53 1ZM9.49 1.74C9.08 1.74 8.74 2.08 8.74 2.49C8.74 2.9 9.08 3.23 9.49 3.23C9.9 3.23 10.23 2.9 10.23 2.49C10.23 2.08 9.9 1.74 9.49 1.74Z"/>
</svg>