<svg xmlns="http://www.w3.org/2000/svg" viewBox="0 0 15 15">
  <path d="M11.5 12L11 11L13 11L14 13L1 13L2 11L4 11L3.5 12L11.5 12ZM9.16 3L7.5 3C7.22 3 7 2.78 7 2.5C7 2.22 7.22 2 7.5 2L9.54 2L9.58 2.01C9.66 2.02 9.74 2.05 9.8 2.1C9.85 2.14 9.89 2.18 9.93 2.24L9.97 2.33L11.04 5L11.5 5C12.88 5 14 6.12 14 7.5C14 8.88 12.88 10 11.5 10C10.12 10 9 8.88 9 7.5C9 7.33 9.02 7.16 9.05 7L8 7C8 7.55 7.55 8 7 8L5.95 8C5.72 9.14 4.71 10 3.5 10C2.12 10 1 8.88 1 7.5C1 6.29 1.86 5.28 3 5.05L3 5L6 5L9.6 4.1L9.16 3ZM4.91 8L4 8C3.45 8 3 7.55 3 7L3 6.09C2.42 6.29 2 6.85 2 7.5C2 8.33 2.67 9 3.5 9C4.1 9 4.63 8.64 4.86 8.12L4.91 8ZM10.51 6.37C10.2 6.65 10 7.05 10 7.5C10 8.33 10.67 9 11.5 9C12.33 9 13 8.33 13 7.5C13 6.72 12.41 6.08 11.64 6.01L11.44 6L11.96 7.31C12.07 7.57 11.94 7.86 11.69 7.96C11.43 8.07 11.14 7.94 11.04 7.69L10.51 6.37ZM5 4.5L2 4.5L2 3L4 3C4.55 3 5 3.45 5 4L5 4.5Z"/>
</svg>