<svg xmlns="http://www.w3.org/2000/svg" viewBox="0 0 15 15">
  <path d="M11.5 13L11 12L13 12L14 14L1 14L2 12L4 12L3.5 13L11.5 13ZM7.5 3L9.54 3L9.58 3.01C9.66 3.02 9.74 3.05 9.8 3.1C9.85 3.14 9.89 3.18 9.93 3.24L9.97 3.33L11.04 6L11.5 6C12.88 6 14 7.12 14 8.5C14 9.88 12.88 11 11.5 11C10.12 11 9 9.88 9 8.5C9 8.33 9.02 8.16 9.05 8L8 8C8 8.55 7.55 9 7 9L5.95 9C5.72 10.14 4.71 11 3.5 11C2.12 11 1 9.88 1 8.5C1 7.29 1.86 6.28 3 6.05L3 6L6 6L9.6 5.1L9.16 4L7.5 4C7.22 4 7 3.78 7 3.5C7 3.22 7.22 3 7.5 3ZM3 7.09C2.42 7.29 2 7.85 2 8.5C2 9.33 2.67 10 3.5 10C4.15 10 4.71 9.58 4.91 9L4 9C3.45 9 3 8.55 3 8L3 7.09ZM11.5 7L11.44 7L11.96 8.31C12.07 8.57 11.94 8.86 11.69 8.96C11.43 9.07 11.14 8.94 11.04 8.69L10.51 7.37C10.2 7.65 10 8.05 10 8.5C10 9.33 10.67 10 11.5 10C12.33 10 13 9.33 13 8.5C13 7.67 12.33 7 11.5 7ZM4 4C4.55 4 5 4.45 5 5L5 5.5L2 5.5L2 4L4 4ZM14 1L13 3L11 3L11.5 2L3.5 2L4 3L2 3L1 1L14 1Z"/>
</svg>