<svg xmlns="http://www.w3.org/2000/svg" viewBox="0 0 15 15">
  <path d="M7.5 0L3.21 3.21L3.21 15L4.29 15L4.29 6.43C4.29 4.65 5.72 3.21 7.5 3.21C9.28 3.21 10.71 4.65 10.71 6.43L10.71 15L11.79 15L11.79 3.21L7.5 0ZM7.12 4.82C5.54 6 6.03 6.55 5.49 8.6C5.39 8.71 4.82 9.06 4.82 9.39L4.82 9.64L10.18 9.64L10.18 9.39C10.19 9.06 9.57 8.71 9.46 8.6C8.93 6.59 9.39 5.72 7.88 4.82L7.12 4.82ZM7.5 10.45C7.06 10.45 6.7 10.81 6.7 11.25C6.7 11.69 7.06 12.05 7.5 12.05C7.94 12.05 8.3 11.69 8.3 11.25C8.3 10.81 7.94 10.45 7.5 10.45L7.5 10.45Z"/>
</svg>