<svg xmlns="http://www.w3.org/2000/svg" viewBox="0 0 15 15">
  <path d="M10 0.38L10 2.03L11 2.38L11 1.37C11 0.88 12 0.88 12 1.37L12 5.38C12 5.87 11 5.87 11 5.38L11 3.38L10 3.02L10 4.37C10 4.88 9 4.88 9 4.37L9 2.87L8 2.87L8 4.88C8 4.91 7.99 4.95 7.98 4.98L11.19 8.18C11.26 8.25 11.3 8.34 11.32 8.43L11.33 8.5C11.33 8.74 11.14 8.93 10.92 8.93L8.54 8.93L11.83 11.62C11.94 11.71 11.99 11.83 11.99 11.97C11.99 12.21 11.82 12.4 11.59 12.4L8.3 12.4L8.3 15L6.67 15L6.67 12.4L3.4 12.4C3.3 12.4 3.2 12.36 3.13 12.29L3.08 12.24C2.94 12.04 2.97 11.77 3.15 11.62L6.43 8.93L4.05 8.93C3.94 8.93 3.83 8.88 3.75 8.79C3.6 8.61 3.61 8.34 3.78 8.18L7.02 4.98C7.01 4.95 7 4.91 7 4.88L7 2.87L6 2.87L6 4.37C6 4.88 5 4.88 5 4.37L5 3.02L4 3.38L4 5.38C4 5.87 3 5.87 3 5.38L3 1.37C3 0.88 4 0.88 4 1.37L4 2.38L5 2.03L5 0.38C5 -0.13 6 -0.13 6 0.38L6 1.88L7 1.88L7 0.88C7 0.38 8 0.38 8 0.88L8 1.88L9 1.88L9 0.38C9 -0.13 10 -0.13 10 0.38Z"/>
</svg>