<svg xmlns="http://www.w3.org/2000/svg" viewBox="0 0 15 15">
  <path d="M7.5 0L2.14 2.14L2.14 6.43L12.86 6.43L12.86 2.14L7.5 0ZM3.21 3.21L5.36 3.21L5.36 5.36L3.21 5.36L3.21 3.21ZM6.43 3.21L8.57 3.21L8.57 5.36L6.43 5.36L6.43 3.21ZM9.64 3.21L11.79 3.21L11.79 5.36L9.64 5.36L9.64 3.21ZM4.19 7.1L3.21 15L4.82 15L5.02 13.43L7.5 11.79L9.98 13.46L10.18 15L11.79 15L10.81 7.13L4.19 7.1ZM5.73 7.7L9.27 7.73L9.48 9.41L7.5 10.71L5.52 9.41L5.73 7.7ZM5.39 10.38L6.7 11.25L5.16 12.29L5.39 10.38ZM9.61 10.38L9.84 12.29L8.3 11.25L9.61 10.38Z"/>
</svg>