<svg xmlns="http://www.w3.org/2000/svg" viewBox="0 0 15 15">
  <path d="M11.85 6.43l-0.41 -0.28a4.76 4.76 0 0 0 0.28 -4.88l-0.08 -0.15L12.07 0.88l0.09 0.17a5.26 5.26 0 0 1 -0.31 5.39Zm1.15 7.13V14h-11v-0.43H4.5L6.04 6.4a0.5 0.5 0 0 1 0.49 -0.39h0.73V4.6A1.14 1.14 0 0 1 6.38 3.5a1.16 1.16 0 1 1 2.31 0a1.14 1.14 0 0 1 -0.93 1.11V6.01h0.72A0.5 0.5 0 0 1 8.97 6.4l1.55 7.16ZM8.45 8.75H6.56L6.24 10.24H8.78ZM6.13 10.74l-0.32 1.5H9.21l-0.32 -1.5ZM6.94 7.01L6.67 8.25H8.35L8.08 7.01ZM5.52 13.57H9.49l-0.18 -0.83h-3.62ZM5.21 5.01a2.75 2.75 0 0 1 0.02 -3.05L4.81 1.68a3.25 3.25 0 0 0 -0.02 3.61ZM10.76 3.5a3.24 3.24 0 0 0 -0.53 -1.79l-0.42 0.28a2.75 2.75 0 0 1 -0.02 3.05l0.41 0.28A3.23 3.23 0 0 0 10.76 3.5ZM3.53 6.12A4.76 4.76 0 0 1 3.38 1.13L2.95 0.88a5.26 5.26 0 0 0 0.17 5.51Z"/>
</svg>