<svg xmlns="http://www.w3.org/2000/svg" viewBox="0 0 15 15">
  <path d="M8.49 5.08C7.67 5.4 6.96 5.96 6.47 6.69C6.71 7.04 6.96 7.39 7.26 7.74C8.44 9.18 9.45 10.1 10.15 10.66L13.27 8.44C12.83 7.74 12.48 7.18 12.48 7.17L11.33 4.74C10.61 4.7 9.47 4.71 8.49 5.09L8.49 5.08ZM9.5 7.47C9.13 7.47 8.84 7.18 8.84 6.81C8.84 6.45 9.13 6.16 9.5 6.16C9.87 6.16 10.16 6.45 10.16 6.81C10.16 7.18 9.87 7.47 9.5 7.47ZM6.68 2.09C6.68 2.09 6.65 1.94 6.69 1.76C6.78 1.4 6.94 1.02 7.2 0.76C7.79 0.19 8.41 0.04 8.9 0L8.9 2.2L10.64 3.24L10.73 3.44C9.82 3.46 8.66 3.58 7.8 4C6.52 4.61 5.94 5.23 5.74 5.48C4.92 3.96 4.65 2.77 4.58 2.45C5.41 2.16 6.15 2.08 6.68 2.08L6.68 2.09ZM15 11.22C14.61 12.78 13.03 13.85 11.36 13.61L10.22 12.23L13.96 9.54C14.51 10.42 15 11.22 15 11.22L15 11.22ZM5 15L1 15C0.45 15 0 14.56 0 14L0 5.81L0 5.81C1.05 4.52 2.23 3.63 3.34 3.03C3.38 3.44 3.64 5.01 5.42 7.5C7.1 9.86 8.59 11.07 9.1 11.46C7.95 11.58 6.25 11.44 4.97 10.39L5 15Z"/>
</svg>