<svg xmlns="http://www.w3.org/2000/svg" viewBox="0 0 15 15">
  <path d="M13.66 0C13.75 0.01 13.8 0.08 13.77 0.31L13.01 1.31C12.14 2.47 10.84 4.29 10.85 4.71C11.15 4.94 11.16 5.03 11.23 5.36C11.35 5.65 12.13 6.8 12.47 7.08L12.69 7.26C13.02 7.56 13.05 7.67 12.96 8.07L12.87 8.43C12.82 8.61 12.77 8.72 12.69 8.76C12.61 8.8 12.39 8.77 12.3 8.78C12.2 8.78 12.36 9.13 12.15 9.11C11.65 9.05 11.47 8.95 11.07 8.79C10.18 8.41 9.67 9.01 8.88 8.01C7.11 9.38 7.99 11.03 8.47 12.28C8.75 13.23 7.95 13.95 7.82 14.88C1.44 15.9 5.64 9.87 1.08 9.94C1.25 9.42 2.38 8.96 1.16 8.21C0.2 7.62 4 7.73 2.2 6.83C1.28 6.38 4.71 6.48 3.9 5.83L3.81 5.76C3.28 5.42 4.89 5.34 5.26 4.64C5.5 4.42 6.99 4.03 7.54 3.91L8 3.82C8.41 3.74 8.4 3.68 8.61 3.04L8.69 2.81C8.94 2.21 9.17 2.35 9.5 3.23L9.6 3.53C9.64 3.62 9.67 3.7 9.71 3.77L9.77 3.88C9.82 3.97 9.75 3.92 9.85 4.01C10.31 3.85 13.42 0.03 13.42 0.03L13.57 0.01C13.6 0 13.64 0 13.66 0Z"/>
</svg>