<svg xmlns="http://www.w3.org/2000/svg" viewBox="0 0 15 15">
  <path d="M9.97 10.31C11.18 9.02 10.87 8.24 10.18 8.41L10.16 8.45L10.12 8.51C9.96 8.74 9.43 9.29 7.99 9.29C7.52 9.29 6.47 9.69 6.47 9.69C6.24 10.68 5.51 11.22 4.76 11.84L4.61 12C4.48 12.16 4.38 12.3 4.38 12.35C4.37 12.41 4.58 12.95 4.85 13.55C5.14 14.02 5.71 14.07 5.38 14.91C5.06 14.94 4.82 15.05 4.56 14.98L4.03 13.74C4.03 13.74 3.53 12.67 3.49 12.5C3.46 12.33 3.63 11.49 3.63 11.49C3.7 10.93 3.92 10.51 3.82 10.31C3.72 10.11 3.5 9.95 3.45 9.66C3.42 9.4 3.39 9.34 3.27 9.34C1.86 9.99 2.74 10.88 2.84 12.58C2.31 12.63 2.09 12.44 1.77 12.82C1.03 12.37 1.43 12.29 1.04 12.12C0.84 10.84 1.42 9.46 2.32 8.89C2.54 8.79 2.83 8.7 3.01 8.66L3.11 8.64C3.38 8.6 3.44 8.56 3.57 8.24C3.78 7.76 4.35 7.32 5.1 7.19L5.27 7.16L5.71 7.08C7.15 6.81 8.25 6.34 7.12 5.43L7.23 5.15C7.49 4.52 7.84 3.87 8.55 2.74C8.6 2.67 8.75 2.61 8.9 2.55L9.49 2.37C9.7 2.29 9.69 2.27 9.75 1.93C9.83 1.53 9.94 1.51 10.15 1.88L10.29 2.14C10.31 2.17 10.32 2.19 10.33 2.21L10.38 2.28C10.41 2.32 10.37 2.3 10.43 2.34L10.48 2.24L10.75 1.71C11.07 1.02 11.54 0.02 11.54 0.02L11.62 0C11.7 -0.01 11.79 0.01 11.79 0.17L11.09 2.21C11.02 2.43 10.97 2.59 10.97 2.62C11.13 2.72 11.14 2.76 11.2 2.92C11.28 3.06 11.49 3.26 11.68 3.38L11.83 3.49C11.98 3.59 12 3.65 11.98 3.82L11.98 3.9C11.96 4.07 11.94 4.17 11.89 4.21C11.76 4.3 11.58 4.16 11.1 4.13C10.61 4.1 10.56 4.24 10.2 4.13C10.18 4.16 10.21 4.38 10.19 4.67L10.18 4.8C10.13 5.35 10.15 5.49 10.34 5.82L10.51 6.2C10.65 6.51 10.76 6.81 10.75 7.15C12.09 7.08 12.93 7.74 13.42 8.7L13.49 8.76C13.66 8.93 14.08 9.41 13.98 10L12.93 10.01C12.99 8.87 12.46 8.28 11.46 8.17L11.67 8.77C11.69 8.82 11.7 8.86 11.7 8.86C11.59 9.34 11.31 9.74 11.33 10.1C11.34 10.5 11.06 10.66 10.78 10.82C10.47 10.82 10.19 10.48 9.97 10.31Z"/>
</svg>