<svg xmlns="http://www.w3.org/2000/svg" viewBox="0 0 15 15">
  <path d="M10.44 0C10.51 0.01 10.59 0.11 10.7 0.3L10.85 0.6C10.88 0.65 10.91 0.7 10.95 0.75C11.05 0.9 11.38 1.02 11.61 1.13C11.79 1.24 11.81 1.29 11.87 1.46C11.96 1.62 12.2 1.85 12.4 1.98L12.58 2.1C12.74 2.22 12.76 2.28 12.75 2.47L12.74 2.57C12.72 2.76 12.7 2.87 12.64 2.91C12.49 3.01 12.29 2.86 11.75 2.82C11.21 2.79 11.16 2.95 10.75 2.82C10.73 2.86 10.76 3.1 10.74 3.43L10.73 3.57C10.67 4.19 10.7 4.35 10.91 4.71L11.1 5.14C11.25 5.49 11.38 5.82 11.37 6.2C12.86 6.13 13.8 6.87 14.35 7.94L14.43 8.01C14.62 8.2 15.09 8.74 14.98 9.4L13.81 9.4C13.87 8.14 13.28 7.47 12.15 7.35L12.39 8.02C12.41 8.08 12.43 8.12 12.42 8.12C12.33 8.59 12.07 9 12.02 9.35L12.01 9.51C12.03 9.96 11.72 10.13 11.4 10.32C11.05 10.31 10.74 9.94 10.49 9.74C11.85 8.3 11.5 7.43 10.73 7.61L10.67 7.72L10.59 7.82C10.35 8.1 9.72 8.6 8.28 8.6C7.76 8.6 6.58 9.05 6.58 9.05C6.32 10.16 5.5 10.77 4.66 11.45L4.5 11.64C4.36 11.82 4.25 11.98 4.24 12.03C4.23 12.1 4.47 12.7 4.77 13.38C5.1 13.9 5.73 13.96 5.36 14.9C5 14.93 4.73 15.05 4.45 14.98L3.85 13.59C3.85 13.59 3.29 12.39 3.25 12.2C3.21 12.01 3.4 11.07 3.4 11.07C3.48 10.44 3.72 9.97 3.62 9.75C3.51 9.52 3.25 9.34 3.2 9.02C3.17 8.72 3.13 8.65 3 8.66C1.42 9.39 2.41 10.38 2.52 12.29C1.93 12.34 1.68 12.14 1.33 12.55C0.5 12.05 0.95 11.97 0.51 11.77C0.28 10.34 0.93 8.79 1.94 8.15C2.24 8.02 2.63 7.9 2.82 7.87C3.12 7.83 3.19 7.78 3.34 7.42C3.59 6.85 4.3 6.32 5.24 6.22C5.54 6.17 5.85 6.09 6.16 6.01L6.06 5.84C6.04 5.81 6.02 5.78 6 5.75C5.99 5.73 5.96 5.7 5.88 5.68C5.8 5.66 5.68 5.65 5.53 5.65C5.24 5.67 4.84 5.75 4.45 5.85L3.45 6.11L3.32 6.14C3.21 6.17 3.11 6.19 3.01 6.2L2.87 6.22C2.73 6.23 2.6 6.25 2.44 6.15C2.23 6.02 2.14 5.82 2.07 5.63L2 5.4C1.94 5.2 1.88 5 1.73 4.78L1.63 4.66C1.48 4.49 1.39 4.34 1.35 4.2C1.31 4.09 1.31 3.98 1.32 3.91L1.33 3.84C1.33 3.85 1.33 3.83 1.27 3.79L1.22 3.75C1.04 3.62 0.87 3.42 0.69 3.18C0.52 2.95 0.34 2.68 0.21 2.44C0.17 2.37 0.13 2.29 0.1 2.22L0.06 2.11C0.02 2 -0.03 1.91 0.02 1.74C0.04 1.66 0.13 1.55 0.23 1.51C0.34 1.47 0.42 1.49 0.48 1.51C0.61 1.55 0.72 1.62 0.86 1.73C1.24 2.02 2.19 2.1 3.28 2.16C4.36 2.23 5.57 2.32 6.57 2.85C7.52 3.37 7.9 3.92 7.99 4.38C8.02 4.56 8.01 4.73 7.99 4.86L7.96 4.99C7.96 5.02 7.99 5.01 8.19 4.86C8.44 4.67 8.54 4.06 7.78 3.3L7.96 2.85L8.04 2.67C8.17 2.42 8.35 2.15 8.9 1.26C8.97 1.19 9.13 1.12 9.3 1.05L9.95 0.84C10.19 0.76 10.18 0.74 10.25 0.36C10.3 0.11 10.36 -0.01 10.44 0Z"/>
</svg>