<svg xmlns="http://www.w3.org/2000/svg" viewBox="0 0 15 15">
  <path d="M1.06 10C1.02 10.16 1 10.34 1 10.51C1 11.85 2.06 12.95 3.4 13L3.4 14L6 12.5L3.4 11L3.4 12C2.62 11.95 2.01 11.29 2 10.51C2 10.33 2.03 10.16 2.09 10L1.06 10ZM12.07 5C11.27 5 10.54 5.17 9.88 5.52C8.81 6.08 8.3 6.76 7.89 8L7.17 8L7 9L7.81 9C7.81 9.34 7.79 9.66 7.82 10L7.17 10L7 11L7.94 11C8.04 11.43 8.05 11.49 8.18 11.79C8.83 13.28 10.19 14 12.05 14C12.67 14 13.24 13.89 13.75 13.66L13.75 12.43C13.32 12.82 12.72 13.01 11.95 13.01C11.4 13.01 10.89 12.88 10.42 12.61C9.76 12.23 9.34 11.91 9.17 11L12.84 11L13.01 10L9.04 10C9.04 9.67 9.03 9.33 9.04 9L13.18 9L13.35 8L9.14 8C9.18 7.68 9.24 7.6 9.47 7.24C9.7 6.89 10.03 6.66 10.31 6.47C10.77 6.15 11.35 5.99 12.04 5.99C12.68 5.99 13.25 6.19 13.75 6.59L14 5.48C13.48 5.16 12.83 5 12.07 5L12.07 5ZM10.6 0L8 1.5L10.6 3L10.6 2C11.38 2.05 12 2.7 12 3.49C12 3.67 11.97 3.84 11.91 4L12.94 4C12.98 3.83 13 3.66 13 3.49C13 2.15 11.94 1.05 10.6 1L10.6 0ZM3 0L3 1.03C2.58 1.06 2.18 1.12 1.82 1.23C1.33 1.38 0.96 1.61 0.71 1.91C0.46 2.21 0.34 2.52 0.34 2.87C0.34 3.18 0.44 3.46 0.64 3.71C0.85 3.96 1.16 4.17 1.58 4.34C1.86 4.45 2.36 4.58 3 4.7L3 7.15C2.77 7.12 2.55 7.07 2.35 7C1.95 6.86 1.65 6.69 1.46 6.47C1.27 6.25 1.15 5.98 1.1 5.64L0 5.71C0.02 6.16 0.18 6.57 0.48 6.93C0.79 7.29 1.21 7.55 1.75 7.73C2.1 7.85 2.53 7.91 3 7.96L3 9L4 9L4 7.98C4.52 7.96 5.01 7.89 5.44 7.74C5.95 7.56 6.33 7.31 6.6 6.99C6.87 6.67 7 6.33 7 5.97C7 5.61 6.88 5.29 6.63 5.01C6.39 4.73 6.01 4.5 5.5 4.32C5.21 4.22 4.68 4.1 4 3.98L4 1.84C4.41 1.88 4.76 1.96 5.01 2.12C5.36 2.34 5.56 2.66 5.62 3.09L6.74 3.02C6.72 2.62 6.57 2.27 6.3 1.96C6.04 1.64 5.65 1.4 5.15 1.24C4.81 1.13 4.42 1.07 4 1.04L4 0L3 0ZM3 1.83L3 3.77C2.41 3.65 1.97 3.53 1.8 3.41C1.57 3.25 1.46 3.05 1.46 2.8C1.46 2.52 1.62 2.29 1.94 2.09C2.18 1.94 2.55 1.87 3 1.83L3 1.83ZM4 4.91C4.29 4.97 4.72 5.05 4.85 5.09C5.21 5.2 5.48 5.33 5.64 5.49C5.8 5.65 5.88 5.83 5.88 6.05C5.88 6.26 5.79 6.45 5.63 6.63C5.46 6.8 5.21 6.94 4.87 7.04C4.61 7.12 4.32 7.16 4 7.18L4 4.91Z"/>
</svg>