<svg xmlns="http://www.w3.org/2000/svg" viewBox="0 0 15 15">
  <path d="M8.5 0.5L8.5 2.5L9.5 2.5C11.06 2.5 12.34 3.68 12.48 5.22L12.5 5.5L10.5 5.5C10.5 4.94 10.06 4.5 9.5 4.5L8.5 4.5L8.5 6.5L9.5 6.5C11.16 6.5 12.5 7.84 12.5 9.5C12.5 11.16 11.16 12.5 9.5 12.5L8.5 12.5L8.5 14.5L6.5 14.5L6.5 12.5L5.5 12.5C3.94 12.5 2.66 11.32 2.52 9.78L2.5 9.5L4.5 9.5C4.5 10.06 4.94 10.5 5.5 10.5L6.5 10.5L6.5 8.5L5.5 8.5C3.84 8.5 2.5 7.16 2.5 5.5C2.5 3.84 3.84 2.5 5.5 2.5L6.5 2.5L6.5 0.5L8.5 0.5ZM9.5 8.5L8.5 8.5L8.5 10.5L9.5 10.5C10.06 10.5 10.5 10.06 10.5 9.5C10.5 8.94 10.06 8.5 9.5 8.5ZM6.5 4.5L5.5 4.5C4.94 4.5 4.5 4.94 4.5 5.5C4.5 6.06 4.94 6.5 5.5 6.5L6.5 6.5L6.5 4.5Z"/>
</svg>