<svg xmlns="http://www.w3.org/2000/svg" viewBox="0 0 15 15">
  <path d="M7.5 0C11.64 0 15 3.36 15 7.5C15 11.64 11.64 15 7.5 15C3.36 15 0 11.64 0 7.5C0 3.36 3.36 0 7.5 0ZM7.5 1.5C6.85 1.5 6.22 1.6 5.63 1.8L5.76 2.12C5.88 2.42 6.02 2.78 6.16 3.2C6.36 3.81 6.01 4.27 5.69 4.54C5.44 4.76 5.11 4.95 4.8 5.11L4.09 5.47C3.91 5.57 3.76 5.65 3.64 5.74L3.56 5.81C3.55 5.82 3.54 5.83 3.53 5.83L3.56 5.89C3.57 5.9 3.57 5.9 3.57 5.91L3.83 5.94C3.92 5.96 4.04 5.99 4.15 6.04C4.41 6.15 4.59 6.36 4.71 6.65L5.25 7.88C5.31 7.95 5.36 8.03 5.4 8.12L6.25 10.05C6.79 9.99 7.18 9.79 7.46 9.56L7.43 9.57C6.96 9.63 6.51 9.36 6.37 8.91L5.74 7.02C5.57 6.51 5.85 5.97 6.36 5.8C6.87 5.64 7.42 5.92 7.59 6.42L7.96 7.54L8.73 7.43C9.17 7.37 9.59 7.6 9.77 8.01C9.98 8.49 9.94 9.01 9.8 9.45C9.67 9.9 9.4 10.34 9.04 10.73C8.29 11.51 7.11 12.07 5.57 11.99C5.2 11.97 4.88 11.75 4.73 11.42L3.97 9.69L3.53 9.83C3.02 10 2.47 9.72 2.3 9.22C2.13 8.71 2.41 8.17 2.92 8.01L3.93 7.68L3.66 7.05L3.52 7.04C3.39 7.02 3.15 6.99 2.92 6.83C2.68 6.66 2.53 6.41 2.43 6.1C2.34 5.81 2.39 5.53 2.52 5.31C2.64 5.11 2.81 4.96 2.97 4.84C3.14 4.71 3.34 4.6 3.55 4.48L4.07 4.22C4.45 4.02 4.76 3.86 4.96 3.69C5.04 3.62 5.08 3.57 5.09 3.55L4.94 3.11C4.81 2.77 4.69 2.47 4.6 2.25C2.75 3.27 1.5 5.24 1.5 7.5C1.5 10.81 4.19 13.5 7.5 13.5C10.81 13.5 13.5 10.81 13.5 7.5C13.5 4.19 10.81 1.5 7.5 1.5ZM10.35 3.75C11.42 3.75 12.3 4.61 12.3 5.67C12.3 6.74 11.42 7.6 10.35 7.6C9.27 7.6 8.4 6.74 8.4 5.67C8.4 4.61 9.27 3.75 10.35 3.75Z"/>
</svg>