<svg xmlns="http://www.w3.org/2000/svg" viewBox="0 0 15 15">
  <path d="M7.5 0C11.64 0 15 3.36 15 7.5C15 11.64 11.64 15 7.5 15C3.36 15 0 11.64 0 7.5C0 4.65 1.59 2.17 3.93 0.9L4.38 1.87C4.77 2.74 5.01 3.3 5.09 3.55L5.05 3.6C5.03 3.62 5 3.65 4.96 3.69C4.8 3.83 4.55 3.97 4.25 4.12L3.96 4.27C3.63 4.44 3.25 4.63 2.97 4.84C2.81 4.96 2.64 5.11 2.52 5.31C2.39 5.53 2.34 5.81 2.43 6.1C2.53 6.41 2.68 6.66 2.92 6.83C3.08 6.94 3.25 6.99 3.38 7.02L3.66 7.05L3.93 7.68L2.92 8.01C2.41 8.17 2.13 8.71 2.3 9.22C2.47 9.72 3.02 10 3.53 9.83L3.97 9.69L4.73 11.42C4.88 11.75 5.2 11.97 5.57 11.99C7.11 12.07 8.29 11.51 9.04 10.73C9.4 10.34 9.67 9.9 9.8 9.45C9.94 9.01 9.98 8.49 9.77 8.01C9.59 7.6 9.17 7.37 8.73 7.43L7.96 7.54L7.59 6.42C7.42 5.92 6.87 5.64 6.36 5.8C5.85 5.97 5.57 6.51 5.74 7.02L6.37 8.91C6.51 9.36 6.96 9.63 7.43 9.57L7.46 9.56C7.18 9.79 6.79 9.99 6.25 10.05L5.4 8.12C5.36 8.03 5.31 7.95 5.25 7.88L4.71 6.65C4.59 6.36 4.41 6.15 4.15 6.04C4.04 5.99 3.92 5.96 3.83 5.94L3.57 5.91L3.55 5.87C3.54 5.86 3.54 5.85 3.53 5.83L3.6 5.78C3.61 5.77 3.62 5.76 3.64 5.74C3.76 5.65 3.91 5.57 4.09 5.47L4.8 5.11C5.11 4.95 5.44 4.76 5.69 4.54C6.01 4.27 6.36 3.81 6.16 3.2L6.11 3.05C5.94 2.62 5.56 1.75 4.96 0.44C5.75 0.16 6.61 0 7.5 0ZM10.35 3.75C9.27 3.75 8.4 4.61 8.4 5.67C8.4 6.74 9.27 7.6 10.35 7.6C11.42 7.6 12.3 6.74 12.3 5.67C12.3 4.61 11.42 3.75 10.35 3.75Z"/>
</svg>