<svg xmlns="http://www.w3.org/2000/svg" viewBox="0 0 15 15">
  <path d="M5 0.47C5.48 1.58 5.8 2.35 5.95 2.8C6.23 3.65 5.74 4.29 5.29 4.66C4.85 5.04 4.25 5.35 3.74 5.61L3.62 5.67C3.12 5.92 2.72 6.12 2.44 6.33C2.37 6.38 2.32 6.42 2.29 6.45C2.31 6.51 2.33 6.54 2.34 6.56C2.36 6.56 2.39 6.57 2.45 6.57C2.46 6.57 2.47 6.57 2.48 6.58C2.61 6.59 2.89 6.62 3.15 6.73C3.51 6.9 3.76 7.19 3.93 7.58C4.08 7.93 4.37 8.59 4.68 9.29C4.76 9.39 4.83 9.5 4.89 9.62L6.08 12.3C6.83 12.21 7.38 11.93 7.76 11.62L7.72 11.62C7.07 11.72 6.44 11.34 6.23 10.72L5.36 8.09C5.13 7.39 5.52 6.64 6.23 6.41C6.94 6.18 7.71 6.57 7.94 7.27L8.46 8.82L9.53 8.67C10.14 8.58 10.73 8.91 10.97 9.46C11.27 10.13 11.21 10.86 11.03 11.46C10.83 12.09 10.47 12.7 9.96 13.24C8.92 14.33 7.27 15.1 5.13 14.99C4.62 14.96 4.16 14.66 3.96 14.19L2.89 11.8L2.28 12C1.57 12.23 0.8 11.84 0.57 11.14C0.33 10.44 0.72 9.69 1.44 9.46L2.84 9.01C2.69 8.67 2.57 8.39 2.49 8.19C2.48 8.17 2.47 8.16 2.47 8.15C2.43 8.14 2.4 8.14 2.36 8.13C2.33 8.13 2.3 8.13 2.26 8.12C2.08 8.1 1.75 8.06 1.43 7.83C1.1 7.6 0.89 7.25 0.76 6.83C0.62 6.42 0.7 6.04 0.88 5.73C1.04 5.45 1.29 5.24 1.51 5.07C1.9 4.79 2.43 4.52 2.88 4.29L3.03 4.22C3.57 3.94 4 3.71 4.28 3.48C4.39 3.38 4.44 3.31 4.46 3.28C4.33 2.91 4.07 2.26 3.67 1.35L3.56 1.09C3.39 0.7 3.57 0.24 3.96 0.07C4.36 -0.11 4.82 0.07 5 0.47ZM11.78 3.56C13.28 3.56 14.5 4.76 14.5 6.23C14.5 7.7 13.28 8.9 11.78 8.9C10.29 8.9 9.07 7.7 9.07 6.23C9.07 4.76 10.29 3.56 11.78 3.56Z"/>
</svg>