<svg xmlns="http://www.w3.org/2000/svg" viewBox="0 0 15 15">
  <path d="M0.63 4.79L1.04 5.62H0V4.79ZM4.96 4.81c0.05 0 0.09 0 0.14 0c0.51 0.07 0.92 0.36 1.15 0.81c-0.44 -0.04 -0.68 0.08 -0.61 0.3c0.06 0.21 0.39 0.43 0.82 0.54c0.11 0.21 0.18 0.42 0.21 0.62h-1.04c-0.36 -0.13 -0.73 -0.27 -1.1 -0.41c-0.32 -0.18 -0.53 -0.48 -0.57 -0.84c0.04 -0.41 0.26 -0.76 0.6 -0.94c0.12 -0.05 0.26 -0.08 0.39 -0.08zM3.13 5.83c0.48 1.08 1.52 1.8 2.7 1.88h1.67c0.45 0.03 0.87 -0.22 1.04 -0.63h0.42l2.08 0.63c-0.32 0.34 -0.49 0.78 -0.5 1.24c0.01 0.29 0.07 0.58 0.19 0.84H3.33V8.54c-0.09 -0.88 -0.78 -1.57 -1.66 -1.67H0.42c-0.23 0 -0.42 -0.19 -0.42 -0.42V5.83Zm4.58 0.84c0.12 0 0.21 0.09 0.21 0.21v0.42v0c-0.13 0.07 -0.27 0.09 -0.42 0.08v-0.5c0 -0.12 0.09 -0.21 0.21 -0.21zM1.46 7.29a1.46 1.46 0 0 1 1.46 1.46a1.46 1.46 0 0 1 -1.46 1.46A1.46 1.46 0 0 1 0 8.75A1.46 1.46 0 0 1 1.46 7.29ZM12.29 7.71a1.25 1.25 0 0 1 1.25 1.25a1.25 1.25 0 0 1 -1.25 1.25a1.25 1.25 0 0 1 -1.25 -1.25a1.25 1.25 0 0 1 1.25 -1.25zM1.46 7.92a0.83 0.83 0 0 0 -0.83 0.83a0.83 0.83 0 0 0 0.83 0.83a0.83 0.83 0 0 0 0.83 -0.83a0.83 0.83 0 0 0 -0.83 -0.83zM12.29 8.33a0.63 0.63 0 0 0 -0.62 0.63a0.63 0.63 0 0 0 0.62 0.62a0.63 0.63 0 0 0 0.63 -0.62a0.63 0.63 0 0 0 -0.63 -0.63zm1.67 0.42l0.42 0.21c0.26 0.08 0.48 0.26 0.6 0.51c0.05 0.12 -0.01 0.27 -0.13 0.32c-0.01 0 -0.01 0.01 -0.02 0.01h-1.08c0.17 -0.33 0.24 -0.69 0.21 -1.05z"/>
</svg>