<svg xmlns="http://www.w3.org/2000/svg" viewBox="0 0 15 15">
  <path d="M14.5 9C14.78 9 15 9.22 15 9.5L15 14L13 14L13 11L10.75 11L10.75 9L14.5 9ZM0.5 9L4.88 9C5.12 9.19 5.4 9.33 5.71 9.38L7.25 9.64L7.25 11L2 11L2 14L0 14L0 9.5C0 9.22 0.22 9 0.5 9ZM6.59 3C6.85 3 7.11 3.11 7.29 3.29L7.71 3.71C7.89 3.89 8 4.15 8 4.41L8 5.97C8 6.58 8.41 7.1 9 7.25C9.59 7.4 10 7.92 10 8.53L10 9L10 11L10 11L10 12C10 12.55 9.55 13 9 13C8.45 13 8 12.55 8 12L8 9L5.84 8.64C5.35 8.56 5 8.14 5 7.65L5 4.41C5 4.15 5.11 3.89 5.29 3.71L5.71 3.29C5.89 3.11 6.15 3 6.41 3L6.59 3ZM6.5 2.5C7.19 2.5 7.75 1.94 7.75 1.25C7.75 0.56 7.19 0 6.5 0C5.81 0 5.25 0.56 5.25 1.25C5.25 1.94 5.81 2.5 6.5 2.5Z"/>
</svg>