<svg xmlns="http://www.w3.org/2000/svg" viewBox="0 0 15 15">
  <path d="M9.33 3.94C9.33 2.93 8.51 2.11 7.5 2.11c-1.01 0 -1.83 0.82 -1.83 1.83c0 1.01 0.82 1.83 1.83 1.83c1.01 0 1.83 -0.82 1.83 -1.83M11.94 11.1L10.7 7.13C10.67 6.64 10.28 6.24 9.78 6.22H7.5H5.22C4.72 6.24 4.33 6.64 4.3 7.13l-1.03 3.31c0.46 -0.11 0.94 -0.06 1.37 0.14L4.91 9.64C4.92 9.56 4.98 9.5 5.05 9.5C5.13 9.49 5.21 9.56 5.21 9.64v1.3C5.94 11.36 6.84 11.3 7.5 10.8C8.16 10.31 9.06 10.25 9.78 10.66V9.53C9.78 9.47 9.83 9.42 9.89 9.42C9.95 9.42 10 9.47 10 9.53l0.46 1.54c0.47 0.19 0.99 0.2 1.47 0.04M2.5 11.22c0.74 -0.56 1.76 -0.56 2.5 0c0.74 0.56 1.76 0.56 2.5 0c0.74 -0.56 1.76 -0.56 2.5 0c0.74 0.56 1.76 0.56 2.5 0c0.74 -0.56 1.76 -0.56 2.5 0v0.92c-0.74 -0.56 -1.76 -0.56 -2.5 0c-0.74 0.56 -1.76 0.56 -2.5 0c-0.74 -0.56 -1.76 -0.56 -2.5 0c-0.74 0.56 -1.76 0.56 -2.5 0c-0.74 -0.56 -1.76 -0.56 -2.5 0c-0.74 0.56 -1.76 0.56 -2.5 0v-0.92c0.74 0.56 1.76 0.56 2.5 0zM1.35 7.47C1.49 7.93 1.42 8.42 1.15 8.82C0.94 9.16 0.86 9.57 0.93 9.97H0.22C0.19 9.5 0.3 9.04 0.53 8.63C0.78 8.29 0.82 7.84 0.63 7.47Zm0.62 2.92C1.96 9.98 2.06 9.59 2.25 9.23C2.47 8.82 2.59 8.36 2.6 7.89H1.88C1.92 8.29 1.83 8.7 1.63 9.05C1.42 9.46 1.29 9.92 1.26 10.39ZM3.53 8.3C3.68 7.71 3.64 7.08 3.42 6.51C3.32 6.29 3.29 6.04 3.32 5.8H2.61C2.63 6.11 2.71 6.42 2.83 6.71C3.01 7.23 3.01 7.79 2.82 8.3ZM14.69 9.97C14.71 9.5 14.6 9.04 14.37 8.63C14.12 8.29 14.08 7.84 14.27 7.47l-0.62 -0.1c-0.14 0.45 -0.07 0.95 0.2 1.34c0.21 0.35 0.29 0.81 0.27 1.26zm-1.66 0.42C13.04 9.98 12.94 9.59 12.75 9.23C12.53 8.82 12.41 8.36 12.4 7.89h0.72c-0.04 0.4 0.05 0.81 0.25 1.16c0.21 0.42 0.34 0.87 0.37 1.34zM11.47 8.3C11.32 7.71 11.36 7.08 11.58 6.51C11.68 6.29 11.71 6.04 11.68 5.8H12.4C12.38 6.11 12.3 6.42 12.18 6.71C12 7.23 12 7.79 12.19 8.3Z"/>
</svg>