<svg xmlns="http://www.w3.org/2000/svg" viewBox="0 0 15 15">
  <path d="M6.2 0C5.58 0 5.07 0.51 5.07 1.13C5.07 1.75 5.58 2.26 6.2 2.26C6.82 2.26 7.33 1.75 7.33 1.13C7.33 0.51 6.83 0 6.2 0ZM5.23 2.49C4.93 2.49 4.65 2.65 4.5 2.9L3.14 5.18v0C3.06 5.32 3.1 5.5 3.23 5.59l1.7 1.09v6.29c0 0.36 0.29 0.65 0.65 0.65c0.36 0 0.65 -0.29 0.65 -0.65V8.6c0 -0.06 0.05 -0.12 0.12 -0.12c0.06 0 0.12 0.05 0.12 0.12v5.75c0 0.36 0.29 0.65 0.65 0.65c0.36 0 0.65 -0.29 0.65 -0.65V6.96C7.81 6.97 7.85 6.98 7.89 7C8.33 7.15 8.78 7.23 9.24 7.25V7.74H8.83C8.74 7.74 8.67 7.81 8.67 7.9v0.14c0 0.01 0.01 0.02 0.02 0.02H9.22V8.9C9.14 8.96 9.08 9.05 9.08 9.15v3.3H8c-0.09 0 -0.16 0.07 -0.16 0.16c0 0.09 0.07 0.16 0.16 0.16h1.08v1.92c0 0.17 0.13 0.3 0.3 0.3c0.17 0 0.3 -0.13 0.3 -0.3v-1.08h1.08c0.09 0 0.16 -0.07 0.16 -0.16c0 -0.09 -0.07 -0.16 -0.16 -0.16H9.69V9.15C9.69 9.05 9.64 8.96 9.55 8.9V8.07h0.53c0.01 0 0.02 -0.01 0.02 -0.02V7.9C10.1 7.81 10.03 7.74 9.94 7.74H9.55V7.23c0.46 -0.02 0.92 -0.1 1.35 -0.25c0.14 -0.05 0.28 -0.08 0.43 -0.11c0.14 0 0.25 0.11 0.25 0.25c0 0.09 0.07 0.16 0.16 0.16c0.09 0 0.16 -0.07 0.16 -0.16c0 -0.32 -0.26 -0.58 -0.58 -0.58c-0.05 0 -0.1 0.01 -0.16 0.02L11.1 6.58C11.18 6.41 11.16 6.19 11.01 6.05L7.78 2.75C7.62 2.58 7.4 2.49 7.17 2.49Zm2.71 1.68l2.45 2.55c0.03 0.03 0.06 0.04 0.1 0.06C9.66 7 8.79 6.96 7.98 6.69C7.9 6.67 7.83 6.64 7.75 6.62V4.25C7.75 4.22 7.76 4.19 7.79 4.17C7.81 4.15 7.84 4.14 7.87 4.14C7.85 4.12 7.91 4.13 7.94 4.17ZM4.92 4.3V5.42C4.92 5.44 4.91 5.46 4.9 5.48C4.87 5.53 4.79 5.55 4.74 5.51L4.27 5.21v0C4.22 5.18 4.2 5.11 4.23 5.06L4.72 4.25C4.79 4.14 4.92 4.2 4.92 4.3Z"/>
</svg>