<svg xmlns="http://www.w3.org/2000/svg" viewBox="0 0 15 15">
  <path d="M11.5 3.13C11.71 3.13 11.88 3.29 11.88 3.5L11.88 4.8L14.76 5.53L14.81 5.56C14.91 5.61 14.97 5.73 14.94 5.84L14.81 6.32C14.77 6.46 14.63 6.54 14.5 6.5L12 5.86L14.07 11.24L14.65 11.02C14.78 10.97 14.93 11.03 14.98 11.16C15.03 11.29 14.96 11.44 14.83 11.49L14.25 11.71L14.43 12.18C14.5 12.37 14.41 12.59 14.21 12.66C14.02 12.74 13.8 12.64 13.73 12.45L13.55 11.98L12.97 12.2C12.84 12.25 12.69 12.19 12.64 12.06C12.59 11.93 12.66 11.79 12.79 11.74L13.37 11.51L11.88 7.62L11.88 11L12.5 11C12.64 11 12.75 11.11 12.75 11.25C12.75 11.39 12.64 11.5 12.5 11.5L11.88 11.5L11.88 12C11.88 12.21 11.71 12.38 11.5 12.38C11.29 12.38 11.13 12.21 11.13 12L11.13 11.5L10.5 11.5C10.36 11.5 10.25 11.39 10.25 11.25C10.25 11.11 10.36 11 10.5 11L11.13 11L11.13 6.54L9.49 8.05C9.47 8.06 9.45 8.08 9.43 8.09L9.37 8.13C9.13 8.25 8.83 8.15 8.7 7.9L8.25 7L7.79 8.69C7.79 8.69 9.29 10.29 9.41 10.47C9.54 10.64 9.58 10.9 9.66 11.2C9.69 11.33 9.78 11.9 9.87 12.49L9.92 12.85C10.01 13.51 10.09 14.1 10.09 14.1L10.09 14.25C10.09 14.75 9.81 15 9.25 15C8.88 14.95 8.65 14.75 8.55 14.4L7.97 11.32L6.5 10.06L6.18 11.96L6.05 12.34L4.8 14.58C4.68 14.84 4.46 14.97 4.23 15L4.14 15C3.73 14.99 3.3 14.65 3.3 14.06L3.38 13.68L4.56 11.6C4.56 11.6 4.81 10.67 4.9 9.75C4.95 9.22 5.08 8.78 5.19 8.36C5.31 7.94 5.78 5.86 5.78 5.86L5.03 6.46C4.97 6.64 4.89 7.08 4.61 8.45C4.55 8.71 4.35 8.91 4.13 8.95L4.05 8.96L3.96 8.95C3.68 8.9 3.44 8.68 3.5 8.31C3.5 8.31 3.61 7.59 3.75 6.83L3.81 6.5L3.84 6.33C3.96 5.74 3.95 5.7 4.5 5.24C4.81 4.98 5.28 4.58 5.7 4.24C5.91 4.06 6.12 3.9 6.27 3.78L6.32 3.74C6.34 3.73 6.36 3.71 6.37 3.7C6.42 3.67 6.45 3.64 6.49 3.61C6.54 3.57 6.58 3.54 6.62 3.51C6.64 3.5 6.67 3.48 6.69 3.47C6.86 3.35 6.97 3.38 7.63 3.43C7.94 3.46 8.37 3.64 8.9 4L9.11 4.14L9.14 4.17L9.14 4.18C9.18 4.23 9.22 4.32 9.25 4.45C9.26 4.49 9.27 4.53 9.28 4.57L9.29 4.62C9.37 4.97 9.44 5.52 9.5 6.25L10.32 5.43L9.91 5.32C9.85 4.85 9.79 4.5 9.71 4.24L10.68 4.49L10.66 4.44C10.63 4.27 10.73 4.09 10.9 4.03C10.97 4 11.05 3.99 11.13 4.01L11.13 3.5C11.13 3.29 11.29 3.13 11.5 3.13ZM1.5 0.75L1.48 0.86C1.4 1.36 1.47 2.13 1.97 2.26L6.06 3.31C5.84 3.48 5.48 3.77 5.1 4.08L0.74 2.97L0.63 2.93C0.16 2.74 -0.1 2.24 0.03 1.74C0.18 1.21 0.97 0.61 1.5 0.75ZM8.44 0L8.58 0.01C9.34 0.08 9.94 0.74 9.94 1.55C9.94 2.4 9.27 3.1 8.44 3.1C7.62 3.1 6.94 2.4 6.94 1.55C6.94 0.69 7.62 0 8.44 0Z"/>
</svg>