<svg xmlns="http://www.w3.org/2000/svg" viewBox="0 0 15 15">
  <path d="M7.5 1.4C6.92 1.4 6.45 1.88 6.45 2.46C6.45 3.04 6.92 3.51 7.5 3.51C8.08 3.51 8.55 3.04 8.55 2.46C8.55 1.88 8.08 1.4 7.5 1.4ZM6.19 3.74C5.91 3.75 5.68 3.99 5.67 4.28L5.12 6.01H0.42C0.19 6.01 0 6.27 0 6.5C0 6.73 0.19 7 0.42 7H14.58C14.81 7 15 6.73 15 6.5C15 6.27 14.81 6.01 14.58 6.01H9.9L9.36 4.28C9.35 3.99 9.12 3.75 8.83 3.74ZM6.12 5.59h0.01c0.04 0 0.07 0.02 0.07 0.06L6.19 6.01H5.96l0.1 -0.36c0 -0.03 0.02 -0.06 0.06 -0.06zm2.76 0H8.9c0.04 0 0.07 0.02 0.07 0.06l0.1 0.36H8.83V5.65C8.83 5.62 8.85 5.59 8.88 5.59ZM1.25 8C0.9 8 0.62 8.28 0.62 8.63v4.75C0.62 13.73 0.9 14 1.25 14h12.71c0.35 0 0.63 -0.28 0.63 -0.63L14.58 8.63C14.58 8.28 14.3 8 13.95 8Z"/>
</svg>