<svg xmlns="http://www.w3.org/2000/svg" viewBox="0 0 15 15">
  <path d="M 9.33,3.94 C 9.33,2.93 8.51,2.11 7.5,2.11 c -1.01,0 -1.83,0.82 -1.83,1.83 0,1.01 0.82,1.83 1.83,1.83 1.01,0 1.83,-0.82 1.83,-1.83 M 11.94,11.1 10.7,7.13 C 10.67,6.64 10.28,6.24 9.78,6.22 H 7.5 5.22 C 4.72,6.24 4.33,6.64 4.3,7.13 l -1.03,3.31 c 0.46,-0.11 0.94,-0.06 1.37,0.14 L 4.91,9.64 C 4.92,9.56 4.98,9.5 5.05,9.5 5.13,9.49 5.21,9.56 5.21,9.64 v 1.3 C 5.94,11.36 6.84,11.3 7.5,10.8 8.16,10.31 9.06,10.25 9.78,10.66 V 9.53 C 9.78,9.47 9.83,9.42 9.89,9.42 9.95,9.42 10,9.47 10,9.53 l 0.46,1.54 c 0.47,0.19 0.99,0.2 1.47,0.04 M 2.5,11.22 c 0.74,-0.56 1.76,-0.56 2.5,0 0.74,0.56 1.76,0.56 2.5,0 0.74,-0.56 1.76,-0.56 2.5,0 0.74,0.56 1.76,0.56 2.5,0 0.74,-0.56 1.76,-0.56 2.5,0 v 0.92 c -0.74,-0.56 -1.76,-0.56 -2.5,0 -0.74,0.56 -1.76,0.56 -2.5,0 -0.74,-0.56 -1.76,-0.56 -2.5,0 -0.74,0.56 -1.76,0.56 -2.5,0 -0.74,-0.56 -1.76,-0.56 -2.5,0 -0.74,0.56 -1.76,0.56 -2.5,0 v -0.92 c 0.74,0.56 1.76,0.56 2.5,0 z M 1.35,7.47 C 1.49,7.93 1.42,8.42 1.15,8.82 0.94,9.16 0.86,9.57 0.93,9.97 H 0.22 C 0.19,9.5 0.3,9.04 0.53,8.63 0.78,8.29 0.82,7.84 0.63,7.47 Z m 0.62,2.92 C 1.96,9.98 2.06,9.59 2.25,9.23 2.47,8.82 2.59,8.36 2.6,7.89 H 1.88 C 1.92,8.29 1.83,8.7 1.63,9.05 1.42,9.46 1.29,9.92 1.26,10.39 Z M 3.53,8.3 C 3.68,7.71 3.64,7.08 3.42,6.51 3.32,6.29 3.29,6.04 3.32,5.8 H 2.61 C 2.63,6.11 2.71,6.42 2.83,6.71 3.01,7.23 3.01,7.79 2.82,8.3 Z M 14.69,9.97 C 14.71,9.5 14.6,9.04 14.37,8.63 14.12,8.29 14.08,7.84 14.27,7.47 l -0.62,-0.1 c -0.14,0.45 -0.07,0.95 0.2,1.34 0.21,0.35 0.29,0.81 0.27,1.26 z m -1.66,0.42 C 13.04,9.98 12.94,9.59 12.75,9.23 12.53,8.82 12.41,8.36 12.4,7.89 h 0.72 c -0.04,0.4 0.05,0.81 0.25,1.16 0.21,0.42 0.34,0.87 0.37,1.34 z M 11.47,8.3 C 11.32,7.71 11.36,7.08 11.58,6.51 11.68,6.29 11.71,6.04 11.68,5.8 H 12.4 C 12.38,6.11 12.3,6.42 12.18,6.71 12,7.23 12,7.79 12.19,8.3 Z" />
</svg>
