<svg xmlns="http://www.w3.org/2000/svg" viewBox="0 0 15 15">
<path d="M 2.58,1.24 C 2.58,0.55 3.13,0.04 3.78,0.04 4.47,0.04 4.98,0.6 4.98,1.24 4.98,1.88 4.42,2.44 3.78,2.44 3.08,2.44 2.58,1.88 2.58,1.24 M 5.68,10.14 C 5.67,10.2 5.61,10.25 5.55,10.24 5.34,10.09 5.27,9.75 5.16,9.51 L 4.85,10.2 C 4.81,10.25 4.74,10.26 4.69,10.22 4.66,10.2 4.64,10.17 4.64,10.14 V 6.34 L 2.74,6.49 C 2.38,6.48 2.1,6.18 2.11,5.95 2.11,5.92 2.33,4.51 2.33,4.51 2.4,4.21 2.55,3.92 2.74,3.68 3.04,3.34 3.39,3.06 3.74,2.85 4.13,2.62 4.61,2.62 5.04,2.85 L 7.94,2.71 C 8.02,2.71 8.09,2.69 8.15,2.64 L 10.75,1.54 C 11,1.43 11.28,1.55 11.39,1.79 11.49,2.04 11.38,2.31 11.14,2.42 L 8.54,3.62 C 8.47,3.64 8.4,3.66 8.33,3.66 L 5.93,3.83 7.63,6.13 11.83,2.13 C 12.08,1.9 12.47,1.91 12.71,2.16 12.95,2.41 12.94,2.8 12.69,3.04 12.65,3.08 12.6,3.11 12.56,3.14 L 7.66,7.84 7.46,14.34 C 7.46,14.68 7.18,14.96 6.83,14.96 6.49,14.96 6.21,14.68 6.21,14.33 V 8.33 L 5.63,7.47 Z M 4.08,5.71 3.22,4.51 2.99,5.61 Z" />
</svg>
