<svg xmlns="http://www.w3.org/2000/svg" viewBox="0 0 15 15">
  <path d="M3.45 2.55C4.01 2.67 4.28 3.01 4.39 3.25L5.15 4.9C5.19 4.98 5.22 5.05 5.24 5.09C5.29 5.18 5.39 5.23 5.41 5.24L6.68 5.71C6.91 5.81 7.06 6.01 7.06 6.24C7.06 6.57 6.76 6.83 6.39 6.83C6.31 6.83 6.24 6.82 6.16 6.79L4.63 6.23C4.41 6.15 4.31 6.04 4.21 5.88L4.11 5.7C4.06 5.58 3.99 5.43 3.92 5.3L3 8.71L3 14C3 14.53 2.6 15 2 15C1.4 15 1 14.53 1 14L1 7.81C1 7.52 1.07 6.78 1.15 6.52L2.02 3.32C2.17 2.76 2.82 2.41 3.45 2.55ZM13 4C13.55 4 14 4.45 14 5L14 15L7 15L7 8.29C7 8.1 7.05 7.92 7.15 7.76L9.21 4.47C9.39 4.18 9.71 4 10.05 4L13 4ZM11 7L10 7L10 8L9.5 8C8.67 8 8 8.67 8 9.5C8 10.33 8.67 11 9.5 11L10 11L10 12L8 12C8 12.5 8.5 13 9 13L10 13L10 14L11 14L11 13L11.5 13C12.33 13 13 12.33 13 11.5C13 10.67 12.33 10 11.5 10L11 10L11 9L13 9C13 8.5 12.5 8 12 8L11 8L11 7ZM11.5 11C11.78 11 12 11.22 12 11.5C12 11.78 11.78 12 11.5 12L11 12L11 11L11.5 11ZM10 9L10 10L9.5 10C9.22 10 9 9.78 9 9.5C9 9.22 9.22 9 9.5 9L10 9ZM5.71 1.12L5.71 1.25C5.73 1.69 5.5 2.1 5.1 2.33C4.71 2.55 4.21 2.55 3.82 2.33C3.46 2.13 3.24 1.77 3.21 1.38L3.21 1.25C3.19 0.81 3.42 0.4 3.82 0.17C4.21 -0.06 4.71 -0.06 5.1 0.17C5.46 0.37 5.68 0.73 5.71 1.12L5.71 1.12Z"/>
</svg>