<svg xmlns="http://www.w3.org/2000/svg" viewBox="0 0 15 15">
<path d="M 7.53,0.02 C 6.87,0.02 6.34,0.54 6.34,1.2 6.33,1.86 6.87,2.4 7.53,2.4 8.19,2.41 8.74,1.86 8.73,1.2 8.73,0.54 8.19,0.01 7.53,0.02 Z M 6.34,2.59 C 5.84,2.59 5.66,2.8 5.55,3.22 L 4.36,7.18 H 3.36 V 5.6 C 3.36,5.45 3.25,5.32 3.09,5.32 H 2.27 C 2.12,5.32 2,5.45 2,5.6 V 9.37 C 2,9.52 2.12,9.65 2.27,9.65 H 3.09 C 3.25,9.65 3.36,9.52 3.36,9.37 V 7.78 H 4.24 C 4.25,7.95 4.31,8.19 4.59,8.25 5.01,8.34 5.18,7.83 5.19,7.78 H 6.15 L 5.35,14.33 C 5.35,14.33 5.28,14.9 5.87,14.98 6.45,15.05 6.56,14.45 6.56,14.45 L 7.45,8.79 C 7.48,8.67 7.49,8.63 7.59,8.63 7.7,8.63 7.7,8.67 7.74,8.79 L 8.62,14.45 C 8.62,14.45 8.75,15.05 9.31,14.98 9.9,14.9 9.83,14.33 9.83,14.33 L 9.04,7.78 H 9.99 C 10.01,7.83 10.18,8.34 10.6,8.25 10.88,8.19 10.94,7.95 10.95,7.78 H 11.82 V 9.37 C 11.82,9.52 11.95,9.65 12.09,9.65 H 12.92 C 13.06,9.65 13.19,9.52 13.19,9.37 V 5.6 C 13.19,5.45 13.06,5.32 12.92,5.32 H 12.09 C 11.95,5.32 11.82,5.45 11.82,5.6 V 7.18 H 10.82 L 9.64,3.22 C 9.53,2.8 9.34,2.59 8.84,2.59 Z M 6.14,4.58 V 7.16 H 5.35 Z M 9.02,4.58 9.81,7.16 H 9.02 Z M 13.68,6.17 C 13.56,6.17 13.47,6.26 13.47,6.37 V 8.55 C 13.47,8.67 13.56,8.77 13.68,8.77 H 14.01 C 14.13,8.77 14.23,8.67 14.23,8.55 V 7.72 H 14.78 C 14.9,7.72 15,7.62 15,7.51 V 7.4 C 15,7.27 14.9,7.17 14.78,7.17 H 14.23 V 6.33 C 14.23,6.23 14.13,6.13 14.01,6.13 Z M 0.99,6.17 C 0.87,6.17 0.77,6.26 0.77,6.37 V 7.21 H 0.22 C 0.1,7.21 -0,7.31 -0,7.44 V 7.55 C -0,7.66 0.1,7.76 0.22,7.76 H 0.77 V 8.59 C 0.77,8.71 0.87,8.81 0.99,8.81 H 1.32 C 1.44,8.81 1.54,8.71 1.54,8.59 V 6.41 C 1.54,6.3 1.44,6.21 1.32,6.21 Z" />
</svg>
