<svg xmlns="http://www.w3.org/2000/svg" viewBox="0 0 15 15">
  <path d="M13.59 10a0.4 0.4 0 0 0 -0.24 0.1L11 12H9.47s-0.18 -0.02 -0.39 0s-1.04 0.43 -1.04 0.43l-1.86 0.83c-0.33 0.22 -0.18 0.74 0.22 0.74h7.2a0.4 0.4 0 0 0 0.4 -0.4v-3.2a0.4 0.4 0 0 0 -0.41 -0.4zM5 11a2 2 0 0 1 -2 2a2 2 0 0 1 -2 -2a2 2 0 0 1 2 -2a2 2 0 0 1 2 2m7 -2a2 2 0 0 1 -2 2a2 2 0 0 1 -2 -2a2 2 0 0 1 2 -2a2 2 0 0 1 2 2M8 2a1 1 0 0 1 -1 1a1 1 0 0 1 -1 -1a1 1 0 0 1 1 -1a1 1 0 0 1 1 1M6.3 3.11a0.75 0.75 0 0 0 -0.51 0.24L3.21 6c-0.41 0.43 -0.13 0.84 0.11 0.93L6 8v2.54c0 0.26 0.21 0.47 0.5 0.47s0.5 -0.21 0.5 -0.47V7.47c0 -0.26 -0.12 -0.35 -0.28 -0.47L5.17 6l1.31 -1.32l0.66 0.92c0.16 0.22 0.3 0.4 0.52 0.4h1.91c0.26 0 0.47 -0.21 0.47 -0.5s-0.21 -0.5 -0.47 -0.5H8l-0.95 -1.47c-0.15 -0.3 -0.45 -0.42 -0.75 -0.43Z"/>
</svg>