<svg xmlns="http://www.w3.org/2000/svg" viewBox="0 0 15 15">
  <path d="M13.03 2a1 1 0 1 0 -0.07 2a1 1 0 0 0 0.07 -2m-1.54 1.51a0.8 0.8 0 0 0 -0.22 0.03l-3.57 1c-0.57 0.16 -0.54 0.66 -0.37 0.86l1.77 2.28l-1.28 2.19c-0.13 0.22 -0.06 0.51 0.19 0.66c0.25 0.15 0.54 0.07 0.67 -0.15l1.55 -2.65c0.13 -0.22 0.08 -0.36 -0.01 -0.55l-0.83 -1.65l1.8 -0.48l0.1 1.13c0.03 0.28 0.05 0.49 0.24 0.61l1.65 0.96c0.22 0.13 0.51 0.06 0.66 -0.19s0.07 -0.53 -0.15 -0.67l-1.34 -0.79l-0.08 -1.75c0.02 -0.33 -0.17 -0.59 -0.43 -0.75a0.76 0.76 0 0 0 -0.34 -0.09M5 7a2 2 0 1 0 0 4a2 2 0 0 0 0 -4m7 2a2 2 0 1 0 0 4a2 2 0 0 0 0 -4m-10.59 1a0.4 0.4 0 0 0 -0.41 0.4V13.6c0 0.22 0.18 0.4 0.4 0.4h7.2c0.4 0 0.55 -0.52 0.21 -0.74L6.96 12.43s-0.83 -0.41 -1.04 -0.43s-0.39 0 -0.39 0H4l-2.34 -1.9A0.4 0.4 0 0 0 1.41 10z"/>
</svg>