<svg xmlns="http://www.w3.org/2000/svg" viewBox="0 0 15 15">
  <path d="M 6.2,0 C 5.58,0 5.07,0.51 5.07,1.13 5.07,1.75 5.58,2.26 6.2,2.26 6.82,2.26 7.33,1.75 7.33,1.13 7.33,0.51 6.83,0 6.2,0 Z M 5.23,2.49 C 4.93,2.49 4.65,2.65 4.5,2.9 L 3.14,5.18 v 0 C 3.06,5.32 3.1,5.5 3.23,5.59 l 1.7,1.09 v 6.29 c 0,0.36 0.29,0.65 0.65,0.65 0.36,0 0.65,-0.29 0.65,-0.65 V 8.6 c 0,-0.06 0.05,-0.12 0.12,-0.12 0.06,0 0.12,0.05 0.12,0.12 v 5.75 c 0,0.36 0.29,0.65 0.65,0.65 0.36,0 0.65,-0.29 0.65,-0.65 V 6.96 C 7.81,6.97 7.85,6.98 7.89,7 8.33,7.15 8.78,7.23 9.24,7.25 V 7.74 H 8.83 C 8.74,7.74 8.67,7.81 8.67,7.9 v 0.14 c 0,0.01 0.01,0.02 0.02,0.02 H 9.22 V 8.9 C 9.14,8.96 9.08,9.05 9.08,9.15 v 3.3 H 8 c -0.09,0 -0.16,0.07 -0.16,0.16 0,0.09 0.07,0.16 0.16,0.16 h 1.08 v 1.92 c 0,0.17 0.13,0.3 0.3,0.3 0.17,0 0.3,-0.13 0.3,-0.3 v -1.08 h 1.08 c 0.09,0 0.16,-0.07 0.16,-0.16 0,-0.09 -0.07,-0.16 -0.16,-0.16 H 9.69 V 9.15 C 9.69,9.05 9.64,8.96 9.55,8.9 V 8.07 h 0.53 c 0.01,0 0.02,-0.01 0.02,-0.02 V 7.9 C 10.1,7.81 10.03,7.74 9.94,7.74 H 9.55 V 7.23 c 0.46,-0.02 0.92,-0.1 1.35,-0.25 0.14,-0.05 0.28,-0.08 0.43,-0.11 0.14,0 0.25,0.11 0.25,0.25 0,0.09 0.07,0.16 0.16,0.16 0.09,0 0.16,-0.07 0.16,-0.16 0,-0.32 -0.26,-0.58 -0.58,-0.58 -0.05,0 -0.1,0.01 -0.16,0.02 L 11.1,6.58 C 11.18,6.41 11.16,6.19 11.01,6.05 L 7.78,2.75 C 7.62,2.58 7.4,2.49 7.17,2.49 Z m 2.71,1.68 2.45,2.55 c 0.03,0.03 0.06,0.04 0.1,0.06 C 9.66,7 8.79,6.96 7.98,6.69 7.9,6.67 7.83,6.64 7.75,6.62 V 4.25 C 7.75,4.22 7.76,4.19 7.79,4.17 7.81,4.15 7.84,4.14 7.87,4.14 7.85,4.12 7.91,4.13 7.94,4.17 Z M 4.92,4.3 V 5.42 C 4.92,5.44 4.91,5.46 4.9,5.48 4.87,5.53 4.79,5.55 4.74,5.51 L 4.27,5.21 v 0 C 4.22,5.18 4.2,5.11 4.23,5.06 L 4.72,4.25 C 4.79,4.14 4.92,4.2 4.92,4.3 Z" />
</svg>
