<svg xmlns="http://www.w3.org/2000/svg" viewBox="0 0 15 15">
<path d="M7.51 0C6.68 -0 6.01 0.66 6 1.49C5.99 2.31 6.65 2.99 7.48 3C8.31 3.01 8.99 2.35 9 1.53L9 1.5C9 0.67 8.33 0 7.51 0ZM12.44 2.06C12.31 2.07 12.17 2.12 12.06 2.23L9.91 4.38C9.77 4.15 9.49 4 9.17 4L5.83 4C5.37 4 5 4.31 5 4.7L5 9.29L9.91 4.38C9.97 4.47 10 4.58 10 4.7L10 5.71L12.77 2.94C12.98 2.73 13 2.39 12.8 2.2C12.7 2.1 12.57 2.05 12.44 2.06ZM10 5.71L6.65 9.06C6.96 9.02 7.25 9 7.5 9C8.17 9 9.11 9.16 10 9.36L10 5.71ZM5 9.29L2.23 12.06C2.02 12.27 2 12.61 2.2 12.8C2.39 13 2.73 12.98 2.94 12.77L5.04 10.67C4.97 10.22 5 9.75 5 9.29ZM5.04 10.67L6.07 14.55C6.16 14.86 6.45 15.06 6.73 14.98C7.02 14.91 7.17 14.59 7.09 14.28L6.2 10.96L8.8 10.96L7.91 14.28C7.83 14.59 7.98 14.91 8.27 14.98C8.55 15.06 8.84 14.86 8.93 14.55L9.98 10.62C9.99 10.57 10 10.48 10 10.36C9.11 10.16 8.17 10 7.5 10C6.94 10 6.19 10.11 5.45 10.26L5.04 10.67Z" />
</svg>