<svg xmlns="http://www.w3.org/2000/svg" viewBox="0 0 15 15">
  <path d="M8.7 4L12 4C12.55 4 13 4.45 13 5L13 6.9C13 6.68 13.18 6.5 13.4 6.5L14.6 6.5C14.82 6.5 15 6.68 15 6.9L15 14L13 14L13 11L10.75 11L10.75 9L13 9L13 8.5L10.75 8.5C10.74 7.56 10.09 6.75 9.18 6.52C8.93 6.46 8.75 6.23 8.75 5.97L8.75 4.41C8.75 4.27 8.73 4.13 8.7 4ZM4.3 4C4.27 4.13 4.25 4.27 4.25 4.41L4.25 7.65L4.26 7.8C4.28 8.05 4.35 8.29 4.47 8.5L2 8.5L2 9L4.88 9C5.12 9.19 5.4 9.33 5.71 9.38L7.25 9.64L7.25 11L2 11L2 14L0 14L0 7C0 6.72 0.22 6.5 0.5 6.5L1.5 6.5C1.78 6.5 2 6.72 2 7L2 5C2 4.45 2.45 4 3 4L4.3 4ZM6.59 3C6.85 3 7.11 3.11 7.29 3.29L7.71 3.71C7.79 3.79 7.86 3.89 7.91 4L7.92 4.02C7.92 4.03 7.93 4.04 7.93 4.05L7.91 4C7.93 4.04 7.95 4.09 7.96 4.13C7.96 4.15 7.97 4.16 7.97 4.17C7.98 4.2 7.98 4.23 7.99 4.26C7.99 4.27 7.99 4.28 7.99 4.29C8 4.33 8 4.37 8 4.41L8 5.97C8 6.58 8.41 7.1 9 7.25C9.55 7.39 9.94 7.85 9.99 8.4L10 8.5L10 8.5L10 8.53L10 9L10 11L10 11L10 12C10 12.55 9.55 13 9 13C8.45 13 8 12.55 8 12L8 9L5.84 8.64C5.7 8.62 5.58 8.57 5.47 8.5L5.43 8.48C5.42 8.47 5.4 8.46 5.39 8.44L5.47 8.5C5.42 8.47 5.38 8.44 5.34 8.4C5.32 8.39 5.31 8.38 5.3 8.36C5.28 8.35 5.27 8.34 5.26 8.32C5.24 8.3 5.22 8.28 5.21 8.26C5.2 8.25 5.19 8.24 5.18 8.23C5.17 8.21 5.16 8.19 5.14 8.17C5.13 8.15 5.13 8.14 5.12 8.13C5.1 8.1 5.09 8.07 5.08 8.04C5.07 8.03 5.07 8.02 5.07 8.02C5.02 7.9 5 7.78 5 7.65L5 4.41L5 4.37L5.01 4.31C5.01 4.3 5.01 4.3 5.01 4.29L5 4.41C5 4.36 5 4.31 5.01 4.26C5.02 4.23 5.02 4.2 5.03 4.17C5.03 4.16 5.04 4.15 5.04 4.13C5.05 4.1 5.06 4.08 5.07 4.05C5.07 4.04 5.08 4.03 5.08 4.02C5.08 4.02 5.09 4.01 5.09 4C5.14 3.89 5.21 3.79 5.29 3.71L5.71 3.29C5.89 3.11 6.15 3 6.41 3L6.59 3ZM6.5 2.5C7.19 2.5 7.75 1.94 7.75 1.25C7.75 0.56 7.19 0 6.5 0C5.81 0 5.25 0.56 5.25 1.25C5.25 1.94 5.81 2.5 6.5 2.5Z"/>
</svg>