<svg xmlns="http://www.w3.org/2000/svg" viewBox="0 0 15 15">
  <path d="M11.47 7.82C11.37 7.41 10.85 7.09 10.46 7.28L8.93 7.97L8.93 5.23L11.61 1.01C11.8 0.71 11.73 0.3 11.42 0.1C11.1 -0.09 10.7 0 10.53 0.3L8.28 3.88L6.92 3.89C6.84 3.89 6.75 3.9 6.66 3.93L4.31 4.85L3.11 3.03C2.91 2.72 2.5 2.64 2.19 2.83C1.88 3.03 1.78 3.44 1.99 3.75L3.49 6.02C3.66 6.29 4.02 6.41 4.33 6.28L6.06 5.61L6.06 8.6L3.71 13.82C3.53 14.22 3.72 14.66 4.14 14.89C4.55 15.12 5.03 14.98 5.2 14.59L7.09 10.27C7.26 10.31 7.44 10.33 7.62 10.33C7.8 10.33 7.96 10.3 8.11 10.25L10.24 9.26L10.7 11.13C10.81 11.54 11.23 11.8 11.66 11.69C12.07 11.59 12.32 11.17 12.22 10.76L11.47 7.83L11.47 7.82ZM7.3 3.65C7.96 3.65 8.49 3.13 8.49 2.48C8.49 1.83 7.96 1.3 7.3 1.3C6.66 1.3 6.13 1.83 6.13 2.48C6.13 3.13 6.66 3.65 7.3 3.65Z"/>
</svg>