<svg xmlns="http://www.w3.org/2000/svg" viewBox="0 0 15 15">
  <path d="M6.67 3.48C6.85 3.35 6.94 3.38 7.63 3.43C7.98 3.46 8.48 3.69 9.11 4.14L9.1 4.13L9.11 4.14C9.13 4.15 9.14 4.17 9.16 4.21C9.22 4.31 9.28 4.52 9.33 4.83L9.34 4.88C9.35 4.93 9.35 4.97 9.36 5.02C9.37 5.1 9.39 5.18 9.4 5.28L9.41 5.38C9.44 5.63 9.47 5.92 9.5 6.25L10.25 5.5L9.92 5.42C9.87 4.93 9.81 4.57 9.73 4.3L14.8 5.65L14.85 5.67C14.95 5.73 15 5.85 14.97 5.96L14.84 6.44C14.81 6.58 14.67 6.65 14.54 6.62L12.66 6.12C12.62 6.13 12.58 6.13 12.54 6.12L11.79 5.92L11.73 5.98L9.49 8.05C9.45 8.08 9.42 8.11 9.37 8.13C9.13 8.25 8.83 8.15 8.7 7.9L8.25 7L7.79 8.69C7.79 8.69 9.29 10.29 9.41 10.47C9.54 10.64 9.58 10.9 9.66 11.2C9.69 11.33 9.78 11.9 9.87 12.49L9.92 12.85C10.01 13.51 10.09 14.1 10.09 14.1L10.09 14.25C10.09 14.75 9.81 15 9.25 15C8.88 14.95 8.65 14.75 8.55 14.4L7.97 11.32L6.5 10.06L6.18 11.96L6.05 12.34L4.8 14.58C4.68 14.84 4.46 14.97 4.23 15L4.14 15C3.73 14.99 3.3 14.65 3.3 14.06L3.38 13.68L4.56 11.6C4.56 11.6 4.81 10.67 4.9 9.75C4.95 9.22 5.08 8.78 5.19 8.36C5.31 7.94 5.78 5.86 5.78 5.86L5.03 6.46C4.97 6.64 4.89 7.08 4.61 8.45C4.55 8.71 4.35 8.91 4.13 8.95L4.05 8.96L3.96 8.95C3.68 8.9 3.44 8.68 3.5 8.31C3.5 8.31 3.61 7.59 3.75 6.83L3.81 6.5L3.84 6.33C3.96 5.74 3.95 5.7 4.5 5.24C4.8 4.98 5.26 4.6 5.68 4.26L5.74 4.21C5.84 4.13 5.93 4.05 6.02 3.98C6.07 3.94 6.11 3.91 6.15 3.87C6.29 3.76 6.41 3.67 6.49 3.61C6.55 3.56 6.6 3.53 6.64 3.5C6.65 3.49 6.66 3.48 6.67 3.48ZM1.5 0.75L1.48 0.86C1.4 1.36 1.47 2.13 1.97 2.26L2.03 2.27L2.03 2.24C2.17 1.74 2.87 1.18 3.4 1.23L3.5 1.25L3.48 1.37C3.4 1.86 3.47 2.63 3.97 2.76L6.05 3.31C5.82 3.5 5.45 3.8 5.06 4.12L0.74 2.97L0.63 2.93C0.16 2.74 -0.1 2.24 0.03 1.74C0.18 1.21 0.97 0.61 1.5 0.75ZM8.44 0L8.58 0.01C9.34 0.08 9.94 0.74 9.94 1.55C9.94 2.4 9.27 3.1 8.44 3.1C7.62 3.1 6.94 2.4 6.94 1.55C6.94 0.69 7.62 0 8.44 0Z"/>
</svg>