<svg xmlns="http://www.w3.org/2000/svg" viewBox="0 0 15 15">
  <path d="M 0.63,4.79 1.04,5.62 H 0 V 4.79 Z M 4.96,4.81 c 0.05,0 0.09,0 0.14,0 0.51,0.07 0.92,0.36 1.15,0.81 -0.44,-0.04 -0.68,0.08 -0.61,0.3 0.06,0.21 0.39,0.43 0.82,0.54 0.11,0.21 0.18,0.42 0.21,0.62 h -1.04 c -0.36,-0.13 -0.73,-0.27 -1.1,-0.41 -0.32,-0.18 -0.53,-0.48 -0.57,-0.84 0.04,-0.41 0.26,-0.76 0.6,-0.94 0.12,-0.05 0.26,-0.08 0.39,-0.08 z M 3.13,5.83 c 0.48,1.08 1.52,1.8 2.7,1.88 h 1.67 c 0.45,0.03 0.87,-0.22 1.04,-0.63 h 0.42 l 2.08,0.63 c -0.32,0.34 -0.49,0.78 -0.5,1.24 0.01,0.29 0.07,0.58 0.19,0.84 H 3.33 V 8.54 c -0.09,-0.88 -0.78,-1.57 -1.66,-1.67 H 0.42 c -0.23,0 -0.42,-0.19 -0.42,-0.42 V 5.83 Z m 4.58,0.84 c 0.12,0 0.21,0.09 0.21,0.21 v 0.42 0 c -0.13,0.07 -0.27,0.09 -0.42,0.08 v -0.5 c 0,-0.12 0.09,-0.21 0.21,-0.21 z M 1.46,7.29 a 1.46,1.46 0 0 1 1.46,1.46 1.46,1.46 0 0 1 -1.46,1.46 A 1.46,1.46 0 0 1 0,8.75 1.46,1.46 0 0 1 1.46,7.29 Z M 12.29,7.71 a 1.25,1.25 0 0 1 1.25,1.25 1.25,1.25 0 0 1 -1.25,1.25 1.25,1.25 0 0 1 -1.25,-1.25 1.25,1.25 0 0 1 1.25,-1.25 z M 1.46,7.92 a 0.83,0.83 0 0 0 -0.83,0.83 0.83,0.83 0 0 0 0.83,0.83 0.83,0.83 0 0 0 0.83,-0.83 0.83,0.83 0 0 0 -0.83,-0.83 z M 12.29,8.33 a 0.63,0.63 0 0 0 -0.62,0.63 0.63,0.63 0 0 0 0.62,0.62 0.63,0.63 0 0 0 0.63,-0.62 0.63,0.63 0 0 0 -0.63,-0.63 z m 1.67,0.42 0.42,0.21 c 0.26,0.08 0.48,0.26 0.6,0.51 0.05,0.12 -0.01,0.27 -0.13,0.32 -0.01,0 -0.01,0.01 -0.02,0.01 h -1.08 c 0.17,-0.33 0.24,-0.69 0.21,-1.05 z" />
</svg>