<svg xmlns="http://www.w3.org/2000/svg" viewBox="0 0 15 15">
  <path d="M 7.5,1.4 C 6.92,1.4 6.45,1.88 6.45,2.46 6.45,3.04 6.92,3.51 7.5,3.51 8.08,3.51 8.55,3.04 8.55,2.46 8.55,1.88 8.08,1.4 7.5,1.4 Z M 6.19,3.74 C 5.91,3.75 5.68,3.99 5.67,4.28 L 5.12,6.01 H 0.42 C 0.19,6.01 0,6.27 0,6.5 0,6.73 0.19,7 0.42,7 H 14.58 C 14.81,7 15,6.73 15,6.5 15,6.27 14.81,6.01 14.58,6.01 H 9.9 L 9.36,4.28 C 9.35,3.99 9.12,3.75 8.83,3.74 Z M 6.12,5.59 h 0.01 c 0.04,0 0.07,0.02 0.07,0.06 L 6.19,6.01 H 5.96 l 0.1,-0.36 c 0,-0.03 0.02,-0.06 0.06,-0.06 z m 2.76,0 H 8.9 c 0.04,0 0.07,0.02 0.07,0.06 l 0.1,0.36 H 8.83 V 5.65 C 8.83,5.62 8.85,5.59 8.88,5.59 Z M 1.25,8 C 0.9,8 0.62,8.28 0.62,8.63 v 4.75 C 0.62,13.73 0.9,14 1.25,14 h 12.71 c 0.35,0 0.63,-0.28 0.63,-0.63 L 14.58,8.63 C 14.58,8.28 14.3,8 13.95,8 Z" />
</svg>
