<svg xmlns="http://www.w3.org/2000/svg" viewBox="0 0 15 15">
  <path d="M14.25 10L12.55 10L13.75 8.8C14.05 8.5 14.05 8.05 13.75 7.75C13.45 7.45 13 7.45 12.7 7.75L11.5 8.95L11.5 7.25C11.5 6.85 11.15 6.5 10.75 6.5C10.35 6.5 10 6.85 10 7.25L10 8.95L8.8 7.75C8.5 7.45 8.05 7.45 7.75 7.75C7.45 8.05 7.45 8.5 7.75 8.8L8.95 10L7.25 10C6.85 10 6.5 10.35 6.5 10.75C6.5 11.15 6.85 11.5 7.25 11.5L8.95 11.5L7.75 12.7C7.45 13 7.45 13.45 7.75 13.75C8.05 14.05 8.5 14.05 8.8 13.75L10 12.55L10 14.25C10 14.65 10.35 15 10.75 15C11.15 15 11.5 14.65 11.5 14.25L11.5 12.55L12.7 13.75C13 14.05 13.45 14.05 13.75 13.75C14.05 13.45 14.05 13 13.75 12.7L12.55 11.5L14.25 11.5C14.65 11.5 15 11.15 15 10.75C15 10.35 14.65 10 14.25 10ZM6.25 1C5.85 1 5.5 1.35 5.5 1.75L5.5 4.45L1.3 0.2L1.3 0.2C1.15 0.1 0.95 0 0.75 0C0.35 0 0 0.35 0 0.75C0 0.95 0.1 1.15 0.2 1.3L0.2 1.3L4.45 5.5L1.75 5.5C1.35 5.5 1 5.85 1 6.25C1 6.65 1.35 7 1.75 7L5.95 7L6.2 7L6.3 7C6.7 7 7.05 6.65 7.05 6.25L7.05 6.15L7.05 5.9L7.05 1.75C7 1.35 6.65 1 6.25 1Z"/>
</svg>