<svg xmlns="http://www.w3.org/2000/svg" viewBox="0 0 15 15">
  <path d="M8.42 0.21L8.79 0.28C11.38 0.74 13.53 2.55 14.43 5C14.65 5.61 14.78 6.23 14.84 6.86C14.98 8.58 14.42 10.24 13.44 11.65L14.11 11.65C14.6 11.65 15 12.05 15 12.53L15 13.21C15 13.7 14.59 14.09 14.11 14.09L9.84 14.09C9.55 14.09 9.3 13.84 9.3 13.54L9.3 9.3C9.3 8.81 9.71 8.41 10.2 8.42L10.88 8.42C11.37 8.42 11.77 8.82 11.77 9.3L11.77 9.53C12.32 8.38 12.58 7.09 12.12 5.84C11.52 4.2 10.08 3 8.36 2.69L7.99 2.63L8.42 0.21ZM0.89 0.91L5.16 0.92C5.45 0.92 5.7 1.17 5.7 1.46L5.69 5.7C5.69 6.19 5.29 6.59 4.8 6.59L4.12 6.59C3.63 6.59 3.24 6.18 3.24 5.7L3.23 5.47C2.68 6.62 2.42 7.9 2.88 9.16C3.48 10.8 4.92 12.01 6.64 12.31L7.01 12.38L6.58 14.79L6.2 14.72C3.62 14.26 1.47 12.45 0.57 9.99C-0.26 7.71 0.27 5.27 1.6 3.36L0.89 3.36C0.4 3.36 0 2.96 0 2.47L0 1.79C0 1.31 0.41 0.91 0.89 0.91Z"/>
</svg>