<svg xmlns="http://www.w3.org/2000/svg" viewBox="0 0 15 15">
  <path d="M5.11 4C5.36 4.28 5.66 4.51 5.99 4.68L6.06 4.71L4.76 6L2 6L2 13L9 13L9 10.25L10.3 8.95L10.31 8.98C10.48 9.32 10.72 9.63 11 9.89L11 13C11 14.1 10.1 15 9 15L2 15C0.9 15 0 14.1 0 13L0 6C0 4.9 0.9 4 2 4ZM6.7 9.72C6.31 10.11 5.68 10.11 5.29 9.72C4.9 9.33 4.9 8.69 5.29 8.3L7.59 6L9.52 4.07L10.59 3L7.35 3C6.84 3 6.42 2.62 6.36 2.13L6.35 2C6.35 1.45 6.8 1 7.35 1L14 1L14 7.66C14 8.21 13.56 8.66 13 8.66C12.45 8.66 12 8.21 12 7.66L12 4.41L6.7 9.72Z"/>
</svg>