<svg xmlns="http://www.w3.org/2000/svg" viewBox="0 0 15 15">
  <path d="M3.02 8.43C2.89 8.5 2.71 8.49 2.65 8.42C2.58 8.36 2.64 8.24 2.78 8.18L5.23 7.04C5.38 6.98 5.61 6.96 5.76 7.01L6.64 7.27L6.83 7.32C6.93 7.34 7.02 7.35 7.07 7.35C7.15 7.35 7.23 7.23 7.23 7.07L7.23 4.4C7.23 4.25 7.1 4.12 6.95 4.12L0.58 4.12C0.43 4.12 0.3 4 0.3 3.85L0.3 2.95C0.3 2.8 0.43 2.64 0.57 2.59L7.27 0.64C7.42 0.59 7.66 0.59 7.81 0.64L14.43 2.59C14.58 2.63 14.7 2.79 14.7 2.95L14.7 3.84C14.7 4 14.57 4.12 14.42 4.12L8.14 4.12C7.98 4.12 7.86 4.25 7.86 4.39L7.86 7.07C7.86 7.22 7.98 7.35 8.14 7.35L8.25 7.35C8.41 7.35 8.62 7.26 8.74 7.16L10.25 5.71C10.36 5.6 10.58 5.52 10.74 5.52L11.44 5.52C11.57 5.52 11.72 5.46 11.81 5.37L11.85 5.31C11.92 5.2 12.09 5.11 12.23 5.11C12.34 5.11 12.39 5.19 12.35 5.3L12.31 5.37C12.22 5.5 12.22 5.71 12.3 5.84L13.06 7.01C13.14 7.14 13.12 7.33 13 7.43L12.94 7.48C12.83 7.58 12.62 7.61 12.49 7.54L11.68 7.11C11.54 7.04 11.36 7.09 11.27 7.22L10.38 8.58C10.3 8.71 10.33 8.89 10.45 8.99L10.85 9.33C10.97 9.43 11.04 9.63 11.01 9.78L10.48 12.08C10.45 12.23 10.29 12.32 10.14 12.28L9.78 12.19C9.63 12.15 9.53 12 9.56 11.85L9.92 10.3C9.95 10.15 9.86 10 9.71 9.95L8.81 9.71C8.66 9.67 8.41 9.64 8.25 9.64L8.14 9.64C7.98 9.64 7.86 9.77 7.86 9.91L7.86 12.67C7.86 12.82 7.98 12.95 8.14 12.95L14.42 12.95C14.57 12.95 14.7 13.07 14.7 13.22L14.7 14.12C14.7 14.27 14.57 14.4 14.42 14.4L0.7 14.4C0.54 14.4 0.42 14.27 0.42 14.12L0.42 13.22C0.42 13.07 0.54 12.95 0.7 12.95L6.94 12.95C7.1 12.95 7.23 12.83 7.23 12.67L7.23 9.92C7.23 9.77 7.1 9.64 6.94 9.64L6.62 9.64C6.46 9.64 6.22 9.68 6.07 9.71L5.16 9.96C5.01 10 4.92 10.15 4.95 10.3L5.31 11.86C5.35 12.01 5.25 12.16 5.1 12.2L4.73 12.29C4.58 12.32 4.43 12.23 4.39 12.08L3.86 9.79C3.83 9.64 3.89 9.44 4.01 9.35C4.12 9.25 4.23 9.05 4.24 8.9L4.28 8.08C4.29 7.93 4.18 7.86 4.04 7.93L3.02 8.43Z"/>
</svg>