<svg xmlns="http://www.w3.org/2000/svg" viewBox="0 0 15 15">
  <path d="M13.5 7C13.5 9.03 12.49 10.82 10.95 11.91L12 14H3L4.05 11.91C2.51 10.82 1.5 9.03 1.5 7C1.5 3.69 4.19 1 7.5 1C10.81 1 13.5 3.69 13.5 7ZM12.3 7.13H8.99C8.97 7.45 8.84 7.74 8.65 7.97L10.98 10.3C11.77 9.47 12.27 8.36 12.3 7.13ZM10.8 10.48L8.47 8.15C8.33 8.26 8.17 8.35 8 8.41V11.77C9.08 11.66 10.06 11.19 10.8 10.48ZM6.01 7.13H2.7C2.73 8.36 3.23 9.47 4.02 10.3L6.35 7.97C6.16 7.74 6.03 7.45 6.01 7.13ZM4.2 10.48C4.94 11.19 5.92 11.66 7 11.77V8.41C6.83 8.35 6.67 8.26 6.53 8.15L4.2 10.48ZM12.3 6.88C12.27 5.64 11.77 4.53 10.98 3.7L8.65 6.03C8.84 6.26 8.97 6.55 8.99 6.88H12.3ZM10.8 3.52C9.97 2.73 8.86 2.23 7.63 2.2V5.51C7.95 5.53 8.24 5.66 8.47 5.85L10.8 3.52ZM7.38 5.51V2.2C6.14 2.23 5.03 2.73 4.2 3.52L6.53 5.85C6.76 5.66 7.05 5.53 7.38 5.51ZM6.35 6.03L4.02 3.7C3.23 4.53 2.73 5.64 2.7 6.88H6.01C6.03 6.55 6.16 6.26 6.35 6.03Z"/>
</svg>