<svg xmlns="http://www.w3.org/2000/svg" viewBox="0 0 15 15">
  <path d="M10.05 3.05L10.05 3.95C10.05 4.2 10.25 4.55 10.5 4.55L13.1 4.55C13.35 4.5 13.5 4.15 13.5 3.9L13.5 3.05L10.05 3.05ZM2 4.5L4.4 4.5C4.65 4.5 4.85 4.15 4.85 3.9L4.85 3.05L1.5 3.05L1.5 3.95C1.5 4.15 1.75 4.5 2 4.5ZM4.85 2.5C4.85 2.25 5.15 1.5 7.5 1.5C9.9 1.5 10 2.25 10 2.5C10 2.55 13.5 2.55 13.5 2.5C13.5 2.05 12.7 0 7.45 0C2.15 0 1.5 2.05 1.5 2.5C1.5 2.55 4.85 2.55 4.85 2.5ZM2 7L1 7C0.7 7 0.5 6.8 0.5 6.5L0.5 6C0.5 5.7 0.7 5.5 1 5.5L2 5.5C2.3 5.5 2.5 5.7 2.5 6L2.5 6.5C2.5 6.8 2.3 7 2 7ZM3.5 9.5L2.5 9.5C2.2 9.5 2 9.3 2 9L2 8.5C2 8.2 2.2 8 2.5 8L3.5 8C3.8 8 4 8.2 4 8.5L4 9C4 9.3 3.8 9.5 3.5 9.5ZM6.5 9.5L5.5 9.5C5.2 9.5 5 9.3 5 9L5 8.5C5 8.2 5.2 8 5.5 8L6.5 8C6.8 8 7 8.2 7 8.5L7 9C7 9.3 6.8 9.5 6.5 9.5ZM9.5 9.5L8.5 9.5C8.2 9.5 8 9.3 8 9L8 8.5C8 8.2 8.2 8 8.5 8L9.5 8C9.8 8 10 8.2 10 8.5L10 9C10 9.3 9.8 9.5 9.5 9.5ZM12.5 9.5L11.5 9.5C11.2 9.5 11 9.3 11 9L11 8.5C11 8.2 11.2 8 11.5 8L12.5 8C12.8 8 13 8.2 13 8.5L13 9C13 9.3 12.8 9.5 12.5 9.5ZM5 7L4 7C3.7 7 3.5 6.8 3.5 6.5L3.5 6C3.5 5.7 3.7 5.5 4 5.5L5 5.5C5.3 5.5 5.5 5.7 5.5 6L5.5 6.5C5.5 6.8 5.3 7 5 7ZM8 7L7 7C6.7 7 6.5 6.8 6.5 6.5L6.5 6C6.5 5.7 6.7 5.5 7 5.5L8 5.5C8.3 5.5 8.5 5.7 8.5 6L8.5 6.5C8.5 6.8 8.3 7 8 7ZM11 7L10 7C9.7 7 9.5 6.8 9.5 6.5L9.5 6C9.5 5.7 9.7 5.5 10 5.5L11 5.5C11.3 5.5 11.5 5.7 11.5 6L11.5 6.5C11.5 6.8 11.3 7 11 7ZM14 7L13 7C12.7 7 12.5 6.8 12.5 6.5L12.5 6C12.5 5.7 12.7 5.5 13 5.5L14 5.5C14.3 5.5 14.5 5.7 14.5 6L14.5 6.5C14.5 6.8 14.3 7 14 7ZM2 12L1 12C0.7 12 0.5 11.8 0.5 11.5L0.5 11C0.5 10.7 0.7 10.5 1 10.5L2 10.5C2.3 10.5 2.5 10.7 2.5 11L2.5 11.5C2.5 11.8 2.3 12 2 12ZM5 12L4 12C3.7 12 3.5 11.8 3.5 11.5L3.5 11C3.5 10.7 3.7 10.5 4 10.5L5 10.5C5.3 10.5 5.5 10.7 5.5 11L5.5 11.5C5.5 11.8 5.3 12 5 12ZM8 12L7 12C6.7 12 6.5 11.8 6.5 11.5L6.5 11C6.5 10.7 6.7 10.5 7 10.5L8 10.5C8.3 10.5 8.5 10.7 8.5 11L8.5 11.5C8.5 11.8 8.3 12 8 12ZM11 12L10 12C9.7 12 9.5 11.8 9.5 11.5L9.5 11C9.5 10.7 9.7 10.5 10 10.5L11 10.5C11.3 10.5 11.5 10.7 11.5 11L11.5 11.5C11.5 11.8 11.3 12 11 12ZM14 12L13 12C12.7 12 12.5 11.8 12.5 11.5L12.5 11C12.5 10.7 12.7 10.5 13 10.5L14 10.5C14.3 10.5 14.5 10.7 14.5 11L14.5 11.5C14.5 11.8 14.3 12 14 12ZM2.5 13.5H12.5V15H2.5V13.5z"/>
</svg>