<svg xmlns="http://www.w3.org/2000/svg" viewBox="0 0 15 15">
  <path d="M3.21 0C2.46 0.11 0.11 1.29 0 7.29C0 13.71 2.46 15 3.21 15L3.21 10.71C2.68 10.71 2.46 10.18 2.36 8.89C2.25 8.04 2.25 7.29 2.36 6.21C2.36 5.36 2.57 4.29 3.21 4.29L3.21 0ZM4.29 10.71L5.36 10.71L6.43 11.79L6.43 13.93L5.36 15L4.29 15zM4.29 0L5.36 0L6.43 1.07L6.43 3.21L5.36 4.29L4.29 4.29zM10.71 13.07C10.71 12.43 11.25 11.89 11.89 11.89C12.54 11.89 13.07 12.43 13.07 13.07C13.07 13.71 12.64 14.25 11.89 14.25C11.14 14.25 10.71 13.71 10.71 13.07ZM11.25 10.29L10.93 1.07L12.75 1.07L12.43 10.29L11.25 10.29Z"/>
</svg>