<svg xmlns="http://www.w3.org/2000/svg" viewBox="0 0 15 15">
  <path d="M4.5 11.1C5.27 11.1 5.9 11.73 5.9 12.5C5.9 13.27 5.27 13.9 4.5 13.9C3.73 13.9 3.1 13.27 3.1 12.5C3.1 11.73 3.73 11.1 4.5 11.1ZM11.5 11.1C12.27 11.1 12.9 11.73 12.9 12.5C12.9 13.27 12.27 13.9 11.5 13.9C10.73 13.9 10.1 13.27 10.1 12.5C10.1 11.73 10.73 11.1 11.5 11.1ZM10.73 6C10.9 6 11.06 6.09 11.15 6.23L12.63 8.5L14.08 9.11C14.64 9.35 15 9.89 15 10.5L15 12C15 12.28 14.78 12.5 14.5 12.5L13.7 12.5C13.7 11.28 12.71 10.3 11.5 10.3C10.28 10.3 9.3 11.28 9.3 12.5L9.3 12.5L6.7 12.5C6.7 11.34 5.8 10.39 4.66 10.31L4.5 10.3C3.28 10.3 2.3 11.28 2.3 12.5L2.3 12.5L1.75 12.5C1.34 12.5 1 12.16 1 11.75L1 11.28C1 11.11 1.1 10.95 1.25 10.88C1.39 10.8 1.47 10.64 1.42 10.48L1.12 9.41C1.04 9.15 1.08 8.87 1.21 8.63L2.46 6.5C2.64 6.19 2.97 6 3.32 6L10.73 6ZM5 7L3.56 7C3.37 7 3.2 7.11 3.11 7.28L2.25 9L5 9L5 7ZM8 7L6 7L6 9L8 9L8 7ZM10.25 7L9 7L9 9L11.5 9L10.25 7ZM1.25 0.62C1.26 2.24 2.69 2.92 4.78 2.93L10.22 2.93C12.31 2.93 13.35 2.12 13.36 0.5L13.51 0.55C14.32 0.83 14.91 1.65 14.99 2.64C15.1 3.95 14.26 5.13 13.12 5.25L12.46 5.32C12.13 5.35 11.87 5.36 11.69 5.37L3.57 5.35L3.06 5.35L2.73 5.33L2.34 5.28L1.88 5.24C0.74 5.11 -0.1 3.94 0.01 2.61C0.06 1.95 0.48 1.29 1.25 0.62Z"/>
</svg>