<svg xmlns="http://www.w3.org/2000/svg" viewBox="0 0 15 15">
  <path d="M3.5 11.1C4.27 11.1 4.9 11.73 4.9 12.5C4.9 13.27 4.27 13.9 3.5 13.9C2.73 13.9 2.1 13.27 2.1 12.5C2.1 11.73 2.73 11.1 3.5 11.1ZM11.5 11.1C12.27 11.1 12.9 11.73 12.9 12.5C12.9 13.27 12.27 13.9 11.5 13.9C10.73 13.9 10.1 13.27 10.1 12.5C10.1 11.73 10.73 11.1 11.5 11.1ZM9.73 6C9.9 6 10.06 6.09 10.15 6.23L11.63 8.5L13.93 9.18C14.56 9.37 15 9.96 15 10.62L15 12C15 12.28 14.78 12.5 14.5 12.5L13.7 12.5C13.7 11.28 12.72 10.3 11.5 10.3C10.28 10.3 9.3 11.28 9.3 12.5L5.7 12.5C5.7 11.28 4.72 10.3 3.5 10.3C2.28 10.3 1.3 11.28 1.3 12.5L0 12.5L0 10C0 9.45 0.45 9 1 9L2 9L3.85 6.22C3.94 6.08 4.1 6 4.27 6L9.73 6ZM6 7L4.75 7L3.5 9L6 9L6 7ZM9.25 7L7 7L7 9L10.5 9L9.25 7ZM1.25 0.62C1.26 2.24 2.69 2.92 4.78 2.93L10.22 2.93C12.31 2.93 13.35 2.12 13.36 0.5L13.51 0.55C14.32 0.83 14.91 1.65 14.99 2.64C15.1 3.95 14.26 5.13 13.12 5.25L12.46 5.32C12.13 5.35 11.87 5.36 11.69 5.37L3.57 5.35L3.06 5.35L2.73 5.33L2.34 5.28L1.88 5.24C0.74 5.11 -0.1 3.94 0.01 2.61C0.06 1.95 0.48 1.29 1.25 0.62Z"/>
</svg>