<svg xmlns="http://www.w3.org/2000/svg" viewBox="0 0 15 15">
  <path d="M4.62 2L10.38 2C10.76 2 11.11 2.21 11.28 2.55L13 6C13.55 6 14 6.45 14 7L14 11.5L13 11.5L13 12.5C13 13.05 12.55 13.5 12 13.5L11 13.5C10.45 13.5 10 13.05 10 12.5L10 11.5L5 11.5L5 12.5C5 13.05 4.55 13.5 4 13.5L3 13.5C2.45 13.5 2 13.05 2 12.5L2 11.5L1 11.5L1 7C1 6.45 1.45 6 2 6L3.72 2.55C3.89 2.21 4.24 2 4.62 2ZM4.25 7.5C3.56 7.5 3 8.06 3 8.75C3 9.44 3.56 10 4.25 10C4.94 10 5.5 9.44 5.5 8.75C5.5 8.06 4.94 7.5 4.25 7.5ZM10.75 7.5C10.06 7.5 9.5 8.06 9.5 8.75C9.5 9.44 10.06 10 10.75 10C11.44 10 12 9.44 12 8.75C12 8.06 11.44 7.5 10.75 7.5ZM10.25 3.5L4.75 3.5L3.5 6L11.5 6L10.25 3.5Z"/>
</svg>