<svg xmlns="http://www.w3.org/2000/svg" viewBox="0 0 15 15">
  <path d="M9.64 5C9.85 5 10.04 5.14 10.11 5.34L11 8C11.55 8 12 8.45 12 9L12 12L11 12L11 13C11 13.55 10.55 14 10 14C9.45 14 9 13.55 9 13L9 12L6 12L6 13C6 13.55 5.55 14 5 14C4.45 14 4 13.55 4 13L4 12L3 12L3 9C3 8.45 3.45 8 4 8L4.89 5.34C4.96 5.14 5.15 5 5.36 5L9.64 5ZM5 9C4.45 9 4 9.45 4 10C4 10.55 4.45 11 5 11C5.55 11 6 10.55 6 10C6 9.45 5.55 9 5 9ZM10 9C9.45 9 9 9.45 9 10C9 10.55 9.45 11 10 11C10.55 11 11 10.55 11 10C11 9.45 10.55 9 10 9ZM9.38 6L5.62 6L5 8L10 8L9.38 6ZM11.3 0.3L13.9 1.8L11 4.8L10.1 4.3L11.3 0.3ZM3.7 0.3L4.8 4.3L4 4.7L1.1 1.8L3.7 0.3ZM9 0L8 4L7 4L6 0L9 0Z"/>
</svg>