<svg xmlns="http://www.w3.org/2000/svg" viewBox="0 0 15 15">
  <path d="M7.64 5C7.85 5 8.04 5.14 8.11 5.34L9 8C9.55 8 10 8.45 10 9L10 12L9 12L9 13C9 13.55 8.55 14 8 14C7.45 14 7 13.55 7 13L7 12L4 12L4 13C4 13.55 3.55 14 3 14C2.45 14 2 13.55 2 13L2 12L1 12L1 9C1 8.45 1.45 8 2 8L2.89 5.34C2.96 5.14 3.15 5 3.36 5L7.64 5ZM3 9C2.45 9 2 9.45 2 10C2 10.55 2.45 11 3 11C3.55 11 4 10.55 4 10C4 9.45 3.55 9 3 9ZM8 9C7.45 9 7 9.45 7 10C7 10.55 7.45 11 8 11C8.55 11 9 10.55 9 10C9 9.45 8.55 9 8 9ZM7.38 6L3.62 6L3 8L8 8L7.38 6ZM12 1L12 2L12.5 2C13.28 2 13.92 2.59 13.99 3.36L14 3.5L13 3.5C13 3.22 12.78 3 12.5 3L12 3L12 4L12.5 4C13.33 4 14 4.67 14 5.5C14 6.33 13.33 7 12.5 7L12 7L12 8L11 8L11 7L10.5 7C9.72 7 9.08 6.41 9.01 5.64L9 5.5L10 5.5C10 5.78 10.22 6 10.5 6L11 6L11 5L10.5 5C9.67 5 9 4.33 9 3.5C9 2.67 9.67 2 10.5 2L11 2L11 1L12 1ZM12.5 5L12 5L12 6L12.5 6C12.78 6 13 5.78 13 5.5C13 5.22 12.78 5 12.5 5ZM11 3L10.5 3C10.22 3 10 3.22 10 3.5C10 3.78 10.22 4 10.5 4L11 4L11 3Z"/>
</svg>