<svg xmlns="http://www.w3.org/2000/svg" viewBox="0 0 15 15">
  <path d="M9.64 6C9.85 6 10.04 6.14 10.11 6.34L11 9C11.55 9 12 9.45 12 10L12 13L11 13L11 14C11 14.55 10.55 15 10 15C9.45 15 9 14.55 9 14L9 13L6 13L6 14C6 14.55 5.55 15 5 15C4.45 15 4 14.55 4 14L4 13L3 13L3 10C3 9.45 3.45 9 4 9L4.89 6.34C4.96 6.14 5.15 6 5.36 6L9.64 6ZM5 10C4.45 10 4 10.45 4 11C4 11.55 4.45 12 5 12C5.55 12 6 11.55 6 11C6 10.45 5.55 10 5 10ZM10 10C9.45 10 9 10.45 9 11C9 11.55 9.45 12 10 12C10.55 12 11 11.55 11 11C11 10.45 10.55 10 10 10ZM9.38 7L5.62 7L5 9L10 9L9.38 7ZM11.5 1L10 1C9.26 1 8.62 1.4 8.28 2L3.5 2L2.5 3L3.5 4L4.5 3L5.5 4L6.5 3L7.5 4L8.28 4C8.62 4.6 9.26 5 10 5L11.5 5C11.78 5 12 4.78 12 4.5L12 1.5C12 1.22 11.78 1 11.5 1ZM11 3.5C11 3.78 10.78 4 10.5 4C10.22 4 10 3.78 10 3.5L10 2.5C10 2.22 10.22 2 10.5 2C10.78 2 11 2.22 11 2.5L11 3.5Z"/>
</svg>