<svg xmlns="http://www.w3.org/2000/svg" viewBox="0 0 15 15">
  <path d="M5 2L3.25 5L1.75 5L4 2L5 2ZM10 2L11.75 5L13.25 5L11 2L10 2ZM7 2L8 2L8.25 5L6.75 5L7 2ZM6 0L4 1.5L11 1.5L9 0L6 0ZM9.64 6C9.85 6 10.04 6.14 10.11 6.34L11 9C11.55 9 12 9.45 12 10L12 13L11 13L11 14C11 14.55 10.55 15 10 15C9.45 15 9 14.55 9 14L9 13L6 13L6 14C6 14.55 5.55 15 5 15C4.45 15 4 14.55 4 14L4 13L3 13L3 10C3 9.45 3.45 9 4 9L4.89 6.34C4.96 6.14 5.15 6 5.36 6L9.64 6ZM5 10C4.45 10 4 10.45 4 11C4 11.55 4.45 12 5 12C5.55 12 6 11.55 6 11C6 10.45 5.55 10 5 10ZM10 10C9.45 10 9 10.45 9 11C9 11.55 9.45 12 10 12C10.55 12 11 11.55 11 11C11 10.45 10.55 10 10 10ZM9.38 7L5.62 7L5 9L10 9L9.38 7Z"/>
</svg>