<svg xmlns="http://www.w3.org/2000/svg" viewBox="0 0 15 15">
  <path d="M9.64 6C9.85 6 10.04 6.14 10.11 6.34L11 9C11.55 9 12 9.45 12 10L12 13L11 13L11 14C11 14.55 10.55 15 10 15C9.45 15 9 14.55 9 14L9 13L6 13L6 14C6 14.55 5.55 15 5 15C4.45 15 4 14.55 4 14L4 13L3 13L3 10C3 9.45 3.45 9 4 9L4.89 6.34C4.96 6.14 5.15 6 5.36 6L9.64 6ZM5 10C4.45 10 4 10.45 4 11C4 11.55 4.45 12 5 12C5.55 12 6 11.55 6 11C6 10.45 5.55 10 5 10ZM10 10C9.45 10 9 10.45 9 11C9 11.55 9.45 12 10 12C10.55 12 11 11.55 11 11C11 10.45 10.55 10 10 10ZM9.38 7L5.62 7L5 9L10 9L9.38 7ZM12 2L5.79 2C5.4 1.12 4.52 0.5 3.5 0.5C2.48 0.5 1.6 1.12 1.21 2L3.5 2L4 3L3.5 4L1.21 4C1.6 4.88 2.48 5.5 3.5 5.5C4.52 5.5 5.4 4.88 5.79 4L12 4C12.55 4 13 3.55 13 3C13 2.45 12.55 2 12 2Z"/>
</svg>