<svg xmlns="http://www.w3.org/2000/svg" viewBox="0 0 15 15">
  <path d="M7.64 5C7.85 5 8.04 5.14 8.11 5.34L9 8C9.55 8 10 8.45 10 9L10 12L9 12L9 13C9 13.55 8.55 14 8 14C7.45 14 7 13.55 7 13L7 12L4 12L4 13C4 13.55 3.55 14 3 14C2.45 14 2 13.55 2 13L2 12L1 12L1 9C1 8.45 1.45 8 2 8L2.89 5.34C2.96 5.14 3.15 5 3.36 5L7.64 5ZM3 9C2.45 9 2 9.45 2 10C2 10.55 2.45 11 3 11C3.55 11 4 10.55 4 10C4 9.45 3.55 9 3 9ZM8 9C7.45 9 7 9.45 7 10C7 10.55 7.45 11 8 11C8.55 11 9 10.55 9 10C9 9.45 8.55 9 8 9ZM7.38 6L3.62 6L3 8L8 8L7.38 6ZM10.53 1C10.66 1 10.79 1.05 10.88 1.15L14.85 5.12C15.05 5.32 15.05 5.63 14.85 5.82L12.82 7.85C12.63 8.05 12.32 8.05 12.12 7.85L8.15 3.88C8.05 3.79 8 3.66 8 3.53L8 1.5C8 1.22 8.22 1 8.5 1L10.53 1ZM9.49 1.74C9.08 1.74 8.74 2.08 8.74 2.49C8.74 2.9 9.08 3.23 9.49 3.23C9.9 3.23 10.23 2.9 10.23 2.49C10.23 2.08 9.9 1.74 9.49 1.74Z"/>
</svg>