<svg xmlns="http://www.w3.org/2000/svg" viewBox="0 0 15 15">
  <path d="M10 1C10.55 1 11 1.45 11 2L13 2C13.55 2 14 2.45 14 3L14 5C14.55 5 15 5.45 15 6L15 11C15 11.55 14.55 12 14 12L14 14L13 14L13 12C12.82 12 12.65 11.95 12.5 11.87L12.5 9L12.49 8.86C12.46 8.47 12.27 8.13 12 7.88L12 6C12 5.45 12.45 5 13 5L13 3L11 3C11 3.55 10.55 4 10 4L5 4C4.45 4 4 3.55 4 3L2 3L2 5C2.55 5 3 5.45 3 6L3 7.88C2.69 8.16 2.5 8.56 2.5 9L2.5 11.86C2.35 11.95 2.18 12 2 12L2 14L1 14L1 12C0.45 12 0 11.55 0 11L0 6C0 5.45 0.45 5 1 5L1 3C1 2.45 1.45 2 2 2L4 2C4 1.45 4.45 1 5 1L10 1ZM9.64 5C9.85 5 10.04 5.14 10.11 5.34L11 8C11.55 8 12 8.45 12 9L12 12L11 12L11 13C11 13.55 10.55 14 10 14C9.45 14 9 13.55 9 13L9 12L6 12L6 13C6 13.55 5.55 14 5 14C4.45 14 4 13.55 4 13L4 12L3 12L3 9C3 8.45 3.45 8 4 8L4.89 5.34C4.96 5.14 5.15 5 5.36 5L9.64 5ZM5 9C4.45 9 4 9.45 4 10C4 10.55 4.45 11 5 11C5.55 11 6 10.55 6 10C6 9.45 5.55 9 5 9ZM10 9C9.45 9 9 9.45 9 10C9 10.55 9.45 11 10 11C10.55 11 11 10.55 11 10C11 9.45 10.55 9 10 9ZM9.38 6L5.62 6L5 8L10 8L9.38 6Z"/>
</svg>