<svg xmlns="http://www.w3.org/2000/svg" viewBox="0 0 15 15">
  <path d="M14.5 8L14.5 6L14 5.5L10.5 5.5L9.5 3.5L8.5 3.5L9.5 5.5L9.5 6L8.5 7L6 7L5 5.5L0 5.5L0 9.5L0.5 9.5L1 9.5L1 9L1 8.5L2 7.5L4.5 7.5L5.5 8.5L5.5 9L5.5 9.5L6 9.5L9 9.5L9.5 9.5L9.5 9L9.5 8.5L10.5 7.5L13 7.5L14 8.5L14 9L14 9.5L14.5 9.5L15 9.5L15 8zM3.25 8C2.3 8 1.5 8.8 1.5 9.75C1.5 10.7 2.3 11.5 3.25 11.5C4.2 11.5 5 10.7 5 9.75C5 8.8 4.2 8 3.25 8ZM3.25 10.5C2.85 10.5 2.5 10.15 2.5 9.75C2.5 9.35 2.85 9 3.25 9C3.65 9 4 9.35 4 9.75C4 10.15 3.65 10.5 3.25 10.5ZM11.75 8C10.8 8 10 8.8 10 9.75C10 10.7 10.8 11.5 11.75 11.5C12.7 11.5 13.5 10.7 13.5 9.75C13.5 8.8 12.7 8 11.75 8ZM11.75 10.5C11.35 10.5 11 10.15 11 9.75C11 9.35 11.35 9 11.75 9C12.15 9 12.5 9.35 12.5 9.75C12.5 10.15 12.15 10.5 11.75 10.5Z"/>
</svg>