<svg xmlns="http://www.w3.org/2000/svg" viewBox="0 0 15 15">
  <path d="M3.5 11.1C4.27 11.1 4.9 11.73 4.9 12.5C4.9 13.27 4.27 13.9 3.5 13.9C2.73 13.9 2.1 13.27 2.1 12.5C2.1 11.73 2.73 11.1 3.5 11.1ZM11.5 11.1C12.27 11.1 12.9 11.73 12.9 12.5C12.9 13.27 12.27 13.9 11.5 13.9C10.73 13.9 10.1 13.27 10.1 12.5C10.1 11.73 10.73 11.1 11.5 11.1ZM9.73 6C9.9 6 10.06 6.09 10.15 6.23L11.63 8.5L13.93 9.18C14.56 9.37 15 9.96 15 10.62L15 12C15 12.28 14.78 12.5 14.5 12.5L13.7 12.5C13.7 11.28 12.72 10.3 11.5 10.3C10.28 10.3 9.3 11.28 9.3 12.5L5.7 12.5C5.7 11.28 4.72 10.3 3.5 10.3C2.28 10.3 1.3 11.28 1.3 12.5L0 12.5L0 10C0 9.45 0.45 9 1 9L2 9L3.85 6.22C3.94 6.08 4.1 6 4.27 6L9.73 6ZM6 7L4.75 7L3.5 9L6 9L6 7ZM9.25 7L7 7L7 9L10.5 9L9.25 7ZM10.53 0C10.66 0 10.79 0.05 10.88 0.15L14.85 4.12C15.05 4.32 15.05 4.63 14.85 4.82L12.82 6.85C12.63 7.05 12.32 7.05 12.12 6.85L8.15 2.88C8.05 2.79 8 2.66 8 2.53L8 0.5C8 0.22 8.22 0 8.5 0L10.53 0ZM9.49 0.74C9.08 0.74 8.74 1.08 8.74 1.49C8.74 1.9 9.08 2.23 9.49 2.23C9.9 2.23 10.23 1.9 10.23 1.49C10.23 1.08 9.9 0.74 9.49 0.74Z"/>
</svg>