<svg xmlns="http://www.w3.org/2000/svg" viewBox="0 0 15 15">
  <path d="M3.5 9.1C4.27 9.1 4.9 9.73 4.9 10.5C4.9 11.27 4.27 11.9 3.5 11.9C2.73 11.9 2.1 11.27 2.1 10.5C2.1 9.73 2.73 9.1 3.5 9.1ZM11.5 9.1C12.27 9.1 12.9 9.73 12.9 10.5C12.9 11.27 12.27 11.9 11.5 11.9C10.73 11.9 10.1 11.27 10.1 10.5C10.1 9.73 10.73 9.1 11.5 9.1ZM9.73 4C9.9 4 10.06 4.09 10.15 4.23L11.63 6.5L13.93 7.18C14.56 7.37 15 7.96 15 8.62L15 10C15 10.28 14.78 10.5 14.5 10.5L13.7 10.5C13.7 9.28 12.72 8.3 11.5 8.3C10.28 8.3 9.3 9.28 9.3 10.5L5.7 10.5C5.7 9.28 4.72 8.3 3.5 8.3C2.28 8.3 1.3 9.28 1.3 10.5L0 10.5L0 8C0 7.45 0.45 7 1 7L2 7L3.85 4.22C3.94 4.08 4.1 4 4.27 4L9.73 4ZM6 5L4.75 5L3.5 7L6 7L6 5ZM9.25 5L7 5L7 7L10.5 7L9.25 5Z"/>
</svg>