<svg xmlns="http://www.w3.org/2000/svg" viewBox="0 0 15 15">
  <path d="M3.5 11.1C4.27 11.1 4.9 11.73 4.9 12.5C4.9 13.27 4.27 13.9 3.5 13.9C2.73 13.9 2.1 13.27 2.1 12.5C2.1 11.73 2.73 11.1 3.5 11.1ZM11.5 11.1C12.27 11.1 12.9 11.73 12.9 12.5C12.9 13.27 12.27 13.9 11.5 13.9C10.73 13.9 10.1 13.27 10.1 12.5C10.1 11.73 10.73 11.1 11.5 11.1ZM9.73 6C9.9 6 10.06 6.09 10.15 6.23L11.63 8.5L13.93 9.18C14.56 9.37 15 9.96 15 10.62L15 12C15 12.28 14.78 12.5 14.5 12.5L13.7 12.5C13.7 11.28 12.71 10.3 11.5 10.3C10.33 10.3 9.39 11.2 9.31 12.34L9.3 12.5L5.7 12.5C5.7 11.34 4.8 10.39 3.66 10.31L3.5 10.3C2.33 10.3 1.39 11.2 1.31 12.34L1.3 12.5L0.75 12.5C0.34 12.5 0 12.16 0 11.75L0 11.28C0 11.11 0.1 10.95 0.25 10.88C0.39 10.8 0.47 10.64 0.42 10.48L0.12 9.41C0.04 9.15 0.08 8.87 0.21 8.63L1.46 6.5C1.64 6.19 1.97 6 2.32 6L9.73 6ZM4 7L2.56 7C2.37 7 2.2 7.11 2.11 7.28L1.25 9L4 9L4 7ZM7 7L5 7L5 9L7 9L7 7ZM9.25 7L8 7L8 9L10.5 9L9.25 7ZM10.53 0C10.66 0 10.79 0.05 10.88 0.15L14.85 4.12C15.05 4.32 15.05 4.63 14.85 4.82L12.82 6.85C12.63 7.05 12.32 7.05 12.12 6.85L8.15 2.88C8.05 2.79 8 2.66 8 2.53L8 0.5C8 0.22 8.22 0 8.5 0L10.53 0ZM9.49 0.74C9.08 0.74 8.74 1.08 8.74 1.49C8.74 1.9 9.08 2.23 9.49 2.23C9.9 2.23 10.23 1.9 10.23 1.49C10.23 1.08 9.9 0.74 9.49 0.74Z"/>
</svg>