<svg xmlns="http://www.w3.org/2000/svg" viewBox="0 0 15 15">
  <path d="M3.5 9.1C4.27 9.1 4.9 9.73 4.9 10.5C4.9 11.27 4.27 11.9 3.5 11.9C2.73 11.9 2.1 11.27 2.1 10.5C2.1 9.73 2.73 9.1 3.5 9.1ZM11.5 9.1C12.27 9.1 12.9 9.73 12.9 10.5C12.9 11.27 12.27 11.9 11.5 11.9C10.73 11.9 10.1 11.27 10.1 10.5C10.1 9.73 10.73 9.1 11.5 9.1ZM9.73 4C9.9 4 10.06 4.09 10.15 4.23L11.63 6.5L13.93 7.18C14.56 7.37 15 7.96 15 8.62L15 10C15 10.28 14.78 10.5 14.5 10.5L13.7 10.5C13.7 9.28 12.71 8.3 11.5 8.3C10.28 8.3 9.3 9.28 9.3 10.5L9.3 10.5L5.7 10.5C5.7 9.34 4.8 8.39 3.66 8.31L3.5 8.3C2.28 8.3 1.3 9.28 1.3 10.5L1.3 10.5L0.75 10.5C0.34 10.5 0 10.16 0 9.75L0 9.28C0 9.11 0.1 8.95 0.25 8.88C0.39 8.8 0.47 8.64 0.42 8.48L0.12 7.41C0.04 7.15 0.08 6.87 0.21 6.63L1.46 4.5C1.64 4.19 1.97 4 2.32 4L9.73 4ZM4 5L2.56 5C2.37 5 2.2 5.11 2.11 5.28L1.25 7L4 7L4 5ZM7 5L5 5L5 7L7 7L7 5ZM9.25 5L8 5L8 7L10.5 7L9.25 5Z"/>
</svg>