<svg xmlns="http://www.w3.org/2000/svg" viewBox="0 0 15 15">
  <path d="M8.59 0.5C8.83 0.5 9.03 0.67 9.08 0.9L9.5 3L10.38 3C10.76 3 11.11 3.21 11.28 3.55L13 7C13.55 7 14 7.45 14 8L14 12.5L13 12.5L13 13.5C13 14.05 12.55 14.5 12 14.5L11 14.5C10.45 14.5 10 14.05 10 13.5L10 12.5L5 12.5L5 13.5C5 14.05 4.55 14.5 4 14.5L3 14.5C2.45 14.5 2 14.05 2 13.5L2 12.5L1 12.5L1 8C1 7.45 1.45 7 2 7L3.72 3.55C3.89 3.21 4.24 3 4.62 3L5.5 3L5.92 0.9C5.97 0.67 6.17 0.5 6.41 0.5L8.59 0.5ZM4.25 8.5C3.56 8.5 3 9.06 3 9.75C3 10.44 3.56 11 4.25 11C4.94 11 5.5 10.44 5.5 9.75C5.5 9.06 4.94 8.5 4.25 8.5ZM10.75 8.5C10.06 8.5 9.5 9.06 9.5 9.75C9.5 10.44 10.06 11 10.75 11C11.44 11 12 10.44 12 9.75C12 9.06 11.44 8.5 10.75 8.5ZM10.25 4.5L4.75 4.5L3.5 7L11.5 7L10.25 4.5Z"/>
</svg>