<svg xmlns="http://www.w3.org/2000/svg" viewBox="0 0 15 15">
  <path d="M4 3L2 3L0.5 11L2 11L2 15L4 15L4 11L5.5 11L4 3ZM14 3.5L13 3L11 3L10 3.5L10 9.5L11 9.5L11 15L13 15L13 9.5L14 9.5L14 3.5ZM12.25 2.5L11.75 2.5C11.13 2.5 10.75 2.13 10.75 1.5L10.75 1C10.75 0.38 11.13 0 11.75 0L12.38 0C12.88 0 13.25 0.38 13.25 1L13.25 1.63C13.25 2.13 12.88 2.5 12.25 2.5ZM3.25 2.5L2.75 2.5C2.13 2.5 1.75 2.13 1.75 1.5L1.75 1C1.75 0.38 2.13 0 2.75 0L3.38 0C3.88 0 4.25 0.38 4.25 1L4.25 1.63C4.25 2.13 3.88 2.5 3.25 2.5ZM7.73 7.31L7.27 7.31C6.68 7.31 6.33 6.96 6.33 6.38L6.33 5.92C6.33 5.35 6.68 5 7.27 5L7.85 5C8.32 5 8.67 5.35 8.67 5.92L8.67 6.5C8.67 6.96 8.32 7.31 7.73 7.31ZM9 8.75L8 7.75L7 7.75L6 8.75L6 12.5L7 15L8 15L9 12.5L9 8.75Z"/>
</svg>