<svg xmlns="http://www.w3.org/2000/svg" viewBox="0 0 15 15">
  <path d="M5.67 3.46L3.33 3.46L1 11.54L3.33 11.54L3.33 15L5.67 15L5.67 11.54L8 11.54L5.67 3.46ZM4.73 2.31L4.27 2.31C3.68 2.31 3.33 1.96 3.33 1.38L3.33 0.92C3.33 0.35 3.68 0 4.27 0L4.85 0C5.32 0 5.67 0.35 5.67 0.92L5.67 1.5C5.67 1.96 5.32 2.31 4.73 2.31ZM12.83 3.53L8.21 3.53L8.21 9.3L9.36 9.3L9.36 15.07L11.67 15.07L11.67 9.3L12.83 9.3L12.83 3.53ZM10.73 2.31L10.27 2.31C9.68 2.31 9.33 1.96 9.33 1.38L9.33 0.92C9.33 0.35 9.68 0 10.27 0L10.85 0C11.32 0 11.67 0.35 11.67 0.92L11.67 1.5C11.67 1.96 11.32 2.31 10.73 2.31Z"/>
</svg>